<svg width="307" height="403" viewBox="0 0 307 403" fill="none" xmlns="http://www.w3.org/2000/svg">
<rect x="0.783203" width="305.855" height="403" fill="#B8B8B8"/>
<path d="M114.145 179.902L114.677 178.015C116.258 177.918 117.419 177.757 118.161 177.531C118.935 177.273 119.484 176.87 119.806 176.322C120.161 175.741 120.484 174.918 120.774 173.854L126.967 151.693C127.29 150.531 127.403 149.677 127.306 149.128C127.242 148.548 126.887 148.144 126.242 147.918C125.597 147.693 124.58 147.564 123.193 147.531L123.726 145.644C124.5 145.677 125.548 145.709 126.871 145.741C128.193 145.773 129.677 145.789 131.322 145.789C133.097 145.789 134.726 145.773 136.209 145.741C137.693 145.709 138.903 145.677 139.838 145.644L139.306 147.531C137.661 147.596 136.403 147.741 135.532 147.967C134.693 148.193 134.064 148.596 133.645 149.177C133.258 149.725 132.903 150.564 132.58 151.693L126.387 173.854C126.097 174.983 126 175.838 126.097 176.418C126.193 176.999 126.613 177.402 127.355 177.628C128.097 177.822 129.258 177.951 130.838 178.015L130.306 179.902C129.403 179.838 128.226 179.806 126.774 179.806C125.355 179.773 123.758 179.757 121.984 179.757C120.306 179.757 118.79 179.773 117.435 179.806C116.08 179.806 114.984 179.838 114.145 179.902ZM91.9836 179.902L92.5159 178.015C94.2256 177.918 95.4997 177.773 96.3385 177.58C97.1772 177.354 97.7901 176.967 98.1772 176.418C98.5965 175.838 98.9675 174.983 99.2901 173.854L105.435 151.693C105.758 150.531 105.871 149.677 105.774 149.128C105.677 148.58 105.258 148.193 104.516 147.967C103.806 147.709 102.645 147.564 101.032 147.531L101.564 145.644C102.435 145.677 103.58 145.709 105 145.741C106.419 145.773 108.032 145.789 109.838 145.789C111.484 145.789 112.984 145.773 114.338 145.741C115.693 145.709 116.822 145.677 117.726 145.644L117.193 147.531C115.613 147.596 114.435 147.757 113.661 148.015C112.919 148.273 112.371 148.677 112.016 149.225C111.693 149.773 111.387 150.596 111.097 151.693L104.903 173.854C104.58 174.983 104.451 175.838 104.516 176.418C104.613 176.999 104.984 177.402 105.629 177.628C106.274 177.822 107.29 177.951 108.677 178.015L108.145 179.902C107.338 179.838 106.258 179.806 104.903 179.806C103.58 179.773 102.113 179.757 100.5 179.757C98.661 179.757 97.0159 179.773 95.5643 179.806C94.1127 179.806 92.9191 179.838 91.9836 179.902ZM106.258 163.596L106.79 161.757H125.419L124.838 163.596H106.258ZM146.291 180.58C143.678 180.58 141.646 179.773 140.194 178.16C138.743 176.515 138.017 174.225 138.017 171.289C138.017 169.031 138.42 166.886 139.226 164.854C140.033 162.822 141.114 161.015 142.468 159.435C143.855 157.822 145.436 156.564 147.21 155.66C149.017 154.757 150.904 154.306 152.872 154.306C154.71 154.306 156.114 154.709 157.081 155.515C158.081 156.322 158.581 157.483 158.581 158.999C158.581 160.741 157.92 162.402 156.597 163.983C155.307 165.531 153.468 166.918 151.081 168.144C148.726 169.338 145.936 170.289 142.71 170.999L142.759 169.451C145.146 168.741 147.178 167.854 148.855 166.789C150.533 165.725 151.807 164.531 152.678 163.209C153.549 161.886 153.985 160.483 153.985 158.999C153.985 158.031 153.807 157.306 153.452 156.822C153.097 156.338 152.581 156.096 151.904 156.096C150.904 156.096 149.888 156.548 148.855 157.451C147.855 158.322 146.936 159.483 146.097 160.935C145.291 162.354 144.63 163.935 144.114 165.677C143.63 167.386 143.388 169.096 143.388 170.806C143.388 173.064 143.807 174.806 144.646 176.031C145.517 177.225 146.743 177.822 148.323 177.822C149.646 177.822 150.839 177.435 151.904 176.66C152.968 175.886 153.936 174.709 154.807 173.128H156.597C155.436 175.58 153.985 177.435 152.243 178.693C150.501 179.951 148.517 180.58 146.291 180.58ZM165.076 179.902L170.254 161.467C170.641 160.112 170.706 159.064 170.447 158.322C170.189 157.548 169.625 157.16 168.754 157.16C168.044 157.16 167.367 157.435 166.722 157.983C166.109 158.531 165.512 159.338 164.931 160.402L164.012 162.144H162.125L163.238 160.064C163.851 158.902 164.512 157.886 165.222 157.015C165.964 156.144 166.786 155.483 167.689 155.031C168.625 154.548 169.641 154.306 170.738 154.306C172.189 154.306 173.318 154.66 174.125 155.37C174.931 156.048 175.431 156.999 175.625 158.225C175.818 159.451 175.689 160.87 175.238 162.483L170.351 179.902H165.076ZM182.447 163.886C181.835 163.886 181.351 163.709 180.996 163.354C180.673 162.999 180.512 162.548 180.512 161.999C180.512 161.451 180.641 160.935 180.899 160.451C181.157 159.967 181.399 159.499 181.625 159.048C181.883 158.596 182.012 158.193 182.012 157.838C182.012 157.257 181.593 156.967 180.754 156.967C179.818 156.967 178.835 157.338 177.802 158.08C176.77 158.822 175.899 159.822 175.189 161.08L175.093 159.725C176.028 157.983 177.157 156.644 178.48 155.709C179.802 154.773 181.222 154.306 182.738 154.306C183.996 154.306 184.964 154.628 185.641 155.273C186.351 155.918 186.706 156.854 186.706 158.08C186.706 159.048 186.496 159.983 186.076 160.886C185.689 161.789 185.173 162.515 184.528 163.064C183.883 163.612 183.189 163.886 182.447 163.886ZM198.164 180.58C195.519 180.58 193.455 179.741 191.971 178.064C190.519 176.386 189.793 174.031 189.793 170.999C189.793 168.773 190.164 166.66 190.906 164.66C191.68 162.628 192.729 160.838 194.051 159.289C195.406 157.741 196.938 156.531 198.648 155.66C200.358 154.757 202.18 154.306 204.116 154.306C206.761 154.306 208.825 155.16 210.309 156.87C211.793 158.548 212.535 160.886 212.535 163.886C212.535 166.112 212.148 168.241 211.374 170.273C210.632 172.273 209.584 174.048 208.229 175.596C206.906 177.144 205.374 178.37 203.632 179.273C201.922 180.144 200.1 180.58 198.164 180.58ZM198.503 178.693C199.374 178.693 200.229 178.402 201.067 177.822C201.938 177.209 202.745 176.386 203.487 175.354C204.229 174.289 204.89 173.08 205.471 171.725C206.051 170.338 206.503 168.87 206.825 167.322C207.148 165.741 207.309 164.16 207.309 162.58C207.309 160.451 207.003 158.854 206.39 157.789C205.809 156.693 204.955 156.144 203.825 156.144C202.955 156.144 202.084 156.451 201.213 157.064C200.374 157.677 199.584 158.515 198.842 159.58C198.1 160.612 197.438 161.822 196.858 163.209C196.277 164.564 195.825 166.031 195.503 167.612C195.18 169.16 195.019 170.725 195.019 172.306C195.019 174.435 195.309 176.031 195.89 177.096C196.503 178.16 197.374 178.693 198.503 178.693ZM75.0793 251.902L75.6116 250.015C77.289 249.918 78.5471 249.773 79.3858 249.58C80.2567 249.354 80.8858 248.967 81.2729 248.418C81.6922 247.838 82.0632 246.983 82.3858 245.854L88.5309 223.693C88.8535 222.531 88.9664 221.677 88.8696 221.128C88.7729 220.58 88.3535 220.193 87.6116 219.967C86.9019 219.709 85.7406 219.564 84.1277 219.531L84.66 217.644C85.6277 217.677 86.8213 217.709 88.2406 217.741C89.66 217.773 91.2245 217.789 92.9342 217.789C94.6438 217.789 96.2245 217.773 97.6761 217.741C99.16 217.709 100.418 217.677 101.45 217.644L100.918 219.531C99.2729 219.596 98.0148 219.741 97.1438 219.967C96.3051 220.193 95.6761 220.58 95.2567 221.128C94.8696 221.677 94.5148 222.531 94.1922 223.693L87.9987 245.854C87.6761 246.983 87.5632 247.838 87.66 248.418C87.789 248.999 88.2084 249.402 88.918 249.628C89.66 249.822 90.8213 249.951 92.4019 250.015L91.8696 251.902C90.9342 251.838 89.7406 251.806 88.289 251.806C86.8374 251.773 85.2729 251.757 83.5955 251.757C81.8535 251.757 80.2406 251.773 78.7567 251.806C77.3051 251.806 76.0793 251.838 75.0793 251.902ZM134.957 252.58C133.505 252.58 132.36 252.241 131.521 251.564C130.715 250.854 130.231 249.886 130.07 248.66C129.908 247.402 130.037 245.983 130.457 244.402L132.973 235.451C133.554 233.386 133.634 231.822 133.215 230.757C132.796 229.693 131.876 229.16 130.457 229.16C129.36 229.16 128.312 229.515 127.312 230.225C126.344 230.902 125.457 231.902 124.65 233.225L124.505 232.064C125.57 230.16 126.796 228.725 128.183 227.757C129.57 226.789 131.118 226.306 132.828 226.306C134.408 226.306 135.683 226.709 136.65 227.515C137.618 228.289 138.231 229.402 138.489 230.854C138.779 232.273 138.65 233.935 138.102 235.838L135.441 245.37C135.054 246.757 134.973 247.838 135.199 248.612C135.457 249.354 136.021 249.725 136.892 249.725C137.634 249.725 138.312 249.467 138.925 248.951C139.57 248.402 140.183 247.58 140.763 246.483L141.683 244.741H143.57L142.457 246.822C141.844 247.983 141.167 248.999 140.425 249.87C139.683 250.741 138.86 251.418 137.957 251.902C137.086 252.354 136.086 252.58 134.957 252.58ZM101.473 251.902L106.65 233.467C107.037 232.144 107.102 231.096 106.844 230.322C106.618 229.548 106.054 229.16 105.15 229.16C104.473 229.16 103.812 229.435 103.167 229.983C102.521 230.499 101.908 231.306 101.328 232.402L100.408 234.144H98.5214L99.6343 232.064C100.247 230.902 100.908 229.886 101.618 229.015C102.36 228.144 103.183 227.483 104.086 227.031C104.989 226.548 106.005 226.306 107.134 226.306C108.586 226.306 109.715 226.66 110.521 227.37C111.328 228.048 111.828 228.999 112.021 230.225C112.215 231.451 112.086 232.87 111.634 234.483L106.747 251.902H101.473ZM115.215 251.902L119.812 235.451C120.392 233.386 120.457 231.822 120.005 230.757C119.586 229.693 118.683 229.16 117.296 229.16C116.199 229.16 115.15 229.499 114.15 230.177C113.183 230.854 112.296 231.87 111.489 233.225L111.344 232.064C112.408 230.16 113.634 228.725 115.021 227.757C116.441 226.789 117.989 226.306 119.667 226.306C121.247 226.306 122.521 226.709 123.489 227.515C124.489 228.289 125.118 229.386 125.376 230.806C125.634 232.225 125.489 233.902 124.941 235.838L120.441 251.902H115.215ZM154.396 252.58C152.203 252.58 150.445 251.757 149.122 250.112C147.832 248.435 147.187 246.177 147.187 243.338C147.187 241.112 147.558 238.983 148.3 236.951C149.074 234.918 150.106 233.112 151.396 231.531C152.719 229.918 154.203 228.644 155.848 227.709C157.525 226.773 159.267 226.306 161.074 226.306C162.59 226.306 164.025 226.66 165.38 227.37C166.735 228.048 167.961 229.048 169.058 230.37L165.429 232.935C165.203 231.418 164.719 230.257 163.977 229.451C163.267 228.612 162.38 228.193 161.316 228.193C160.187 228.193 159.09 228.596 158.025 229.402C156.993 230.209 156.058 231.306 155.219 232.693C154.38 234.08 153.719 235.644 153.235 237.386C152.783 239.128 152.558 240.951 152.558 242.854C152.558 245.015 152.912 246.677 153.622 247.838C154.364 248.967 155.412 249.531 156.767 249.531C157.767 249.531 158.687 249.225 159.525 248.612C160.396 247.967 161.171 247.015 161.848 245.757L161.993 246.967C161.122 248.773 160.042 250.16 158.751 251.128C157.493 252.096 156.042 252.58 154.396 252.58ZM166.251 252.58C164.187 252.58 162.735 251.854 161.896 250.402C161.09 248.918 161.042 246.918 161.751 244.402L165.767 230.031C166.961 229.58 168.09 229.031 169.154 228.386C170.251 227.741 171.251 226.999 172.154 226.16L173.219 227.612C172.671 228.064 172.219 228.515 171.864 228.967C171.542 229.418 171.251 229.918 170.993 230.467C170.767 231.015 170.542 231.693 170.316 232.499L166.735 245.37C166.348 246.757 166.283 247.838 166.542 248.612C166.832 249.354 167.412 249.725 168.283 249.725C168.8 249.725 169.283 249.58 169.735 249.289C170.187 248.999 170.606 248.612 170.993 248.128C171.38 247.644 171.735 247.096 172.058 246.483L172.977 244.741H174.864L173.606 247.112C173.058 248.177 172.429 249.128 171.719 249.967C171.009 250.773 170.203 251.418 169.3 251.902C168.429 252.354 167.412 252.58 166.251 252.58ZM185.874 263.467C183.745 263.467 181.874 263.225 180.261 262.741C178.648 262.257 177.39 261.564 176.487 260.66C175.616 259.789 175.181 258.773 175.181 257.612C175.181 256.193 175.826 254.838 177.116 253.548C178.439 252.289 180.342 251.193 182.826 250.257L183.793 250.935C182.568 251.612 181.616 252.435 180.939 253.402C180.293 254.402 179.971 255.418 179.971 256.451C179.971 257.967 180.632 259.177 181.955 260.08C183.277 260.983 185.051 261.435 187.277 261.435C188.858 261.435 190.261 261.16 191.487 260.612C192.713 260.096 193.664 259.354 194.342 258.386C195.051 257.418 195.406 256.322 195.406 255.096C195.406 253.967 195.051 253.128 194.342 252.58C193.664 252.031 192.616 251.757 191.197 251.757H186.551C184.939 251.757 183.648 251.435 182.681 250.789C181.713 250.112 181.229 249.177 181.229 247.983C181.229 247.015 181.6 246.031 182.342 245.031C183.084 244.031 184.213 242.967 185.729 241.838L186.551 242.37C185.842 243.015 185.342 243.564 185.051 244.015C184.761 244.467 184.616 244.918 184.616 245.37C184.616 245.951 184.842 246.386 185.293 246.677C185.777 246.935 186.535 247.064 187.568 247.064H192.6C194.922 247.064 196.713 247.612 197.971 248.709C199.229 249.773 199.858 251.289 199.858 253.257C199.858 255.225 199.261 256.983 198.068 258.531C196.874 260.08 195.213 261.289 193.084 262.16C190.987 263.031 188.584 263.467 185.874 263.467ZM188.874 243.144C186.519 243.144 184.648 242.499 183.261 241.209C181.874 239.918 181.181 238.144 181.181 235.886C181.181 234.048 181.616 232.418 182.487 230.999C183.358 229.548 184.551 228.402 186.068 227.564C187.616 226.725 189.342 226.306 191.245 226.306C193.632 226.306 195.503 226.967 196.858 228.289C198.245 229.58 198.939 231.37 198.939 233.66C198.939 235.467 198.503 237.096 197.632 238.548C196.761 239.967 195.568 241.096 194.051 241.935C192.568 242.741 190.842 243.144 188.874 243.144ZM189.019 241.257C189.729 241.257 190.406 241.031 191.051 240.58C191.697 240.128 192.261 239.499 192.745 238.693C193.229 237.886 193.6 236.967 193.858 235.935C194.148 234.87 194.293 233.773 194.293 232.644C194.293 231.16 194.019 230.048 193.471 229.306C192.955 228.564 192.181 228.193 191.148 228.193C190.406 228.193 189.713 228.402 189.068 228.822C188.422 229.241 187.858 229.838 187.374 230.612C186.89 231.386 186.503 232.289 186.213 233.322C185.955 234.322 185.826 235.402 185.826 236.564C185.826 238.112 186.1 239.289 186.648 240.096C187.197 240.87 187.987 241.257 189.019 241.257ZM203.922 233.225C203.342 233.225 202.874 233.08 202.519 232.789C202.197 232.467 202.035 232.048 202.035 231.531C202.035 231.177 202.1 230.854 202.229 230.564C202.39 230.273 202.535 229.999 202.664 229.741C202.793 229.483 202.858 229.241 202.858 229.015C202.858 228.725 202.745 228.515 202.519 228.386C202.326 228.257 202.003 228.193 201.551 228.193C200.874 228.193 200.181 228.37 199.471 228.725C198.761 229.048 198.084 229.531 197.439 230.177L196.906 229.354C197.681 228.354 198.551 227.596 199.519 227.08C200.487 226.564 201.519 226.306 202.616 226.306C203.906 226.306 204.922 226.628 205.664 227.273C206.406 227.918 206.777 228.789 206.777 229.886C206.777 230.854 206.503 231.66 205.955 232.306C205.406 232.918 204.729 233.225 203.922 233.225ZM217.101 252.58C214.489 252.58 212.456 251.773 211.005 250.16C209.553 248.515 208.827 246.225 208.827 243.289C208.827 241.031 209.231 238.886 210.037 236.854C210.843 234.822 211.924 233.015 213.279 231.435C214.666 229.822 216.247 228.564 218.021 227.66C219.827 226.757 221.714 226.306 223.682 226.306C225.521 226.306 226.924 226.709 227.892 227.515C228.892 228.322 229.392 229.483 229.392 230.999C229.392 232.741 228.731 234.402 227.408 235.983C226.118 237.531 224.279 238.918 221.892 240.144C219.537 241.338 216.747 242.289 213.521 242.999L213.569 241.451C215.956 240.741 217.989 239.854 219.666 238.789C221.343 237.725 222.618 236.531 223.489 235.209C224.36 233.886 224.795 232.483 224.795 230.999C224.795 230.031 224.618 229.306 224.263 228.822C223.908 228.338 223.392 228.096 222.714 228.096C221.714 228.096 220.698 228.548 219.666 229.451C218.666 230.322 217.747 231.483 216.908 232.935C216.101 234.354 215.44 235.935 214.924 237.677C214.44 239.386 214.198 241.096 214.198 242.806C214.198 245.064 214.618 246.806 215.456 248.031C216.327 249.225 217.553 249.822 219.134 249.822C220.456 249.822 221.65 249.435 222.714 248.66C223.779 247.886 224.747 246.709 225.618 245.128H227.408C226.247 247.58 224.795 249.435 223.053 250.693C221.311 251.951 219.327 252.58 217.101 252.58ZM162.522 324.144C162.361 324.08 161.893 324.015 161.119 323.951C160.377 323.918 159.474 323.902 158.409 323.902H140.119L140.603 322.112C142.506 321.048 144.361 319.999 146.167 318.967C147.974 317.935 149.667 316.902 151.248 315.87C152.829 314.806 154.216 313.725 155.409 312.628C156.603 311.531 157.538 310.386 158.216 309.193C158.893 307.999 159.232 306.741 159.232 305.418C159.232 303.838 158.78 302.628 157.877 301.789C156.974 300.951 155.732 300.531 154.151 300.531C152.829 300.531 151.619 300.822 150.522 301.402C149.425 301.951 148.554 302.693 147.909 303.628C147.264 304.564 146.942 305.612 146.942 306.773C146.942 307.87 147.232 308.709 147.812 309.289C148.393 309.838 149.183 310.112 150.183 310.112C150.667 310.112 151.103 310.031 151.49 309.87C151.877 309.709 152.248 309.451 152.603 309.096L152.99 310.789C152.312 311.467 151.571 311.983 150.764 312.338C149.99 312.693 149.151 312.87 148.248 312.87C146.506 312.87 145.135 312.418 144.135 311.515C143.135 310.612 142.635 309.402 142.635 307.886C142.635 306.177 143.232 304.596 144.425 303.144C145.651 301.693 147.264 300.531 149.264 299.66C151.264 298.757 153.425 298.306 155.748 298.306C158.458 298.306 160.603 298.902 162.183 300.096C163.796 301.289 164.603 302.902 164.603 304.935C164.603 305.967 164.361 306.983 163.877 307.983C163.425 308.951 162.748 309.902 161.845 310.838C160.974 311.741 159.877 312.644 158.554 313.548C157.232 314.451 155.716 315.37 154.006 316.306C152.329 317.241 150.458 318.193 148.393 319.16V319.451H158.216C159.087 319.451 159.796 319.37 160.345 319.209C160.893 319.015 161.345 318.693 161.7 318.241C162.054 317.789 162.393 317.128 162.716 316.257H164.554C164.167 317.677 163.845 318.854 163.587 319.789C163.329 320.725 163.119 321.531 162.958 322.209C162.796 322.886 162.651 323.531 162.522 324.144Z" fill="#696969"/>
</svg>
