<svg width="186" height="253" viewBox="0 0 186 253" fill="none" xmlns="http://www.w3.org/2000/svg">
<path d="M27.871 243.565C26.2043 243.565 24.7258 243.336 23.4355 242.879C22.1452 242.422 21.1371 241.79 20.4113 240.984C19.6855 240.177 19.3226 239.263 19.3226 238.242C19.3226 237.328 19.578 236.589 20.0887 236.024C20.6263 235.46 21.3387 235.177 22.2258 235.177C22.9785 235.177 23.5565 235.392 23.9597 235.823C24.3898 236.226 24.6183 236.804 24.6452 237.556C24.6452 238.04 24.578 238.538 24.4435 239.048C24.3091 239.532 24.2419 239.935 24.2419 240.258C24.2688 240.849 24.5645 241.293 25.129 241.589C25.6935 241.884 26.5 242.032 27.5484 242.032C28.9462 242.032 30.0349 241.763 30.8145 241.226C31.5941 240.661 31.9839 239.895 31.9839 238.927C31.9839 238.175 31.7688 237.516 31.3387 236.952C30.9086 236.36 30.3575 235.823 29.6855 235.339C29.0403 234.828 28.3414 234.317 27.5887 233.806C26.836 233.296 26.1237 232.758 25.4516 232.194C24.7796 231.602 24.2285 230.944 23.7984 230.218C23.3952 229.492 23.1935 228.659 23.1935 227.718C23.1935 225.863 23.9866 224.384 25.5726 223.282C27.1855 222.153 29.2419 221.589 31.7419 221.589C33.3011 221.589 34.672 221.804 35.8548 222.234C37.0645 222.664 38.0054 223.255 38.6774 224.008C39.3763 224.734 39.7258 225.567 39.7258 226.508C39.7258 227.315 39.4839 227.973 39 228.484C38.5161 228.995 37.8844 229.25 37.1048 229.25C36.4328 229.25 35.8817 229.062 35.4516 228.685C35.0484 228.309 34.8468 227.812 34.8468 227.194C34.8468 226.79 34.9005 226.36 35.0081 225.903C35.1425 225.419 35.1962 225.03 35.1694 224.734C35.1694 224.196 34.914 223.793 34.4032 223.524C33.8925 223.255 33.1667 223.121 32.2258 223.121C31.043 223.121 30.1156 223.376 29.4435 223.887C28.7715 224.371 28.4355 225.043 28.4355 225.903C28.4355 226.602 28.6505 227.247 29.0806 227.839C29.5108 228.403 30.0484 228.941 30.6935 229.452C31.3656 229.935 32.078 230.446 32.8306 230.984C33.5833 231.495 34.2823 232.046 34.9274 232.637C35.5995 233.202 36.1505 233.86 36.5806 234.613C37.0108 235.339 37.2258 236.185 37.2258 237.153C37.2258 238.444 36.8226 239.573 36.0161 240.54C35.2097 241.481 34.1075 242.22 32.7097 242.758C31.3118 243.296 29.6989 243.565 27.871 243.565ZM37.5963 252.315L38.0398 250.742C39.0076 250.715 39.814 250.594 40.4592 250.379C41.0775 250.191 41.5748 249.882 41.9511 249.452C42.3275 249.048 42.6097 248.484 42.7979 247.758L48.443 227.597C48.7656 226.441 48.8059 225.567 48.564 224.976C48.3221 224.384 47.8516 224.089 47.1527 224.089C46.5882 224.089 46.0371 224.304 45.4995 224.734C44.9887 225.164 44.5049 225.836 44.0479 226.75L43.2818 228.161H41.7092L42.6366 226.427C43.1742 225.406 43.7656 224.532 44.4108 223.806C45.0828 223.081 45.8355 222.53 46.6689 222.153C47.5022 221.777 48.4162 221.589 49.4108 221.589C51.3732 221.589 52.7441 222.234 53.5237 223.524C54.3301 224.815 54.4108 226.602 53.7656 228.887L48.564 247.435C48.349 248.215 48.3624 248.833 48.6043 249.29C48.8463 249.774 49.3436 250.124 50.0963 250.339C50.8758 250.581 51.9511 250.715 53.3221 250.742L52.9189 252.315C52.3543 252.288 51.642 252.261 50.7818 252.234C49.9215 252.234 48.9941 252.22 47.9995 252.194C47.0318 252.167 46.0506 252.153 45.0559 252.153C43.6043 252.153 42.2065 252.167 40.8624 252.194C39.4914 252.247 38.4027 252.288 37.5963 252.315ZM55.2172 243.565C54.0344 243.565 52.9861 243.296 52.0721 242.758C51.185 242.22 50.5533 241.481 50.1769 240.54L50.6608 239.25C51.0102 239.868 51.4807 240.352 52.0721 240.702C52.6904 241.051 53.349 241.226 54.0479 241.226C54.935 241.226 55.7818 240.93 56.5882 240.339C57.4215 239.72 58.1608 238.887 58.8059 237.839C59.4511 236.79 59.9484 235.594 60.2979 234.25C60.6742 232.879 60.8624 231.454 60.8624 229.976C60.8624 228.202 60.5667 226.844 59.9753 225.903C59.4108 224.962 58.5909 224.492 57.5156 224.492C56.7898 224.492 56.1043 224.72 55.4592 225.177C54.814 225.608 54.2361 226.266 53.7253 227.153L53.3624 226.548C54.142 224.935 55.0963 223.712 56.2253 222.879C57.3812 222.019 58.6984 221.589 60.1769 221.589C62.1662 221.589 63.7387 222.301 64.8947 223.726C66.0506 225.124 66.6285 227.032 66.6285 229.452C66.6285 231.28 66.3059 233.04 65.6608 234.734C65.0425 236.401 64.1957 237.906 63.1205 239.25C62.0452 240.594 60.8221 241.656 59.4511 242.435C58.107 243.188 56.6957 243.565 55.2172 243.565ZM71.5699 243L75.8845 227.597C76.207 226.468 76.2474 225.608 76.0054 225.016C75.7904 224.398 75.3199 224.089 74.5941 224.089C74.0296 224.089 73.4785 224.317 72.9409 224.774C72.4301 225.204 71.9463 225.863 71.4893 226.75L70.7232 228.161H69.1506L70.078 226.427C70.6156 225.406 71.207 224.532 71.8522 223.806C72.5242 223.081 73.2769 222.53 74.1103 222.153C74.9436 221.777 75.8576 221.589 76.8522 221.589C78.1963 221.589 79.2581 221.898 80.0377 222.516C80.8172 223.108 81.3011 223.954 81.4893 225.056C81.7043 226.132 81.6103 227.409 81.207 228.887L77.2554 243H71.5699ZM86.9732 230.218C86.4086 230.218 85.9651 230.056 85.6425 229.734C85.3199 229.411 85.1586 228.995 85.1586 228.484C85.1586 227.973 85.2662 227.503 85.4812 227.073C85.7232 226.616 85.9517 226.185 86.1667 225.782C86.4086 225.379 86.5296 225.003 86.5296 224.653C86.5296 224.142 86.1801 223.887 85.4812 223.887C84.7823 223.887 84.0431 224.169 83.2635 224.734C82.4839 225.272 81.8253 225.997 81.2877 226.911L80.9651 225.984C81.7715 224.586 82.7393 223.511 83.8683 222.758C84.9974 221.978 86.207 221.589 87.4974 221.589C88.6264 221.589 89.5 221.884 90.1183 222.476C90.7366 223.067 91.0457 223.901 91.0457 224.976C91.0457 225.89 90.8441 226.75 90.4409 227.556C90.0646 228.336 89.5672 228.981 88.949 229.492C88.3576 229.976 87.699 230.218 86.9732 230.218ZM100.878 243.565C99.5334 243.565 98.4447 243.255 97.6114 242.637C96.8049 241.992 96.2942 241.118 96.0791 240.016C95.891 238.914 96.0523 237.664 96.563 236.266L99.6275 227.597C100.004 226.548 100.071 225.702 99.8291 225.056C99.6141 224.411 99.1302 224.089 98.3775 224.089C97.7861 224.089 97.2216 224.304 96.684 224.734C96.1732 225.164 95.6893 225.836 95.2324 226.75L94.4662 228.161H92.8936L93.8211 226.427C94.7082 224.761 95.6893 223.538 96.7646 222.758C97.8668 221.978 99.1436 221.589 100.595 221.589C101.966 221.589 103.055 221.911 103.861 222.556C104.668 223.175 105.179 224.035 105.394 225.137C105.609 226.212 105.447 227.462 104.91 228.887L101.845 237.556C101.469 238.605 101.402 239.452 101.644 240.097C101.886 240.742 102.369 241.065 103.095 241.065C104.278 241.065 105.34 240.191 106.281 238.444L107.007 237.032H108.579L107.692 238.726C106.805 240.419 105.81 241.656 104.708 242.435C103.606 243.188 102.329 243.565 100.878 243.565ZM103.861 218.04C102.921 218.04 102.141 217.772 101.523 217.234C100.931 216.669 100.636 215.944 100.636 215.056C100.636 214.089 100.998 213.282 101.724 212.637C102.45 211.965 103.324 211.629 104.345 211.629C105.286 211.629 106.052 211.911 106.644 212.476C107.262 213.013 107.571 213.726 107.571 214.613C107.571 215.581 107.208 216.401 106.482 217.073C105.783 217.718 104.91 218.04 103.861 218.04ZM130.366 243.565C129.048 243.565 127.987 243.269 127.18 242.677C126.401 242.086 125.903 241.253 125.688 240.177C125.5 239.075 125.608 237.785 126.011 236.306L128.148 228.685C128.551 227.18 128.591 226.051 128.269 225.298C127.973 224.519 127.315 224.129 126.293 224.129C125.46 224.129 124.68 224.384 123.954 224.895C123.255 225.406 122.61 226.159 122.019 227.153L121.656 226.306C122.543 224.72 123.591 223.538 124.801 222.758C126.011 221.978 127.355 221.589 128.833 221.589C130.957 221.589 132.436 222.328 133.269 223.806C134.129 225.258 134.223 227.22 133.551 229.694L131.333 237.597C131.038 238.699 130.997 239.559 131.212 240.177C131.427 240.769 131.884 241.065 132.583 241.065C133.202 241.065 133.766 240.849 134.277 240.419C134.815 239.962 135.312 239.304 135.769 238.444L136.495 237.032H138.067L137.18 238.726C136.642 239.747 136.038 240.621 135.366 241.347C134.694 242.073 133.941 242.624 133.108 243C132.301 243.376 131.387 243.565 130.366 243.565ZM112.341 243L116.656 227.597C116.979 226.495 117.032 225.634 116.817 225.016C116.602 224.398 116.118 224.089 115.366 224.089C114.801 224.089 114.25 224.317 113.712 224.774C113.202 225.204 112.718 225.863 112.261 226.75L111.495 228.161H109.922L110.849 226.427C111.387 225.406 111.979 224.532 112.624 223.806C113.296 223.081 114.048 222.53 114.882 222.153C115.715 221.777 116.629 221.589 117.624 221.589C118.968 221.589 120.03 221.898 120.809 222.516C121.589 223.108 122.073 223.954 122.261 225.056C122.476 226.132 122.382 227.409 121.979 228.887L118.027 243H112.341ZM146.443 252.637C144.615 252.637 143.002 252.435 141.604 252.032C140.206 251.629 139.131 251.065 138.378 250.339C137.599 249.64 137.209 248.82 137.209 247.879C137.209 246.777 137.76 245.715 138.862 244.694C139.964 243.699 141.524 242.852 143.54 242.153L144.387 242.677C143.607 243.188 143.002 243.806 142.572 244.532C142.142 245.258 141.927 246.011 141.927 246.79C141.927 248.054 142.464 249.062 143.54 249.815C144.642 250.567 146.094 250.944 147.895 250.944C149.131 250.944 150.22 250.728 151.161 250.298C152.128 249.895 152.881 249.317 153.419 248.565C153.956 247.839 154.225 247.005 154.225 246.065C154.225 245.151 153.943 244.478 153.378 244.048C152.814 243.618 151.94 243.403 150.757 243.403H146.967C145.489 243.403 144.319 243.108 143.459 242.516C142.626 241.925 142.209 241.105 142.209 240.056C142.209 239.169 142.545 238.296 143.217 237.435C143.889 236.548 144.924 235.608 146.322 234.613L147.007 235.097C146.551 235.554 146.214 235.957 145.999 236.306C145.784 236.629 145.677 236.952 145.677 237.274C145.677 237.731 145.865 238.081 146.241 238.323C146.618 238.538 147.223 238.645 148.056 238.645H152.451C154.44 238.645 155.986 239.116 157.088 240.056C158.19 240.97 158.741 242.274 158.741 243.968C158.741 245.634 158.217 247.126 157.169 248.444C156.12 249.761 154.669 250.782 152.814 251.508C150.959 252.261 148.835 252.637 146.443 252.637ZM149.064 235.702C146.967 235.702 145.314 235.164 144.104 234.089C142.921 232.987 142.33 231.481 142.33 229.573C142.33 228.04 142.706 226.683 143.459 225.5C144.212 224.29 145.247 223.349 146.564 222.677C147.881 221.978 149.373 221.629 151.04 221.629C153.137 221.629 154.79 222.18 155.999 223.282C157.209 224.384 157.814 225.876 157.814 227.758C157.814 229.263 157.424 230.621 156.645 231.831C155.892 233.04 154.857 233.995 153.54 234.694C152.249 235.366 150.757 235.702 149.064 235.702ZM149.185 234.129C149.723 234.129 150.22 233.927 150.677 233.524C151.161 233.121 151.591 232.57 151.967 231.871C152.344 231.172 152.639 230.379 152.854 229.492C153.069 228.605 153.177 227.691 153.177 226.75C153.177 225.594 152.989 224.707 152.612 224.089C152.236 223.47 151.685 223.161 150.959 223.161C150.395 223.161 149.87 223.363 149.387 223.766C148.903 224.142 148.473 224.667 148.096 225.339C147.747 226.011 147.464 226.777 147.249 227.637C147.061 228.497 146.967 229.411 146.967 230.379C146.967 231.616 147.155 232.556 147.532 233.202C147.908 233.82 148.459 234.129 149.185 234.129ZM161.725 227.919C161.241 227.919 160.852 227.785 160.556 227.516C160.26 227.247 160.112 226.884 160.112 226.427C160.112 226.105 160.18 225.796 160.314 225.5C160.475 225.204 160.623 224.922 160.757 224.653C160.892 224.384 160.959 224.129 160.959 223.887C160.959 223.645 160.865 223.47 160.677 223.363C160.516 223.255 160.26 223.202 159.911 223.202C159.346 223.202 158.768 223.336 158.177 223.605C157.585 223.874 157.034 224.25 156.524 224.734L155.999 224.048C156.671 223.242 157.411 222.637 158.217 222.234C159.051 221.804 159.924 221.589 160.838 221.589C161.94 221.589 162.814 221.871 163.459 222.435C164.104 222.973 164.427 223.726 164.427 224.694C164.427 225.581 164.158 226.347 163.62 226.992C163.11 227.61 162.478 227.919 161.725 227.919Z" fill="#7BB888"/>
<path fill-rule="evenodd" clip-rule="evenodd" d="M182.707 5.43431C171.775 45.9276 154.243 65.0407 139.067 71.0593C127.978 75.4573 117.928 73.1366 111.867 67.0042C105.745 60.8112 103.769 50.87 108.916 40.1175C115.792 25.7525 136.08 9.57406 177.866 0.103905C180.096 -0.401357 182.31 0.98425 182.816 3.21385C182.989 3.97839 182.938 4.74127 182.707 5.43431ZM118.658 56.8837L176.749 6.3393L123.033 60.6737C120.365 60.4427 118.753 59.3106 118.658 56.8837Z" fill="#7BB888"/>
<path d="M89.1352 133.979C104.397 133.979 107.846 136.366 111.703 139.036C115.377 141.579 119.546 144.466 146.904 144.466C157.21 144.466 166.625 146.658 173.514 150.202C181.228 154.171 186 159.947 186 166.589C186 179.909 163.812 187.441 134.535 190.348C123.246 191.469 110.818 191.972 98.2393 191.91C85.677 191.848 72.9909 191.221 61.1672 190.082C27.3003 186.818 0 178.682 0 166.589C0 159.947 4.77165 154.171 12.4861 150.202C19.3752 146.658 28.7895 144.466 39.0961 144.466C57.9584 144.466 62.0663 141.838 65.909 139.379C70.2613 136.595 74.35 133.979 89.1352 133.979Z" fill="#7BB888"/>
<path d="M90.4242 140.673C86.9798 123.627 87.7514 108.869 91.6621 95.8152C95.5754 82.7529 102.613 71.4584 111.702 61.3262L117.847 66.824C109.543 76.0807 103.127 86.3547 99.5853 98.176C96.0411 110.006 95.3554 123.449 98.5091 139.056L90.4242 140.673Z" fill="#7BB888"/>
<path d="M86.217 139.056C89.3706 123.449 88.6849 110.006 85.1408 98.176C81.5992 86.3547 75.1833 76.0807 66.8794 66.824L73.0238 61.3262C82.1132 71.4585 89.1506 82.753 93.0639 95.8152C96.9746 108.869 97.7462 123.627 94.3018 140.673L86.217 139.056Z" fill="#7BB888"/>
<path fill-rule="evenodd" clip-rule="evenodd" d="M2.01897 5.43431C12.9509 45.9276 30.4831 65.0407 45.6588 71.0593C56.7482 75.4573 66.7977 73.1366 72.859 67.0042C78.9803 60.8112 80.9563 50.87 75.8096 40.1175C68.9338 25.7525 48.6457 9.57406 6.85956 0.103905C4.62996 -0.401357 2.41547 0.98425 1.91024 3.21385C1.73698 3.97839 1.78795 4.74127 2.01897 5.43431ZM64.8444 54.7986L7.97747 6.3393L61.0684 58.0689C63.6309 58.1584 64.6594 56.8601 64.8444 54.7986Z" fill="#7BB888"/>
</svg>
