<svg width="207" height="250" viewBox="0 0 207 250" fill="none" xmlns="http://www.w3.org/2000/svg">
<path d="M25.871 246.565C24.2043 246.565 22.7258 246.336 21.4355 245.879C20.1452 245.422 19.1371 244.79 18.4113 243.984C17.6855 243.177 17.3226 242.263 17.3226 241.242C17.3226 240.328 17.578 239.589 18.0887 239.024C18.6263 238.46 19.3387 238.177 20.2258 238.177C20.9785 238.177 21.5565 238.392 21.9597 238.823C22.3898 239.226 22.6183 239.804 22.6452 240.556C22.6452 241.04 22.578 241.538 22.4435 242.048C22.3091 242.532 22.2419 242.935 22.2419 243.258C22.2688 243.849 22.5645 244.293 23.129 244.589C23.6935 244.884 24.5 245.032 25.5484 245.032C26.9462 245.032 28.0349 244.763 28.8145 244.226C29.5941 243.661 29.9839 242.895 29.9839 241.927C29.9839 241.175 29.7688 240.516 29.3387 239.952C28.9086 239.36 28.3575 238.823 27.6855 238.339C27.0403 237.828 26.3414 237.317 25.5887 236.806C24.836 236.296 24.1237 235.758 23.4516 235.194C22.7796 234.602 22.2285 233.944 21.7984 233.218C21.3952 232.492 21.1935 231.659 21.1935 230.718C21.1935 228.863 21.9866 227.384 23.5726 226.282C25.1855 225.153 27.2419 224.589 29.7419 224.589C31.3011 224.589 32.672 224.804 33.8548 225.234C35.0645 225.664 36.0054 226.255 36.6774 227.008C37.3763 227.734 37.7258 228.567 37.7258 229.508C37.7258 230.315 37.4839 230.973 37 231.484C36.5161 231.995 35.8844 232.25 35.1048 232.25C34.4328 232.25 33.8817 232.062 33.4516 231.685C33.0484 231.309 32.8468 230.812 32.8468 230.194C32.8468 229.79 32.9005 229.36 33.0081 228.903C33.1425 228.419 33.1962 228.03 33.1694 227.734C33.1694 227.196 32.914 226.793 32.4032 226.524C31.8925 226.255 31.1667 226.121 30.2258 226.121C29.043 226.121 28.1156 226.376 27.4435 226.887C26.7715 227.371 26.4355 228.043 26.4355 228.903C26.4355 229.602 26.6505 230.247 27.0806 230.839C27.5108 231.403 28.0484 231.941 28.6935 232.452C29.3656 232.935 30.078 233.446 30.8306 233.984C31.5833 234.495 32.2823 235.046 32.9274 235.637C33.5995 236.202 34.1505 236.86 34.5806 237.613C35.0108 238.339 35.2258 239.185 35.2258 240.153C35.2258 241.444 34.8226 242.573 34.0161 243.54C33.2097 244.481 32.1075 245.22 30.7097 245.758C29.3118 246.296 27.6989 246.565 25.871 246.565ZM48.6586 246.565C47.2607 246.565 46.1317 246.228 45.2715 245.556C44.4382 244.884 43.9005 243.944 43.6586 242.734C43.4166 241.524 43.5242 240.099 43.9812 238.46L46.1989 230.597C46.5215 229.468 46.5752 228.608 46.3602 228.016C46.1451 227.398 45.6613 227.089 44.9086 227.089C44.3172 227.089 43.7661 227.317 43.2554 227.774C42.7446 228.204 42.2473 228.863 41.7634 229.75L41.0376 231.161H39.465L40.3521 229.427C40.9166 228.406 41.5215 227.546 42.1666 226.847C42.8387 226.121 43.5779 225.57 44.3844 225.194C45.2177 224.817 46.1451 224.629 47.1666 224.629C48.5107 224.629 49.5726 224.925 50.3521 225.516C51.1317 226.108 51.6156 226.954 51.8037 228.056C52.0188 229.132 51.9113 230.409 51.4812 231.887L49.3844 239.468C48.9812 240.973 48.9274 242.116 49.2231 242.895C49.5457 243.675 50.2043 244.065 51.1989 244.065C52.0322 244.065 52.7849 243.809 53.457 243.298C54.1559 242.788 54.7742 242.035 55.3118 241.04L55.6747 241.887C54.8145 243.446 53.793 244.616 52.6102 245.395C51.4543 246.175 50.1371 246.565 48.6586 246.565ZM59.707 246.565C58.3629 246.565 57.3011 246.269 56.5215 245.677C55.7419 245.059 55.2446 244.212 55.0295 243.137C54.8414 242.035 54.9489 240.758 55.3521 239.306L59.3037 225.153H64.9892L60.6747 240.597C60.3521 241.699 60.2984 242.559 60.5134 243.177C60.7554 243.769 61.2392 244.065 61.965 244.065C62.5295 244.065 63.0672 243.849 63.5779 243.419C64.1156 242.989 64.6129 242.331 65.0699 241.444L65.836 240.032H67.4086L66.4812 241.726C65.9435 242.747 65.3387 243.621 64.6666 244.347C64.0215 245.073 63.2822 245.624 62.4489 246C61.6425 246.376 60.7285 246.565 59.707 246.565ZM99.6849 246.565C98.3677 246.565 97.3059 246.269 96.4994 245.677C95.7199 245.059 95.236 244.212 95.0478 243.137C94.8596 242.035 94.9672 240.758 95.3704 239.306L97.4672 231.645C97.8973 230.167 97.9645 229.051 97.6688 228.298C97.3731 227.519 96.7145 227.129 95.693 227.129C94.8865 227.129 94.1338 227.384 93.4349 227.895C92.736 228.379 92.0908 229.118 91.4994 230.113L91.1769 229.266C92.0371 227.707 93.0586 226.538 94.2414 225.758C95.4242 224.978 96.7414 224.589 98.193 224.589C99.6177 224.589 100.747 224.925 101.58 225.597C102.44 226.269 102.978 227.21 103.193 228.419C103.435 229.629 103.327 231.054 102.87 232.694L100.653 240.597C100.357 241.699 100.317 242.559 100.532 243.177C100.747 243.769 101.217 244.065 101.943 244.065C102.534 244.065 103.085 243.849 103.596 243.419C104.134 242.989 104.631 242.331 105.088 241.444L105.814 240.032H107.387L106.499 241.726C105.962 242.747 105.357 243.621 104.685 244.347C104.013 245.073 103.274 245.624 102.467 246C101.661 246.376 100.733 246.565 99.6849 246.565ZM70.693 246L75.0075 230.597C75.3301 229.495 75.3838 228.634 75.1688 228.016C74.9537 227.398 74.4699 227.089 73.7172 227.089C73.1527 227.089 72.6016 227.304 72.0639 227.734C71.5532 228.164 71.0693 228.836 70.6123 229.75L69.8462 231.161H68.2736L69.201 229.427C69.7387 228.406 70.3301 227.532 70.9752 226.806C71.6473 226.081 72.4 225.53 73.2333 225.153C74.0666 224.777 74.9806 224.589 75.9752 224.589C77.3193 224.589 78.3812 224.898 79.1607 225.516C79.9403 226.108 80.4242 226.954 80.6123 228.056C80.8274 229.132 80.7333 230.409 80.3301 231.887L76.3785 246H70.693ZM82.3059 246L86.2978 231.645C86.7279 230.167 86.7817 229.051 86.4591 228.298C86.1634 227.519 85.5317 227.129 84.5639 227.129C83.7306 227.129 82.9645 227.384 82.2656 227.895C81.5666 228.379 80.9215 229.118 80.3301 230.113L79.9672 229.266C80.8543 227.707 81.8892 226.538 83.072 225.758C84.2548 224.978 85.5855 224.589 87.0639 224.589C88.4618 224.589 89.5774 224.925 90.4107 225.597C91.2709 226.269 91.8086 227.21 92.0236 228.419C92.2656 229.629 92.158 231.054 91.701 232.694L87.9914 246H82.3059ZM139.675 246.565C138.358 246.565 137.296 246.269 136.49 245.677C135.71 245.059 135.226 244.212 135.038 243.137C134.85 242.035 134.957 240.758 135.361 239.306L137.457 231.645C137.888 230.167 137.955 229.051 137.659 228.298C137.363 227.519 136.705 227.129 135.683 227.129C134.877 227.129 134.124 227.384 133.425 227.895C132.726 228.379 132.081 229.118 131.49 230.113L131.167 229.266C132.027 227.707 133.049 226.538 134.232 225.758C135.414 224.978 136.732 224.589 138.183 224.589C139.608 224.589 140.737 224.925 141.57 225.597C142.431 226.269 142.968 227.21 143.183 228.419C143.425 229.629 143.318 231.054 142.861 232.694L140.643 240.597C140.347 241.699 140.307 242.559 140.522 243.177C140.737 243.769 141.207 244.065 141.933 244.065C142.525 244.065 143.076 243.849 143.586 243.419C144.124 242.989 144.621 242.331 145.078 241.444L145.804 240.032H147.377L146.49 241.726C145.952 242.747 145.347 243.621 144.675 244.347C144.003 245.073 143.264 245.624 142.457 246C141.651 246.376 140.724 246.565 139.675 246.565ZM110.683 246L114.998 230.597C115.32 229.495 115.374 228.634 115.159 228.016C114.944 227.398 114.46 227.089 113.707 227.089C113.143 227.089 112.592 227.304 112.054 227.734C111.543 228.164 111.06 228.836 110.603 229.75L109.836 231.161H108.264L109.191 229.427C109.729 228.406 110.32 227.532 110.965 226.806C111.638 226.081 112.39 225.53 113.224 225.153C114.057 224.777 114.971 224.589 115.965 224.589C117.31 224.589 118.371 224.898 119.151 225.516C119.931 226.108 120.414 226.954 120.603 228.056C120.818 229.132 120.724 230.409 120.32 231.887L116.369 246H110.683ZM122.296 246L126.288 231.645C126.718 230.167 126.772 229.051 126.449 228.298C126.154 227.519 125.522 227.129 124.554 227.129C123.721 227.129 122.955 227.384 122.256 227.895C121.557 228.379 120.912 229.118 120.32 230.113L119.957 229.266C120.845 227.707 121.879 226.538 123.062 225.758C124.245 224.978 125.576 224.589 127.054 224.589C128.452 224.589 129.568 224.925 130.401 225.597C131.261 226.269 131.799 227.21 132.014 228.419C132.256 229.629 132.148 231.054 131.691 232.694L127.982 246H122.296ZM157.448 246.565C155.055 246.565 153.173 245.866 151.802 244.468C150.458 243.043 149.786 241.067 149.786 238.54C149.786 236.685 150.136 234.925 150.835 233.258C151.534 231.565 152.488 230.073 153.698 228.782C154.934 227.465 156.345 226.444 157.932 225.718C159.518 224.965 161.184 224.589 162.932 224.589C164.679 224.589 166.009 224.952 166.923 225.677C167.864 226.376 168.335 227.398 168.335 228.742C168.335 230.167 167.784 231.524 166.682 232.815C165.606 234.105 164.074 235.261 162.085 236.282C160.122 237.277 157.811 238.056 155.149 238.621V237.331C157.004 236.685 158.577 235.906 159.867 234.992C161.157 234.051 162.139 233.016 162.811 231.887C163.483 230.758 163.819 229.602 163.819 228.419C163.819 227.64 163.684 227.062 163.415 226.685C163.147 226.309 162.757 226.121 162.246 226.121C161.466 226.121 160.673 226.47 159.867 227.169C159.087 227.868 158.375 228.809 157.73 229.992C157.085 231.148 156.561 232.425 156.157 233.823C155.754 235.22 155.552 236.618 155.552 238.016C155.552 239.925 155.902 241.39 156.601 242.411C157.327 243.406 158.362 243.903 159.706 243.903C160.808 243.903 161.789 243.608 162.649 243.016C163.536 242.398 164.329 241.484 165.028 240.274H166.561C165.539 242.344 164.262 243.917 162.73 244.992C161.225 246.04 159.464 246.565 157.448 246.565ZM173.281 246L177.595 230.597C177.918 229.468 177.958 228.608 177.716 228.016C177.501 227.398 177.031 227.089 176.305 227.089C175.741 227.089 175.189 227.317 174.652 227.774C174.141 228.204 173.657 228.863 173.2 229.75L172.434 231.161H170.862L171.789 229.427C172.327 228.406 172.918 227.532 173.563 226.806C174.235 226.081 174.988 225.53 175.821 225.153C176.655 224.777 177.569 224.589 178.563 224.589C179.907 224.589 180.969 224.898 181.749 225.516C182.528 226.108 183.012 226.954 183.2 228.056C183.415 229.132 183.321 230.409 182.918 231.887L178.966 246H173.281ZM188.684 233.218C188.12 233.218 187.676 233.056 187.353 232.734C187.031 232.411 186.87 231.995 186.87 231.484C186.87 230.973 186.977 230.503 187.192 230.073C187.434 229.616 187.663 229.185 187.878 228.782C188.12 228.379 188.241 228.003 188.241 227.653C188.241 227.142 187.891 226.887 187.192 226.887C186.493 226.887 185.754 227.169 184.974 227.734C184.195 228.272 183.536 228.997 182.999 229.911L182.676 228.984C183.482 227.586 184.45 226.511 185.579 225.758C186.708 224.978 187.918 224.589 189.208 224.589C190.337 224.589 191.211 224.884 191.829 225.476C192.448 226.067 192.757 226.901 192.757 227.976C192.757 228.89 192.555 229.75 192.152 230.556C191.775 231.336 191.278 231.981 190.66 232.492C190.069 232.976 189.41 233.218 188.684 233.218Z" fill="#F2D602" fill-opacity="0.7"/>
<path d="M98.0005 51.0547H98.0008C111.003 51.0547 122.775 56.3098 131.296 64.8053C139.807 73.2911 145.072 85.027 145.072 98.0008H145.088V98.0011V98.0014C145.088 110.965 139.817 122.702 131.296 131.197C122.775 139.693 111.003 144.948 98.0008 144.948H98.0005C84.9982 144.948 73.2262 139.693 64.7049 131.197C56.1839 122.701 50.9131 110.965 50.9131 98.001C50.9131 85.0377 56.1838 73.3008 64.7049 64.8053C73.2261 56.3097 84.9981 51.0547 98.0005 51.0547Z" fill="#F2D602" fill-opacity="0.7"/>
<path d="M93.9129 6.2833C92.7031 4.36773 93.28 1.8368 95.2013 0.630787C97.1226 -0.575375 99.6611 -0.000102344 100.871 1.91546C104.049 6.92685 107.226 11.9387 105.707 17.3155C105.005 19.7984 103.469 21.677 101.983 23.4935C101.033 24.656 100.12 25.7725 100.123 26.0313C100.126 26.3253 101.045 27.5366 102.023 28.8267C103.553 30.8444 105.17 32.9766 105.863 35.7455C106.334 37.6302 106.283 39.5233 105.867 41.4217C105.505 43.0803 104.857 44.7417 104.051 46.4043C103.064 48.444 100.605 49.2996 98.5588 48.3153C96.5128 47.3309 95.6547 44.879 96.642 42.8393C97.1779 41.7343 97.5987 40.6723 97.8141 39.6876C97.9772 38.9425 98.0153 38.2704 97.8738 37.7046C97.5984 36.6041 96.4954 35.1493 95.4514 33.7727C93.6413 31.3857 91.9417 29.1446 91.9085 26.0956C91.8736 22.8866 93.7016 20.6506 95.6052 18.3227C96.5564 17.1598 97.5401 15.957 97.7821 15.0994C98.3127 13.2224 96.1125 9.75257 93.9129 6.2833ZM47.1628 21.7863C45.1525 20.7309 44.381 18.2504 45.4396 16.2461C46.498 14.2419 48.9859 13.4726 50.9962 14.5279L50.9991 14.5294L51.0143 14.5377C56.2976 17.2141 61.5623 19.9043 63.0101 25.2813C63.6821 27.776 63.327 30.1667 62.9837 32.4782C62.7631 33.9633 62.5515 35.3897 62.6775 35.5957C62.8396 35.8608 64.2429 36.4302 65.7371 37.0365C68.0878 37.9901 70.5715 38.9979 72.5807 41.017C73.8964 42.3394 74.8072 43.924 75.4299 45.6935C75.9731 47.2367 76.2861 48.9108 76.4625 50.6618C76.6848 52.9144 75.0336 54.9204 72.7741 55.1421C70.5147 55.3638 68.5027 53.7174 68.2804 51.4647C68.1652 50.3203 67.9772 49.2731 67.6667 48.3912C67.4359 47.7356 67.1392 47.1892 66.75 46.7981C65.9419 45.9862 64.2479 45.2987 62.6449 44.6483C59.8569 43.5172 57.2394 42.4552 55.655 39.8672C53.9691 37.1119 54.3927 34.2597 54.8339 31.29C55.0553 29.7994 55.2842 28.2575 55.0535 27.4008C54.5517 25.5371 50.926 23.6921 47.2855 21.8479C47.2453 21.8285 47.2055 21.8086 47.1657 21.7878L47.1628 21.7863ZM17.2644 54.6047C14.9962 54.6312 13.1355 52.8195 13.1089 50.558C13.0823 48.2966 14.8994 46.4414 17.1677 46.4149C19.868 46.3768 22.5689 46.3388 25.0349 46.6954C28.1021 47.1388 30.8246 48.1651 32.8577 50.3564C34.6309 52.2674 35.4318 54.5459 36.2063 56.7492C36.7011 58.1569 37.1764 59.5088 37.3915 59.637C37.6685 59.802 39.1823 59.6542 40.7941 59.4968C43.3264 59.2495 46.0021 58.988 48.6822 59.8305C50.4531 60.3867 51.9848 61.3505 53.3459 62.6038C54.5469 63.7101 55.6042 65.0347 56.5757 66.4892C57.8298 68.3781 57.3107 70.9233 55.4159 72.1737C53.5213 73.4241 50.9685 72.9066 49.7144 71.0176C49.0878 70.0791 48.4442 69.2601 47.7731 68.642C47.2617 68.1712 46.7487 67.8285 46.2339 67.6669C45.0978 67.3099 43.2838 67.4869 41.5672 67.6545C38.5787 67.9465 35.7725 68.2205 33.1715 66.6705C30.4016 65.0189 29.442 62.2893 28.443 59.447C27.9422 58.0224 27.4244 56.5489 26.8339 55.9126C26.3005 55.3378 25.2236 55.0157 23.8754 54.821C21.9263 54.5391 19.5949 54.572 17.2644 54.6047ZM6.13152 97.511C4.14798 98.6195 1.6383 97.9151 0.526482 95.9374C-0.585332 93.9596 0.121211 91.4575 2.10491 90.349L2.10732 90.3476C2.20378 90.2937 2.30189 90.2442 2.4006 90.1989C7.54732 87.4086 12.6956 84.6894 17.8906 86.5222C20.3365 87.3855 22.1146 89.0358 23.8341 90.6319C24.9321 91.6509 25.9872 92.6299 26.2193 92.6425L26.2355 92.6436V92.6425C26.5693 92.6608 27.8308 91.8337 29.1739 90.953C31.299 89.5597 33.5443 88.0874 36.3391 87.5835C38.189 87.2499 40.0221 87.4049 41.8426 87.9049C43.4632 88.3498 45.0415 89.0554 46.5942 89.9127C48.5778 91.0124 49.2918 93.5072 48.1887 95.485C47.0858 97.4627 44.5835 98.1745 42.5998 97.0747C41.5648 96.5034 40.5805 96.0515 39.6844 95.8056C38.9879 95.6143 38.3479 95.5439 37.7887 95.6448C36.6474 95.8505 35.1245 96.849 33.6836 97.7938C31.1641 99.4458 28.7985 100.997 25.7844 100.832V100.831C22.5513 100.649 20.4336 98.6838 18.2291 96.6378C17.1269 95.6148 15.9871 94.5569 15.1526 94.2623C13.3464 93.6249 9.85483 95.4826 6.32647 97.3952C6.26362 97.435 6.19957 97.4731 6.13401 97.5097L6.13152 97.511ZM16.2256 140.719C14.9624 142.608 12.4024 143.119 10.5078 141.859C8.61317 140.6 8.10119 138.048 9.36432 136.159L9.36734 136.154C9.42988 136.061 9.49575 135.971 9.56432 135.884C12.8057 131.044 16.0869 126.277 21.5421 125.49C24.1142 125.118 26.4492 125.751 28.7074 126.363C30.1636 126.757 31.5625 127.136 31.7747 127.04C32.0531 126.913 32.786 125.591 33.5661 124.183C34.7939 121.968 36.0914 119.628 38.3449 117.873C39.8935 116.667 41.6803 115.941 43.6315 115.546C45.3282 115.203 47.1172 115.121 48.9562 115.185C51.2244 115.256 53.0056 117.147 52.9346 119.409C52.8634 121.67 50.9667 123.446 48.6985 123.375C47.4166 123.331 46.237 123.374 45.2422 123.575C44.5017 123.725 43.8716 123.963 43.4024 124.328C42.5032 125.028 41.6187 126.624 40.782 128.133C39.3259 130.76 37.9591 133.226 35.1893 134.491C32.2383 135.838 29.451 135.082 26.5492 134.296C25.0863 133.899 23.5741 133.489 22.7017 133.615C20.8321 133.885 18.621 137.119 16.4006 140.434C16.3474 140.529 16.2902 140.623 16.2286 140.715L16.2256 140.719ZM45.3442 174.225C45.113 176.477 43.0937 178.117 40.8342 177.886C38.5749 177.656 36.9309 175.642 37.1619 173.39C37.4427 170.712 37.7241 168.034 38.377 165.61C39.1833 162.618 40.5268 160.039 42.943 158.29C45.0191 156.787 47.4037 156.258 49.7099 155.747C51.1682 155.424 52.5688 155.114 52.7263 154.91C52.9251 154.654 52.9564 153.148 52.9897 151.544C53.0428 148.997 53.0989 146.307 54.2575 143.746C55.1079 141.865 56.4461 140.331 58.1128 139.03C59.5663 137.896 61.2276 136.974 62.9958 136.16C65.0593 135.211 67.5041 136.11 68.4558 138.167C69.4076 140.225 68.5061 142.662 66.4426 143.611C65.166 144.198 64.0306 144.814 63.1703 145.486C62.5231 145.991 62.0289 146.53 61.7631 147.118C61.2773 148.192 61.2396 149.997 61.2041 151.705C61.1418 154.71 61.0829 157.531 59.2332 159.921C57.2653 162.463 54.4319 163.091 51.4815 163.745C50.0237 164.068 48.5159 164.402 47.775 164.938C47.133 165.403 46.6846 166.427 46.3336 167.73C45.8293 169.602 45.5864 171.913 45.3442 174.225ZM86.7679 190.395C87.6039 192.497 86.5727 194.877 84.4647 195.71C82.3565 196.544 79.9694 195.516 79.1334 193.414C78.1372 190.926 77.1408 188.437 76.5845 185.975C75.9019 182.956 75.8866 180.055 77.2042 177.392C78.3546 175.07 80.2067 173.506 81.998 171.993C83.1368 171.031 84.2308 170.107 84.2747 169.856C84.3298 169.542 83.6524 168.189 82.9309 166.749C81.7986 164.49 80.6024 162.103 80.4295 159.254C80.2972 157.081 80.8176 155.011 81.766 153.01C82.5739 151.306 83.7131 149.647 85.0095 148.011C86.4149 146.237 88.9967 145.935 90.7757 147.337C92.5547 148.738 92.8577 151.312 91.4522 153.086C90.5305 154.249 89.7356 155.396 89.2074 156.511C88.82 157.328 88.6024 158.092 88.6438 158.772C88.7124 159.905 89.532 161.54 90.3076 163.088C91.6521 165.771 92.9148 168.291 92.3922 171.27C91.8372 174.435 89.6208 176.307 87.313 178.256C86.162 179.228 84.9717 180.233 84.581 181.022C84.2266 181.738 84.3074 182.857 84.6056 184.176C85.0297 186.053 85.8987 188.225 86.7679 190.395ZM130.979 185.457C132.705 186.929 132.907 189.517 131.43 191.238C129.954 192.959 127.358 193.16 125.632 191.688C123.597 189.955 121.561 188.221 119.908 186.287C117.894 183.932 116.526 181.367 116.449 178.385C116.383 175.798 117.288 173.564 118.163 171.404C118.727 170.012 119.269 168.675 119.193 168.438C119.093 168.129 117.863 167.247 116.554 166.309C114.494 164.833 112.317 163.272 110.843 160.845C109.664 158.904 109.163 156.743 109.096 154.441C109.038 152.427 109.304 150.373 109.713 148.302C110.149 146.076 112.312 144.624 114.545 145.058C116.777 145.493 118.234 147.65 117.798 149.875C117.483 151.474 117.275 152.967 117.311 154.216C117.338 155.179 117.499 156.002 117.866 156.605C118.463 157.589 119.948 158.654 121.354 159.661C123.799 161.413 126.094 163.059 127.02 165.933C128.009 168.998 126.926 171.671 125.798 174.455C125.229 175.859 124.641 177.31 124.664 178.193C124.684 178.978 125.277 179.927 126.157 180.956C127.398 182.408 129.189 183.933 130.979 185.457ZM167.795 160.577C170.01 161.074 171.401 163.267 170.903 165.475C170.405 167.683 168.206 169.071 165.991 168.574C163.37 167.983 160.748 167.391 158.384 166.447C155.506 165.298 153.101 163.664 151.642 161.062C150.38 158.81 150.136 156.398 149.901 154.067C149.751 152.584 149.607 151.161 149.424 150.981C149.201 150.763 147.702 150.554 146.107 150.332C143.58 149.979 140.909 149.606 138.484 148.15C136.521 146.971 135.052 145.24 133.898 143.162C132.908 141.378 132.182 139.382 131.57 137.297C130.939 135.125 132.193 132.853 134.373 132.223C136.552 131.594 138.831 132.845 139.462 135.017C139.93 136.61 140.448 138.07 141.082 139.211C141.552 140.059 142.091 140.729 142.737 141.116C143.738 141.718 145.535 141.969 147.235 142.206C150.218 142.622 153.019 143.013 155.19 145.136C157.489 147.385 157.78 150.265 158.083 153.264C158.234 154.757 158.39 156.301 158.826 157.079C159.21 157.765 160.181 158.331 161.445 158.835C163.222 159.545 165.509 160.061 167.795 160.577ZM188.78 121.464C190.977 120.879 193.234 122.181 193.821 124.371C194.408 126.562 193.103 128.812 190.906 129.397C188.335 130.083 185.764 130.769 183.182 131.036C180.101 131.354 177.213 131.026 174.715 129.405C172.529 127.987 171.192 125.973 169.901 124.025C169.075 122.781 168.282 121.586 168.047 121.516C167.714 121.416 166.295 121.924 164.784 122.466C162.385 123.325 159.851 124.233 157.046 124.071C154.731 123.937 152.633 123.106 150.674 121.829C149.008 120.744 147.439 119.321 145.912 117.753C144.329 116.13 144.365 113.534 145.992 111.956C147.62 110.377 150.223 110.413 151.807 112.036C152.936 113.196 154.063 114.226 155.184 114.956C156.011 115.495 156.791 115.841 157.497 115.881C158.686 115.95 160.396 115.337 162.014 114.758C164.853 113.74 167.52 112.785 170.398 113.647C173.495 114.573 175.095 116.985 176.762 119.497C177.597 120.755 178.46 122.057 179.193 122.532C179.862 122.966 180.989 123.018 182.345 122.878C184.2 122.686 186.49 122.075 188.78 121.464ZM189.144 77.067C190.843 75.5594 193.446 75.7104 194.958 77.4043C196.47 79.0981 196.319 81.6937 194.62 83.2013L194.618 83.2025L194.555 83.2574C190.228 87.2397 185.891 91.1845 180.354 90.6707C177.741 90.4279 175.623 89.2676 173.574 88.1459C172.263 87.4279 171.003 86.7381 170.756 86.7862L170.709 86.795C170.358 86.9163 169.37 87.9907 168.321 89.1324C166.593 91.0131 164.767 93.0003 162.198 94.1629C160.156 95.0872 157.981 95.3338 155.721 95.1421C153.807 94.9798 151.797 94.4789 149.746 93.825C147.584 93.1421 146.387 90.8413 147.072 88.6863C147.757 86.531 150.065 85.3376 152.226 86.0204C153.689 86.4869 155.101 86.8423 156.398 86.9523C157.349 87.0329 158.178 86.9684 158.816 86.6798C159.889 86.1939 161.11 84.8655 162.265 83.6084C164.248 81.4511 166.112 79.4216 168.942 78.7783C169.019 78.7584 169.098 78.7405 169.178 78.725C172.345 78.1087 174.888 79.5015 177.536 80.9516C178.867 81.68 180.243 82.4339 181.095 82.513C183.009 82.6906 185.983 79.9798 188.97 77.2302C189.026 77.175 189.083 77.1208 189.142 77.0682L189.144 77.067ZM168.659 37.7326C169.415 35.5952 171.766 34.4738 173.91 35.2275C176.054 35.9812 177.178 38.3251 176.422 40.4625L176.421 40.4672C174.431 46.0547 172.44 51.6421 167.242 53.7797C164.854 54.7618 162.43 54.7179 160.085 54.6757C158.585 54.6487 157.144 54.6228 156.945 54.7824C156.694 54.9833 156.308 56.4434 155.897 57.9982C155.247 60.4588 154.56 63.059 152.826 65.2823C151.511 66.9711 149.785 68.173 147.787 69.0515C146.079 69.8022 144.168 70.3032 142.157 70.6809C139.924 71.0978 137.776 69.631 137.358 67.405C136.94 65.1789 138.411 63.0366 140.643 62.6197C142.066 62.3523 143.38 62.0152 144.469 61.5362C145.267 61.1852 145.911 60.7645 146.32 60.2399C147.041 59.3144 147.503 57.5655 147.94 55.9108C148.707 53.009 149.427 50.2842 151.791 48.3911C154.303 46.3792 157.199 46.4314 160.214 46.4859C161.725 46.5131 163.288 46.5412 164.118 46.2C165.905 45.4652 167.281 41.6012 168.657 37.7373L168.659 37.7326ZM132.174 12.1525C131.952 9.89975 133.603 7.89391 135.862 7.67221C138.063 7.45624 140.029 9.01265 140.335 11.1752L140.34 11.1745C141.187 17.041 142.033 22.9094 138.434 27.2094C136.78 29.1852 134.61 30.2737 132.511 31.326C131.169 31.9989 129.88 32.6454 129.779 32.8766C129.655 33.1628 129.996 34.6386 130.359 36.2106C130.931 38.6854 131.536 41.3006 131.042 44.0603C130.685 46.06 129.795 47.8449 128.542 49.4829C127.446 50.9166 126.102 52.2007 124.627 53.4043C122.866 54.841 120.27 54.5821 118.829 52.8262C117.388 51.0703 117.648 48.4818 119.409 47.0451C120.458 46.189 121.364 45.3399 122.003 44.5048C122.485 43.8739 122.816 43.2528 122.925 42.6472C123.133 41.4807 122.725 39.7136 122.338 38.0413C121.663 35.1215 121.029 32.3802 122.242 29.6009C123.527 26.6507 126.114 25.3538 128.807 24.0034C130.152 23.3288 131.544 22.6308 132.12 21.9424C133.363 20.4575 132.776 16.3935 132.19 12.3306L132.195 12.3298C132.187 12.2715 132.18 12.213 132.174 12.154L132.174 12.1525Z" fill="#F2D602" fill-opacity="0.7"/>
</svg>
