<svg width="293" height="303" viewBox="0 0 293 303" fill="none" xmlns="http://www.w3.org/2000/svg">
<path d="M99.7177 296.563C98.2661 296.563 97.1909 296.011 96.4919 294.909C95.793 293.807 95.4435 292.235 95.4435 290.192C95.4435 289.063 95.578 287.947 95.8468 286.845C96.1156 285.716 96.4785 284.708 96.9355 283.821C97.3925 282.907 97.9032 282.181 98.4677 281.643C99.0323 281.079 99.5968 280.796 100.161 280.796C100.645 280.796 101.008 281.025 101.25 281.482C101.519 281.912 101.653 282.557 101.653 283.417C101.653 284.735 101.304 286.173 100.605 287.732C99.9059 289.291 98.9382 290.77 97.7016 292.167L96.7742 290.272L97.9032 287.893C97.8495 289.479 98.1317 290.689 98.75 291.522C99.3683 292.356 100.323 292.772 101.613 292.772C102.554 292.772 103.468 292.53 104.355 292.046C105.269 291.563 106.089 290.904 106.815 290.071C107.54 289.237 108.118 288.323 108.548 287.329C109.005 286.307 109.234 285.286 109.234 284.264C109.234 283.458 109.113 282.786 108.871 282.248C108.629 281.684 108.333 281.186 107.984 280.756C107.661 280.326 107.312 279.923 106.935 279.546C106.586 279.17 106.29 278.78 106.048 278.377C105.806 277.974 105.685 277.503 105.685 276.966C105.685 276.24 105.914 275.662 106.371 275.232C106.855 274.802 107.473 274.587 108.226 274.587C109.301 274.587 110.094 275.03 110.605 275.917C111.142 276.804 111.411 278.149 111.411 279.95C111.411 282.02 111.089 284.049 110.444 286.038C109.798 288.001 108.911 289.775 107.782 291.361C106.653 292.947 105.39 294.21 103.992 295.151C102.621 296.092 101.196 296.563 99.7177 296.563ZM89.8387 296.563C88.0645 296.563 86.6532 296.065 85.6048 295.071C84.5565 294.049 84.0323 292.665 84.0323 290.917C84.0323 289.923 84.207 288.915 84.5565 287.893C84.9328 286.845 85.4973 285.743 86.25 284.587C87.0027 283.431 87.9301 282.181 89.0323 280.837C90.1613 279.466 91.4785 277.947 92.9839 276.28C92.4462 276.468 91.8683 276.616 91.25 276.724C90.6586 276.831 90.0941 276.885 89.5565 276.885C89.0457 276.885 88.5753 276.831 88.1452 276.724C87.7419 276.616 87.3925 276.509 87.0968 276.401C86.8011 276.294 86.5457 276.24 86.3306 276.24C85.8199 276.24 85.5645 276.482 85.5645 276.966C85.5645 277.235 85.6317 277.53 85.7661 277.853C85.9274 278.149 86.0753 278.471 86.2097 278.821C86.3441 279.143 86.4113 279.479 86.4113 279.829C86.4113 280.42 86.1962 280.917 85.7661 281.321C85.3629 281.724 84.8522 281.925 84.2339 281.925C83.6425 281.925 83.172 281.724 82.8226 281.321C82.5 280.917 82.3387 280.353 82.3387 279.627C82.3387 278.659 82.621 277.799 83.1855 277.046C83.75 276.294 84.5296 275.702 85.5242 275.272C86.5457 274.815 87.7016 274.587 88.9919 274.587C89.7177 274.587 90.457 274.654 91.2097 274.788C91.9624 274.896 92.7823 275.071 93.6694 275.313L94.3548 274.224L95.4435 274.829C94.2339 276.603 93.1989 278.31 92.3387 279.95C91.4785 281.589 90.8199 283.135 90.3629 284.587C89.9328 286.038 89.7177 287.423 89.7177 288.74C89.7177 290.138 89.9866 291.2 90.5242 291.925C91.0618 292.624 91.8548 292.974 92.9032 292.974C93.4946 292.974 94.0457 292.853 94.5565 292.611C95.0941 292.369 95.6048 292.006 96.0887 291.522L96.7742 292.409C95.7796 293.834 94.7043 294.882 93.5484 295.554C92.4194 296.227 91.1828 296.563 89.8387 296.563ZM122.766 296.563C121.422 296.563 120.333 296.253 119.5 295.635C118.694 294.99 118.183 294.116 117.968 293.014C117.78 291.912 117.941 290.662 118.452 289.264L121.516 280.595C121.893 279.546 121.96 278.7 121.718 278.054C121.503 277.409 121.019 277.087 120.266 277.087C119.675 277.087 119.11 277.302 118.573 277.732C118.062 278.162 117.578 278.834 117.121 279.748L116.355 281.159H114.782L115.71 279.425C116.597 277.759 117.578 276.536 118.653 275.756C119.755 274.977 121.032 274.587 122.484 274.587C123.855 274.587 124.944 274.909 125.75 275.554C126.557 276.173 127.067 277.033 127.282 278.135C127.497 279.21 127.336 280.46 126.798 281.885L123.734 290.554C123.358 291.603 123.29 292.45 123.532 293.095C123.774 293.74 124.258 294.063 124.984 294.063C126.167 294.063 127.229 293.189 128.169 291.442L128.895 290.03H130.468L129.581 291.724C128.694 293.417 127.699 294.654 126.597 295.434C125.495 296.186 124.218 296.563 122.766 296.563ZM125.75 271.038C124.809 271.038 124.03 270.77 123.411 270.232C122.82 269.667 122.524 268.942 122.524 268.054C122.524 267.087 122.887 266.28 123.613 265.635C124.339 264.963 125.212 264.627 126.234 264.627C127.175 264.627 127.941 264.909 128.532 265.474C129.151 266.011 129.46 266.724 129.46 267.611C129.46 268.579 129.097 269.399 128.371 270.071C127.672 270.716 126.798 271.038 125.75 271.038ZM152.254 296.563C150.937 296.563 149.875 296.267 149.069 295.675C148.289 295.084 147.792 294.251 147.577 293.175C147.389 292.073 147.496 290.783 147.899 289.304L150.037 281.684C150.44 280.178 150.48 279.049 150.158 278.296C149.862 277.517 149.203 277.127 148.182 277.127C147.348 277.127 146.569 277.382 145.843 277.893C145.144 278.404 144.499 279.157 143.908 280.151L143.545 279.304C144.432 277.718 145.48 276.536 146.69 275.756C147.899 274.977 149.244 274.587 150.722 274.587C152.846 274.587 154.324 275.326 155.158 276.804C156.018 278.256 156.112 280.218 155.44 282.692L153.222 290.595C152.926 291.697 152.886 292.557 153.101 293.175C153.316 293.767 153.773 294.063 154.472 294.063C155.09 294.063 155.655 293.848 156.166 293.417C156.703 292.96 157.201 292.302 157.658 291.442L158.383 290.03H159.956L159.069 291.724C158.531 292.745 157.926 293.619 157.254 294.345C156.582 295.071 155.83 295.622 154.996 295.998C154.19 296.374 153.276 296.563 152.254 296.563ZM134.23 295.998L138.545 280.595C138.867 279.493 138.921 278.632 138.706 278.014C138.491 277.396 138.007 277.087 137.254 277.087C136.69 277.087 136.139 277.315 135.601 277.772C135.09 278.202 134.606 278.861 134.149 279.748L133.383 281.159H131.811L132.738 279.425C133.276 278.404 133.867 277.53 134.512 276.804C135.184 276.079 135.937 275.528 136.77 275.151C137.604 274.775 138.518 274.587 139.512 274.587C140.856 274.587 141.918 274.896 142.698 275.514C143.477 276.106 143.961 276.952 144.149 278.054C144.364 279.13 144.27 280.407 143.867 281.885L139.916 295.998H134.23ZM168.868 296.563C166.772 296.563 165.266 295.904 164.352 294.587C163.465 293.243 163.331 291.468 163.949 289.264L169.514 269.305C170.643 269.305 171.678 269.251 172.618 269.143C173.586 269.009 174.514 268.807 175.401 268.538L169.272 290.595C168.949 291.751 168.922 292.624 169.191 293.216C169.46 293.78 170.024 294.063 170.885 294.063C171.584 294.063 172.202 293.848 172.739 293.417C173.304 292.987 173.828 292.315 174.312 291.401L175.038 290.03H176.61L175.441 292.288C174.984 293.175 174.433 293.942 173.788 294.587C173.17 295.205 172.457 295.689 171.651 296.038C170.844 296.388 169.917 296.563 168.868 296.563ZM162.86 276.724L163.264 275.151H179.635L179.231 276.724H162.86ZM188.026 296.563C185.633 296.563 183.752 295.864 182.381 294.466C181.037 293.041 180.364 291.065 180.364 288.538C180.364 286.684 180.714 284.923 181.413 283.256C182.112 281.563 183.066 280.071 184.276 278.78C185.512 277.463 186.924 276.442 188.51 275.716C190.096 274.963 191.762 274.587 193.51 274.587C195.257 274.587 196.588 274.95 197.502 275.675C198.442 276.374 198.913 277.396 198.913 278.74C198.913 280.165 198.362 281.522 197.26 282.813C196.184 284.103 194.652 285.259 192.663 286.28C190.7 287.275 188.389 288.054 185.727 288.619V287.329C187.582 286.684 189.155 285.904 190.445 284.99C191.735 284.049 192.717 283.014 193.389 281.885C194.061 280.756 194.397 279.6 194.397 278.417C194.397 277.638 194.262 277.06 193.994 276.684C193.725 276.307 193.335 276.119 192.824 276.119C192.045 276.119 191.252 276.468 190.445 277.167C189.666 277.866 188.953 278.807 188.308 279.99C187.663 281.146 187.139 282.423 186.735 283.821C186.332 285.218 186.131 286.616 186.131 288.014C186.131 289.923 186.48 291.388 187.179 292.409C187.905 293.404 188.94 293.901 190.284 293.901C191.386 293.901 192.367 293.606 193.227 293.014C194.114 292.396 194.907 291.482 195.606 290.272H197.139C196.117 292.342 194.84 293.915 193.308 294.99C191.803 296.038 190.042 296.563 188.026 296.563ZM203.859 295.998L208.174 280.595C208.496 279.466 208.536 278.606 208.294 278.014C208.079 277.396 207.609 277.087 206.883 277.087C206.319 277.087 205.768 277.315 205.23 277.772C204.719 278.202 204.235 278.861 203.778 279.748L203.012 281.159H201.44L202.367 279.425C202.905 278.404 203.496 277.53 204.141 276.804C204.813 276.079 205.566 275.528 206.399 275.151C207.233 274.775 208.147 274.587 209.141 274.587C210.485 274.587 211.547 274.896 212.327 275.514C213.106 276.106 213.59 276.952 213.778 278.054C213.993 279.13 213.899 280.407 213.496 281.885L209.544 295.998H203.859ZM219.262 283.216C218.698 283.216 218.254 283.054 217.932 282.732C217.609 282.409 217.448 281.993 217.448 281.482C217.448 280.971 217.555 280.501 217.77 280.071C218.012 279.614 218.241 279.184 218.456 278.78C218.698 278.377 218.819 278.001 218.819 277.651C218.819 277.141 218.469 276.885 217.77 276.885C217.071 276.885 216.332 277.167 215.553 277.732C214.773 278.27 214.114 278.995 213.577 279.909L213.254 278.982C214.061 277.584 215.028 276.509 216.157 275.756C217.286 274.977 218.496 274.587 219.786 274.587C220.915 274.587 221.789 274.882 222.407 275.474C223.026 276.065 223.335 276.899 223.335 277.974C223.335 278.888 223.133 279.748 222.73 280.554C222.354 281.334 221.856 281.979 221.238 282.49C220.647 282.974 219.988 283.216 219.262 283.216Z" fill="#CEF1FF"/>
<path fill-rule="evenodd" clip-rule="evenodd" d="M180.222 156.549L198.205 182.717L167.703 178.203L179.078 197.886L216.948 197.88C219.606 197.879 221.761 200.076 221.771 202.723C221.78 205.389 219.605 207.586 216.936 207.585L184.677 207.575L191.41 219.226L207.826 219.229C210.486 219.23 212.646 221.415 212.659 224.066C212.672 226.734 210.498 228.938 207.824 228.935L197.012 228.919L206.335 245.052C207.649 247.326 206.903 250.29 204.616 251.612L204.553 251.648L204.541 251.655L204.528 251.662L204.465 251.699C202.179 253.02 199.238 252.187 197.924 249.912L188.601 233.78L183.215 243.156C181.884 245.474 178.888 246.257 176.583 244.914C174.292 243.579 173.478 240.616 174.805 238.312L182.999 224.087L176.266 212.436L160.168 240.391C158.836 242.704 155.847 243.491 153.542 242.153C151.252 240.823 150.425 237.858 151.753 235.555L170.667 202.747L159.292 183.063L147.974 211.745L134.28 183.098L121.738 204.819L140.991 238.136C142.316 240.428 141.524 243.4 139.229 244.726C136.923 246.059 133.94 245.299 132.604 242.983L116.17 214.485L110.725 224.356L119.438 239.432C120.768 241.734 119.965 244.696 117.665 246.025C115.358 247.358 112.387 246.593 111.05 244.279L105.13 234.035L95.204 250.81C94.7729 251.558 94.1667 252.137 93.4225 252.567C91.9288 253.43 90.0724 253.432 88.5791 252.569C86.2734 251.235 85.4888 248.265 86.8192 245.96L96.715 228.816L83.8059 228.91C81.1324 228.908 78.9664 226.733 78.9765 224.06C78.9863 221.398 81.1004 219.221 83.78 219.221L102.289 219.121L109.039 207.463L74.8885 207.032C72.2221 207.035 70.0505 204.886 70.0264 202.22C70.0025 199.536 72.1732 197.346 74.8581 197.344L114.596 197.775L125.875 178.242L95.0522 181.61L94.4817 180.622L112.789 155.598L90.2342 155.618L70.766 190.263C69.4234 192.588 66.4428 193.376 64.1286 192.015C61.8309 190.663 61.0532 187.708 62.3871 185.399L79.0652 155.595L65.5942 155.623L56.2657 171.61C54.928 173.932 51.9862 174.676 49.6745 173.355C47.3535 172.03 46.5506 169.067 47.8838 166.75L54.4111 155.612L34.616 155.626C31.9548 155.628 29.7728 153.465 29.7686 150.801C29.7659 149.076 30.6945 147.469 32.1882 146.606C32.9324 146.176 33.7371 145.94 34.5998 145.939L54.0907 145.716L48.1703 135.471C46.8335 133.157 47.6537 130.201 49.9606 128.868C52.2606 127.539 55.2279 128.322 56.5579 130.624L65.2702 145.7L76.5413 145.911L60.0556 117.443C58.7155 115.129 59.5466 112.165 61.8531 110.832C64.1476 109.506 67.118 110.303 68.443 112.596L87.6963 145.912L112.778 145.891L94.7947 119.723L125.297 124.237L113.922 104.554L76.0522 104.56C73.3934 104.561 71.2383 102.364 71.229 99.7166C71.2198 97.0509 73.3946 94.8541 76.064 94.8549L108.323 94.8649L101.59 83.2136L85.1735 83.2108C82.5139 83.2103 80.3536 81.0252 80.3408 78.374C80.3279 75.7062 82.5022 73.5016 85.1753 73.5054L95.9882 73.5207L86.6652 57.3881C85.351 55.1139 86.0972 52.1495 88.3838 50.8281L88.4469 50.7917L88.4591 50.7846L88.4713 50.7776L88.5343 50.7411C90.8209 49.4197 93.7619 50.2532 95.0762 52.5275L104.399 68.6601L109.785 59.2839C111.116 56.9659 114.112 56.1828 116.417 57.526C118.707 58.8608 119.522 61.8236 118.195 64.1282L110.001 78.353L116.734 90.0043L132.832 62.0493C134.164 59.736 137.153 58.9486 139.458 60.2875C141.748 61.6175 142.575 64.5815 141.247 66.8849L122.333 99.6933L133.708 119.377L145.026 90.6946L158.72 119.342L171.262 97.6207L152.008 64.3043C150.683 62.0115 151.476 59.0398 153.77 57.7138C156.077 56.3809 159.06 57.1408 160.396 59.4574L176.83 87.955L182.274 78.0837L173.562 63.0077C172.232 60.7062 173.035 57.7441 175.335 56.415C177.642 55.0819 180.613 55.8473 181.95 58.1606L187.87 68.4054L197.796 51.6296C198.227 50.8823 198.833 50.3029 199.577 49.8728C201.071 49.0096 202.927 49.0077 204.421 49.8713C206.726 51.2049 207.511 54.1754 206.181 56.4802L196.285 73.6243L209.194 73.5298C211.867 73.5317 214.033 75.7066 214.023 78.3796C214.013 81.042 211.899 83.219 209.22 83.2187L190.711 83.3194L183.961 94.977L218.111 95.4077C220.778 95.4048 222.949 97.5538 222.973 100.219C222.997 102.904 220.827 105.094 218.142 105.096L178.403 104.665L167.125 124.198L197.948 120.83L198.518 121.818L180.211 146.842L202.766 146.822L222.234 112.177C223.576 109.852 226.557 109.064 228.871 110.425C231.169 111.777 231.947 114.732 230.613 117.041L213.935 146.845L227.406 146.817L236.734 130.83C238.072 128.508 241.014 127.764 243.325 129.084C245.646 130.41 246.449 133.373 245.116 135.69L238.589 146.828L258.384 146.814C261.045 146.812 263.227 148.975 263.231 151.639C263.234 153.364 262.305 154.971 260.812 155.834C260.067 156.264 259.263 156.5 258.4 156.501L238.909 156.724L244.829 166.969C246.166 169.283 245.346 172.239 243.039 173.572C240.739 174.901 237.772 174.118 236.442 171.816L227.73 156.74L216.459 156.529L232.944 184.997C234.284 187.311 233.453 190.275 231.147 191.608C228.852 192.934 225.882 192.137 224.557 189.844L205.303 156.528L180.222 156.549Z" fill="#CEF1FF"/>
</svg>
