<svg width="1426" height="792" viewBox="0 0 1426 792" fill="none" xmlns="http://www.w3.org/2000/svg">
<rect width="1426" height="792" fill="#B8B8B8"/>
<path d="M430.823 421L431.976 416.911C434.352 416.772 436.519 416.282 438.476 415.444C440.433 414.535 442.32 413.172 444.137 411.355C445.954 409.538 447.911 407.126 450.008 404.121L490.056 346.04H493.935L502.952 408C503.301 410.167 503.86 411.914 504.629 413.242C505.398 414.5 506.516 415.409 507.984 415.968C509.522 416.527 511.513 416.841 513.96 416.911L512.911 421C511.164 420.86 508.858 420.79 505.992 420.79C503.126 420.72 499.876 420.685 496.242 420.685C491.909 420.685 488.134 420.72 484.919 420.79C481.774 420.79 479.293 420.86 477.476 421L478.629 416.911C482.263 416.841 484.989 416.562 486.806 416.073C488.694 415.513 489.917 414.64 490.476 413.452C491.105 412.194 491.245 410.411 490.895 408.105L483.871 359.774L486.806 357.258L457.032 400.452C454.376 404.296 452.734 407.406 452.105 409.782C451.546 412.159 452.035 413.906 453.573 415.024C455.18 416.142 457.976 416.772 461.96 416.911L460.806 421C457.941 420.86 455.04 420.79 452.105 420.79C449.239 420.72 446.409 420.685 443.613 420.685C441.516 420.685 439.419 420.72 437.323 420.79C435.226 420.79 433.059 420.86 430.823 421ZM459.444 394.895L462.065 390.806H493.411L494.04 394.895H459.444ZM541.029 422.468C536.486 422.468 532.851 421.419 530.125 419.323C527.4 417.156 525.722 414.081 525.093 410.097C524.464 406.043 524.918 401.22 526.456 395.629L537.674 355.685C538.373 353.239 538.547 351.317 538.198 349.919C537.918 348.522 536.94 347.543 535.262 346.984C533.655 346.355 531.139 346.04 527.714 346.04L528.867 341.952C534.109 341.882 538.792 341.497 542.916 340.798C547.039 340.099 550.744 339.051 554.029 337.653L537.15 398.25C535.262 404.89 534.738 409.922 535.577 413.347C536.486 416.702 538.582 418.379 541.867 418.379C544.453 418.379 546.9 417.54 549.206 415.863C551.512 414.116 553.574 411.774 555.391 408.839C557.209 405.833 558.641 402.444 559.69 398.669C560.738 394.825 561.262 390.841 561.262 386.718C561.262 381.895 560.494 378.191 558.956 375.605C557.488 372.949 555.287 371.621 552.351 371.621C550.115 371.621 548.053 372.39 546.166 373.927C544.279 375.465 542.671 377.667 541.343 380.532L541.448 377.073C543.195 373.368 545.432 370.538 548.158 368.581C550.883 366.554 553.959 365.54 557.383 365.54C562.206 365.54 565.98 367.358 568.706 370.992C571.502 374.626 572.865 379.624 572.795 385.984C572.795 391.016 571.956 395.734 570.279 400.137C568.671 404.54 566.4 408.419 563.464 411.774C560.598 415.059 557.244 417.68 553.4 419.637C549.555 421.524 545.432 422.468 541.029 422.468ZM604.412 422.468C598.681 422.468 594.207 420.651 590.992 417.016C587.847 413.382 586.275 408.28 586.275 401.71C586.275 396.887 587.078 392.309 588.686 387.976C590.363 383.573 592.635 379.694 595.5 376.339C598.436 372.984 601.756 370.363 605.46 368.476C609.164 366.519 613.113 365.54 617.307 365.54C623.038 365.54 627.511 367.392 630.726 371.097C633.941 374.731 635.549 379.798 635.549 386.298C635.549 391.121 634.71 395.734 633.033 400.137C631.425 404.47 629.154 408.315 626.218 411.669C623.353 415.024 620.033 417.68 616.259 419.637C612.554 421.524 608.605 422.468 604.412 422.468ZM605.146 418.379C607.033 418.379 608.885 417.75 610.702 416.492C612.589 415.164 614.336 413.382 615.944 411.145C617.552 408.839 618.984 406.218 620.242 403.282C621.5 400.277 622.479 397.097 623.178 393.742C623.877 390.317 624.226 386.892 624.226 383.468C624.226 378.855 623.562 375.395 622.234 373.089C620.976 370.712 619.124 369.524 616.678 369.524C614.791 369.524 612.904 370.188 611.017 371.516C609.199 372.844 607.487 374.661 605.879 376.968C604.272 379.204 602.839 381.825 601.581 384.831C600.323 387.766 599.345 390.946 598.646 394.371C597.947 397.726 597.597 401.116 597.597 404.54C597.597 409.153 598.226 412.613 599.484 414.919C600.812 417.226 602.699 418.379 605.146 418.379ZM666.652 422.468C663.227 422.468 660.431 421.629 658.264 419.952C656.168 418.204 654.84 415.793 654.281 412.718C653.721 409.573 654.036 405.938 655.224 401.815L660.99 381.161C661.829 378.156 661.969 375.849 661.41 374.242C660.85 372.565 659.627 371.726 657.74 371.726C656.203 371.726 654.735 372.32 653.337 373.508C651.939 374.696 650.646 376.444 649.458 378.75L647.466 382.629H643.377L645.684 378.121C647.082 375.535 648.549 373.333 650.087 371.516C651.695 369.629 653.477 368.161 655.434 367.113C657.391 366.065 659.592 365.54 662.039 365.54C665.184 365.54 667.63 366.309 669.377 367.847C671.125 369.315 672.208 371.376 672.627 374.032C673.047 376.688 672.732 379.763 671.684 383.258L666.337 402.444C665.079 406.917 664.939 410.341 665.918 412.718C666.896 415.094 668.923 416.282 671.998 416.282C674.445 416.282 676.681 415.548 678.708 414.081C680.735 412.543 682.587 410.306 684.264 407.371L684.684 409.887C682.377 414.081 679.721 417.226 676.716 419.323C673.711 421.419 670.356 422.468 666.652 422.468ZM693.7 422.468C690.555 422.468 688.109 421.734 686.361 420.266C684.614 418.728 683.531 416.632 683.111 413.976C682.762 411.25 683.076 408.175 684.055 404.75L694.643 367.008H705.966L694.748 406.847C693.91 409.852 693.77 412.194 694.329 413.871C694.888 415.478 696.111 416.282 697.998 416.282C699.536 416.282 701.004 415.723 702.402 414.605C703.799 413.417 705.092 411.634 706.281 409.258L708.272 405.484H712.361L710.055 409.992C708.727 412.508 707.259 414.71 705.652 416.597C704.044 418.484 702.262 419.952 700.305 421C698.418 421.978 696.216 422.468 693.7 422.468ZM735.152 422.468C730.33 422.468 726.87 420.86 724.773 417.645C722.676 414.36 722.397 410.062 723.934 404.75L738.822 351.282C740.988 351.212 743.05 351.038 745.007 350.758C746.964 350.478 748.851 350.094 750.668 349.605L734.628 406.952C733.789 410.027 733.719 412.368 734.418 413.976C735.187 415.513 736.69 416.282 738.926 416.282C740.744 416.282 742.386 415.688 743.854 414.5C745.391 413.312 746.789 411.53 748.047 409.153L750.039 405.484H754.023L750.878 411.565C749.76 413.591 748.467 415.444 746.999 417.121C745.531 418.728 743.819 420.022 741.862 421C739.975 421.978 737.738 422.468 735.152 422.468ZM721.523 370.992L722.572 367.008H762.096L760.942 370.992H721.523ZM869.84 422.468C866.695 422.468 864.214 421.734 862.397 420.266C860.65 418.728 859.601 416.632 859.252 413.976C858.902 411.25 859.182 408.175 860.09 404.75L865.542 385.355C866.8 380.882 866.975 377.492 866.066 375.185C865.158 372.879 863.166 371.726 860.09 371.726C857.714 371.726 855.443 372.495 853.276 374.032C851.179 375.5 849.257 377.667 847.51 380.532L847.195 378.016C849.502 373.892 852.158 370.782 855.163 368.685C858.168 366.589 861.523 365.54 865.228 365.54C868.652 365.54 871.413 366.414 873.51 368.161C875.607 369.839 876.934 372.25 877.494 375.395C878.123 378.47 877.843 382.07 876.655 386.194L870.889 406.847C870.05 409.852 869.875 412.194 870.365 413.871C870.924 415.478 872.147 416.282 874.034 416.282C875.641 416.282 877.109 415.723 878.437 414.605C879.835 413.417 881.163 411.634 882.421 409.258L884.413 405.484H888.502L886.09 409.992C884.762 412.508 883.295 414.71 881.687 416.597C880.08 418.484 878.297 419.952 876.34 421C874.453 421.978 872.287 422.468 869.84 422.468ZM797.292 421L808.51 381.056C809.348 378.191 809.488 375.919 808.929 374.242C808.44 372.565 807.217 371.726 805.26 371.726C803.792 371.726 802.359 372.32 800.961 373.508C799.564 374.626 798.236 376.374 796.978 378.75L794.986 382.524H790.897L793.308 378.016C794.636 375.5 796.069 373.298 797.607 371.411C799.214 369.524 800.996 368.091 802.953 367.113C804.91 366.065 807.112 365.54 809.558 365.54C812.703 365.54 815.15 366.309 816.897 367.847C818.644 369.315 819.728 371.376 820.147 374.032C820.566 376.688 820.287 379.763 819.308 383.258L808.719 421H797.292ZM827.066 421L837.026 385.355C838.284 380.882 838.424 377.492 837.445 375.185C836.537 372.879 834.58 371.726 831.574 371.726C829.198 371.726 826.926 372.46 824.76 373.927C822.663 375.395 820.741 377.597 818.994 380.532L818.679 378.016C820.986 373.892 823.641 370.782 826.647 368.685C829.722 366.589 833.077 365.54 836.711 365.54C840.136 365.54 842.897 366.414 844.994 368.161C847.16 369.839 848.523 372.215 849.082 375.29C849.641 378.366 849.327 382 848.139 386.194L838.389 421H827.066ZM914.139 422.468C908.478 422.468 904.074 420.72 900.929 417.226C897.784 413.661 896.211 408.699 896.211 402.339C896.211 397.446 897.085 392.798 898.832 388.395C900.58 383.992 902.921 380.078 905.857 376.653C908.862 373.159 912.287 370.433 916.131 368.476C920.045 366.519 924.133 365.54 928.397 365.54C932.381 365.54 935.421 366.414 937.518 368.161C939.685 369.909 940.768 372.425 940.768 375.71C940.768 379.484 939.335 383.083 936.47 386.508C933.674 389.863 929.69 392.868 924.518 395.524C919.416 398.11 913.37 400.172 906.381 401.71L906.486 398.355C911.658 396.817 916.061 394.895 919.695 392.589C923.33 390.282 926.09 387.696 927.978 384.831C929.865 381.965 930.808 378.925 930.808 375.71C930.808 373.613 930.424 372.04 929.655 370.992C928.886 369.944 927.768 369.419 926.3 369.419C924.133 369.419 921.932 370.398 919.695 372.355C917.529 374.242 915.537 376.758 913.72 379.903C911.972 382.978 910.539 386.403 909.421 390.177C908.373 393.882 907.849 397.586 907.849 401.29C907.849 406.183 908.757 409.957 910.574 412.613C912.461 415.199 915.117 416.492 918.542 416.492C921.408 416.492 923.994 415.653 926.3 413.976C928.607 412.298 930.703 409.747 932.59 406.323H936.47C933.953 411.634 930.808 415.653 927.034 418.379C923.26 421.105 918.961 422.468 914.139 422.468Z" fill="#696969"/>
</svg>
