<svg width="225" height="248" viewBox="0 0 225 248" fill="none" xmlns="http://www.w3.org/2000/svg">
<path d="M32.3871 244.565C30.3978 244.565 28.8253 243.866 27.6694 242.468C26.5134 241.07 25.9355 239.161 25.9355 236.742C25.9355 234.887 26.2715 233.113 26.9435 231.419C27.6156 229.726 28.5161 228.22 29.6452 226.903C30.8011 225.559 32.1183 224.511 33.5968 223.758C35.1022 222.978 36.6613 222.589 38.2742 222.589C39.6183 222.589 40.8952 222.871 42.1048 223.435C43.3145 224 44.4301 224.82 45.4516 225.895L41.5806 228.355C41.5 227.038 41.1774 226.016 40.6129 225.29C40.0753 224.538 39.3763 224.161 38.5161 224.161C37.6559 224.161 36.8091 224.497 35.9758 225.169C35.1694 225.841 34.4435 226.755 33.7984 227.911C33.1532 229.04 32.6425 230.331 32.2661 231.782C31.8898 233.207 31.7016 234.685 31.7016 236.218C31.7016 237.992 31.9839 239.349 32.5484 240.29C33.1398 241.231 33.9597 241.702 35.0081 241.702C35.7608 241.702 36.4462 241.487 37.0645 241.056C37.7097 240.599 38.3011 239.914 38.8387 239L39.2016 239.605C38.422 241.218 37.4543 242.454 36.2984 243.315C35.1694 244.148 33.8656 244.565 32.3871 244.565ZM43.1532 244.565C41.1909 244.565 39.8065 243.919 39 242.629C38.2204 241.339 38.1532 239.565 38.7984 237.306L41.9032 226.218C43.2473 225.761 44.457 225.237 45.5323 224.645C46.6344 224.054 47.6694 223.341 48.6371 222.508L49.5242 223.677C49.0941 224.054 48.7312 224.43 48.4355 224.806C48.1667 225.156 47.9247 225.559 47.7097 226.016C47.5215 226.473 47.3333 227.051 47.1452 227.75L44.121 238.597C43.7984 239.699 43.7446 240.559 43.9597 241.177C44.2016 241.769 44.6855 242.065 45.4113 242.065C45.8414 242.065 46.2312 241.957 46.5806 241.742C46.957 241.527 47.3065 241.218 47.629 240.815C47.9516 240.411 48.2473 239.954 48.5161 239.444L49.2823 238.032H50.8548L49.8468 239.887C49.3629 240.855 48.7849 241.688 48.1129 242.387C47.4677 243.086 46.7285 243.624 45.8952 244C45.0887 244.376 44.1747 244.565 43.1532 244.565ZM60.9808 244.565C59.583 244.565 58.454 244.228 57.5938 243.556C56.7604 242.884 56.2228 241.944 55.9808 240.734C55.7389 239.524 55.8464 238.099 56.3034 236.46L58.5212 228.597C58.8438 227.468 58.8975 226.608 58.6825 226.016C58.4674 225.398 57.9835 225.089 57.2308 225.089C56.6394 225.089 56.0884 225.317 55.5776 225.774C55.0669 226.204 54.5696 226.863 54.0857 227.75L53.3599 229.161H51.7873L52.6744 227.427C53.2389 226.406 53.8437 225.546 54.4889 224.847C55.161 224.121 55.9002 223.57 56.7067 223.194C57.54 222.817 58.4674 222.629 59.4889 222.629C60.833 222.629 61.8948 222.925 62.6744 223.516C63.454 224.108 63.9378 224.954 64.126 226.056C64.3411 227.132 64.2335 228.409 63.8034 229.887L61.7067 237.468C61.3034 238.973 61.2497 240.116 61.5454 240.895C61.8679 241.675 62.5265 242.065 63.5212 242.065C64.3545 242.065 65.1072 241.809 65.7792 241.298C66.4782 240.788 67.0964 240.035 67.6341 239.04L67.997 239.887C67.1368 241.446 66.1153 242.616 64.9325 243.395C63.7765 244.175 62.4593 244.565 60.9808 244.565ZM72.0292 244.565C70.6851 244.565 69.6233 244.269 68.8437 243.677C68.0642 243.059 67.5669 242.212 67.3518 241.137C67.1636 240.035 67.2712 238.758 67.6744 237.306L71.626 223.153H77.3115L72.997 238.597C72.6744 239.699 72.6206 240.559 72.8357 241.177C73.0776 241.769 73.5615 242.065 74.2873 242.065C74.8518 242.065 75.3894 241.849 75.9002 241.419C76.4378 240.989 76.9351 240.331 77.3921 239.444L78.1583 238.032H79.7308L78.8034 239.726C78.2658 240.747 77.661 241.621 76.9889 242.347C76.3438 243.073 75.6045 243.624 74.7712 244C73.9647 244.376 73.0507 244.565 72.0292 244.565ZM88.6985 244.565C86.6018 244.565 85.0964 243.906 84.1824 242.589C83.2953 241.245 83.1609 239.47 83.7792 237.266L89.3437 217.306C90.4727 217.306 91.5077 217.253 92.4485 217.145C93.4163 217.011 94.3437 216.809 95.2308 216.54L89.1018 238.597C88.7792 239.753 88.7523 240.626 89.0211 241.218C89.2899 241.782 89.8544 242.065 90.7147 242.065C91.4136 242.065 92.0319 241.849 92.5695 241.419C93.134 240.989 93.6582 240.317 94.1421 239.403L94.8679 238.032H96.4405L95.2711 240.29C94.8141 241.177 94.263 241.944 93.6179 242.589C92.9996 243.207 92.2872 243.691 91.4808 244.04C90.6743 244.39 89.7469 244.565 88.6985 244.565ZM82.6905 224.726L83.0937 223.153H99.4647L99.0614 224.726H82.6905ZM108.198 244.565C106.8 244.565 105.671 244.228 104.811 243.556C103.977 242.884 103.44 241.944 103.198 240.734C102.956 239.524 103.063 238.099 103.52 236.46L105.738 228.597C106.061 227.468 106.114 226.608 105.899 226.016C105.684 225.398 105.2 225.089 104.448 225.089C103.856 225.089 103.305 225.317 102.794 225.774C102.284 226.204 101.786 226.863 101.302 227.75L100.577 229.161H99.0041L99.8912 227.427C100.456 226.406 101.061 225.546 101.706 224.847C102.378 224.121 103.117 223.57 103.923 223.194C104.757 222.817 105.684 222.629 106.706 222.629C108.05 222.629 109.112 222.925 109.891 223.516C110.671 224.108 111.155 224.954 111.343 226.056C111.558 227.132 111.45 228.409 111.02 229.887L108.923 237.468C108.52 238.973 108.466 240.116 108.762 240.895C109.085 241.675 109.743 242.065 110.738 242.065C111.571 242.065 112.324 241.809 112.996 241.298C113.695 240.788 114.313 240.035 114.851 239.04L115.214 239.887C114.354 241.446 113.332 242.616 112.149 243.395C110.993 244.175 109.676 244.565 108.198 244.565ZM119.246 244.565C117.902 244.565 116.84 244.269 116.061 243.677C115.281 243.059 114.784 242.212 114.569 241.137C114.38 240.035 114.488 238.758 114.891 237.306L118.843 223.153H124.528L120.214 238.597C119.891 239.699 119.837 240.559 120.052 241.177C120.294 241.769 120.778 242.065 121.504 242.065C122.069 242.065 122.606 241.849 123.117 241.419C123.655 240.989 124.152 240.331 124.609 239.444L125.375 238.032H126.948L126.02 239.726C125.483 240.747 124.878 241.621 124.206 242.347C123.561 243.073 122.821 243.624 121.988 244C121.182 244.376 120.268 244.565 119.246 244.565ZM159.224 244.565C157.907 244.565 156.845 244.269 156.038 243.677C155.259 243.059 154.775 242.212 154.587 241.137C154.399 240.035 154.506 238.758 154.909 237.306L157.006 229.645C157.436 228.167 157.504 227.051 157.208 226.298C156.912 225.519 156.254 225.129 155.232 225.129C154.426 225.129 153.673 225.384 152.974 225.895C152.275 226.379 151.63 227.118 151.038 228.113L150.716 227.266C151.576 225.707 152.598 224.538 153.78 223.758C154.963 222.978 156.28 222.589 157.732 222.589C159.157 222.589 160.286 222.925 161.119 223.597C161.979 224.269 162.517 225.21 162.732 226.419C162.974 227.629 162.866 229.054 162.409 230.694L160.192 238.597C159.896 239.699 159.856 240.559 160.071 241.177C160.286 241.769 160.756 242.065 161.482 242.065C162.073 242.065 162.625 241.849 163.135 241.419C163.673 240.989 164.17 240.331 164.627 239.444L165.353 238.032H166.926L166.038 239.726C165.501 240.747 164.896 241.621 164.224 242.347C163.552 243.073 162.813 243.624 162.006 244C161.2 244.376 160.272 244.565 159.224 244.565ZM130.232 244L134.547 228.597C134.869 227.495 134.923 226.634 134.708 226.016C134.493 225.398 134.009 225.089 133.256 225.089C132.692 225.089 132.141 225.304 131.603 225.734C131.092 226.164 130.608 226.836 130.151 227.75L129.385 229.161H127.813L128.74 227.427C129.278 226.406 129.869 225.532 130.514 224.806C131.186 224.081 131.939 223.53 132.772 223.153C133.606 222.777 134.52 222.589 135.514 222.589C136.858 222.589 137.92 222.898 138.7 223.516C139.479 224.108 139.963 224.954 140.151 226.056C140.366 227.132 140.272 228.409 139.869 229.887L135.918 244H130.232ZM141.845 244L145.837 229.645C146.267 228.167 146.321 227.051 145.998 226.298C145.702 225.519 145.071 225.129 144.103 225.129C143.27 225.129 142.504 225.384 141.805 225.895C141.106 226.379 140.461 227.118 139.869 228.113L139.506 227.266C140.393 225.707 141.428 224.538 142.611 223.758C143.794 222.978 145.125 222.589 146.603 222.589C148.001 222.589 149.116 222.925 149.95 223.597C150.81 224.269 151.348 225.21 151.563 226.419C151.805 227.629 151.697 229.054 151.24 230.694L147.53 244H141.845ZM188.246 244.565C186.929 244.565 185.867 244.269 185.061 243.677C184.281 243.086 183.784 242.253 183.569 241.177C183.381 240.075 183.488 238.785 183.892 237.306L186.029 229.685C186.432 228.18 186.472 227.051 186.15 226.298C185.854 225.519 185.195 225.129 184.174 225.129C183.341 225.129 182.561 225.384 181.835 225.895C181.136 226.406 180.491 227.159 179.9 228.153L179.537 227.306C180.424 225.72 181.472 224.538 182.682 223.758C183.892 222.978 185.236 222.589 186.714 222.589C188.838 222.589 190.316 223.328 191.15 224.806C192.01 226.258 192.104 228.22 191.432 230.694L189.214 238.597C188.919 239.699 188.878 240.559 189.093 241.177C189.308 241.769 189.765 242.065 190.464 242.065C191.082 242.065 191.647 241.849 192.158 241.419C192.695 240.962 193.193 240.304 193.65 239.444L194.376 238.032H195.948L195.061 239.726C194.523 240.747 193.919 241.621 193.246 242.347C192.574 243.073 191.822 243.624 190.988 244C190.182 244.376 189.268 244.565 188.246 244.565ZM170.222 244L174.537 228.597C174.859 227.495 174.913 226.634 174.698 226.016C174.483 225.398 173.999 225.089 173.246 225.089C172.682 225.089 172.131 225.317 171.593 225.774C171.082 226.204 170.599 226.863 170.142 227.75L169.376 229.161H167.803L168.73 227.427C169.268 226.406 169.859 225.532 170.505 224.806C171.177 224.081 171.929 223.53 172.763 223.153C173.596 222.777 174.51 222.589 175.505 222.589C176.849 222.589 177.91 222.898 178.69 223.516C179.47 224.108 179.953 224.954 180.142 226.056C180.357 227.132 180.263 228.409 179.859 229.887L175.908 244H170.222Z" fill="#DF9036" fill-opacity="0.8"/>
<path d="M75.7006 152.206C77.4017 150.305 77.2396 147.384 75.3383 145.683C73.437 143.982 70.5162 144.144 68.8151 146.045C65.9423 149.246 55.7932 160.13 43.2828 168.624C31.4971 176.626 17.6578 182.514 6.68565 177.027C4.40407 175.887 1.62939 176.811 0.48861 179.093C-0.65218 181.375 0.272709 184.149 2.55429 185.29C17.3347 192.68 34.3519 185.853 48.465 176.271C61.8533 167.18 72.6473 155.609 75.7006 152.206Z" fill="#FF9C22" fill-opacity="0.8"/>
<path fill-rule="evenodd" clip-rule="evenodd" d="M77.7762 142.88L77.7792 142.954C72.2292 158.486 89.1031 180.275 102.93 186.624C109.545 189.662 115.921 190.191 127.132 195.204C130.87 189.162 126.104 180.705 128.506 177.271L135.116 183.76C149.7 193.733 153.373 193.246 170.233 193.172C174.109 191.607 173.09 190.127 173.851 186.289C175.604 186.118 177.862 187.313 179.752 187.721C184.798 188.37 194.624 187.463 197.398 181.26C202.378 179.603 222.706 173.476 225 168.638C223.275 160.448 198.166 149.008 190.999 141.91C189.776 137.433 190.912 132.105 184.427 131.584C170.589 128.475 162.287 126.288 148.444 121.48C157.345 114.379 172.432 109.977 180.082 99.2585C193.254 93.5424 185.882 81.2219 186.788 76.8877C189.926 73.1001 190.917 66.3891 195.6 61.3558C214.756 16.2548 211.67 16.0613 166.416 32.1717C161.037 36.5084 154.052 37.2254 150.017 40.1172C145.497 40.8365 133 33.2891 126.612 45.7886C115.24 52.7852 110.144 67.1785 102.474 75.5099C97.9877 61.9891 96.018 53.9041 93.2914 40.4478C92.9821 34.1751 87.4245 35.0813 82.8319 33.7421C75.7358 26.5775 64.7825 1.95579 56.3617 0C51.2707 2.04017 44.2017 21.4276 42.3093 26.171C35.787 28.6252 34.4979 38.0698 34.9901 42.9589C35.3454 44.7966 36.5031 47.017 36.2633 48.701C32.2615 49.2984 30.7648 48.2627 29.0064 51.9454C28.3306 68.203 27.6956 71.7278 37.5042 86.1483L43.9889 92.7535C40.3474 94.948 31.7585 90.0504 25.3682 93.4401C31.0538 106.478 30.4472 112.73 35.3339 120.78C42.9297 133.292 62.9144 147.295 77.7762 142.88Z" fill="#DF9036" fill-opacity="0.5"/>
<path fill-rule="evenodd" clip-rule="evenodd" d="M77.4934 141.576L77.4959 141.637C72.8899 154.527 86.8936 172.61 98.3681 177.879C103.858 180.4 109.15 180.839 118.454 185C121.556 179.986 117.601 172.967 119.594 170.117L125.079 175.502C137.183 183.778 140.231 183.374 154.223 183.314C157.44 182.015 156.594 180.786 157.226 177.601C158.68 177.459 160.554 178.451 162.123 178.79C166.311 179.328 174.466 178.575 176.767 173.427C180.9 172.053 197.771 166.967 199.674 162.953C198.242 156.155 177.405 146.662 171.457 140.771C170.442 137.055 171.385 132.634 166.003 132.201C154.519 129.621 147.629 127.806 136.141 123.816C143.527 117.923 156.048 114.27 162.397 105.375C173.328 100.631 167.211 90.406 167.962 86.809C170.567 83.6657 171.389 78.0963 175.275 73.9191C191.173 36.4899 188.612 36.3293 151.055 49.6993C146.591 53.2983 140.794 53.8933 137.446 56.2932C133.695 56.8901 123.324 50.6266 118.022 60.9999C108.585 66.8064 104.356 78.7514 97.9902 85.6656C94.2669 74.4447 92.6322 67.7349 90.3695 56.5676C90.1127 51.3619 85.5005 52.1139 81.6891 51.0025C75.8001 45.0567 66.7099 24.6231 59.7215 23C55.4965 24.6931 49.6299 40.7827 48.0594 44.7193C42.6465 46.756 41.5767 54.5941 41.9853 58.6516C42.2801 60.1766 43.2409 62.0194 43.0418 63.4169C39.7208 63.9127 38.4786 63.0532 37.0194 66.1094C36.4586 79.6016 35.9315 82.5268 44.0717 94.4944L49.4533 99.9761C46.4312 101.797 39.3033 97.7328 34 100.546C38.7185 111.366 38.2151 116.554 42.2706 123.235C48.5743 133.619 65.1596 145.24 77.4934 141.576Z" fill="#DF9036" fill-opacity="0.8"/>
</svg>
