<svg width="490" height="367" viewBox="0 0 490 367" fill="none" xmlns="http://www.w3.org/2000/svg">
<rect width="490" height="367" fill="#B8B8B8"/>
<path d="M120.239 164L120.683 162.427C122.027 162.347 123.035 162.212 123.707 162.024C124.379 161.836 124.863 161.513 125.158 161.056C125.481 160.573 125.777 159.874 126.045 158.96L131.166 140.492C131.435 139.524 131.529 138.812 131.449 138.355C131.395 137.898 131.086 137.575 130.521 137.387C129.957 137.172 129.043 137.051 127.779 137.024L128.223 135.452C128.976 135.478 129.984 135.505 131.247 135.532C132.511 135.559 133.949 135.573 135.562 135.573C137.121 135.573 138.545 135.559 139.836 135.532C141.126 135.505 142.215 135.478 143.102 135.452L142.699 137.024C141.381 137.078 140.387 137.199 139.715 137.387C139.043 137.575 138.532 137.898 138.183 138.355C137.86 138.812 137.564 139.524 137.295 140.492L132.174 158.96C131.906 159.901 131.798 160.613 131.852 161.097C131.933 161.581 132.255 161.917 132.82 162.105C133.411 162.266 134.325 162.374 135.562 162.427L135.118 164C134.338 163.946 133.317 163.919 132.054 163.919C130.79 163.892 129.365 163.879 127.779 163.879C126.113 163.879 124.634 163.892 123.344 163.919C122.08 163.919 121.045 163.946 120.239 164ZM160.933 164.565C159.616 164.565 158.554 164.269 157.748 163.677C156.968 163.086 156.471 162.253 156.256 161.177C156.067 160.075 156.175 158.785 156.578 157.306L158.715 149.685C159.118 148.18 159.159 147.051 158.836 146.298C158.541 145.519 157.882 145.129 156.86 145.129C156.027 145.129 155.248 145.384 154.522 145.895C153.823 146.406 153.178 147.159 152.586 148.153L152.223 147.306C153.11 145.72 154.159 144.538 155.368 143.758C156.578 142.978 157.922 142.589 159.401 142.589C161.524 142.589 163.003 143.328 163.836 144.806C164.696 146.258 164.791 148.22 164.118 150.694L161.901 158.597C161.605 159.699 161.565 160.559 161.78 161.177C161.995 161.769 162.452 162.065 163.151 162.065C163.769 162.065 164.334 161.849 164.844 161.419C165.382 160.962 165.879 160.304 166.336 159.444L167.062 158.032H168.635L167.748 159.726C167.21 160.747 166.605 161.621 165.933 162.347C165.261 163.073 164.508 163.624 163.675 164C162.868 164.376 161.955 164.565 160.933 164.565ZM142.909 164L147.223 148.597C147.546 147.495 147.6 146.634 147.385 146.016C147.17 145.398 146.686 145.089 145.933 145.089C145.368 145.089 144.817 145.317 144.28 145.774C143.769 146.204 143.285 146.863 142.828 147.75L142.062 149.161H140.489L141.417 147.427C141.955 146.406 142.546 145.532 143.191 144.806C143.863 144.081 144.616 143.53 145.449 143.153C146.282 142.777 147.196 142.589 148.191 142.589C149.535 142.589 150.597 142.898 151.377 143.516C152.156 144.108 152.64 144.954 152.828 146.056C153.043 147.132 152.949 148.409 152.546 149.887L148.594 164H142.909ZM177.547 164.565C175.45 164.565 173.945 163.906 173.031 162.589C172.144 161.245 172.01 159.47 172.628 157.266L178.192 137.306C179.321 137.306 180.356 137.253 181.297 137.145C182.265 137.011 183.192 136.809 184.079 136.54L177.95 158.597C177.628 159.753 177.601 160.626 177.87 161.218C178.139 161.782 178.703 162.065 179.563 162.065C180.262 162.065 180.88 161.849 181.418 161.419C181.983 160.989 182.507 160.317 182.991 159.403L183.717 158.032H185.289L184.12 160.29C183.663 161.177 183.112 161.944 182.467 162.589C181.848 163.207 181.136 163.691 180.329 164.04C179.523 164.39 178.596 164.565 177.547 164.565ZM171.539 144.726L171.942 143.153H188.313L187.91 144.726H171.539ZM196.704 164.565C194.312 164.565 192.43 163.866 191.059 162.468C189.715 161.043 189.043 159.067 189.043 156.54C189.043 154.685 189.393 152.925 190.092 151.258C190.791 149.565 191.745 148.073 192.954 146.782C194.191 145.465 195.602 144.444 197.188 143.718C198.774 142.965 200.441 142.589 202.188 142.589C203.936 142.589 205.266 142.952 206.18 143.677C207.121 144.376 207.592 145.398 207.592 146.742C207.592 148.167 207.041 149.524 205.938 150.815C204.863 152.105 203.331 153.261 201.342 154.282C199.379 155.277 197.067 156.056 194.406 156.621V155.331C196.261 154.685 197.834 153.906 199.124 152.992C200.414 152.051 201.395 151.016 202.067 149.887C202.739 148.758 203.075 147.602 203.075 146.419C203.075 145.64 202.941 145.062 202.672 144.685C202.403 144.309 202.014 144.121 201.503 144.121C200.723 144.121 199.93 144.47 199.124 145.169C198.344 145.868 197.632 146.809 196.987 147.992C196.342 149.148 195.817 150.425 195.414 151.823C195.011 153.22 194.809 154.618 194.809 156.016C194.809 157.925 195.159 159.39 195.858 160.411C196.584 161.406 197.618 161.903 198.963 161.903C200.065 161.903 201.046 161.608 201.906 161.016C202.793 160.398 203.586 159.484 204.285 158.274H205.817C204.796 160.344 203.519 161.917 201.987 162.992C200.481 164.04 198.721 164.565 196.704 164.565ZM212.538 164L216.852 148.597C217.175 147.468 217.215 146.608 216.973 146.016C216.758 145.398 216.288 145.089 215.562 145.089C214.997 145.089 214.446 145.317 213.909 145.774C213.398 146.204 212.914 146.863 212.457 147.75L211.691 149.161H210.118L211.046 147.427C211.583 146.406 212.175 145.532 212.82 144.806C213.492 144.081 214.245 143.53 215.078 143.153C215.911 142.777 216.825 142.589 217.82 142.589C219.164 142.589 220.226 142.898 221.005 143.516C221.785 144.108 222.269 144.954 222.457 146.056C222.672 147.132 222.578 148.409 222.175 149.887L218.223 164H212.538ZM227.941 151.218C227.376 151.218 226.933 151.056 226.61 150.734C226.288 150.411 226.126 149.995 226.126 149.484C226.126 148.973 226.234 148.503 226.449 148.073C226.691 147.616 226.919 147.185 227.134 146.782C227.376 146.379 227.497 146.003 227.497 145.653C227.497 145.142 227.148 144.887 226.449 144.887C225.75 144.887 225.011 145.169 224.231 145.734C223.452 146.272 222.793 146.997 222.255 147.911L221.933 146.984C222.739 145.586 223.707 144.511 224.836 143.758C225.965 142.978 227.175 142.589 228.465 142.589C229.594 142.589 230.468 142.884 231.086 143.476C231.704 144.067 232.014 144.901 232.014 145.976C232.014 146.89 231.812 147.75 231.409 148.556C231.032 149.336 230.535 149.981 229.917 150.492C229.325 150.976 228.667 151.218 227.941 151.218ZM240.474 164.565C238.485 164.565 236.912 163.866 235.756 162.468C234.6 161.07 234.022 159.161 234.022 156.742C234.022 154.887 234.358 153.113 235.03 151.419C235.703 149.726 236.603 148.22 237.732 146.903C238.888 145.559 240.205 144.511 241.684 143.758C243.189 142.978 244.748 142.589 246.361 142.589C247.705 142.589 248.982 142.871 250.192 143.435C251.401 144 252.517 144.82 253.539 145.895L249.668 148.355C249.587 147.038 249.264 146.016 248.7 145.29C248.162 144.538 247.463 144.161 246.603 144.161C245.743 144.161 244.896 144.497 244.063 145.169C243.256 145.841 242.53 146.755 241.885 147.911C241.24 149.04 240.729 150.331 240.353 151.782C239.977 153.207 239.789 154.685 239.789 156.218C239.789 157.992 240.071 159.349 240.635 160.29C241.227 161.231 242.047 161.702 243.095 161.702C243.848 161.702 244.533 161.487 245.151 161.056C245.797 160.599 246.388 159.914 246.926 159L247.289 159.605C246.509 161.218 245.541 162.454 244.385 163.315C243.256 164.148 241.953 164.565 240.474 164.565ZM251.24 164.565C249.278 164.565 247.893 163.919 247.087 162.629C246.307 161.339 246.24 159.565 246.885 157.306L249.99 146.218C251.334 145.761 252.544 145.237 253.619 144.645C254.721 144.054 255.756 143.341 256.724 142.508L257.611 143.677C257.181 144.054 256.818 144.43 256.522 144.806C256.254 145.156 256.012 145.559 255.797 146.016C255.608 146.473 255.42 147.051 255.232 147.75L252.208 158.597C251.885 159.699 251.832 160.559 252.047 161.177C252.289 161.769 252.772 162.065 253.498 162.065C253.928 162.065 254.318 161.957 254.668 161.742C255.044 161.527 255.393 161.218 255.716 160.815C256.039 160.411 256.334 159.954 256.603 159.444L257.369 158.032H258.942L257.934 159.887C257.45 160.855 256.872 161.688 256.2 162.387C255.555 163.086 254.815 163.624 253.982 164C253.176 164.376 252.262 164.565 251.24 164.565ZM269.036 164.565C266.67 164.565 264.816 163.852 263.471 162.427C262.127 161.003 261.455 159.027 261.455 156.5C261.455 154.645 261.805 152.884 262.504 151.218C263.203 149.551 264.157 148.073 265.367 146.782C266.576 145.492 267.961 144.47 269.52 143.718C271.106 142.965 272.773 142.589 274.52 142.589C276.24 142.589 277.598 142.965 278.592 143.718C279.614 144.444 280.125 145.438 280.125 146.702C280.125 147.535 279.91 148.315 279.479 149.04C279.049 149.766 278.498 150.358 277.826 150.815C277.154 151.272 276.415 151.5 275.609 151.5C274.963 151.5 274.453 151.352 274.076 151.056C273.727 150.734 273.552 150.304 273.552 149.766C273.552 149.255 273.7 148.798 273.996 148.395C274.318 147.992 274.681 147.629 275.084 147.306C275.488 146.957 275.837 146.621 276.133 146.298C276.455 145.949 276.617 145.559 276.617 145.129C276.617 144.484 276.146 144.161 275.205 144.161C274.184 144.161 273.189 144.497 272.221 145.169C271.281 145.815 270.434 146.702 269.681 147.831C268.928 148.96 268.324 150.237 267.867 151.661C267.436 153.086 267.221 154.538 267.221 156.016C267.221 157.898 267.557 159.349 268.229 160.371C268.928 161.392 269.95 161.903 271.294 161.903C272.369 161.903 273.324 161.608 274.157 161.016C275.017 160.425 275.797 159.511 276.496 158.274H278.028C277.006 160.344 275.743 161.917 274.238 162.992C272.759 164.04 271.025 164.565 269.036 164.565ZM289.364 164.565C287.267 164.565 285.761 163.906 284.847 162.589C283.96 161.245 283.826 159.47 284.444 157.266L290.009 137.306C291.138 137.306 292.173 137.253 293.114 137.145C294.081 137.011 295.009 136.809 295.896 136.54L289.767 158.597C289.444 159.753 289.417 160.626 289.686 161.218C289.955 161.782 290.519 162.065 291.38 162.065C292.079 162.065 292.697 161.849 293.235 161.419C293.799 160.989 294.323 160.317 294.807 159.403L295.533 158.032H297.105L295.936 160.29C295.479 161.177 294.928 161.944 294.283 162.589C293.665 163.207 292.952 163.691 292.146 164.04C291.339 164.39 290.412 164.565 289.364 164.565ZM283.356 144.726L283.759 143.153H300.13L299.726 144.726H283.356ZM307.861 164.565C306.517 164.565 305.428 164.255 304.595 163.637C303.788 162.992 303.278 162.118 303.063 161.016C302.874 159.914 303.036 158.664 303.546 157.266L306.611 148.597C306.987 147.548 307.054 146.702 306.813 146.056C306.597 145.411 306.114 145.089 305.361 145.089C304.77 145.089 304.205 145.304 303.667 145.734C303.157 146.164 302.673 146.836 302.216 147.75L301.45 149.161H299.877L300.804 147.427C301.692 145.761 302.673 144.538 303.748 143.758C304.85 142.978 306.127 142.589 307.579 142.589C308.95 142.589 310.038 142.911 310.845 143.556C311.651 144.175 312.162 145.035 312.377 146.137C312.592 147.212 312.431 148.462 311.893 149.887L308.829 158.556C308.452 159.605 308.385 160.452 308.627 161.097C308.869 161.742 309.353 162.065 310.079 162.065C311.261 162.065 312.323 161.191 313.264 159.444L313.99 158.032H315.563L314.675 159.726C313.788 161.419 312.794 162.656 311.692 163.435C310.589 164.188 309.313 164.565 307.861 164.565ZM310.845 139.04C309.904 139.04 309.124 138.772 308.506 138.234C307.915 137.669 307.619 136.944 307.619 136.056C307.619 135.089 307.982 134.282 308.708 133.637C309.433 132.965 310.307 132.629 311.329 132.629C312.27 132.629 313.036 132.911 313.627 133.476C314.245 134.013 314.554 134.726 314.554 135.613C314.554 136.581 314.192 137.401 313.466 138.073C312.767 138.718 311.893 139.04 310.845 139.04ZM326.12 164.565C324.265 164.565 322.814 164.067 321.765 163.073C320.744 162.051 320.233 160.667 320.233 158.919C320.233 157.925 320.408 156.917 320.757 155.895C321.134 154.847 321.685 153.745 322.41 152.589C323.163 151.433 324.091 150.183 325.193 148.839C326.322 147.468 327.625 145.949 329.104 144.282C328.566 144.47 327.988 144.618 327.37 144.726C326.779 144.833 326.214 144.887 325.677 144.887C325.166 144.887 324.695 144.833 324.265 144.726C323.862 144.618 323.513 144.511 323.217 144.403C322.921 144.296 322.666 144.242 322.451 144.242C322.182 144.242 321.98 144.309 321.846 144.444C321.738 144.578 321.685 144.753 321.685 144.968C321.685 145.237 321.752 145.532 321.886 145.855C322.048 146.151 322.195 146.473 322.33 146.823C322.464 147.145 322.531 147.481 322.531 147.831C322.531 148.422 322.316 148.919 321.886 149.323C321.483 149.726 320.972 149.927 320.354 149.927C319.763 149.927 319.292 149.726 318.943 149.323C318.62 148.919 318.459 148.355 318.459 147.629C318.459 146.661 318.741 145.801 319.306 145.048C319.87 144.296 320.65 143.704 321.644 143.274C322.639 142.817 323.795 142.589 325.112 142.589C325.838 142.589 326.577 142.656 327.33 142.79C328.109 142.898 328.929 143.073 329.789 143.315L330.435 142.226L331.523 142.831C330.448 144.578 329.521 146.298 328.741 147.992C327.962 149.659 327.357 151.231 326.927 152.71C326.523 154.161 326.322 155.478 326.322 156.661C326.322 158.059 326.604 159.148 327.169 159.927C327.76 160.68 328.593 161.056 329.669 161.056C330.636 161.056 331.591 160.788 332.531 160.25C333.472 159.712 334.319 159.013 335.072 158.153C335.851 157.266 336.456 156.298 336.886 155.25C337.343 154.202 337.572 153.167 337.572 152.145C337.572 151.204 337.397 150.425 337.048 149.806C336.725 149.188 336.335 148.637 335.878 148.153C335.448 147.642 335.058 147.145 334.709 146.661C334.359 146.177 334.185 145.613 334.185 144.968C334.185 144.269 334.413 143.704 334.87 143.274C335.327 142.817 335.945 142.589 336.725 142.589C337.773 142.589 338.566 143.019 339.104 143.879C339.642 144.739 339.91 146.056 339.91 147.831C339.91 150.008 339.534 152.091 338.781 154.081C338.029 156.07 337.007 157.858 335.717 159.444C334.427 161.03 332.948 162.28 331.281 163.194C329.642 164.108 327.921 164.565 326.12 164.565ZM351.734 164.565C349.341 164.565 347.46 163.866 346.089 162.468C344.745 161.043 344.072 159.067 344.072 156.54C344.072 154.685 344.422 152.925 345.121 151.258C345.82 149.565 346.774 148.073 347.984 146.782C349.22 145.465 350.632 144.444 352.218 143.718C353.804 142.965 355.47 142.589 357.218 142.589C358.965 142.589 360.296 142.952 361.21 143.677C362.15 144.376 362.621 145.398 362.621 146.742C362.621 148.167 362.07 149.524 360.968 150.815C359.892 152.105 358.36 153.261 356.371 154.282C354.409 155.277 352.097 156.056 349.435 156.621V155.331C351.29 154.685 352.863 153.906 354.153 152.992C355.443 152.051 356.425 151.016 357.097 149.887C357.769 148.758 358.105 147.602 358.105 146.419C358.105 145.64 357.97 145.062 357.702 144.685C357.433 144.309 357.043 144.121 356.532 144.121C355.753 144.121 354.96 144.47 354.153 145.169C353.374 145.868 352.661 146.809 352.016 147.992C351.371 149.148 350.847 150.425 350.443 151.823C350.04 153.22 349.839 154.618 349.839 156.016C349.839 157.925 350.188 159.39 350.887 160.411C351.613 161.406 352.648 161.903 353.992 161.903C355.094 161.903 356.075 161.608 356.935 161.016C357.822 160.398 358.615 159.484 359.314 158.274H360.847C359.825 160.344 358.548 161.917 357.016 162.992C355.511 164.04 353.75 164.565 351.734 164.565ZM147.143 224L147.587 222.427C148.904 222.347 149.885 222.226 150.53 222.065C151.202 221.876 151.7 221.54 152.022 221.056C152.345 220.573 152.627 219.874 152.869 218.96L158.03 200.492C158.299 199.524 158.393 198.812 158.313 198.355C158.259 197.871 157.95 197.535 157.385 197.347C156.821 197.159 155.92 197.051 154.684 197.024L155.127 195.452C156.256 195.478 157.735 195.505 159.563 195.532C161.391 195.532 163.555 195.532 166.055 195.532C167.13 195.532 168.165 195.532 169.159 195.532C170.181 195.532 171.176 195.532 172.143 195.532C173.138 195.505 174.146 195.492 175.167 195.492C176.216 195.492 177.305 195.478 178.434 195.452C178.004 196.796 177.641 198.153 177.345 199.524C177.076 200.895 176.848 202.36 176.659 203.919H175.047C175.047 202.226 174.885 200.882 174.563 199.887C174.267 198.892 173.743 198.18 172.99 197.75C172.264 197.32 171.256 197.105 169.966 197.105H165.127L158.998 218.96C158.756 219.901 158.689 220.613 158.797 221.097C158.931 221.554 159.388 221.876 160.167 222.065C160.947 222.226 162.17 222.347 163.837 222.427L163.434 224C162.439 223.946 161.189 223.919 159.684 223.919C158.205 223.892 156.525 223.879 154.643 223.879C153.084 223.879 151.673 223.892 150.409 223.919C149.146 223.919 148.057 223.946 147.143 224ZM160.047 210.734L160.49 209.161H168.797L168.353 210.734H160.047ZM167.426 216.661C167.506 215.156 167.439 213.973 167.224 213.113C167.036 212.253 166.673 211.648 166.135 211.298C165.598 210.922 164.845 210.734 163.877 210.734L164.28 209.161C165.356 209.161 166.256 209.013 166.982 208.718C167.708 208.395 168.353 207.884 168.917 207.185C169.482 206.46 170.047 205.478 170.611 204.242H172.224C172.116 204.565 171.955 205.035 171.74 205.653C171.552 206.272 171.35 206.957 171.135 207.71C170.92 208.462 170.719 209.215 170.53 209.968C170.423 210.371 170.288 210.868 170.127 211.46C169.993 212.024 169.831 212.723 169.643 213.556C169.482 214.39 169.28 215.425 169.038 216.661H167.426ZM184.644 224.565C182.251 224.565 180.37 223.866 178.999 222.468C177.655 221.043 176.983 219.067 176.983 216.54C176.983 214.685 177.332 212.925 178.031 211.258C178.73 209.565 179.684 208.073 180.894 206.782C182.13 205.465 183.542 204.444 185.128 203.718C186.714 202.965 188.38 202.589 190.128 202.589C191.875 202.589 193.206 202.952 194.12 203.677C195.061 204.376 195.531 205.398 195.531 206.742C195.531 208.167 194.98 209.524 193.878 210.815C192.803 212.105 191.27 213.261 189.281 214.282C187.319 215.277 185.007 216.056 182.346 216.621V215.331C184.2 214.685 185.773 213.906 187.063 212.992C188.354 212.051 189.335 211.016 190.007 209.887C190.679 208.758 191.015 207.602 191.015 206.419C191.015 205.64 190.88 205.062 190.612 204.685C190.343 204.309 189.953 204.121 189.442 204.121C188.663 204.121 187.87 204.47 187.063 205.169C186.284 205.868 185.571 206.809 184.926 207.992C184.281 209.148 183.757 210.425 183.354 211.823C182.95 213.22 182.749 214.618 182.749 216.016C182.749 217.925 183.098 219.39 183.797 220.411C184.523 221.406 185.558 221.903 186.902 221.903C188.004 221.903 188.985 221.608 189.846 221.016C190.733 220.398 191.526 219.484 192.225 218.274H193.757C192.735 220.344 191.458 221.917 189.926 222.992C188.421 224.04 186.66 224.565 184.644 224.565ZM205.367 224.565C203.377 224.565 201.805 223.866 200.649 222.468C199.493 221.07 198.915 219.161 198.915 216.742C198.915 214.887 199.251 213.113 199.923 211.419C200.595 209.726 201.496 208.22 202.625 206.903C203.781 205.559 205.098 204.511 206.576 203.758C208.082 202.978 209.641 202.589 211.254 202.589C212.598 202.589 213.875 202.871 215.084 203.435C216.294 204 217.41 204.82 218.431 205.895L214.56 208.355C214.479 207.038 214.157 206.016 213.592 205.29C213.055 204.538 212.356 204.161 211.496 204.161C210.635 204.161 209.789 204.497 208.955 205.169C208.149 205.841 207.423 206.755 206.778 207.911C206.133 209.04 205.622 210.331 205.246 211.782C204.869 213.207 204.681 214.685 204.681 216.218C204.681 217.992 204.963 219.349 205.528 220.29C206.119 221.231 206.939 221.702 207.988 221.702C208.74 221.702 209.426 221.487 210.044 221.056C210.689 220.599 211.281 219.914 211.818 219L212.181 219.605C211.402 221.218 210.434 222.454 209.278 223.315C208.149 224.148 206.845 224.565 205.367 224.565ZM216.133 224.565C214.17 224.565 212.786 223.919 211.979 222.629C211.2 221.339 211.133 219.565 211.778 217.306L214.883 206.218C216.227 205.761 217.436 205.237 218.512 204.645C219.614 204.054 220.649 203.341 221.617 202.508L222.504 203.677C222.074 204.054 221.711 204.43 221.415 204.806C221.146 205.156 220.904 205.559 220.689 206.016C220.501 206.473 220.313 207.051 220.125 207.75L217.1 218.597C216.778 219.699 216.724 220.559 216.939 221.177C217.181 221.769 217.665 222.065 218.391 222.065C218.821 222.065 219.211 221.957 219.56 221.742C219.936 221.527 220.286 221.218 220.609 220.815C220.931 220.411 221.227 219.954 221.496 219.444L222.262 218.032H223.834L222.826 219.887C222.342 220.855 221.764 221.688 221.092 222.387C220.447 223.086 219.708 223.624 218.875 224C218.068 224.376 217.154 224.565 216.133 224.565ZM232.821 224.565C230.724 224.565 229.218 223.906 228.304 222.589C227.417 221.245 227.283 219.47 227.901 217.266L233.466 197.306C234.595 197.306 235.63 197.253 236.571 197.145C237.538 197.011 238.466 196.809 239.353 196.54L233.224 218.597C232.901 219.753 232.874 220.626 233.143 221.218C233.412 221.782 233.977 222.065 234.837 222.065C235.536 222.065 236.154 221.849 236.692 221.419C237.256 220.989 237.78 220.317 238.264 219.403L238.99 218.032H240.563L239.393 220.29C238.936 221.177 238.385 221.944 237.74 222.589C237.122 223.207 236.409 223.691 235.603 224.04C234.796 224.39 233.869 224.565 232.821 224.565ZM226.813 204.726L227.216 203.153H243.587L243.183 204.726H226.813ZM252.32 224.565C250.922 224.565 249.793 224.228 248.933 223.556C248.099 222.884 247.562 221.944 247.32 220.734C247.078 219.524 247.185 218.099 247.642 216.46L249.86 208.597C250.183 207.468 250.236 206.608 250.021 206.016C249.806 205.398 249.322 205.089 248.57 205.089C247.978 205.089 247.427 205.317 246.916 205.774C246.406 206.204 245.908 206.863 245.425 207.75L244.699 209.161H243.126L244.013 207.427C244.578 206.406 245.183 205.546 245.828 204.847C246.5 204.121 247.239 203.57 248.046 203.194C248.879 202.817 249.806 202.629 250.828 202.629C252.172 202.629 253.234 202.925 254.013 203.516C254.793 204.108 255.277 204.954 255.465 206.056C255.68 207.132 255.572 208.409 255.142 209.887L253.046 217.468C252.642 218.973 252.589 220.116 252.884 220.895C253.207 221.675 253.865 222.065 254.86 222.065C255.693 222.065 256.446 221.809 257.118 221.298C257.817 220.788 258.435 220.035 258.973 219.04L259.336 219.887C258.476 221.446 257.454 222.616 256.271 223.395C255.115 224.175 253.798 224.565 252.32 224.565ZM263.368 224.565C262.024 224.565 260.962 224.269 260.183 223.677C259.403 223.059 258.906 222.212 258.691 221.137C258.503 220.035 258.61 218.758 259.013 217.306L262.965 203.153H268.65L264.336 218.597C264.013 219.699 263.959 220.559 264.175 221.177C264.416 221.769 264.9 222.065 265.626 222.065C266.191 222.065 266.728 221.849 267.239 221.419C267.777 220.989 268.274 220.331 268.731 219.444L269.497 218.032H271.07L270.142 219.726C269.605 220.747 269 221.621 268.328 222.347C267.683 223.073 266.943 223.624 266.11 224C265.304 224.376 264.39 224.565 263.368 224.565ZM274.354 224L278.669 208.597C278.991 207.468 279.032 206.608 278.79 206.016C278.575 205.398 278.104 205.089 277.378 205.089C276.814 205.089 276.263 205.317 275.725 205.774C275.214 206.204 274.73 206.863 274.273 207.75L273.507 209.161H271.935L272.862 207.427C273.4 206.406 273.991 205.532 274.636 204.806C275.308 204.081 276.061 203.53 276.894 203.153C277.728 202.777 278.642 202.589 279.636 202.589C280.98 202.589 282.042 202.898 282.822 203.516C283.601 204.108 284.085 204.954 284.273 206.056C284.489 207.132 284.394 208.409 283.991 209.887L280.04 224H274.354ZM289.757 211.218C289.193 211.218 288.749 211.056 288.427 210.734C288.104 210.411 287.943 209.995 287.943 209.484C287.943 208.973 288.05 208.503 288.265 208.073C288.507 207.616 288.736 207.185 288.951 206.782C289.193 206.379 289.314 206.003 289.314 205.653C289.314 205.142 288.964 204.887 288.265 204.887C287.566 204.887 286.827 205.169 286.048 205.734C285.268 206.272 284.609 206.997 284.072 207.911L283.749 206.984C284.556 205.586 285.523 204.511 286.653 203.758C287.782 202.978 288.991 202.589 290.282 202.589C291.411 202.589 292.284 202.884 292.903 203.476C293.521 204.067 293.83 204.901 293.83 205.976C293.83 206.89 293.628 207.75 293.225 208.556C292.849 209.336 292.351 209.981 291.733 210.492C291.142 210.976 290.483 211.218 289.757 211.218ZM303.492 224.565C301.099 224.565 299.217 223.866 297.846 222.468C296.502 221.043 295.83 219.067 295.83 216.54C295.83 214.685 296.18 212.925 296.879 211.258C297.578 209.565 298.532 208.073 299.742 206.782C300.978 205.465 302.389 204.444 303.975 203.718C305.561 202.965 307.228 202.589 308.975 202.589C310.723 202.589 312.053 202.952 312.967 203.677C313.908 204.376 314.379 205.398 314.379 206.742C314.379 208.167 313.828 209.524 312.725 210.815C311.65 212.105 310.118 213.261 308.129 214.282C306.166 215.277 303.854 216.056 301.193 216.621V215.331C303.048 214.685 304.621 213.906 305.911 212.992C307.201 212.051 308.182 211.016 308.854 209.887C309.527 208.758 309.863 207.602 309.863 206.419C309.863 205.64 309.728 205.062 309.459 204.685C309.191 204.309 308.801 204.121 308.29 204.121C307.51 204.121 306.717 204.47 305.911 205.169C305.131 205.868 304.419 206.809 303.774 207.992C303.129 209.148 302.604 210.425 302.201 211.823C301.798 213.22 301.596 214.618 301.596 216.016C301.596 217.925 301.946 219.39 302.645 220.411C303.371 221.406 304.406 221.903 305.75 221.903C306.852 221.903 307.833 221.608 308.693 221.016C309.58 220.398 310.373 219.484 311.072 218.274H312.604C311.583 220.344 310.306 221.917 308.774 222.992C307.268 224.04 305.508 224.565 303.492 224.565ZM324.845 224.565C323.178 224.565 321.699 224.336 320.409 223.879C319.119 223.422 318.111 222.79 317.385 221.984C316.659 221.177 316.296 220.263 316.296 219.242C316.296 218.328 316.552 217.589 317.062 217.024C317.6 216.46 318.312 216.177 319.199 216.177C319.952 216.177 320.53 216.392 320.933 216.823C321.363 217.226 321.592 217.804 321.619 218.556C321.619 219.04 321.552 219.538 321.417 220.048C321.283 220.532 321.216 220.935 321.216 221.258C321.242 221.849 321.538 222.293 322.103 222.589C322.667 222.884 323.474 223.032 324.522 223.032C325.92 223.032 327.009 222.763 327.788 222.226C328.568 221.661 328.958 220.895 328.958 219.927C328.958 219.175 328.742 218.516 328.312 217.952C327.882 217.36 327.331 216.823 326.659 216.339C326.014 215.828 325.315 215.317 324.562 214.806C323.81 214.296 323.097 213.758 322.425 213.194C321.753 212.602 321.202 211.944 320.772 211.218C320.369 210.492 320.167 209.659 320.167 208.718C320.167 206.863 320.96 205.384 322.546 204.282C324.159 203.153 326.216 202.589 328.716 202.589C330.275 202.589 331.646 202.804 332.828 203.234C334.038 203.664 334.979 204.255 335.651 205.008C336.35 205.734 336.699 206.567 336.699 207.508C336.699 208.315 336.458 208.973 335.974 209.484C335.49 209.995 334.858 210.25 334.078 210.25C333.406 210.25 332.855 210.062 332.425 209.685C332.022 209.309 331.82 208.812 331.82 208.194C331.82 207.79 331.874 207.36 331.982 206.903C332.116 206.419 332.17 206.03 332.143 205.734C332.143 205.196 331.888 204.793 331.377 204.524C330.866 204.255 330.14 204.121 329.199 204.121C328.017 204.121 327.089 204.376 326.417 204.887C325.745 205.371 325.409 206.043 325.409 206.903C325.409 207.602 325.624 208.247 326.054 208.839C326.484 209.403 327.022 209.941 327.667 210.452C328.339 210.935 329.052 211.446 329.804 211.984C330.557 212.495 331.256 213.046 331.901 213.637C332.573 214.202 333.124 214.86 333.554 215.613C333.984 216.339 334.199 217.185 334.199 218.153C334.199 219.444 333.796 220.573 332.99 221.54C332.183 222.481 331.081 223.22 329.683 223.758C328.285 224.296 326.673 224.565 324.845 224.565Z" fill="#3E3636"/>
</svg>
