<svg width="490" height="367" viewBox="0 0 490 367" fill="none" xmlns="http://www.w3.org/2000/svg">
<rect width="490" height="367" fill="#B8B8B8"/>
<path d="M57.9919 191L58.4355 189.427C59.7796 189.347 60.7876 189.212 61.4597 189.024C62.1317 188.836 62.6156 188.513 62.9113 188.056C63.2339 187.573 63.5296 186.874 63.7984 185.96L68.9194 167.492C69.1882 166.524 69.2823 165.812 69.2016 165.355C69.1478 164.871 68.8253 164.535 68.2339 164.347C67.6694 164.159 66.7688 164.051 65.5323 164.024L65.9758 162.452C66.4597 162.478 67.0108 162.492 67.629 162.492C68.2473 162.492 68.9731 162.505 69.8065 162.532C70.6398 162.532 71.5941 162.532 72.6694 162.532C73.8253 162.532 74.8065 162.532 75.6129 162.532C76.4462 162.505 77.1317 162.492 77.6694 162.492C78.2339 162.465 78.6909 162.452 79.0403 162.452C82.2661 162.452 84.7661 163.124 86.5403 164.468C88.3414 165.812 89.2419 167.707 89.2419 170.153C89.2419 172.116 88.6505 173.89 87.4677 175.476C86.3118 177.035 84.7124 178.272 82.6694 179.185C80.6532 180.073 78.3548 180.516 75.7742 180.516C74.8602 180.516 73.9866 180.462 73.1532 180.355C72.3199 180.22 71.5538 180.019 70.8548 179.75L71.2581 178.218C71.6075 178.379 72.078 178.513 72.6694 178.621C73.2608 178.728 73.879 178.782 74.5242 178.782C76.2446 178.782 77.7366 178.419 79 177.694C80.2634 176.968 81.2446 175.946 81.9435 174.629C82.6425 173.312 82.9919 171.78 82.9919 170.032C82.9919 168.124 82.5349 166.645 81.621 165.597C80.7339 164.548 79.4704 164.024 77.8306 164.024H76.0161L69.9274 185.96C69.6586 186.901 69.578 187.613 69.6855 188.097C69.8199 188.554 70.2769 188.876 71.0565 189.065C71.836 189.226 73.0591 189.347 74.7258 189.427L74.3226 191C73.3548 190.946 72.1317 190.919 70.6532 190.919C69.1747 190.892 67.5081 190.879 65.6532 190.879C64.0134 190.879 62.5484 190.892 61.2581 190.919C59.9946 190.919 58.9059 190.946 57.9919 191ZM96.0898 191.565C94.7458 191.565 93.6705 191.269 92.864 190.677C92.0845 190.059 91.6006 189.212 91.4124 188.137C91.2243 187.035 91.3318 185.758 91.735 184.306L96.856 165.96C97.1517 164.965 97.2323 164.199 97.0979 163.661C96.9904 163.124 96.614 162.747 95.9689 162.532C95.3237 162.317 94.356 162.196 93.0657 162.169L93.5092 160.597C95.7673 160.57 97.7968 160.422 99.5979 160.153C101.399 159.884 103.039 159.481 104.517 158.944L97.0173 185.597C96.7216 186.672 96.6812 187.519 96.8963 188.137C97.1113 188.755 97.5818 189.065 98.3076 189.065C98.899 189.065 99.4501 188.849 99.9608 188.419C100.498 187.989 100.996 187.331 101.453 186.444L102.219 185.032H103.791L102.864 186.726C102.326 187.747 101.722 188.621 101.05 189.347C100.377 190.073 99.6382 190.624 98.8318 191C98.0253 191.376 97.1113 191.565 96.0898 191.565ZM112.553 191.565C110.564 191.565 108.991 190.866 107.835 189.468C106.679 188.07 106.101 186.161 106.101 183.742C106.101 181.887 106.438 180.113 107.11 178.419C107.782 176.726 108.682 175.22 109.811 173.903C110.967 172.559 112.284 171.511 113.763 170.758C115.268 169.978 116.827 169.589 118.44 169.589C119.784 169.589 121.061 169.871 122.271 170.435C123.481 171 124.596 171.82 125.618 172.895L121.747 175.355C121.666 174.038 121.343 173.016 120.779 172.29C120.241 171.538 119.542 171.161 118.682 171.161C117.822 171.161 116.975 171.497 116.142 172.169C115.335 172.841 114.61 173.755 113.964 174.911C113.319 176.04 112.808 177.331 112.432 178.782C112.056 180.207 111.868 181.685 111.868 183.218C111.868 184.992 112.15 186.349 112.714 187.29C113.306 188.231 114.126 188.702 115.174 188.702C115.927 188.702 116.612 188.487 117.231 188.056C117.876 187.599 118.467 186.914 119.005 186L119.368 186.605C118.588 188.218 117.62 189.454 116.464 190.315C115.335 191.148 114.032 191.565 112.553 191.565ZM123.319 191.565C121.357 191.565 119.972 190.919 119.166 189.629C118.386 188.339 118.319 186.565 118.964 184.306L122.069 173.218C123.413 172.761 124.623 172.237 125.698 171.645C126.8 171.054 127.835 170.341 128.803 169.508L129.69 170.677C129.26 171.054 128.897 171.43 128.601 171.806C128.333 172.156 128.091 172.559 127.876 173.016C127.688 173.473 127.499 174.051 127.311 174.75L124.287 185.597C123.964 186.699 123.911 187.559 124.126 188.177C124.368 188.769 124.851 189.065 125.577 189.065C126.007 189.065 126.397 188.957 126.747 188.742C127.123 188.527 127.472 188.218 127.795 187.815C128.118 187.411 128.413 186.954 128.682 186.444L129.448 185.032H131.021L130.013 186.887C129.529 187.855 128.951 188.688 128.279 189.387C127.634 190.086 126.895 190.624 126.061 191C125.255 191.376 124.341 191.565 123.319 191.565ZM141.115 191.565C138.749 191.565 136.895 190.852 135.551 189.427C134.206 188.003 133.534 186.027 133.534 183.5C133.534 181.645 133.884 179.884 134.583 178.218C135.282 176.551 136.236 175.073 137.446 173.782C138.655 172.492 140.04 171.47 141.599 170.718C143.185 169.965 144.852 169.589 146.599 169.589C148.319 169.589 149.677 169.965 150.671 170.718C151.693 171.444 152.204 172.438 152.204 173.702C152.204 174.535 151.989 175.315 151.559 176.04C151.128 176.766 150.577 177.358 149.905 177.815C149.233 178.272 148.494 178.5 147.688 178.5C147.042 178.5 146.532 178.352 146.155 178.056C145.806 177.734 145.631 177.304 145.631 176.766C145.631 176.255 145.779 175.798 146.075 175.395C146.397 174.992 146.76 174.629 147.163 174.306C147.567 173.957 147.916 173.621 148.212 173.298C148.534 172.949 148.696 172.559 148.696 172.129C148.696 171.484 148.225 171.161 147.284 171.161C146.263 171.161 145.268 171.497 144.301 172.169C143.36 172.815 142.513 173.702 141.76 174.831C141.008 175.96 140.403 177.237 139.946 178.661C139.516 180.086 139.301 181.538 139.301 183.016C139.301 184.898 139.637 186.349 140.309 187.371C141.008 188.392 142.029 188.903 143.373 188.903C144.448 188.903 145.403 188.608 146.236 188.016C147.096 187.425 147.876 186.511 148.575 185.274H150.107C149.085 187.344 147.822 188.917 146.317 189.992C144.838 191.04 143.104 191.565 141.115 191.565ZM162.68 191.565C160.288 191.565 158.406 190.866 157.035 189.468C155.691 188.043 155.019 186.067 155.019 183.54C155.019 181.685 155.368 179.925 156.067 178.258C156.766 176.565 157.72 175.073 158.93 173.782C160.167 172.465 161.578 171.444 163.164 170.718C164.75 169.965 166.417 169.589 168.164 169.589C169.911 169.589 171.242 169.952 172.156 170.677C173.097 171.376 173.567 172.398 173.567 173.742C173.567 175.167 173.016 176.524 171.914 177.815C170.839 179.105 169.306 180.261 167.317 181.282C165.355 182.277 163.043 183.056 160.382 183.621V182.331C162.237 181.685 163.809 180.906 165.099 179.992C166.39 179.051 167.371 178.016 168.043 176.887C168.715 175.758 169.051 174.602 169.051 173.419C169.051 172.64 168.917 172.062 168.648 171.685C168.379 171.309 167.989 171.121 167.478 171.121C166.699 171.121 165.906 171.47 165.099 172.169C164.32 172.868 163.607 173.809 162.962 174.992C162.317 176.148 161.793 177.425 161.39 178.823C160.987 180.22 160.785 181.618 160.785 183.016C160.785 184.925 161.134 186.39 161.833 187.411C162.559 188.406 163.594 188.903 164.938 188.903C166.04 188.903 167.021 188.608 167.882 188.016C168.769 187.398 169.562 186.484 170.261 185.274H171.793C170.771 187.344 169.495 188.917 167.962 189.992C166.457 191.04 164.696 191.565 162.68 191.565ZM184.033 191.565C182.366 191.565 180.888 191.336 179.598 190.879C178.307 190.422 177.299 189.79 176.573 188.984C175.848 188.177 175.485 187.263 175.485 186.242C175.485 185.328 175.74 184.589 176.251 184.024C176.788 183.46 177.501 183.177 178.388 183.177C179.141 183.177 179.719 183.392 180.122 183.823C180.552 184.226 180.78 184.804 180.807 185.556C180.807 186.04 180.74 186.538 180.606 187.048C180.471 187.532 180.404 187.935 180.404 188.258C180.431 188.849 180.727 189.293 181.291 189.589C181.856 189.884 182.662 190.032 183.71 190.032C185.108 190.032 186.197 189.763 186.977 189.226C187.756 188.661 188.146 187.895 188.146 186.927C188.146 186.175 187.931 185.516 187.501 184.952C187.071 184.36 186.52 183.823 185.848 183.339C185.202 182.828 184.504 182.317 183.751 181.806C182.998 181.296 182.286 180.758 181.614 180.194C180.942 179.602 180.391 178.944 179.96 178.218C179.557 177.492 179.356 176.659 179.356 175.718C179.356 173.863 180.149 172.384 181.735 171.282C183.348 170.153 185.404 169.589 187.904 169.589C189.463 169.589 190.834 169.804 192.017 170.234C193.227 170.664 194.167 171.255 194.84 172.008C195.538 172.734 195.888 173.567 195.888 174.508C195.888 175.315 195.646 175.973 195.162 176.484C194.678 176.995 194.047 177.25 193.267 177.25C192.595 177.25 192.044 177.062 191.614 176.685C191.21 176.309 191.009 175.812 191.009 175.194C191.009 174.79 191.063 174.36 191.17 173.903C191.305 173.419 191.358 173.03 191.331 172.734C191.331 172.196 191.076 171.793 190.565 171.524C190.055 171.255 189.329 171.121 188.388 171.121C187.205 171.121 186.278 171.376 185.606 171.887C184.934 172.371 184.598 173.043 184.598 173.903C184.598 174.602 184.813 175.247 185.243 175.839C185.673 176.403 186.21 176.941 186.856 177.452C187.528 177.935 188.24 178.446 188.993 178.984C189.745 179.495 190.444 180.046 191.09 180.637C191.762 181.202 192.313 181.86 192.743 182.613C193.173 183.339 193.388 184.185 193.388 185.153C193.388 186.444 192.985 187.573 192.178 188.54C191.372 189.481 190.27 190.22 188.872 190.758C187.474 191.296 185.861 191.565 184.033 191.565ZM216.863 191.565C214.766 191.565 213.26 190.906 212.346 189.589C211.459 188.245 211.325 186.47 211.943 184.266L217.508 164.306C218.637 164.306 219.672 164.253 220.613 164.145C221.58 164.011 222.508 163.809 223.395 163.54L217.266 185.597C216.943 186.753 216.916 187.626 217.185 188.218C217.454 188.782 218.019 189.065 218.879 189.065C219.578 189.065 220.196 188.849 220.734 188.419C221.298 187.989 221.822 187.317 222.306 186.403L223.032 185.032H224.605L223.435 187.29C222.978 188.177 222.427 188.944 221.782 189.589C221.164 190.207 220.451 190.691 219.645 191.04C218.838 191.39 217.911 191.565 216.863 191.565ZM210.855 171.726L211.258 170.153H227.629L227.225 171.726H210.855ZM236.222 191.565C233.748 191.565 231.826 190.852 230.455 189.427C229.111 187.976 228.439 185.946 228.439 183.339C228.439 181.484 228.762 179.737 229.407 178.097C230.079 176.43 231.006 174.965 232.189 173.702C233.372 172.411 234.73 171.403 236.262 170.677C237.794 169.952 239.434 169.589 241.181 169.589C243.654 169.589 245.576 170.315 246.947 171.766C248.318 173.218 249.004 175.247 249.004 177.855C249.004 179.71 248.668 181.47 247.996 183.137C247.324 184.777 246.396 186.228 245.213 187.492C244.031 188.755 242.673 189.75 241.141 190.476C239.609 191.202 237.969 191.565 236.222 191.565ZM236.544 189.992C237.216 189.992 237.875 189.737 238.52 189.226C239.192 188.688 239.81 187.962 240.375 187.048C240.966 186.134 241.49 185.099 241.947 183.944C242.404 182.761 242.754 181.511 242.996 180.194C243.238 178.849 243.359 177.505 243.359 176.161C243.359 174.522 243.144 173.285 242.713 172.452C242.31 171.591 241.692 171.161 240.859 171.161C240.187 171.161 239.515 171.43 238.842 171.968C238.197 172.478 237.579 173.191 236.988 174.105C236.423 175.019 235.912 176.067 235.455 177.25C235.025 178.433 234.676 179.696 234.407 181.04C234.165 182.358 234.044 183.675 234.044 184.992C234.044 186.659 234.259 187.909 234.689 188.742C235.119 189.575 235.738 189.992 236.544 189.992ZM261.068 191L261.512 189.427C262.856 189.374 263.85 189.253 264.496 189.065C265.168 188.849 265.651 188.513 265.947 188.056C266.27 187.573 266.552 186.874 266.794 185.96L271.955 167.492C272.224 166.524 272.318 165.812 272.237 165.355C272.184 164.871 271.875 164.535 271.31 164.347C270.746 164.159 269.845 164.051 268.608 164.024L269.052 162.452C270.181 162.478 271.66 162.505 273.487 162.532C275.315 162.532 277.493 162.532 280.02 162.532C281.095 162.532 282.13 162.532 283.125 162.532C284.119 162.532 285.114 162.532 286.108 162.532C287.103 162.505 288.111 162.492 289.133 162.492C290.154 162.492 291.229 162.478 292.358 162.452C291.955 163.796 291.606 165.153 291.31 166.524C291.014 167.895 290.772 169.36 290.584 170.919H288.971C288.971 169.226 288.81 167.882 288.487 166.887C288.192 165.892 287.668 165.18 286.915 164.75C286.189 164.32 285.194 164.105 283.931 164.105H279.092L272.883 186.202C272.506 187.519 272.466 188.379 272.762 188.782C273.057 189.159 273.877 189.347 275.221 189.347H276.028C277.91 189.347 279.522 189.078 280.866 188.54C282.211 188.003 283.434 187.116 284.536 185.879C285.665 184.616 286.78 182.922 287.883 180.798H289.496C288.662 182.949 287.977 184.831 287.439 186.444C286.928 188.03 286.498 189.548 286.149 191C284.858 190.973 283.689 190.96 282.641 190.96C281.592 190.933 280.598 190.919 279.657 190.919C278.743 190.892 277.842 190.879 276.955 190.879C276.095 190.879 275.208 190.879 274.294 190.879C271.337 190.879 268.756 190.892 266.552 190.919C264.348 190.919 262.52 190.946 261.068 191ZM274.012 177.411L274.455 175.879H282.52L282.076 177.411H274.012ZM281.431 182.371C281.565 180.57 281.337 179.293 280.746 178.54C280.181 177.788 279.146 177.411 277.641 177.411L278.084 175.879C279.133 175.879 280.02 175.731 280.746 175.435C281.498 175.113 282.157 174.589 282.721 173.863C283.313 173.137 283.877 172.156 284.415 170.919H286.028C285.866 171.403 285.692 171.941 285.504 172.532C285.315 173.124 285.127 173.769 284.939 174.468C284.751 175.167 284.549 175.906 284.334 176.685C284.227 177.089 284.119 177.492 284.012 177.895C283.931 178.272 283.837 178.675 283.729 179.105C283.649 179.508 283.555 179.978 283.447 180.516C283.34 181.027 283.205 181.645 283.044 182.371H281.431ZM307.738 191.565C306.232 191.565 305.036 191.134 304.149 190.274C303.289 189.414 302.738 188.11 302.496 186.363L300.843 174.71C300.708 173.796 300.48 173.151 300.157 172.774C299.861 172.371 299.445 172.169 298.907 172.169C298.369 172.169 297.899 172.358 297.496 172.734C297.093 173.11 296.662 173.715 296.205 174.548L295.359 176.161H293.786L295.036 173.782C295.816 172.304 296.676 171.242 297.617 170.597C298.558 169.925 299.673 169.589 300.964 169.589C302.442 169.589 303.598 170.019 304.431 170.879C305.265 171.712 305.816 173.003 306.084 174.75L307.778 186.484C307.912 187.317 308.127 187.949 308.423 188.379C308.746 188.782 309.189 188.984 309.754 188.984C310.238 188.984 310.681 188.809 311.084 188.46C311.488 188.11 311.931 187.492 312.415 186.605L313.262 185.032H314.834L313.584 187.371C312.805 188.876 311.958 189.952 311.044 190.597C310.157 191.242 309.055 191.565 307.738 191.565ZM294.31 191.565C293.316 191.565 292.523 191.323 291.931 190.839C291.367 190.355 291.084 189.696 291.084 188.863C291.084 188.164 291.286 187.586 291.689 187.129C292.119 186.672 292.657 186.444 293.302 186.444C293.705 186.444 294.055 186.538 294.351 186.726C294.646 186.887 294.915 187.089 295.157 187.331C295.399 187.546 295.641 187.747 295.883 187.935C296.152 188.097 296.447 188.177 296.77 188.177C297.308 188.177 297.872 187.909 298.464 187.371C299.055 186.833 299.687 186.013 300.359 184.911C301.058 183.809 301.81 182.438 302.617 180.798L303.222 182.25C302.361 184.347 301.461 186.081 300.52 187.452C299.579 188.823 298.598 189.858 297.576 190.556C296.555 191.228 295.466 191.565 294.31 191.565ZM305.802 179.79L305.117 178.661C306.326 175.597 307.603 173.325 308.947 171.847C310.291 170.341 311.77 169.589 313.383 169.589C314.351 169.589 315.117 169.844 315.681 170.355C316.246 170.839 316.528 171.484 316.528 172.29C316.528 172.989 316.313 173.567 315.883 174.024C315.48 174.481 314.955 174.71 314.31 174.71C313.907 174.71 313.558 174.629 313.262 174.468C312.993 174.28 312.738 174.078 312.496 173.863C312.254 173.621 311.998 173.406 311.73 173.218C311.488 173.03 311.205 172.935 310.883 172.935C310.184 172.935 309.418 173.5 308.584 174.629C307.751 175.758 306.824 177.478 305.802 179.79ZM313.485 200.315L313.928 198.742C314.896 198.715 315.703 198.594 316.348 198.379C316.966 198.191 317.463 197.882 317.84 197.452C318.216 197.048 318.498 196.484 318.687 195.758L324.332 175.597C324.654 174.441 324.695 173.567 324.453 172.976C324.211 172.384 323.74 172.089 323.041 172.089C322.477 172.089 321.926 172.304 321.388 172.734C320.877 173.164 320.394 173.836 319.937 174.75L319.17 176.161H317.598L318.525 174.427C319.063 173.406 319.654 172.532 320.299 171.806C320.972 171.081 321.724 170.53 322.558 170.153C323.391 169.777 324.305 169.589 325.299 169.589C327.262 169.589 328.633 170.234 329.412 171.524C330.219 172.815 330.299 174.602 329.654 176.887L324.453 195.435C324.238 196.215 324.251 196.833 324.493 197.29C324.735 197.774 325.232 198.124 325.985 198.339C326.765 198.581 327.84 198.715 329.211 198.742L328.808 200.315C328.243 200.288 327.531 200.261 326.67 200.234C325.81 200.234 324.883 200.22 323.888 200.194C322.92 200.167 321.939 200.153 320.945 200.153C319.493 200.153 318.095 200.167 316.751 200.194C315.38 200.247 314.291 200.288 313.485 200.315ZM331.106 191.565C329.923 191.565 328.875 191.296 327.961 190.758C327.074 190.22 326.442 189.481 326.066 188.54L326.549 187.25C326.899 187.868 327.369 188.352 327.961 188.702C328.579 189.051 329.238 189.226 329.937 189.226C330.824 189.226 331.67 188.93 332.477 188.339C333.31 187.72 334.049 186.887 334.695 185.839C335.34 184.79 335.837 183.594 336.187 182.25C336.563 180.879 336.751 179.454 336.751 177.976C336.751 176.202 336.455 174.844 335.864 173.903C335.299 172.962 334.48 172.492 333.404 172.492C332.678 172.492 331.993 172.72 331.348 173.177C330.703 173.608 330.125 174.266 329.614 175.153L329.251 174.548C330.031 172.935 330.985 171.712 332.114 170.879C333.27 170.019 334.587 169.589 336.066 169.589C338.055 169.589 339.627 170.301 340.783 171.726C341.939 173.124 342.517 175.032 342.517 177.452C342.517 179.28 342.195 181.04 341.549 182.734C340.931 184.401 340.084 185.906 339.009 187.25C337.934 188.594 336.711 189.656 335.34 190.435C333.996 191.188 332.584 191.565 331.106 191.565ZM351.51 191.565C350.166 191.565 349.09 191.269 348.284 190.677C347.504 190.059 347.021 189.212 346.832 188.137C346.644 187.035 346.752 185.758 347.155 184.306L352.276 165.96C352.572 164.965 352.652 164.199 352.518 163.661C352.41 163.124 352.034 162.747 351.389 162.532C350.744 162.317 349.776 162.196 348.486 162.169L348.929 160.597C351.187 160.57 353.217 160.422 355.018 160.153C356.819 159.884 358.459 159.481 359.937 158.944L352.437 185.597C352.141 186.672 352.101 187.519 352.316 188.137C352.531 188.755 353.002 189.065 353.728 189.065C354.319 189.065 354.87 188.849 355.381 188.419C355.918 187.989 356.416 187.331 356.873 186.444L357.639 185.032H359.211L358.284 186.726C357.746 187.747 357.141 188.621 356.469 189.347C355.797 190.073 355.058 190.624 354.252 191C353.445 191.376 352.531 191.565 351.51 191.565ZM369.425 191.565C366.952 191.565 365.029 190.852 363.659 189.427C362.314 187.976 361.642 185.946 361.642 183.339C361.642 181.484 361.965 179.737 362.61 178.097C363.282 176.43 364.21 174.965 365.392 173.702C366.575 172.411 367.933 171.403 369.465 170.677C370.997 169.952 372.637 169.589 374.384 169.589C376.857 169.589 378.779 170.315 380.15 171.766C381.521 173.218 382.207 175.247 382.207 177.855C382.207 179.71 381.871 181.47 381.199 183.137C380.527 184.777 379.599 186.228 378.417 187.492C377.234 188.755 375.876 189.75 374.344 190.476C372.812 191.202 371.172 191.565 369.425 191.565ZM369.747 189.992C370.419 189.992 371.078 189.737 371.723 189.226C372.395 188.688 373.013 187.962 373.578 187.048C374.169 186.134 374.693 185.099 375.15 183.944C375.607 182.761 375.957 181.511 376.199 180.194C376.441 178.849 376.562 177.505 376.562 176.161C376.562 174.522 376.347 173.285 375.917 172.452C375.513 171.591 374.895 171.161 374.062 171.161C373.39 171.161 372.718 171.43 372.046 171.968C371.4 172.478 370.782 173.191 370.191 174.105C369.626 175.019 369.116 176.067 368.659 177.25C368.228 178.433 367.879 179.696 367.61 181.04C367.368 182.358 367.247 183.675 367.247 184.992C367.247 186.659 367.462 187.909 367.892 188.742C368.322 189.575 368.941 189.992 369.747 189.992ZM387.107 191L391.422 175.597C391.744 174.468 391.784 173.608 391.543 173.016C391.327 172.398 390.857 172.089 390.131 172.089C389.567 172.089 389.016 172.317 388.478 172.774C387.967 173.204 387.483 173.863 387.026 174.75L386.26 176.161H384.688L385.615 174.427C386.153 173.406 386.744 172.532 387.389 171.806C388.061 171.081 388.814 170.53 389.647 170.153C390.481 169.777 391.395 169.589 392.389 169.589C393.733 169.589 394.795 169.898 395.575 170.516C396.354 171.108 396.838 171.954 397.026 173.056C397.241 174.132 397.147 175.409 396.744 176.887L392.793 191H387.107ZM402.51 178.218C401.946 178.218 401.502 178.056 401.18 177.734C400.857 177.411 400.696 176.995 400.696 176.484C400.696 175.973 400.803 175.503 401.018 175.073C401.26 174.616 401.489 174.185 401.704 173.782C401.946 173.379 402.067 173.003 402.067 172.653C402.067 172.142 401.717 171.887 401.018 171.887C400.319 171.887 399.58 172.169 398.801 172.734C398.021 173.272 397.362 173.997 396.825 174.911L396.502 173.984C397.309 172.586 398.276 171.511 399.405 170.758C400.534 169.978 401.744 169.589 403.034 169.589C404.163 169.589 405.037 169.884 405.655 170.476C406.274 171.067 406.583 171.901 406.583 172.976C406.583 173.89 406.381 174.75 405.978 175.556C405.602 176.336 405.104 176.981 404.486 177.492C403.895 177.976 403.236 178.218 402.51 178.218ZM416.245 191.565C413.852 191.565 411.97 190.866 410.599 189.468C409.255 188.043 408.583 186.067 408.583 183.54C408.583 181.685 408.933 179.925 409.632 178.258C410.331 176.565 411.285 175.073 412.495 173.782C413.731 172.465 415.142 171.444 416.728 170.718C418.314 169.965 419.981 169.589 421.728 169.589C423.476 169.589 424.806 169.952 425.72 170.677C426.661 171.376 427.132 172.398 427.132 173.742C427.132 175.167 426.581 176.524 425.478 177.815C424.403 179.105 422.871 180.261 420.882 181.282C418.919 182.277 416.607 183.056 413.946 183.621V182.331C415.801 181.685 417.374 180.906 418.664 179.992C419.954 179.051 420.935 178.016 421.607 176.887C422.279 175.758 422.615 174.602 422.615 173.419C422.615 172.64 422.481 172.062 422.212 171.685C421.943 171.309 421.554 171.121 421.043 171.121C420.263 171.121 419.47 171.47 418.664 172.169C417.884 172.868 417.172 173.809 416.527 174.992C415.882 176.148 415.357 177.425 414.954 178.823C414.551 180.22 414.349 181.618 414.349 183.016C414.349 184.925 414.699 186.39 415.398 187.411C416.124 188.406 417.158 188.903 418.503 188.903C419.605 188.903 420.586 188.608 421.446 188.016C422.333 187.398 423.126 186.484 423.825 185.274H425.357C424.336 187.344 423.059 188.917 421.527 189.992C420.021 191.04 418.261 191.565 416.245 191.565Z" fill="#3E3636"/>
</svg>
