<svg width="490" height="367" viewBox="0 0 490 367" fill="none" xmlns="http://www.w3.org/2000/svg">
<rect width="490" height="367" fill="#B8B8B8"/>
<path d="M77.6584 140L78.0132 138.742C79.11 138.677 79.9272 138.57 80.4648 138.419C81.0025 138.247 81.3896 137.978 81.6261 137.613C81.8842 137.226 82.11 136.677 82.3036 135.968L86.4003 121.194C86.6154 120.419 86.6907 119.849 86.6261 119.484C86.5831 119.118 86.3358 118.86 85.8842 118.71C85.4326 118.538 84.7014 118.441 83.6906 118.419L84.0455 117.161C84.2605 117.183 84.5294 117.204 84.8519 117.226C85.1745 117.226 85.5401 117.226 85.9487 117.226C86.3788 117.226 86.8519 117.226 87.3681 117.226C87.9057 117.226 88.5079 117.226 89.1745 117.226C89.8842 117.226 90.4863 117.226 90.981 117.226C91.4971 117.226 91.938 117.226 92.3036 117.226C92.6691 117.204 92.9917 117.194 93.2713 117.194C93.5724 117.172 93.8627 117.161 94.1423 117.161C96.6799 117.161 98.6046 117.581 99.9165 118.419C101.25 119.237 101.916 120.43 101.916 122C101.916 123.634 101.207 124.978 99.7874 126.032C98.3896 127.086 96.3788 127.774 93.7552 128.097V128.161C95.9272 128.355 97.5831 128.903 98.7229 129.806C99.8842 130.71 100.465 131.925 100.465 133.452C100.465 134.806 100.035 135.978 99.1745 136.968C98.3143 137.935 97.0777 138.688 95.4648 139.226C93.8734 139.742 91.9487 140 89.6907 140C89.3036 140 88.9165 140 88.5294 140C88.1423 139.978 87.7122 139.968 87.239 139.968C86.7659 139.946 86.2175 139.935 85.5939 139.935C84.9702 139.914 84.2283 139.903 83.3681 139.903C82.0562 139.903 80.9165 139.914 79.9487 139.935C78.981 139.935 78.2175 139.957 77.6584 140ZM89.0132 138.71C90.3251 138.71 91.4648 138.473 92.4326 138C93.4003 137.505 94.1423 136.828 94.6584 135.968C95.196 135.108 95.4648 134.118 95.4648 133C95.4648 131.624 95.0562 130.57 94.239 129.839C93.4218 129.108 92.2283 128.742 90.6584 128.742H88.6906L89.0132 127.548H91.3358C92.4541 127.548 93.4541 127.312 94.3358 126.839C95.2175 126.344 95.9057 125.688 96.4003 124.871C96.895 124.032 97.1423 123.086 97.1423 122.032C97.1423 120.871 96.8304 119.978 96.2068 119.355C95.5831 118.731 94.6691 118.419 93.4648 118.419H92.0777L87.2068 135.968C87.0132 136.699 86.9272 137.269 86.9487 137.677C86.9917 138.065 87.1745 138.333 87.4971 138.484C87.8412 138.634 88.3466 138.71 89.0132 138.71ZM110.784 140.452C108.87 140.452 107.365 139.892 106.268 138.774C105.192 137.634 104.655 136.054 104.655 134.032C104.655 132.548 104.934 131.14 105.494 129.806C106.053 128.452 106.816 127.258 107.784 126.226C108.773 125.172 109.902 124.355 111.171 123.774C112.44 123.172 113.773 122.871 115.171 122.871C116.569 122.871 117.633 123.161 118.365 123.742C119.117 124.301 119.494 125.118 119.494 126.194C119.494 127.333 119.053 128.419 118.171 129.452C117.311 130.484 116.085 131.409 114.494 132.226C112.924 133.022 111.074 133.645 108.945 134.097V133.065C110.429 132.548 111.687 131.925 112.719 131.194C113.752 130.441 114.537 129.613 115.074 128.71C115.612 127.806 115.881 126.882 115.881 125.935C115.881 125.312 115.773 124.849 115.558 124.548C115.343 124.247 115.031 124.097 114.623 124.097C113.999 124.097 113.365 124.376 112.719 124.935C112.096 125.495 111.526 126.247 111.01 127.194C110.494 128.118 110.074 129.14 109.752 130.258C109.429 131.376 109.268 132.495 109.268 133.613C109.268 135.14 109.547 136.312 110.106 137.129C110.687 137.925 111.515 138.323 112.59 138.323C113.472 138.323 114.257 138.086 114.945 137.613C115.655 137.118 116.289 136.387 116.848 135.419H118.074C117.257 137.075 116.236 138.333 115.01 139.194C113.805 140.032 112.397 140.452 110.784 140.452ZM120.938 147.71C120.12 147.71 119.465 147.516 118.97 147.129C118.454 146.742 118.196 146.237 118.196 145.613C118.196 145.054 118.389 144.591 118.776 144.226C119.163 143.882 119.669 143.71 120.292 143.71C120.68 143.71 121.034 143.774 121.357 143.903C121.701 144.032 122.024 144.183 122.325 144.355C122.647 144.527 122.959 144.677 123.26 144.806C123.561 144.957 123.862 145.032 124.163 145.032C124.787 145.032 125.508 144.753 126.325 144.194C127.163 143.656 128.045 142.925 128.97 142C129.895 141.097 130.798 140.086 131.68 138.968C132.561 137.849 133.357 136.71 134.067 135.548C134.798 134.387 135.378 133.301 135.809 132.29C136.26 131.258 136.486 130.376 136.486 129.645C136.486 129.065 136.357 128.57 136.099 128.161C135.841 127.731 135.551 127.355 135.228 127.032C134.905 126.688 134.615 126.344 134.357 126C134.12 125.634 134.002 125.215 134.002 124.742C134.002 124.204 134.185 123.763 134.551 123.419C134.938 123.054 135.432 122.871 136.034 122.871C136.852 122.871 137.486 123.183 137.938 123.806C138.389 124.409 138.615 125.258 138.615 126.355C138.615 127.624 138.335 129.032 137.776 130.581C137.217 132.108 136.454 133.677 135.486 135.29C134.518 136.882 133.421 138.419 132.196 139.903C130.991 141.366 129.723 142.688 128.389 143.871C127.077 145.054 125.776 145.989 124.486 146.677C123.196 147.366 122.013 147.71 120.938 147.71ZM127.68 143.935C127.852 142.215 127.927 140.473 127.905 138.71C127.905 136.925 127.83 135.237 127.68 133.645C127.551 132.032 127.346 130.602 127.067 129.355C126.787 128.108 126.465 127.118 126.099 126.387C125.755 125.656 125.368 125.29 124.938 125.29C124.658 125.29 124.378 125.43 124.099 125.71C123.841 125.968 123.54 126.409 123.196 127.032L122.615 128.129H121.357L122.357 126.194C122.959 125.075 123.615 124.247 124.325 123.71C125.056 123.151 125.862 122.871 126.744 122.871C127.991 122.871 129.013 123.452 129.809 124.613C130.604 125.774 131.196 127.57 131.583 130C131.97 132.409 132.153 135.516 132.131 139.323C131.701 139.86 131.26 140.376 130.809 140.871C130.378 141.387 129.905 141.892 129.389 142.387C128.873 142.903 128.303 143.419 127.68 143.935ZM147.937 140.452C145.959 140.452 144.421 139.882 143.324 138.742C142.249 137.581 141.712 135.957 141.712 133.871C141.712 132.387 141.97 130.989 142.486 129.677C143.023 128.344 143.765 127.172 144.712 126.161C145.658 125.129 146.744 124.323 147.97 123.742C149.195 123.161 150.507 122.871 151.905 122.871C153.884 122.871 155.421 123.452 156.518 124.613C157.615 125.774 158.163 127.398 158.163 129.484C158.163 130.968 157.894 132.376 157.357 133.71C156.819 135.022 156.077 136.183 155.131 137.194C154.185 138.204 153.099 139 151.873 139.581C150.647 140.161 149.335 140.452 147.937 140.452ZM148.195 139.194C148.733 139.194 149.26 138.989 149.776 138.581C150.314 138.151 150.808 137.57 151.26 136.839C151.733 136.108 152.152 135.28 152.518 134.355C152.884 133.409 153.163 132.409 153.357 131.355C153.55 130.28 153.647 129.204 153.647 128.129C153.647 126.817 153.475 125.828 153.131 125.161C152.808 124.473 152.314 124.129 151.647 124.129C151.109 124.129 150.572 124.344 150.034 124.774C149.518 125.183 149.023 125.753 148.55 126.484C148.099 127.215 147.69 128.054 147.324 129C146.98 129.946 146.701 130.957 146.486 132.032C146.292 133.086 146.195 134.14 146.195 135.194C146.195 136.527 146.367 137.527 146.712 138.194C147.056 138.86 147.55 139.194 148.195 139.194ZM176.503 140.452C175.449 140.452 174.599 140.215 173.954 139.742C173.331 139.269 172.933 138.602 172.761 137.742C172.61 136.86 172.696 135.828 173.019 134.645L174.728 128.548C175.051 127.344 175.083 126.441 174.825 125.839C174.589 125.215 174.062 124.903 173.245 124.903C172.578 124.903 171.954 125.108 171.374 125.516C170.814 125.925 170.298 126.527 169.825 127.323L169.535 126.645C170.245 125.376 171.083 124.43 172.051 123.806C173.019 123.183 174.094 122.871 175.277 122.871C176.976 122.871 178.159 123.462 178.825 124.645C179.513 125.806 179.589 127.376 179.051 129.355L177.277 135.677C177.04 136.559 177.008 137.247 177.18 137.742C177.352 138.215 177.718 138.452 178.277 138.452C178.771 138.452 179.223 138.28 179.632 137.935C180.062 137.57 180.46 137.043 180.825 136.355L181.406 135.226H182.664L181.954 136.581C181.524 137.398 181.04 138.097 180.503 138.677C179.965 139.258 179.363 139.699 178.696 140C178.051 140.301 177.32 140.452 176.503 140.452ZM162.083 140L165.535 127.677C165.793 126.796 165.836 126.108 165.664 125.613C165.492 125.118 165.105 124.871 164.503 124.871C164.051 124.871 163.61 125.054 163.18 125.419C162.771 125.763 162.384 126.29 162.019 127L161.406 128.129H160.148L160.89 126.742C161.32 125.925 161.793 125.226 162.309 124.645C162.847 124.065 163.449 123.624 164.116 123.323C164.782 123.022 165.513 122.871 166.309 122.871C167.384 122.871 168.234 123.118 168.857 123.613C169.481 124.086 169.868 124.763 170.019 125.645C170.191 126.505 170.116 127.527 169.793 128.71L166.632 140H162.083ZM198.436 140.452C197.361 140.452 196.511 140.215 195.887 139.742C195.264 139.247 194.866 138.559 194.694 137.677C194.543 136.796 194.629 135.785 194.952 134.645L199.049 119.968C199.285 119.172 199.361 118.559 199.275 118.129C199.189 117.699 198.898 117.398 198.404 117.226C197.93 117.054 197.189 116.957 196.178 116.935L196.565 115.677C198.35 115.656 199.941 115.538 201.339 115.323C202.737 115.108 204.017 114.785 205.178 114.355L199.21 135.677C198.952 136.538 198.909 137.215 199.081 137.71C199.253 138.204 199.629 138.452 200.21 138.452C200.683 138.452 201.124 138.28 201.533 137.935C201.963 137.591 202.361 137.065 202.726 136.355L203.339 135.226H204.597L203.855 136.581C203.425 137.398 202.941 138.097 202.404 138.677C201.887 139.258 201.296 139.699 200.629 140C199.984 140.301 199.253 140.452 198.436 140.452ZM189.855 140.452C188.242 140.452 186.973 139.903 186.049 138.806C185.124 137.688 184.662 136.161 184.662 134.226C184.662 132.72 184.93 131.29 185.468 129.935C186.006 128.581 186.726 127.376 187.629 126.323C188.554 125.247 189.608 124.409 190.791 123.806C191.995 123.183 193.242 122.871 194.533 122.871C195.608 122.871 196.629 123.097 197.597 123.548C198.565 124 199.457 124.656 200.275 125.516L197.178 127.484C197.113 126.43 196.855 125.613 196.404 125.032C195.973 124.43 195.414 124.129 194.726 124.129C194.038 124.129 193.361 124.398 192.694 124.935C192.049 125.473 191.468 126.204 190.952 127.129C190.436 128.032 190.027 129.065 189.726 130.226C189.425 131.366 189.275 132.548 189.275 133.774C189.275 135.194 189.5 136.28 189.952 137.032C190.425 137.785 191.081 138.161 191.92 138.161C192.522 138.161 193.07 137.989 193.565 137.645C194.081 137.28 194.554 136.731 194.984 136L195.275 136.484C194.651 137.817 193.887 138.817 192.984 139.484C192.103 140.129 191.06 140.452 189.855 140.452ZM212.971 140L213.326 138.742C214.401 138.699 215.197 138.602 215.713 138.452C216.25 138.28 216.638 138.011 216.874 137.645C217.132 137.258 217.358 136.699 217.552 135.968L221.681 121.194C221.896 120.419 221.971 119.849 221.906 119.484C221.863 119.097 221.616 118.828 221.164 118.677C220.713 118.527 219.992 118.441 219.003 118.419L219.358 117.161C220.261 117.183 221.444 117.204 222.906 117.226C224.369 117.226 226.111 117.226 228.132 117.226C228.992 117.226 229.82 117.226 230.616 117.226C231.412 117.226 232.207 117.226 233.003 117.226C233.799 117.204 234.605 117.194 235.423 117.194C236.24 117.194 237.1 117.183 238.003 117.161C237.681 118.237 237.401 119.323 237.164 120.419C236.928 121.516 236.734 122.688 236.584 123.935H235.293C235.293 122.581 235.164 121.505 234.906 120.71C234.67 119.914 234.25 119.344 233.648 119C233.068 118.656 232.272 118.484 231.261 118.484H227.39L222.423 136.161C222.121 137.215 222.089 137.903 222.326 138.226C222.562 138.527 223.218 138.677 224.293 138.677H224.939C226.444 138.677 227.734 138.462 228.81 138.032C229.885 137.602 230.863 136.892 231.745 135.903C232.648 134.892 233.541 133.538 234.423 131.839H235.713C235.046 133.559 234.498 135.065 234.068 136.355C233.659 137.624 233.315 138.839 233.035 140C232.003 139.978 231.068 139.968 230.229 139.968C229.39 139.946 228.595 139.935 227.842 139.935C227.111 139.914 226.39 139.903 225.681 139.903C224.992 139.903 224.283 139.903 223.552 139.903C221.186 139.903 219.121 139.914 217.358 139.935C215.595 139.935 214.132 139.957 212.971 140ZM223.326 129.129L223.681 127.903H230.132L229.777 129.129H223.326ZM229.261 133.097C229.369 131.656 229.186 130.634 228.713 130.032C228.261 129.43 227.433 129.129 226.229 129.129L226.584 127.903C227.423 127.903 228.132 127.785 228.713 127.548C229.315 127.29 229.842 126.871 230.293 126.29C230.767 125.71 231.218 124.925 231.648 123.935H232.939C232.81 124.323 232.67 124.753 232.519 125.226C232.369 125.699 232.218 126.215 232.068 126.774C231.917 127.333 231.756 127.925 231.584 128.548C231.498 128.871 231.412 129.194 231.326 129.516C231.261 129.817 231.186 130.14 231.1 130.484C231.035 130.806 230.96 131.183 230.874 131.613C230.788 132.022 230.681 132.516 230.552 133.097H229.261ZM252.889 140.452C251.814 140.452 250.964 140.215 250.341 139.742C249.717 139.247 249.319 138.559 249.147 137.677C248.997 136.796 249.083 135.785 249.405 134.645L253.502 119.968C253.738 119.172 253.814 118.559 253.728 118.129C253.642 117.699 253.351 117.398 252.857 117.226C252.384 117.054 251.642 116.957 250.631 116.935L251.018 115.677C252.803 115.656 254.394 115.538 255.792 115.323C257.19 115.108 258.47 114.785 259.631 114.355L253.663 135.677C253.405 136.538 253.362 137.215 253.534 137.71C253.706 138.204 254.083 138.452 254.663 138.452C255.136 138.452 255.577 138.28 255.986 137.935C256.416 137.591 256.814 137.065 257.179 136.355L257.792 135.226H259.05L258.308 136.581C257.878 137.398 257.394 138.097 256.857 138.677C256.341 139.258 255.749 139.699 255.083 140C254.437 140.301 253.706 140.452 252.889 140.452ZM244.308 140.452C242.695 140.452 241.427 139.903 240.502 138.806C239.577 137.688 239.115 136.161 239.115 134.226C239.115 132.72 239.384 131.29 239.921 129.935C240.459 128.581 241.179 127.376 242.083 126.323C243.007 125.247 244.061 124.409 245.244 123.806C246.448 123.183 247.695 122.871 248.986 122.871C250.061 122.871 251.083 123.097 252.05 123.548C253.018 124 253.91 124.656 254.728 125.516L251.631 127.484C251.566 126.43 251.308 125.613 250.857 125.032C250.427 124.43 249.867 124.129 249.179 124.129C248.491 124.129 247.814 124.398 247.147 124.935C246.502 125.473 245.921 126.204 245.405 127.129C244.889 128.032 244.48 129.065 244.179 130.226C243.878 131.366 243.728 132.548 243.728 133.774C243.728 135.194 243.954 136.28 244.405 137.032C244.878 137.785 245.534 138.161 246.373 138.161C246.975 138.161 247.523 137.989 248.018 137.645C248.534 137.28 249.007 136.731 249.437 136L249.728 136.484C249.104 137.817 248.341 138.817 247.437 139.484C246.556 140.129 245.513 140.452 244.308 140.452ZM266.389 140.452C265.313 140.452 264.442 140.204 263.776 139.71C263.131 139.194 262.722 138.495 262.55 137.613C262.399 136.731 262.529 135.731 262.937 134.613L265.389 127.677C265.69 126.839 265.744 126.161 265.55 125.645C265.378 125.129 264.991 124.871 264.389 124.871C263.916 124.871 263.464 125.043 263.034 125.387C262.625 125.731 262.238 126.269 261.873 127L261.26 128.129H260.002L260.744 126.742C261.453 125.409 262.238 124.43 263.098 123.806C263.98 123.183 265.002 122.871 266.163 122.871C267.26 122.871 268.131 123.129 268.776 123.645C269.421 124.14 269.83 124.828 270.002 125.71C270.174 126.57 270.045 127.57 269.615 128.71L267.163 135.645C266.862 136.484 266.808 137.161 267.002 137.677C267.195 138.194 267.582 138.452 268.163 138.452C269.109 138.452 269.959 137.753 270.711 136.355L271.292 135.226H272.55L271.84 136.581C271.131 137.935 270.335 138.925 269.453 139.548C268.572 140.151 267.55 140.452 266.389 140.452ZM268.776 120.032C268.023 120.032 267.399 119.817 266.905 119.387C266.432 118.935 266.195 118.355 266.195 117.645C266.195 116.871 266.486 116.226 267.066 115.71C267.647 115.172 268.346 114.903 269.163 114.903C269.916 114.903 270.529 115.129 271.002 115.581C271.496 116.011 271.744 116.581 271.744 117.29C271.744 118.065 271.453 118.72 270.873 119.258C270.313 119.774 269.615 120.032 268.776 120.032ZM289.979 140.452C288.925 140.452 288.076 140.215 287.431 139.742C286.807 139.269 286.409 138.602 286.237 137.742C286.087 136.86 286.173 135.828 286.495 134.645L288.205 128.548C288.528 127.344 288.56 126.441 288.302 125.839C288.065 125.215 287.538 124.903 286.721 124.903C286.054 124.903 285.431 125.108 284.85 125.516C284.291 125.925 283.775 126.527 283.302 127.323L283.011 126.645C283.721 125.376 284.56 124.43 285.528 123.806C286.495 123.183 287.571 122.871 288.753 122.871C290.452 122.871 291.635 123.462 292.302 124.645C292.99 125.806 293.065 127.376 292.528 129.355L290.753 135.677C290.517 136.559 290.485 137.247 290.657 137.742C290.829 138.215 291.194 138.452 291.753 138.452C292.248 138.452 292.7 138.28 293.108 137.935C293.538 137.57 293.936 137.043 294.302 136.355L294.882 135.226H296.14L295.431 136.581C295.001 137.398 294.517 138.097 293.979 138.677C293.442 139.258 292.839 139.699 292.173 140C291.528 140.301 290.796 140.452 289.979 140.452ZM275.56 140L279.011 127.677C279.27 126.796 279.313 126.108 279.14 125.613C278.968 125.118 278.581 124.871 277.979 124.871C277.528 124.871 277.087 125.054 276.657 125.419C276.248 125.763 275.861 126.29 275.495 127L274.882 128.129H273.624L274.366 126.742C274.796 125.925 275.27 125.226 275.786 124.645C276.323 124.065 276.925 123.624 277.592 123.323C278.259 123.022 278.99 122.871 279.786 122.871C280.861 122.871 281.71 123.118 282.334 123.613C282.958 124.086 283.345 124.763 283.495 125.645C283.667 126.505 283.592 127.527 283.27 128.71L280.108 140H275.56ZM304.529 140.452C303.023 140.452 301.797 140.129 300.851 139.484C299.926 138.817 299.335 137.882 299.077 136.677C298.819 135.473 298.926 134.043 299.4 132.387L302.851 119.968C303.088 119.172 303.152 118.559 303.045 118.129C302.959 117.699 302.658 117.398 302.142 117.226C301.647 117.054 300.873 116.957 299.819 116.935L300.174 115.677C302.002 115.656 303.625 115.538 305.045 115.323C306.486 115.108 307.797 114.785 308.98 114.355L303.561 133.742C303.066 135.548 302.948 136.914 303.206 137.839C303.464 138.742 304.055 139.194 304.98 139.194C305.711 139.194 306.41 138.925 307.077 138.387C307.765 137.849 308.378 137.129 308.916 136.226C309.453 135.301 309.873 134.258 310.174 133.097C310.496 131.914 310.658 130.699 310.658 129.452C310.658 127.968 310.432 126.839 309.98 126.065C309.55 125.269 308.926 124.871 308.109 124.871C307.507 124.871 306.948 125.075 306.432 125.484C305.937 125.892 305.518 126.473 305.174 127.226L305.206 126.194C305.765 125.118 306.464 124.301 307.303 123.742C308.163 123.161 309.12 122.871 310.174 122.871C311.744 122.871 312.98 123.441 313.883 124.581C314.787 125.699 315.238 127.237 315.238 129.194C315.238 130.742 314.959 132.194 314.4 133.548C313.84 134.903 313.066 136.097 312.077 137.129C311.109 138.161 309.98 138.978 308.69 139.581C307.4 140.161 306.012 140.452 304.529 140.452ZM324.612 140.452C323.494 140.452 322.591 140.183 321.902 139.645C321.236 139.108 320.806 138.355 320.612 137.387C320.418 136.419 320.504 135.28 320.87 133.968L322.644 127.677C322.902 126.774 322.945 126.086 322.773 125.613C322.601 125.118 322.214 124.871 321.612 124.871C321.139 124.871 320.698 125.054 320.289 125.419C319.881 125.763 319.483 126.29 319.096 127L318.515 128.129H317.257L317.967 126.742C318.418 125.925 318.902 125.237 319.418 124.677C319.956 124.097 320.548 123.656 321.193 123.355C321.859 123.054 322.601 122.903 323.418 122.903C324.494 122.903 325.343 123.14 325.967 123.613C326.591 124.086 326.978 124.763 327.128 125.645C327.3 126.505 327.214 127.527 326.87 128.71L325.193 134.774C324.87 135.978 324.827 136.892 325.064 137.516C325.322 138.14 325.849 138.452 326.644 138.452C327.311 138.452 327.913 138.247 328.451 137.839C329.01 137.43 329.504 136.828 329.935 136.032L330.225 136.71C329.537 137.957 328.72 138.892 327.773 139.516C326.849 140.14 325.795 140.452 324.612 140.452ZM333.451 140.452C332.375 140.452 331.526 140.215 330.902 139.742C330.279 139.247 329.881 138.57 329.709 137.71C329.558 136.828 329.644 135.806 329.967 134.645L333.128 123.323H337.677L334.225 135.677C333.967 136.559 333.924 137.247 334.096 137.742C334.289 138.215 334.677 138.452 335.257 138.452C335.709 138.452 336.139 138.28 336.548 137.935C336.978 137.591 337.375 137.065 337.741 136.355L338.354 135.226H339.612L338.87 136.581C338.44 137.398 337.956 138.097 337.418 138.677C336.902 139.258 336.311 139.699 335.644 140C334.999 140.301 334.268 140.452 333.451 140.452ZM342.24 140L345.691 127.677C345.949 126.774 345.981 126.086 345.788 125.613C345.616 125.118 345.24 124.871 344.659 124.871C344.207 124.871 343.766 125.054 343.336 125.419C342.928 125.763 342.541 126.29 342.175 127L341.562 128.129H340.304L341.046 126.742C341.476 125.925 341.949 125.226 342.465 124.645C343.003 124.065 343.605 123.624 344.272 123.323C344.938 123.022 345.67 122.871 346.465 122.871C347.541 122.871 348.39 123.118 349.014 123.613C349.637 124.086 350.024 124.763 350.175 125.645C350.347 126.505 350.272 127.527 349.949 128.71L346.788 140H342.24ZM354.562 129.774C354.111 129.774 353.756 129.645 353.498 129.387C353.24 129.129 353.111 128.796 353.111 128.387C353.111 127.978 353.197 127.602 353.369 127.258C353.562 126.892 353.745 126.548 353.917 126.226C354.111 125.903 354.207 125.602 354.207 125.323C354.207 124.914 353.928 124.71 353.369 124.71C352.809 124.71 352.218 124.935 351.594 125.387C350.971 125.817 350.444 126.398 350.014 127.129L349.756 126.387C350.401 125.269 351.175 124.409 352.078 123.806C352.981 123.183 353.949 122.871 354.981 122.871C355.885 122.871 356.584 123.108 357.078 123.581C357.573 124.054 357.82 124.72 357.82 125.581C357.82 126.312 357.659 127 357.336 127.645C357.035 128.269 356.637 128.785 356.143 129.194C355.67 129.581 355.143 129.774 354.562 129.774ZM364.052 147.71C362.59 147.71 361.299 147.548 360.181 147.226C359.063 146.903 358.203 146.452 357.6 145.871C356.977 145.312 356.665 144.656 356.665 143.903C356.665 143.022 357.106 142.172 357.988 141.355C358.869 140.559 360.117 139.882 361.729 139.323L362.407 139.742C361.783 140.151 361.299 140.645 360.955 141.226C360.611 141.806 360.439 142.409 360.439 143.032C360.439 144.043 360.869 144.849 361.729 145.452C362.611 146.054 363.772 146.355 365.213 146.355C366.203 146.355 367.074 146.183 367.826 145.839C368.6 145.516 369.203 145.054 369.633 144.452C370.063 143.871 370.278 143.204 370.278 142.452C370.278 141.72 370.052 141.183 369.6 140.839C369.149 140.495 368.45 140.323 367.504 140.323H364.471C363.289 140.323 362.353 140.086 361.665 139.613C360.998 139.14 360.665 138.484 360.665 137.645C360.665 136.935 360.934 136.237 361.471 135.548C362.009 134.839 362.837 134.086 363.955 133.29L364.504 133.677C364.138 134.043 363.869 134.366 363.697 134.645C363.525 134.903 363.439 135.161 363.439 135.419C363.439 135.785 363.59 136.065 363.891 136.258C364.192 136.43 364.676 136.516 365.342 136.516H368.858C370.45 136.516 371.686 136.892 372.568 137.645C373.45 138.376 373.891 139.419 373.891 140.774C373.891 142.108 373.471 143.301 372.633 144.355C371.794 145.409 370.633 146.226 369.149 146.806C367.665 147.409 365.966 147.71 364.052 147.71ZM366.149 134.161C364.471 134.161 363.149 133.731 362.181 132.871C361.235 131.989 360.762 130.785 360.762 129.258C360.762 128.032 361.063 126.946 361.665 126C362.267 125.032 363.095 124.28 364.149 123.742C365.203 123.183 366.396 122.903 367.729 122.903C369.407 122.903 370.729 123.344 371.697 124.226C372.665 125.108 373.149 126.301 373.149 127.806C373.149 129.011 372.837 130.097 372.213 131.065C371.611 132.032 370.783 132.796 369.729 133.355C368.697 133.892 367.504 134.161 366.149 134.161ZM366.246 132.903C366.676 132.903 367.074 132.742 367.439 132.419C367.826 132.097 368.17 131.656 368.471 131.097C368.772 130.538 369.009 129.903 369.181 129.194C369.353 128.484 369.439 127.753 369.439 127C369.439 126.075 369.289 125.366 368.988 124.871C368.686 124.376 368.246 124.129 367.665 124.129C367.213 124.129 366.794 124.29 366.407 124.613C366.02 124.914 365.676 125.333 365.375 125.871C365.095 126.409 364.869 127.022 364.697 127.71C364.547 128.398 364.471 129.129 364.471 129.903C364.471 130.892 364.622 131.645 364.923 132.161C365.224 132.656 365.665 132.903 366.246 132.903ZM376.278 127.935C375.891 127.935 375.579 127.828 375.342 127.613C375.106 127.398 374.988 127.108 374.988 126.742C374.988 126.484 375.041 126.237 375.149 126C375.278 125.763 375.396 125.538 375.504 125.323C375.611 125.108 375.665 124.903 375.665 124.71C375.665 124.516 375.59 124.376 375.439 124.29C375.31 124.204 375.106 124.161 374.826 124.161C374.375 124.161 373.912 124.269 373.439 124.484C372.966 124.699 372.525 125 372.117 125.387L371.697 124.839C372.235 124.194 372.826 123.71 373.471 123.387C374.138 123.043 374.837 122.871 375.568 122.871C376.45 122.871 377.149 123.097 377.665 123.548C378.181 123.978 378.439 124.581 378.439 125.355C378.439 126.065 378.224 126.677 377.794 127.194C377.385 127.688 376.88 127.935 376.278 127.935ZM378.794 140L384.375 119.968C384.611 119.194 384.686 118.591 384.6 118.161C384.514 117.731 384.213 117.43 383.697 117.258C383.203 117.065 382.418 116.957 381.342 116.935L381.697 115.677C383.504 115.656 385.117 115.538 386.536 115.323C387.977 115.108 389.299 114.785 390.504 114.355L383.342 140H378.794ZM393.213 140.452C392.138 140.452 391.289 140.215 390.665 139.742C390.041 139.247 389.643 138.57 389.471 137.71C389.321 136.828 389.407 135.806 389.729 134.645L391.439 128.548C391.762 127.366 391.794 126.462 391.536 125.839C391.299 125.215 390.772 124.903 389.955 124.903C389.353 124.903 388.783 125.086 388.246 125.452C387.708 125.817 387.224 126.376 386.794 127.129L386.697 126.452C387.364 125.269 388.138 124.376 389.02 123.774C389.923 123.172 390.945 122.871 392.084 122.871C393.74 122.871 394.902 123.462 395.568 124.645C396.235 125.828 396.289 127.398 395.729 129.355L393.988 135.677C393.729 136.538 393.686 137.215 393.858 137.71C394.031 138.204 394.407 138.452 394.988 138.452C395.461 138.452 395.902 138.28 396.31 137.935C396.74 137.591 397.149 137.065 397.536 136.355L398.117 135.226H399.375L398.633 136.581C398.203 137.398 397.719 138.097 397.181 138.677C396.665 139.258 396.074 139.699 395.407 140C394.762 140.301 394.031 140.452 393.213 140.452ZM406.584 128.161C405.788 128.161 405.122 127.935 404.584 127.484C404.068 127.011 403.81 126.419 403.81 125.71C403.81 124.914 404.111 124.247 404.713 123.71C405.315 123.172 406.057 122.903 406.939 122.903C407.756 122.903 408.423 123.14 408.939 123.613C409.455 124.065 409.713 124.645 409.713 125.355C409.713 126.129 409.412 126.796 408.81 127.355C408.208 127.892 407.466 128.161 406.584 128.161ZM403.132 140.452C402.337 140.452 401.67 140.226 401.132 139.774C400.616 139.301 400.358 138.71 400.358 138C400.358 137.204 400.659 136.538 401.261 136C401.864 135.462 402.606 135.194 403.487 135.194C404.304 135.194 404.971 135.43 405.487 135.903C406.003 136.355 406.261 136.935 406.261 137.645C406.261 138.419 405.96 139.086 405.358 139.645C404.756 140.183 404.014 140.452 403.132 140.452ZM59.592 188L59.9468 186.742C61.0221 186.677 61.8285 186.57 62.3662 186.419C62.9038 186.269 63.3017 186.011 63.5597 185.645C63.8178 185.258 64.0436 184.699 64.2371 183.968L68.3339 169.194C68.549 168.419 68.6242 167.849 68.5597 167.484C68.5167 167.118 68.2694 166.86 67.8178 166.71C67.3662 166.538 66.635 166.441 65.6242 166.419L65.9791 165.161C66.4307 165.183 66.9146 165.204 67.4307 165.226C67.9683 165.226 68.5382 165.226 69.1404 165.226C69.764 165.226 70.4092 165.226 71.0759 165.226C71.6995 165.226 72.2909 165.226 72.8501 165.226C73.4307 165.204 73.9576 165.194 74.4307 165.194C74.9253 165.172 75.3554 165.161 75.721 165.161C79.1834 165.161 81.8608 166.011 83.7533 167.71C85.6673 169.387 86.6242 171.742 86.6242 174.774C86.6242 176.731 86.2371 178.516 85.463 180.129C84.7103 181.742 83.6242 183.14 82.2049 184.323C80.7855 185.505 79.0974 186.419 77.1404 187.065C75.1834 187.688 73.0221 188 70.6565 188C70.1404 188 69.6135 187.989 69.0759 187.968C68.5597 187.946 67.9898 187.935 67.3662 187.935C66.764 187.914 66.0544 187.903 65.2371 187.903C64.1189 187.903 63.0651 187.914 62.0759 187.935C61.1081 187.935 60.2802 187.957 59.592 188ZM71.0436 186.774C72.549 186.774 73.9361 186.462 75.2049 185.839C76.4952 185.215 77.6135 184.333 78.5597 183.194C79.506 182.054 80.2371 180.731 80.7533 179.226C81.2909 177.72 81.5597 176.086 81.5597 174.323C81.5597 171.785 81.0006 169.828 79.8823 168.452C78.7855 167.075 77.2371 166.387 75.2371 166.387H74.0436L69.1404 184.032C68.8393 185.108 68.8178 185.839 69.0759 186.226C69.3554 186.591 70.0113 186.774 71.0436 186.774ZM94.8816 188.452C93.2902 188.452 92.0321 187.892 91.1074 186.774C90.1826 185.656 89.7203 184.129 89.7203 182.194C89.7203 180.71 89.9891 179.29 90.5267 177.935C91.0643 176.581 91.7848 175.376 92.688 174.323C93.6127 173.247 94.6665 172.409 95.8493 171.806C97.0536 171.183 98.3009 170.871 99.5912 170.871C100.666 170.871 101.688 171.097 102.656 171.548C103.623 172 104.516 172.656 105.333 173.516L102.236 175.484C102.172 174.43 101.914 173.613 101.462 173.032C101.032 172.43 100.473 172.129 99.7848 172.129C99.0966 172.129 98.4192 172.398 97.7525 172.935C97.1074 173.473 96.5267 174.204 96.0106 175.129C95.4945 176.032 95.0859 177.065 94.7848 178.226C94.4837 179.366 94.3332 180.548 94.3332 181.774C94.3332 183.194 94.559 184.28 95.0106 185.032C95.4837 185.785 96.1396 186.161 96.9783 186.161C97.5805 186.161 98.1289 185.989 98.6235 185.645C99.1396 185.28 99.6127 184.731 100.043 184L100.333 184.484C99.7095 185.774 98.9353 186.763 98.0106 187.452C97.1074 188.118 96.0643 188.452 94.8816 188.452ZM103.494 188.452C101.925 188.452 100.817 187.935 100.172 186.903C99.5482 185.871 99.4945 184.452 100.011 182.645L102.494 173.774C103.57 173.409 104.537 172.989 105.398 172.516C106.279 172.043 107.107 171.473 107.882 170.806L108.591 171.742C108.247 172.043 107.957 172.344 107.72 172.645C107.505 172.925 107.312 173.247 107.14 173.613C106.989 173.978 106.839 174.441 106.688 175L104.269 183.677C104.011 184.559 103.968 185.247 104.14 185.742C104.333 186.215 104.72 186.452 105.301 186.452C105.645 186.452 105.957 186.366 106.236 186.194C106.537 186.022 106.817 185.774 107.075 185.452C107.333 185.129 107.57 184.763 107.785 184.355L108.398 183.226H109.656L108.849 184.71C108.462 185.484 108 186.151 107.462 186.71C106.946 187.269 106.355 187.699 105.688 188C105.043 188.301 104.312 188.452 103.494 188.452ZM109.668 195.71C108.851 195.71 108.195 195.516 107.7 195.129C107.184 194.742 106.926 194.237 106.926 193.613C106.926 193.054 107.12 192.591 107.507 192.226C107.894 191.882 108.399 191.71 109.023 191.71C109.41 191.71 109.765 191.774 110.087 191.903C110.432 192.032 110.754 192.183 111.055 192.355C111.378 192.527 111.69 192.677 111.991 192.806C112.292 192.957 112.593 193.032 112.894 193.032C113.518 193.032 114.238 192.753 115.055 192.194C115.894 191.656 116.776 190.925 117.7 190C118.625 189.097 119.528 188.086 120.41 186.968C121.292 185.849 122.087 184.71 122.797 183.548C123.528 182.387 124.109 181.301 124.539 180.29C124.991 179.258 125.216 178.376 125.216 177.645C125.216 177.065 125.087 176.57 124.829 176.161C124.571 175.731 124.281 175.355 123.958 175.032C123.636 174.688 123.346 174.344 123.087 174C122.851 173.634 122.733 173.215 122.733 172.742C122.733 172.204 122.915 171.763 123.281 171.419C123.668 171.054 124.163 170.871 124.765 170.871C125.582 170.871 126.216 171.183 126.668 171.806C127.12 172.409 127.346 173.258 127.346 174.355C127.346 175.624 127.066 177.032 126.507 178.581C125.948 180.108 125.184 181.677 124.216 183.29C123.249 184.882 122.152 186.419 120.926 187.903C119.722 189.366 118.453 190.688 117.12 191.871C115.808 193.054 114.507 193.989 113.216 194.677C111.926 195.366 110.743 195.71 109.668 195.71ZM116.41 191.935C116.582 190.215 116.657 188.473 116.636 186.71C116.636 184.925 116.561 183.237 116.41 181.645C116.281 180.032 116.077 178.602 115.797 177.355C115.518 176.108 115.195 175.118 114.829 174.387C114.485 173.656 114.098 173.29 113.668 173.29C113.389 173.29 113.109 173.43 112.829 173.71C112.571 173.968 112.27 174.409 111.926 175.032L111.346 176.129H110.087L111.087 174.194C111.69 173.075 112.346 172.247 113.055 171.71C113.786 171.151 114.593 170.871 115.475 170.871C116.722 170.871 117.743 171.452 118.539 172.613C119.335 173.774 119.926 175.57 120.313 178C120.7 180.409 120.883 183.516 120.862 187.323C120.432 187.86 119.991 188.376 119.539 188.871C119.109 189.387 118.636 189.892 118.12 190.387C117.604 190.903 117.034 191.419 116.41 191.935ZM144.814 188.452C143.136 188.452 141.932 187.925 141.201 186.871C140.491 185.796 140.383 184.376 140.878 182.613L145.33 166.645C146.233 166.645 147.061 166.602 147.814 166.516C148.588 166.409 149.33 166.247 150.039 166.032L145.136 183.677C144.878 184.602 144.857 185.301 145.072 185.774C145.287 186.226 145.738 186.452 146.426 186.452C146.986 186.452 147.48 186.28 147.91 185.935C148.362 185.591 148.781 185.054 149.168 184.323L149.749 183.226H151.007L150.072 185.032C149.706 185.742 149.265 186.355 148.749 186.871C148.254 187.366 147.684 187.753 147.039 188.032C146.394 188.312 145.652 188.452 144.814 188.452ZM140.007 172.581L140.33 171.323H153.426L153.104 172.581H140.007ZM155.072 188L158.523 175.677C158.781 174.774 158.814 174.086 158.62 173.613C158.448 173.118 158.072 172.871 157.491 172.871C157.039 172.871 156.598 173.054 156.168 173.419C155.76 173.763 155.373 174.29 155.007 175L154.394 176.129H153.136L153.878 174.742C154.308 173.925 154.781 173.226 155.297 172.645C155.835 172.065 156.437 171.624 157.104 171.323C157.77 171.022 158.502 170.871 159.297 170.871C160.373 170.871 161.222 171.118 161.846 171.613C162.469 172.086 162.857 172.763 163.007 173.645C163.179 174.505 163.104 175.527 162.781 176.71L159.62 188H155.072ZM167.394 177.774C166.943 177.774 166.588 177.645 166.33 177.387C166.072 177.129 165.943 176.796 165.943 176.387C165.943 175.978 166.029 175.602 166.201 175.258C166.394 174.892 166.577 174.548 166.749 174.226C166.943 173.903 167.039 173.602 167.039 173.323C167.039 172.914 166.76 172.71 166.201 172.71C165.641 172.71 165.05 172.935 164.426 173.387C163.803 173.817 163.276 174.398 162.846 175.129L162.588 174.387C163.233 173.269 164.007 172.409 164.91 171.806C165.814 171.183 166.781 170.871 167.814 170.871C168.717 170.871 169.416 171.108 169.91 171.581C170.405 172.054 170.652 172.72 170.652 173.581C170.652 174.312 170.491 175 170.168 175.645C169.867 176.269 169.469 176.785 168.975 177.194C168.502 177.581 167.975 177.774 167.394 177.774ZM178.518 188.452C177.442 188.452 176.571 188.204 175.905 187.71C175.26 187.194 174.851 186.495 174.679 185.613C174.528 184.731 174.657 183.731 175.066 182.613L177.518 175.677C177.819 174.839 177.872 174.161 177.679 173.645C177.507 173.129 177.12 172.871 176.518 172.871C176.045 172.871 175.593 173.043 175.163 173.387C174.754 173.731 174.367 174.269 174.002 175L173.389 176.129H172.131L172.872 174.742C173.582 173.409 174.367 172.43 175.227 171.806C176.109 171.183 177.131 170.871 178.292 170.871C179.389 170.871 180.26 171.129 180.905 171.645C181.55 172.14 181.959 172.828 182.131 173.71C182.303 174.57 182.174 175.57 181.743 176.71L179.292 183.645C178.991 184.484 178.937 185.161 179.131 185.677C179.324 186.194 179.711 186.452 180.292 186.452C181.238 186.452 182.088 185.753 182.84 184.355L183.421 183.226H184.679L183.969 184.581C183.26 185.935 182.464 186.925 181.582 187.548C180.7 188.151 179.679 188.452 178.518 188.452ZM180.905 168.032C180.152 168.032 179.528 167.817 179.034 167.387C178.561 166.935 178.324 166.355 178.324 165.645C178.324 164.871 178.614 164.226 179.195 163.71C179.776 163.172 180.475 162.903 181.292 162.903C182.045 162.903 182.657 163.129 183.131 163.581C183.625 164.011 183.872 164.581 183.872 165.29C183.872 166.065 183.582 166.72 183.002 167.258C182.442 167.774 181.743 168.032 180.905 168.032ZM182.463 195.452L182.818 194.194C183.592 194.172 184.237 194.075 184.753 193.903C185.248 193.753 185.646 193.505 185.947 193.161C186.248 192.839 186.474 192.387 186.624 191.806L191.14 175.677C191.398 174.753 191.431 174.054 191.237 173.581C191.044 173.108 190.667 172.871 190.108 172.871C189.657 172.871 189.216 173.043 188.786 173.387C188.377 173.731 187.99 174.269 187.624 175L187.011 176.129H185.753L186.495 174.742C186.925 173.925 187.398 173.226 187.915 172.645C188.452 172.065 189.054 171.624 189.721 171.323C190.388 171.022 191.119 170.871 191.915 170.871C193.484 170.871 194.581 171.387 195.205 172.419C195.85 173.452 195.915 174.882 195.398 176.71L191.237 191.548C191.065 192.172 191.076 192.667 191.269 193.032C191.463 193.419 191.861 193.699 192.463 193.871C193.087 194.065 193.947 194.172 195.044 194.194L194.721 195.452C194.269 195.43 193.7 195.409 193.011 195.387C192.323 195.387 191.581 195.376 190.786 195.355C190.011 195.333 189.226 195.323 188.431 195.323C187.269 195.323 186.151 195.333 185.076 195.355C183.979 195.398 183.108 195.43 182.463 195.452ZM196.56 188.452C195.613 188.452 194.775 188.237 194.044 187.806C193.334 187.376 192.829 186.785 192.527 186.032L192.915 185C193.194 185.495 193.57 185.882 194.044 186.161C194.538 186.441 195.065 186.581 195.624 186.581C196.334 186.581 197.011 186.344 197.657 185.871C198.323 185.376 198.915 184.71 199.431 183.871C199.947 183.032 200.345 182.075 200.624 181C200.925 179.903 201.076 178.763 201.076 177.581C201.076 176.161 200.839 175.075 200.366 174.323C199.915 173.57 199.259 173.194 198.398 173.194C197.818 173.194 197.269 173.376 196.753 173.742C196.237 174.086 195.775 174.613 195.366 175.323L195.076 174.839C195.7 173.548 196.463 172.57 197.366 171.903C198.291 171.215 199.345 170.871 200.527 170.871C202.119 170.871 203.377 171.441 204.302 172.581C205.226 173.699 205.689 175.226 205.689 177.161C205.689 178.624 205.431 180.032 204.915 181.387C204.42 182.72 203.743 183.925 202.882 185C202.022 186.075 201.044 186.925 199.947 187.548C198.872 188.151 197.743 188.452 196.56 188.452ZM214.487 188.452C213.154 188.452 211.971 188.269 210.939 187.903C209.907 187.538 209.1 187.032 208.52 186.387C207.939 185.742 207.649 185.011 207.649 184.194C207.649 183.462 207.853 182.871 208.262 182.419C208.692 181.968 209.262 181.742 209.971 181.742C210.573 181.742 211.036 181.914 211.358 182.258C211.702 182.581 211.885 183.043 211.907 183.645C211.907 184.032 211.853 184.43 211.745 184.839C211.638 185.226 211.584 185.548 211.584 185.806C211.606 186.28 211.842 186.634 212.294 186.871C212.745 187.108 213.391 187.226 214.229 187.226C215.348 187.226 216.219 187.011 216.842 186.581C217.466 186.129 217.778 185.516 217.778 184.742C217.778 184.14 217.606 183.613 217.262 183.161C216.918 182.688 216.477 182.258 215.939 181.871C215.423 181.462 214.864 181.054 214.262 180.645C213.659 180.237 213.09 179.806 212.552 179.355C212.014 178.882 211.573 178.355 211.229 177.774C210.907 177.194 210.745 176.527 210.745 175.774C210.745 174.29 211.38 173.108 212.649 172.226C213.939 171.323 215.584 170.871 217.584 170.871C218.831 170.871 219.928 171.043 220.874 171.387C221.842 171.731 222.595 172.204 223.133 172.806C223.692 173.387 223.971 174.054 223.971 174.806C223.971 175.452 223.778 175.978 223.391 176.387C223.004 176.796 222.498 177 221.874 177C221.337 177 220.896 176.849 220.552 176.548C220.229 176.247 220.068 175.849 220.068 175.355C220.068 175.032 220.111 174.688 220.197 174.323C220.305 173.935 220.348 173.624 220.326 173.387C220.326 172.957 220.122 172.634 219.713 172.419C219.305 172.204 218.724 172.097 217.971 172.097C217.025 172.097 216.283 172.301 215.745 172.71C215.208 173.097 214.939 173.634 214.939 174.323C214.939 174.882 215.111 175.398 215.455 175.871C215.799 176.323 216.229 176.753 216.745 177.161C217.283 177.548 217.853 177.957 218.455 178.387C219.057 178.796 219.616 179.237 220.133 179.71C220.67 180.161 221.111 180.688 221.455 181.29C221.799 181.871 221.971 182.548 221.971 183.323C221.971 184.355 221.649 185.258 221.004 186.032C220.358 186.785 219.477 187.376 218.358 187.806C217.24 188.237 215.95 188.452 214.487 188.452ZM240.428 188.452C238.837 188.452 237.579 187.892 236.654 186.774C235.73 185.656 235.267 184.129 235.267 182.194C235.267 180.71 235.536 179.29 236.074 177.935C236.611 176.581 237.332 175.376 238.235 174.323C239.16 173.247 240.213 172.409 241.396 171.806C242.6 171.183 243.848 170.871 245.138 170.871C246.213 170.871 247.235 171.097 248.203 171.548C249.17 172 250.063 172.656 250.88 173.516L247.783 175.484C247.719 174.43 247.461 173.613 247.009 173.032C246.579 172.43 246.02 172.129 245.332 172.129C244.643 172.129 243.966 172.398 243.299 172.935C242.654 173.473 242.074 174.204 241.557 175.129C241.041 176.032 240.633 177.065 240.332 178.226C240.031 179.366 239.88 180.548 239.88 181.774C239.88 183.194 240.106 184.28 240.557 185.032C241.031 185.785 241.686 186.161 242.525 186.161C243.127 186.161 243.676 185.989 244.17 185.645C244.686 185.28 245.16 184.731 245.59 184L245.88 184.484C245.256 185.774 244.482 186.763 243.557 187.452C242.654 188.118 241.611 188.452 240.428 188.452ZM249.041 188.452C247.471 188.452 246.364 187.935 245.719 186.903C245.095 185.871 245.041 184.452 245.557 182.645L248.041 173.774C249.117 173.409 250.084 172.989 250.945 172.516C251.826 172.043 252.654 171.473 253.428 170.806L254.138 171.742C253.794 172.043 253.504 172.344 253.267 172.645C253.052 172.925 252.859 173.247 252.686 173.613C252.536 173.978 252.385 174.441 252.235 175L249.816 183.677C249.557 184.559 249.514 185.247 249.686 185.742C249.88 186.215 250.267 186.452 250.848 186.452C251.192 186.452 251.504 186.366 251.783 186.194C252.084 186.022 252.364 185.774 252.622 185.452C252.88 185.129 253.117 184.763 253.332 184.355L253.945 183.226H255.203L254.396 184.71C254.009 185.484 253.547 186.151 253.009 186.71C252.493 187.269 251.902 187.699 251.235 188C250.59 188.301 249.859 188.452 249.041 188.452ZM272.382 188.452C271.328 188.452 270.478 188.215 269.833 187.742C269.21 187.269 268.812 186.602 268.64 185.742C268.489 184.86 268.575 183.828 268.898 182.645L270.607 176.548C270.93 175.344 270.962 174.441 270.704 173.839C270.468 173.215 269.941 172.903 269.123 172.903C268.457 172.903 267.833 173.108 267.253 173.516C266.693 173.925 266.177 174.527 265.704 175.323L265.414 174.645C266.123 173.376 266.962 172.43 267.93 171.806C268.898 171.183 269.973 170.871 271.156 170.871C272.855 170.871 274.037 171.462 274.704 172.645C275.392 173.806 275.468 175.376 274.93 177.355L273.156 183.677C272.919 184.559 272.887 185.247 273.059 185.742C273.231 186.215 273.597 186.452 274.156 186.452C274.65 186.452 275.102 186.28 275.511 185.935C275.941 185.57 276.339 185.043 276.704 184.355L277.285 183.226H278.543L277.833 184.581C277.403 185.398 276.919 186.097 276.382 186.677C275.844 187.258 275.242 187.699 274.575 188C273.93 188.301 273.199 188.452 272.382 188.452ZM257.962 188L261.414 175.677C261.672 174.796 261.715 174.108 261.543 173.613C261.371 173.118 260.984 172.871 260.382 172.871C259.93 172.871 259.489 173.054 259.059 173.419C258.65 173.763 258.263 174.29 257.898 175L257.285 176.129H256.027L256.769 174.742C257.199 173.925 257.672 173.226 258.188 172.645C258.726 172.065 259.328 171.624 259.994 171.323C260.661 171.022 261.392 170.871 262.188 170.871C263.263 170.871 264.113 171.118 264.736 171.613C265.36 172.086 265.747 172.763 265.898 173.645C266.07 174.505 265.994 175.527 265.672 176.71L262.511 188H257.962ZM294.315 188.452C293.239 188.452 292.39 188.215 291.766 187.742C291.143 187.247 290.745 186.559 290.573 185.677C290.422 184.796 290.508 183.785 290.831 182.645L294.928 167.968C295.164 167.172 295.239 166.559 295.153 166.129C295.067 165.699 294.777 165.398 294.283 165.226C293.809 165.054 293.067 164.957 292.057 164.935L292.444 163.677C294.229 163.656 295.82 163.538 297.218 163.323C298.616 163.108 299.895 162.785 301.057 162.355L295.089 183.677C294.831 184.538 294.788 185.215 294.96 185.71C295.132 186.204 295.508 186.452 296.089 186.452C296.562 186.452 297.003 186.28 297.412 185.935C297.842 185.591 298.239 185.065 298.605 184.355L299.218 183.226H300.476L299.734 184.581C299.304 185.398 298.82 186.097 298.283 186.677C297.766 187.258 297.175 187.699 296.508 188C295.863 188.301 295.132 188.452 294.315 188.452ZM285.734 188.452C284.121 188.452 282.852 187.903 281.928 186.806C281.003 185.688 280.541 184.161 280.541 182.226C280.541 180.72 280.809 179.29 281.347 177.935C281.885 176.581 282.605 175.376 283.508 174.323C284.433 173.247 285.487 172.409 286.67 171.806C287.874 171.183 289.121 170.871 290.412 170.871C291.487 170.871 292.508 171.097 293.476 171.548C294.444 172 295.336 172.656 296.153 173.516L293.057 175.484C292.992 174.43 292.734 173.613 292.283 173.032C291.852 172.43 291.293 172.129 290.605 172.129C289.917 172.129 289.239 172.398 288.573 172.935C287.928 173.473 287.347 174.204 286.831 175.129C286.315 176.032 285.906 177.065 285.605 178.226C285.304 179.366 285.153 180.548 285.153 181.774C285.153 183.194 285.379 184.28 285.831 185.032C286.304 185.785 286.96 186.161 287.799 186.161C288.401 186.161 288.949 185.989 289.444 185.645C289.96 185.28 290.433 184.731 290.863 184L291.153 184.484C290.53 185.817 289.766 186.817 288.863 187.484C287.981 188.129 286.938 188.452 285.734 188.452ZM326.366 188.452C325.312 188.452 324.463 188.215 323.818 187.742C323.194 187.269 322.796 186.602 322.624 185.742C322.473 184.86 322.559 183.828 322.882 182.645L324.592 176.548C324.914 175.344 324.947 174.441 324.689 173.839C324.452 173.215 323.925 172.903 323.108 172.903C322.441 172.903 321.818 173.108 321.237 173.516C320.678 173.925 320.162 174.527 319.689 175.323L319.398 174.645C320.108 173.376 320.947 172.43 321.914 171.806C322.882 171.183 323.957 170.871 325.14 170.871C326.839 170.871 328.022 171.462 328.689 172.645C329.377 173.806 329.452 175.376 328.914 177.355L327.14 183.677C326.904 184.559 326.871 185.247 327.043 185.742C327.215 186.215 327.581 186.452 328.14 186.452C328.635 186.452 329.086 186.28 329.495 185.935C329.925 185.57 330.323 185.043 330.689 184.355L331.269 183.226H332.527L331.818 184.581C331.387 185.398 330.904 186.097 330.366 186.677C329.828 187.258 329.226 187.699 328.559 188C327.914 188.301 327.183 188.452 326.366 188.452ZM311.947 188L315.398 175.677C315.656 174.796 315.699 174.108 315.527 173.613C315.355 173.118 314.968 172.871 314.366 172.871C313.914 172.871 313.473 173.054 313.043 173.419C312.635 173.763 312.248 174.29 311.882 175L311.269 176.129H310.011L310.753 174.742C311.183 173.925 311.656 173.226 312.172 172.645C312.71 172.065 313.312 171.624 313.979 171.323C314.645 171.022 315.377 170.871 316.172 170.871C317.248 170.871 318.097 171.118 318.721 171.613C319.344 172.086 319.732 172.763 319.882 173.645C320.054 174.505 319.979 175.527 319.656 176.71L316.495 188H311.947ZM339.686 188.452C338.095 188.452 336.837 187.892 335.912 186.774C334.987 185.656 334.525 184.129 334.525 182.194C334.525 180.71 334.794 179.29 335.331 177.935C335.869 176.581 336.589 175.376 337.493 174.323C338.417 173.247 339.471 172.409 340.654 171.806C341.858 171.183 343.106 170.871 344.396 170.871C345.471 170.871 346.493 171.097 347.46 171.548C348.428 172 349.321 172.656 350.138 173.516L347.041 175.484C346.977 174.43 346.718 173.613 346.267 173.032C345.837 172.43 345.278 172.129 344.589 172.129C343.901 172.129 343.224 172.398 342.557 172.935C341.912 173.473 341.331 174.204 340.815 175.129C340.299 176.032 339.891 177.065 339.589 178.226C339.288 179.366 339.138 180.548 339.138 181.774C339.138 183.194 339.364 184.28 339.815 185.032C340.288 185.785 340.944 186.161 341.783 186.161C342.385 186.161 342.934 185.989 343.428 185.645C343.944 185.28 344.417 184.731 344.848 184L345.138 184.484C344.514 185.774 343.74 186.763 342.815 187.452C341.912 188.118 340.869 188.452 339.686 188.452ZM348.299 188.452C346.729 188.452 345.622 187.935 344.977 186.903C344.353 185.871 344.299 184.452 344.815 182.645L347.299 173.774C348.374 173.409 349.342 172.989 350.202 172.516C351.084 172.043 351.912 171.473 352.686 170.806L353.396 171.742C353.052 172.043 352.762 172.344 352.525 172.645C352.31 172.925 352.116 173.247 351.944 173.613C351.794 173.978 351.643 174.441 351.493 175L349.073 183.677C348.815 184.559 348.772 185.247 348.944 185.742C349.138 186.215 349.525 186.452 350.106 186.452C350.45 186.452 350.762 186.366 351.041 186.194C351.342 186.022 351.622 185.774 351.88 185.452C352.138 185.129 352.374 184.763 352.589 184.355L353.202 183.226H354.46L353.654 184.71C353.267 185.484 352.805 186.151 352.267 186.71C351.751 187.269 351.159 187.699 350.493 188C349.848 188.301 349.116 188.452 348.299 188.452ZM361.649 188.452C359.972 188.452 358.768 187.925 358.037 186.871C357.327 185.796 357.219 184.376 357.714 182.613L362.166 166.645C363.069 166.645 363.897 166.602 364.649 166.516C365.424 166.409 366.166 166.247 366.875 166.032L361.972 183.677C361.714 184.602 361.692 185.301 361.908 185.774C362.123 186.226 362.574 186.452 363.262 186.452C363.821 186.452 364.316 186.28 364.746 185.935C365.198 185.591 365.617 185.054 366.004 184.323L366.585 183.226H367.843L366.908 185.032C366.542 185.742 366.101 186.355 365.585 186.871C365.09 187.366 364.52 187.753 363.875 188.032C363.23 188.312 362.488 188.452 361.649 188.452ZM356.843 172.581L357.166 171.323H370.262L369.94 172.581H356.843ZM377.249 188.452C376.13 188.452 375.227 188.183 374.539 187.645C373.872 187.108 373.442 186.355 373.249 185.387C373.055 184.419 373.141 183.28 373.507 181.968L375.281 175.677C375.539 174.774 375.582 174.086 375.41 173.613C375.238 173.118 374.851 172.871 374.249 172.871C373.776 172.871 373.335 173.054 372.926 173.419C372.518 173.763 372.12 174.29 371.733 175L371.152 176.129H369.894L370.604 174.742C371.055 173.925 371.539 173.237 372.055 172.677C372.593 172.097 373.184 171.656 373.829 171.355C374.496 171.054 375.238 170.903 376.055 170.903C377.13 170.903 377.98 171.14 378.604 171.613C379.227 172.086 379.614 172.763 379.765 173.645C379.937 174.505 379.851 175.527 379.507 176.71L377.829 182.774C377.507 183.978 377.464 184.892 377.7 185.516C377.958 186.14 378.485 186.452 379.281 186.452C379.948 186.452 380.55 186.247 381.087 185.839C381.647 185.43 382.141 184.828 382.571 184.032L382.862 184.71C382.173 185.957 381.356 186.892 380.41 187.516C379.485 188.14 378.432 188.452 377.249 188.452ZM386.087 188.452C385.012 188.452 384.163 188.215 383.539 187.742C382.915 187.247 382.518 186.57 382.346 185.71C382.195 184.828 382.281 183.806 382.604 182.645L385.765 171.323H390.313L386.862 183.677C386.604 184.559 386.561 185.247 386.733 185.742C386.926 186.215 387.313 186.452 387.894 186.452C388.346 186.452 388.776 186.28 389.184 185.935C389.614 185.591 390.012 185.065 390.378 184.355L390.991 183.226H392.249L391.507 184.581C391.077 185.398 390.593 186.097 390.055 186.677C389.539 187.258 388.948 187.699 388.281 188C387.636 188.301 386.905 188.452 386.087 188.452ZM394.876 188L398.328 175.677C398.586 174.774 398.618 174.086 398.425 173.613C398.253 173.118 397.876 172.871 397.296 172.871C396.844 172.871 396.403 173.054 395.973 173.419C395.564 173.763 395.177 174.29 394.812 175L394.199 176.129H392.941L393.683 174.742C394.113 173.925 394.586 173.226 395.102 172.645C395.64 172.065 396.242 171.624 396.909 171.323C397.575 171.022 398.306 170.871 399.102 170.871C400.177 170.871 401.027 171.118 401.65 171.613C402.274 172.086 402.661 172.763 402.812 173.645C402.984 174.505 402.909 175.527 402.586 176.71L399.425 188H394.876ZM407.199 177.774C406.747 177.774 406.392 177.645 406.134 177.387C405.876 177.129 405.747 176.796 405.747 176.387C405.747 175.978 405.833 175.602 406.005 175.258C406.199 174.892 406.382 174.548 406.554 174.226C406.747 173.903 406.844 173.602 406.844 173.323C406.844 172.914 406.564 172.71 406.005 172.71C405.446 172.71 404.855 172.935 404.231 173.387C403.607 173.817 403.081 174.398 402.65 175.129L402.392 174.387C403.038 173.269 403.812 172.409 404.715 171.806C405.618 171.183 406.586 170.871 407.618 170.871C408.521 170.871 409.22 171.108 409.715 171.581C410.21 172.054 410.457 172.72 410.457 173.581C410.457 174.312 410.296 175 409.973 175.645C409.672 176.269 409.274 176.785 408.779 177.194C408.306 177.581 407.779 177.774 407.199 177.774ZM418.186 188.452C416.272 188.452 414.767 187.892 413.67 186.774C412.595 185.634 412.057 184.054 412.057 182.032C412.057 180.548 412.337 179.14 412.896 177.806C413.455 176.452 414.218 175.258 415.186 174.226C416.175 173.172 417.305 172.355 418.573 171.774C419.842 171.172 421.175 170.871 422.573 170.871C423.971 170.871 425.036 171.161 425.767 171.742C426.52 172.301 426.896 173.118 426.896 174.194C426.896 175.333 426.455 176.419 425.573 177.452C424.713 178.484 423.487 179.409 421.896 180.226C420.326 181.022 418.477 181.645 416.348 182.097V181.065C417.831 180.548 419.089 179.925 420.122 179.194C421.154 178.441 421.939 177.613 422.477 176.71C423.014 175.806 423.283 174.882 423.283 173.935C423.283 173.312 423.175 172.849 422.96 172.548C422.745 172.247 422.434 172.097 422.025 172.097C421.401 172.097 420.767 172.376 420.122 172.935C419.498 173.495 418.928 174.247 418.412 175.194C417.896 176.118 417.477 177.14 417.154 178.258C416.831 179.376 416.67 180.495 416.67 181.613C416.67 183.14 416.95 184.312 417.509 185.129C418.089 185.925 418.917 186.323 419.993 186.323C420.874 186.323 421.659 186.086 422.348 185.613C423.057 185.118 423.692 184.387 424.251 183.419H425.477C424.659 185.075 423.638 186.333 422.412 187.194C421.208 188.032 419.799 188.452 418.186 188.452ZM67.8077 236.452C66.4744 236.452 65.2916 236.269 64.2593 235.903C63.2271 235.538 62.4206 235.032 61.84 234.387C61.2593 233.742 60.969 233.011 60.969 232.194C60.969 231.462 61.1733 230.871 61.5819 230.419C62.012 229.968 62.5819 229.742 63.2916 229.742C63.8937 229.742 64.3561 229.914 64.6787 230.258C65.0228 230.581 65.2056 231.043 65.2271 231.645C65.2271 232.032 65.1733 232.43 65.0658 232.839C64.9582 233.226 64.9045 233.548 64.9045 233.806C64.926 234.28 65.1626 234.634 65.6142 234.871C66.0658 235.108 66.7109 235.226 67.5496 235.226C68.6679 235.226 69.5389 235.011 70.1626 234.581C70.7862 234.129 71.098 233.516 71.098 232.742C71.098 232.14 70.926 231.613 70.5819 231.161C70.2378 230.688 69.797 230.258 69.2593 229.871C68.7432 229.462 68.1841 229.054 67.5819 228.645C66.9798 228.237 66.4099 227.806 65.8722 227.355C65.3346 226.882 64.8937 226.355 64.5496 225.774C64.2271 225.194 64.0658 224.527 64.0658 223.774C64.0658 222.29 64.7002 221.108 65.969 220.226C67.2593 219.323 68.9045 218.871 70.9045 218.871C72.1518 218.871 73.2486 219.043 74.1948 219.387C75.1626 219.731 75.9152 220.204 76.4529 220.806C77.012 221.387 77.2916 222.054 77.2916 222.806C77.2916 223.452 77.098 223.978 76.7109 224.387C76.3238 224.796 75.8185 225 75.1948 225C74.6572 225 74.2163 224.849 73.8722 224.548C73.5496 224.247 73.3884 223.849 73.3884 223.355C73.3884 223.032 73.4314 222.688 73.5174 222.323C73.6249 221.935 73.6679 221.624 73.6464 221.387C73.6464 220.957 73.4421 220.634 73.0335 220.419C72.6249 220.204 72.0443 220.097 71.2916 220.097C70.3453 220.097 69.6034 220.301 69.0658 220.71C68.5281 221.097 68.2593 221.634 68.2593 222.323C68.2593 222.882 68.4314 223.398 68.7755 223.871C69.1195 224.323 69.5496 224.753 70.0658 225.161C70.6034 225.548 71.1733 225.957 71.7755 226.387C72.3776 226.796 72.9367 227.237 73.4529 227.71C73.9905 228.161 74.4314 228.688 74.7755 229.29C75.1195 229.871 75.2916 230.548 75.2916 231.323C75.2916 232.355 74.969 233.258 74.3238 234.032C73.6787 234.785 72.797 235.376 71.6787 235.806C70.5604 236.237 69.2701 236.452 67.8077 236.452ZM75.588 243.452L75.9428 242.194C76.717 242.172 77.3621 242.075 77.8783 241.903C78.3729 241.753 78.7707 241.505 79.0718 241.161C79.3729 240.839 79.5987 240.387 79.7492 239.806L84.2654 223.677C84.5234 222.753 84.5557 222.054 84.3621 221.581C84.1686 221.108 83.7923 220.871 83.2331 220.871C82.7815 220.871 82.3406 221.043 81.9105 221.387C81.5019 221.731 81.1148 222.269 80.7492 223L80.1363 224.129H78.8783L79.6202 222.742C80.0503 221.925 80.5234 221.226 81.0396 220.645C81.5772 220.065 82.1794 219.624 82.846 219.323C83.5127 219.022 84.2439 218.871 85.0396 218.871C86.6095 218.871 87.7062 219.387 88.3299 220.419C88.975 221.452 89.0396 222.882 88.5234 224.71L84.3621 239.548C84.1901 240.172 84.2009 240.667 84.3944 241.032C84.588 241.419 84.9858 241.699 85.588 241.871C86.2116 242.065 87.0718 242.172 88.1686 242.194L87.846 243.452C87.3944 243.43 86.8245 243.409 86.1363 243.387C85.4482 243.387 84.7062 243.376 83.9105 243.355C83.1363 243.333 82.3514 243.323 81.5557 243.323C80.3944 243.323 79.2761 243.333 78.2009 243.355C77.1041 243.398 76.2331 243.43 75.588 243.452ZM89.6847 236.452C88.7385 236.452 87.8998 236.237 87.1686 235.806C86.4589 235.376 85.9535 234.785 85.6525 234.032L86.0396 233C86.3191 233.495 86.6955 233.882 87.1686 234.161C87.6632 234.441 88.1901 234.581 88.7492 234.581C89.4589 234.581 90.1363 234.344 90.7815 233.871C91.4482 233.376 92.0396 232.71 92.5557 231.871C93.0718 231.032 93.4697 230.075 93.7492 229C94.0503 227.903 94.2009 226.763 94.2009 225.581C94.2009 224.161 93.9643 223.075 93.4912 222.323C93.0396 221.57 92.3837 221.194 91.5234 221.194C90.9428 221.194 90.3944 221.376 89.8783 221.742C89.3621 222.086 88.8998 222.613 88.4912 223.323L88.2009 222.839C88.8245 221.548 89.588 220.57 90.4912 219.903C91.4159 219.215 92.4697 218.871 93.6525 218.871C95.2439 218.871 96.5019 219.441 97.4267 220.581C98.3514 221.699 98.8138 223.226 98.8138 225.161C98.8138 226.624 98.5557 228.032 98.0396 229.387C97.5449 230.72 96.8675 231.925 96.0073 233C95.1471 234.075 94.1686 234.925 93.0718 235.548C91.9966 236.151 90.8675 236.452 89.6847 236.452ZM108.582 236.452C106.603 236.452 105.066 235.882 103.969 234.742C102.894 233.581 102.356 231.957 102.356 229.871C102.356 228.387 102.614 226.989 103.13 225.677C103.668 224.344 104.41 223.172 105.356 222.161C106.302 221.129 107.388 220.323 108.614 219.742C109.84 219.161 111.152 218.871 112.55 218.871C114.528 218.871 116.066 219.452 117.163 220.613C118.259 221.774 118.808 223.398 118.808 225.484C118.808 226.968 118.539 228.376 118.001 229.71C117.464 231.022 116.722 232.183 115.775 233.194C114.829 234.204 113.743 235 112.517 235.581C111.292 236.161 109.98 236.452 108.582 236.452ZM108.84 235.194C109.378 235.194 109.904 234.989 110.421 234.581C110.958 234.151 111.453 233.57 111.904 232.839C112.378 232.108 112.797 231.28 113.163 230.355C113.528 229.409 113.808 228.409 114.001 227.355C114.195 226.28 114.292 225.204 114.292 224.129C114.292 222.817 114.12 221.828 113.775 221.161C113.453 220.473 112.958 220.129 112.292 220.129C111.754 220.129 111.216 220.344 110.679 220.774C110.163 221.183 109.668 221.753 109.195 222.484C108.743 223.215 108.335 224.054 107.969 225C107.625 225.946 107.345 226.957 107.13 228.032C106.937 229.086 106.84 230.14 106.84 231.194C106.84 232.527 107.012 233.527 107.356 234.194C107.7 234.86 108.195 235.194 108.84 235.194ZM127.04 236.452C125.363 236.452 124.158 235.925 123.427 234.871C122.717 233.796 122.61 232.376 123.105 230.613L127.556 214.645C128.459 214.645 129.287 214.602 130.04 214.516C130.814 214.409 131.556 214.247 132.266 214.032L127.363 231.677C127.105 232.602 127.083 233.301 127.298 233.774C127.513 234.226 127.965 234.452 128.653 234.452C129.212 234.452 129.707 234.28 130.137 233.935C130.588 233.591 131.008 233.054 131.395 232.323L131.976 231.226H133.234L132.298 233.032C131.933 233.742 131.492 234.355 130.976 234.871C130.481 235.366 129.911 235.753 129.266 236.032C128.621 236.312 127.879 236.452 127.04 236.452ZM122.234 220.581L122.556 219.323H135.653L135.33 220.581H122.234ZM142.183 236.452C140.849 236.452 139.667 236.269 138.634 235.903C137.602 235.538 136.796 235.032 136.215 234.387C135.634 233.742 135.344 233.011 135.344 232.194C135.344 231.462 135.548 230.871 135.957 230.419C136.387 229.968 136.957 229.742 137.667 229.742C138.269 229.742 138.731 229.914 139.054 230.258C139.398 230.581 139.581 231.043 139.602 231.645C139.602 232.032 139.548 232.43 139.441 232.839C139.333 233.226 139.279 233.548 139.279 233.806C139.301 234.28 139.538 234.634 139.989 234.871C140.441 235.108 141.086 235.226 141.925 235.226C143.043 235.226 143.914 235.011 144.538 234.581C145.161 234.129 145.473 233.516 145.473 232.742C145.473 232.14 145.301 231.613 144.957 231.161C144.613 230.688 144.172 230.258 143.634 229.871C143.118 229.462 142.559 229.054 141.957 228.645C141.355 228.237 140.785 227.806 140.247 227.355C139.71 226.882 139.269 226.355 138.925 225.774C138.602 225.194 138.441 224.527 138.441 223.774C138.441 222.29 139.075 221.108 140.344 220.226C141.634 219.323 143.279 218.871 145.279 218.871C146.527 218.871 147.624 219.043 148.57 219.387C149.538 219.731 150.29 220.204 150.828 220.806C151.387 221.387 151.667 222.054 151.667 222.806C151.667 223.452 151.473 223.978 151.086 224.387C150.699 224.796 150.193 225 149.57 225C149.032 225 148.591 224.849 148.247 224.548C147.925 224.247 147.763 223.849 147.763 223.355C147.763 223.032 147.806 222.688 147.892 222.323C148 221.935 148.043 221.624 148.021 221.387C148.021 220.957 147.817 220.634 147.409 220.419C147 220.204 146.419 220.097 145.667 220.097C144.72 220.097 143.978 220.301 143.441 220.71C142.903 221.097 142.634 221.634 142.634 222.323C142.634 222.882 142.806 223.398 143.15 223.871C143.495 224.323 143.925 224.753 144.441 225.161C144.978 225.548 145.548 225.957 146.15 226.387C146.753 226.796 147.312 227.237 147.828 227.71C148.366 228.161 148.806 228.688 149.15 229.29C149.495 229.871 149.667 230.548 149.667 231.323C149.667 232.355 149.344 233.258 148.699 234.032C148.054 234.785 147.172 235.376 146.054 235.806C144.935 236.237 143.645 236.452 142.183 236.452ZM169.285 236.452C167.307 236.452 165.769 235.882 164.672 234.742C163.597 233.581 163.059 231.957 163.059 229.871C163.059 228.387 163.317 226.989 163.833 225.677C164.371 224.344 165.113 223.172 166.059 222.161C167.005 221.129 168.091 220.323 169.317 219.742C170.543 219.161 171.855 218.871 173.253 218.871C175.231 218.871 176.769 219.452 177.866 220.613C178.962 221.774 179.511 223.398 179.511 225.484C179.511 226.968 179.242 228.376 178.704 229.71C178.167 231.022 177.425 232.183 176.479 233.194C175.532 234.204 174.446 235 173.221 235.581C171.995 236.161 170.683 236.452 169.285 236.452ZM169.543 235.194C170.081 235.194 170.608 234.989 171.124 234.581C171.661 234.151 172.156 233.57 172.608 232.839C173.081 232.108 173.5 231.28 173.866 230.355C174.231 229.409 174.511 228.409 174.704 227.355C174.898 226.28 174.995 225.204 174.995 224.129C174.995 222.817 174.823 221.828 174.479 221.161C174.156 220.473 173.661 220.129 172.995 220.129C172.457 220.129 171.919 220.344 171.382 220.774C170.866 221.183 170.371 221.753 169.898 222.484C169.446 223.215 169.038 224.054 168.672 225C168.328 225.946 168.048 226.957 167.833 228.032C167.64 229.086 167.543 230.14 167.543 231.194C167.543 232.527 167.715 233.527 168.059 234.194C168.403 234.86 168.898 235.194 169.543 235.194ZM188.85 236.452C187.732 236.452 186.829 236.183 186.141 235.645C185.474 235.108 185.044 234.355 184.85 233.387C184.657 232.419 184.743 231.28 185.108 229.968L186.883 223.677C187.141 222.774 187.184 222.086 187.012 221.613C186.84 221.118 186.452 220.871 185.85 220.871C185.377 220.871 184.936 221.054 184.528 221.419C184.119 221.763 183.721 222.29 183.334 223L182.754 224.129H181.495L182.205 222.742C182.657 221.925 183.141 221.237 183.657 220.677C184.194 220.097 184.786 219.656 185.431 219.355C186.098 219.054 186.84 218.903 187.657 218.903C188.732 218.903 189.581 219.14 190.205 219.613C190.829 220.086 191.216 220.763 191.366 221.645C191.538 222.505 191.452 223.527 191.108 224.71L189.431 230.774C189.108 231.978 189.065 232.892 189.302 233.516C189.56 234.14 190.087 234.452 190.883 234.452C191.549 234.452 192.151 234.247 192.689 233.839C193.248 233.43 193.743 232.828 194.173 232.032L194.463 232.71C193.775 233.957 192.958 234.892 192.012 235.516C191.087 236.14 190.033 236.452 188.85 236.452ZM197.689 236.452C196.614 236.452 195.764 236.215 195.141 235.742C194.517 235.247 194.119 234.57 193.947 233.71C193.797 232.828 193.883 231.806 194.205 230.645L197.366 219.323H201.915L198.463 231.677C198.205 232.559 198.162 233.247 198.334 233.742C198.528 234.215 198.915 234.452 199.495 234.452C199.947 234.452 200.377 234.28 200.786 233.935C201.216 233.591 201.614 233.065 201.979 232.355L202.592 231.226H203.85L203.108 232.581C202.678 233.398 202.194 234.097 201.657 234.677C201.141 235.258 200.549 235.699 199.883 236C199.237 236.301 198.506 236.452 197.689 236.452ZM211.024 236.452C209.347 236.452 208.143 235.925 207.412 234.871C206.702 233.796 206.594 232.376 207.089 230.613L211.541 214.645C212.444 214.645 213.272 214.602 214.024 214.516C214.799 214.409 215.541 214.247 216.25 214.032L211.347 231.677C211.089 232.602 211.067 233.301 211.283 233.774C211.498 234.226 211.949 234.452 212.637 234.452C213.196 234.452 213.691 234.28 214.121 233.935C214.573 233.591 214.992 233.054 215.379 232.323L215.96 231.226H217.218L216.283 233.032C215.917 233.742 215.476 234.355 214.96 234.871C214.465 235.366 213.895 235.753 213.25 236.032C212.605 236.312 211.863 236.452 211.024 236.452ZM206.218 220.581L206.541 219.323H219.637L219.315 220.581H206.218ZM226.167 236.452C224.834 236.452 223.651 236.269 222.619 235.903C221.586 235.538 220.78 235.032 220.199 234.387C219.619 233.742 219.328 233.011 219.328 232.194C219.328 231.462 219.533 230.871 219.941 230.419C220.371 229.968 220.941 229.742 221.651 229.742C222.253 229.742 222.715 229.914 223.038 230.258C223.382 230.581 223.565 231.043 223.586 231.645C223.586 232.032 223.533 232.43 223.425 232.839C223.318 233.226 223.264 233.548 223.264 233.806C223.285 234.28 223.522 234.634 223.974 234.871C224.425 235.108 225.07 235.226 225.909 235.226C227.027 235.226 227.898 235.011 228.522 234.581C229.146 234.129 229.457 233.516 229.457 232.742C229.457 232.14 229.285 231.613 228.941 231.161C228.597 230.688 228.156 230.258 227.619 229.871C227.103 229.462 226.543 229.054 225.941 228.645C225.339 228.237 224.769 227.806 224.232 227.355C223.694 226.882 223.253 226.355 222.909 225.774C222.586 225.194 222.425 224.527 222.425 223.774C222.425 222.29 223.06 221.108 224.328 220.226C225.619 219.323 227.264 218.871 229.264 218.871C230.511 218.871 231.608 219.043 232.554 219.387C233.522 219.731 234.275 220.204 234.812 220.806C235.371 221.387 235.651 222.054 235.651 222.806C235.651 223.452 235.457 223.978 235.07 224.387C234.683 224.796 234.178 225 233.554 225C233.017 225 232.576 224.849 232.232 224.548C231.909 224.247 231.748 223.849 231.748 223.355C231.748 223.032 231.791 222.688 231.877 222.323C231.984 221.935 232.027 221.624 232.006 221.387C232.006 220.957 231.801 220.634 231.393 220.419C230.984 220.204 230.404 220.097 229.651 220.097C228.705 220.097 227.963 220.301 227.425 220.71C226.888 221.097 226.619 221.634 226.619 222.323C226.619 222.882 226.791 223.398 227.135 223.871C227.479 224.323 227.909 224.753 228.425 225.161C228.963 225.548 229.533 225.957 230.135 226.387C230.737 226.796 231.296 227.237 231.812 227.71C232.35 228.161 232.791 228.688 233.135 229.29C233.479 229.871 233.651 230.548 233.651 231.323C233.651 232.355 233.328 233.258 232.683 234.032C232.038 234.785 231.156 235.376 230.038 235.806C228.92 236.237 227.629 236.452 226.167 236.452ZM243.791 236.452C242.716 236.452 241.845 236.204 241.178 235.71C240.533 235.194 240.124 234.495 239.952 233.613C239.802 232.731 239.931 231.731 240.339 230.613L242.791 223.677C243.092 222.839 243.146 222.161 242.952 221.645C242.78 221.129 242.393 220.871 241.791 220.871C241.318 220.871 240.866 221.043 240.436 221.387C240.028 221.731 239.641 222.269 239.275 223L238.662 224.129H237.404L238.146 222.742C238.856 221.409 239.641 220.43 240.501 219.806C241.382 219.183 242.404 218.871 243.565 218.871C244.662 218.871 245.533 219.129 246.178 219.645C246.823 220.14 247.232 220.828 247.404 221.71C247.576 222.57 247.447 223.57 247.017 224.71L244.565 231.645C244.264 232.484 244.21 233.161 244.404 233.677C244.598 234.194 244.985 234.452 245.565 234.452C246.512 234.452 247.361 233.753 248.114 232.355L248.694 231.226H249.952L249.243 232.581C248.533 233.935 247.737 234.925 246.856 235.548C245.974 236.151 244.952 236.452 243.791 236.452ZM246.178 216.032C245.425 216.032 244.802 215.817 244.307 215.387C243.834 214.935 243.598 214.355 243.598 213.645C243.598 212.871 243.888 212.226 244.468 211.71C245.049 211.172 245.748 210.903 246.565 210.903C247.318 210.903 247.931 211.129 248.404 211.581C248.899 212.011 249.146 212.581 249.146 213.29C249.146 214.065 248.856 214.72 248.275 215.258C247.716 215.774 247.017 216.032 246.178 216.032ZM266.112 236.452C265.036 236.452 264.187 236.215 263.563 235.742C262.94 235.247 262.542 234.559 262.37 233.677C262.219 232.796 262.305 231.785 262.628 230.645L266.725 215.968C266.961 215.172 267.036 214.559 266.95 214.129C266.864 213.699 266.574 213.398 266.079 213.226C265.606 213.054 264.864 212.957 263.854 212.935L264.241 211.677C266.026 211.656 267.617 211.538 269.015 211.323C270.413 211.108 271.692 210.785 272.854 210.355L266.886 231.677C266.628 232.538 266.585 233.215 266.757 233.71C266.929 234.204 267.305 234.452 267.886 234.452C268.359 234.452 268.8 234.28 269.208 233.935C269.639 233.591 270.036 233.065 270.402 232.355L271.015 231.226H272.273L271.531 232.581C271.101 233.398 270.617 234.097 270.079 234.677C269.563 235.258 268.972 235.699 268.305 236C267.66 236.301 266.929 236.452 266.112 236.452ZM257.531 236.452C255.918 236.452 254.649 235.903 253.725 234.806C252.8 233.688 252.337 232.161 252.337 230.226C252.337 228.72 252.606 227.29 253.144 225.935C253.682 224.581 254.402 223.376 255.305 222.323C256.23 221.247 257.284 220.409 258.466 219.806C259.671 219.183 260.918 218.871 262.208 218.871C263.284 218.871 264.305 219.097 265.273 219.548C266.241 220 267.133 220.656 267.95 221.516L264.854 223.484C264.789 222.43 264.531 221.613 264.079 221.032C263.649 220.43 263.09 220.129 262.402 220.129C261.714 220.129 261.036 220.398 260.37 220.935C259.725 221.473 259.144 222.204 258.628 223.129C258.112 224.032 257.703 225.065 257.402 226.226C257.101 227.366 256.95 228.548 256.95 229.774C256.95 231.194 257.176 232.28 257.628 233.032C258.101 233.785 258.757 234.161 259.596 234.161C260.198 234.161 260.746 233.989 261.241 233.645C261.757 233.28 262.23 232.731 262.66 232L262.95 232.484C262.327 233.817 261.563 234.817 260.66 235.484C259.778 236.129 258.735 236.452 257.531 236.452ZM280.257 236.452C278.343 236.452 276.837 235.892 275.74 234.774C274.665 233.634 274.128 232.054 274.128 230.032C274.128 228.548 274.407 227.14 274.966 225.806C275.525 224.452 276.289 223.258 277.257 222.226C278.246 221.172 279.375 220.355 280.644 219.774C281.912 219.172 283.246 218.871 284.644 218.871C286.041 218.871 287.106 219.161 287.837 219.742C288.59 220.301 288.966 221.118 288.966 222.194C288.966 223.333 288.525 224.419 287.644 225.452C286.783 226.484 285.558 227.409 283.966 228.226C282.396 229.022 280.547 229.645 278.418 230.097V229.065C279.902 228.548 281.16 227.925 282.192 227.194C283.224 226.441 284.009 225.613 284.547 224.71C285.085 223.806 285.353 222.882 285.353 221.935C285.353 221.312 285.246 220.849 285.031 220.548C284.816 220.247 284.504 220.097 284.095 220.097C283.472 220.097 282.837 220.376 282.192 220.935C281.568 221.495 280.998 222.247 280.482 223.194C279.966 224.118 279.547 225.14 279.224 226.258C278.902 227.376 278.74 228.495 278.74 229.613C278.74 231.14 279.02 232.312 279.579 233.129C280.16 233.925 280.988 234.323 282.063 234.323C282.945 234.323 283.73 234.086 284.418 233.613C285.128 233.118 285.762 232.387 286.321 231.419H287.547C286.73 233.075 285.708 234.333 284.482 235.194C283.278 236.032 281.869 236.452 280.257 236.452ZM306.532 236.452C304.855 236.452 303.651 235.925 302.919 234.871C302.21 233.796 302.102 232.376 302.597 230.613L307.048 214.645C307.952 214.645 308.78 214.602 309.532 214.516C310.306 214.409 311.048 214.247 311.758 214.032L306.855 231.677C306.597 232.602 306.575 233.301 306.79 233.774C307.005 234.226 307.457 234.452 308.145 234.452C308.704 234.452 309.199 234.28 309.629 233.935C310.081 233.591 310.5 233.054 310.887 232.323L311.468 231.226H312.726L311.79 233.032C311.425 233.742 310.984 234.355 310.468 234.871C309.973 235.366 309.403 235.753 308.758 236.032C308.113 236.312 307.371 236.452 306.532 236.452ZM301.726 220.581L302.048 219.323H315.145L314.823 220.581H301.726ZM315.024 236L320.605 215.968C320.842 215.194 320.917 214.591 320.831 214.161C320.745 213.731 320.444 213.43 319.928 213.258C319.433 213.065 318.648 212.957 317.573 212.935L317.928 211.677C319.734 211.656 321.347 211.538 322.766 211.323C324.207 211.108 325.53 210.785 326.734 210.355L319.573 236H315.024ZM329.444 236.452C328.369 236.452 327.519 236.215 326.895 235.742C326.272 235.247 325.874 234.57 325.702 233.71C325.551 232.828 325.637 231.806 325.96 230.645L327.67 224.548C327.992 223.366 328.024 222.462 327.766 221.839C327.53 221.215 327.003 220.903 326.186 220.903C325.584 220.903 325.014 221.086 324.476 221.452C323.938 221.817 323.455 222.376 323.024 223.129L322.928 222.452C323.594 221.269 324.369 220.376 325.25 219.774C326.153 219.172 327.175 218.871 328.315 218.871C329.971 218.871 331.132 219.462 331.799 220.645C332.465 221.828 332.519 223.398 331.96 225.355L330.218 231.677C329.96 232.538 329.917 233.215 330.089 233.71C330.261 234.204 330.637 234.452 331.218 234.452C331.691 234.452 332.132 234.28 332.541 233.935C332.971 233.591 333.379 233.065 333.766 232.355L334.347 231.226H335.605L334.863 232.581C334.433 233.398 333.949 234.097 333.412 234.677C332.895 235.258 332.304 235.699 331.637 236C330.992 236.301 330.261 236.452 329.444 236.452ZM343.655 236.452C341.741 236.452 340.236 235.892 339.139 234.774C338.064 233.634 337.526 232.054 337.526 230.032C337.526 228.548 337.806 227.14 338.365 225.806C338.924 224.452 339.687 223.258 340.655 222.226C341.644 221.172 342.773 220.355 344.042 219.774C345.311 219.172 346.644 218.871 348.042 218.871C349.44 218.871 350.504 219.161 351.236 219.742C351.988 220.301 352.365 221.118 352.365 222.194C352.365 223.333 351.924 224.419 351.042 225.452C350.182 226.484 348.956 227.409 347.365 228.226C345.795 229.022 343.945 229.645 341.816 230.097V229.065C343.3 228.548 344.558 227.925 345.59 227.194C346.623 226.441 347.408 225.613 347.945 224.71C348.483 223.806 348.752 222.882 348.752 221.935C348.752 221.312 348.644 220.849 348.429 220.548C348.214 220.247 347.902 220.097 347.494 220.097C346.87 220.097 346.236 220.376 345.59 220.935C344.967 221.495 344.397 222.247 343.881 223.194C343.365 224.118 342.945 225.14 342.623 226.258C342.3 227.376 342.139 228.495 342.139 229.613C342.139 231.14 342.418 232.312 342.978 233.129C343.558 233.925 344.386 234.323 345.461 234.323C346.343 234.323 347.128 234.086 347.816 233.613C348.526 233.118 349.16 232.387 349.72 231.419H350.945C350.128 233.075 349.107 234.333 347.881 235.194C346.676 236.032 345.268 236.452 343.655 236.452ZM370.544 236.452C368.651 236.452 367.167 235.882 366.092 234.742C365.017 233.602 364.479 232.022 364.479 230C364.479 228.516 364.759 227.108 365.318 225.774C365.877 224.441 366.64 223.258 367.608 222.226C368.576 221.194 369.683 220.376 370.931 219.774C372.2 219.172 373.533 218.871 374.931 218.871C376.307 218.871 377.393 219.172 378.189 219.774C379.006 220.355 379.415 221.151 379.415 222.161C379.415 222.828 379.243 223.452 378.898 224.032C378.554 224.613 378.113 225.086 377.576 225.452C377.038 225.817 376.447 226 375.802 226C375.286 226 374.877 225.882 374.576 225.645C374.296 225.387 374.157 225.043 374.157 224.613C374.157 224.204 374.275 223.839 374.511 223.516C374.769 223.194 375.06 222.903 375.382 222.645C375.705 222.366 375.984 222.097 376.221 221.839C376.479 221.559 376.608 221.247 376.608 220.903C376.608 220.387 376.232 220.129 375.479 220.129C374.662 220.129 373.866 220.398 373.092 220.935C372.339 221.452 371.662 222.161 371.06 223.065C370.458 223.968 369.974 224.989 369.608 226.129C369.264 227.269 369.092 228.43 369.092 229.613C369.092 231.118 369.361 232.28 369.898 233.097C370.458 233.914 371.275 234.323 372.35 234.323C373.21 234.323 373.974 234.086 374.64 233.613C375.329 233.14 375.952 232.409 376.511 231.419H377.737C376.92 233.075 375.909 234.333 374.705 235.194C373.522 236.032 372.135 236.452 370.544 236.452ZM387.697 236.452C386.622 236.452 385.751 236.204 385.084 235.71C384.439 235.194 384.031 234.495 383.859 233.613C383.708 232.731 383.837 231.731 384.246 230.613L386.697 223.677C386.998 222.839 387.052 222.161 386.859 221.645C386.687 221.129 386.299 220.871 385.697 220.871C385.224 220.871 384.773 221.043 384.342 221.387C383.934 221.731 383.547 222.269 383.181 223L382.568 224.129H381.31L382.052 222.742C382.762 221.409 383.547 220.43 384.407 219.806C385.289 219.183 386.31 218.871 387.472 218.871C388.568 218.871 389.439 219.129 390.084 219.645C390.73 220.14 391.138 220.828 391.31 221.71C391.482 222.57 391.353 223.57 390.923 224.71L388.472 231.645C388.17 232.484 388.117 233.161 388.31 233.677C388.504 234.194 388.891 234.452 389.472 234.452C390.418 234.452 391.267 233.753 392.02 232.355L392.601 231.226H393.859L393.149 232.581C392.439 233.935 391.644 234.925 390.762 235.548C389.88 236.151 388.859 236.452 387.697 236.452ZM390.084 216.032C389.332 216.032 388.708 215.817 388.213 215.387C387.74 214.935 387.504 214.355 387.504 213.645C387.504 212.871 387.794 212.226 388.375 211.71C388.955 211.172 389.654 210.903 390.472 210.903C391.224 210.903 391.837 211.129 392.31 211.581C392.805 212.011 393.052 212.581 393.052 213.29C393.052 214.065 392.762 214.72 392.181 215.258C391.622 215.774 390.923 216.032 390.084 216.032ZM401.181 236.452C399.503 236.452 398.299 235.925 397.568 234.871C396.858 233.796 396.751 232.376 397.245 230.613L401.697 214.645C402.6 214.645 403.428 214.602 404.181 214.516C404.955 214.409 405.697 214.247 406.407 214.032L401.503 231.677C401.245 232.602 401.224 233.301 401.439 233.774C401.654 234.226 402.105 234.452 402.794 234.452C403.353 234.452 403.847 234.28 404.277 233.935C404.729 233.591 405.148 233.054 405.536 232.323L406.116 231.226H407.374L406.439 233.032C406.073 233.742 405.632 234.355 405.116 234.871C404.622 235.366 404.052 235.753 403.407 236.032C402.761 236.312 402.019 236.452 401.181 236.452ZM396.374 220.581L396.697 219.323H409.794L409.471 220.581H396.374ZM409.004 243.71C408.187 243.71 407.531 243.516 407.036 243.129C406.52 242.742 406.262 242.237 406.262 241.613C406.262 241.054 406.456 240.591 406.843 240.226C407.23 239.882 407.735 239.71 408.359 239.71C408.746 239.71 409.101 239.774 409.423 239.903C409.767 240.032 410.09 240.183 410.391 240.355C410.714 240.527 411.026 240.677 411.327 240.806C411.628 240.957 411.929 241.032 412.23 241.032C412.853 241.032 413.574 240.753 414.391 240.194C415.23 239.656 416.112 238.925 417.036 238C417.961 237.097 418.864 236.086 419.746 234.968C420.628 233.849 421.423 232.71 422.133 231.548C422.864 230.387 423.445 229.301 423.875 228.29C424.327 227.258 424.552 226.376 424.552 225.645C424.552 225.065 424.423 224.57 424.165 224.161C423.907 223.731 423.617 223.355 423.294 223.032C422.972 222.688 422.681 222.344 422.423 222C422.187 221.634 422.069 221.215 422.069 220.742C422.069 220.204 422.251 219.763 422.617 219.419C423.004 219.054 423.499 218.871 424.101 218.871C424.918 218.871 425.552 219.183 426.004 219.806C426.456 220.409 426.681 221.258 426.681 222.355C426.681 223.624 426.402 225.032 425.843 226.581C425.284 228.108 424.52 229.677 423.552 231.29C422.585 232.882 421.488 234.419 420.262 235.903C419.058 237.366 417.789 238.688 416.456 239.871C415.144 241.054 413.843 241.989 412.552 242.677C411.262 243.366 410.079 243.71 409.004 243.71ZM415.746 239.935C415.918 238.215 415.993 236.473 415.972 234.71C415.972 232.925 415.897 231.237 415.746 229.645C415.617 228.032 415.413 226.602 415.133 225.355C414.853 224.108 414.531 223.118 414.165 222.387C413.821 221.656 413.434 221.29 413.004 221.29C412.724 221.29 412.445 221.43 412.165 221.71C411.907 221.968 411.606 222.409 411.262 223.032L410.681 224.129H409.423L410.423 222.194C411.026 221.075 411.681 220.247 412.391 219.71C413.122 219.151 413.929 218.871 414.81 218.871C416.058 218.871 417.079 219.452 417.875 220.613C418.671 221.774 419.262 223.57 419.649 226C420.036 228.409 420.219 231.516 420.198 235.323C419.767 235.86 419.327 236.376 418.875 236.871C418.445 237.387 417.972 237.892 417.456 238.387C416.94 238.903 416.37 239.419 415.746 239.935Z" fill="#3E3636"/>
</svg>
