<svg width="490" height="367" viewBox="0 0 490 367" fill="none" xmlns="http://www.w3.org/2000/svg">
<rect width="490" height="367" fill="#B8B8B8"/>
<path d="M148.575 164.565C146.935 164.565 145.564 164.376 144.462 164C143.36 163.624 142.446 163.247 141.72 162.871C141.021 162.495 140.429 162.306 139.946 162.306C139.596 162.306 139.274 162.441 138.978 162.71C138.709 162.952 138.4 163.382 138.05 164H136.438C136.921 162.737 137.365 161.366 137.768 159.887C138.198 158.382 138.642 156.567 139.099 154.444H140.752C140.564 157.105 141.088 159.202 142.325 160.734C143.588 162.239 145.389 162.992 147.728 162.992C149.395 162.992 150.712 162.589 151.679 161.782C152.647 160.949 153.131 159.833 153.131 158.435C153.131 157.387 152.876 156.46 152.365 155.653C151.881 154.82 151.236 154.04 150.429 153.315C149.65 152.589 148.817 151.876 147.929 151.177C147.042 150.478 146.196 149.739 145.389 148.96C144.61 148.153 143.964 147.266 143.454 146.298C142.943 145.304 142.688 144.175 142.688 142.911C142.688 141.352 143.091 139.968 143.897 138.758C144.704 137.548 145.819 136.608 147.244 135.935C148.669 135.237 150.295 134.887 152.123 134.887C153.602 134.887 154.811 135.075 155.752 135.452C156.693 135.801 157.459 136.164 158.05 136.54C158.669 136.917 159.193 137.105 159.623 137.105C159.946 137.105 160.228 136.984 160.47 136.742C160.739 136.473 161.007 136.043 161.276 135.452H162.889C162.405 136.581 161.962 137.817 161.558 139.161C161.182 140.505 160.86 141.97 160.591 143.556H158.978C159.085 142.105 158.911 140.855 158.454 139.806C158.024 138.731 157.352 137.911 156.438 137.347C155.524 136.755 154.421 136.46 153.131 136.46C151.626 136.46 150.429 136.849 149.542 137.629C148.682 138.409 148.252 139.47 148.252 140.815C148.252 141.836 148.507 142.763 149.018 143.597C149.556 144.43 150.228 145.223 151.034 145.976C151.868 146.702 152.741 147.427 153.655 148.153C154.569 148.852 155.429 149.618 156.236 150.452C157.069 151.258 157.741 152.145 158.252 153.113C158.79 154.081 159.058 155.183 159.058 156.419C159.058 158.005 158.602 159.417 157.688 160.653C156.8 161.863 155.564 162.817 153.978 163.516C152.419 164.215 150.618 164.565 148.575 164.565ZM172.062 164.565C169.669 164.565 167.788 163.866 166.417 162.468C165.073 161.043 164.401 159.067 164.401 156.54C164.401 154.685 164.75 152.925 165.449 151.258C166.148 149.565 167.102 148.073 168.312 146.782C169.548 145.465 170.96 144.444 172.546 143.718C174.132 142.965 175.798 142.589 177.546 142.589C179.293 142.589 180.624 142.952 181.538 143.677C182.479 144.376 182.949 145.398 182.949 146.742C182.949 148.167 182.398 149.524 181.296 150.815C180.221 152.105 178.688 153.261 176.699 154.282C174.737 155.277 172.425 156.056 169.764 156.621V155.331C171.618 154.685 173.191 153.906 174.481 152.992C175.772 152.051 176.753 151.016 177.425 149.887C178.097 148.758 178.433 147.602 178.433 146.419C178.433 145.64 178.298 145.062 178.03 144.685C177.761 144.309 177.371 144.121 176.86 144.121C176.081 144.121 175.288 144.47 174.481 145.169C173.702 145.868 172.989 146.809 172.344 147.992C171.699 149.148 171.175 150.425 170.772 151.823C170.368 153.22 170.167 154.618 170.167 156.016C170.167 157.925 170.516 159.39 171.215 160.411C171.941 161.406 172.976 161.903 174.32 161.903C175.422 161.903 176.403 161.608 177.264 161.016C178.151 160.398 178.944 159.484 179.643 158.274H181.175C180.153 160.344 178.876 161.917 177.344 162.992C175.839 164.04 174.078 164.565 172.062 164.565ZM192.785 164.565C190.795 164.565 189.223 163.866 188.067 162.468C186.911 161.07 186.333 159.161 186.333 156.742C186.333 154.887 186.669 153.113 187.341 151.419C188.013 149.726 188.914 148.22 190.043 146.903C191.199 145.559 192.516 144.511 193.994 143.758C195.5 142.978 197.059 142.589 198.672 142.589C200.016 142.589 201.293 142.871 202.502 143.435C203.712 144 204.828 144.82 205.849 145.895L201.978 148.355C201.897 147.038 201.575 146.016 201.01 145.29C200.473 144.538 199.774 144.161 198.914 144.161C198.053 144.161 197.207 144.497 196.373 145.169C195.567 145.841 194.841 146.755 194.196 147.911C193.551 149.04 193.04 150.331 192.664 151.782C192.287 153.207 192.099 154.685 192.099 156.218C192.099 157.992 192.381 159.349 192.946 160.29C193.537 161.231 194.357 161.702 195.406 161.702C196.158 161.702 196.844 161.487 197.462 161.056C198.107 160.599 198.699 159.914 199.236 159L199.599 159.605C198.82 161.218 197.852 162.454 196.696 163.315C195.567 164.148 194.263 164.565 192.785 164.565ZM203.551 164.565C201.588 164.565 200.204 163.919 199.397 162.629C198.618 161.339 198.551 159.565 199.196 157.306L202.301 146.218C203.645 145.761 204.854 145.237 205.93 144.645C207.032 144.054 208.067 143.341 209.035 142.508L209.922 143.677C209.492 144.054 209.129 144.43 208.833 144.806C208.564 145.156 208.322 145.559 208.107 146.016C207.919 146.473 207.731 147.051 207.543 147.75L204.518 158.597C204.196 159.699 204.142 160.559 204.357 161.177C204.599 161.769 205.083 162.065 205.809 162.065C206.239 162.065 206.629 161.957 206.978 161.742C207.354 161.527 207.704 161.218 208.026 160.815C208.349 160.411 208.645 159.954 208.914 159.444L209.68 158.032H211.252L210.244 159.887C209.76 160.855 209.182 161.688 208.51 162.387C207.865 163.086 207.126 163.624 206.293 164C205.486 164.376 204.572 164.565 203.551 164.565ZM221.296 164.565C219.629 164.565 218.151 164.336 216.86 163.879C215.57 163.422 214.562 162.79 213.836 161.984C213.11 161.177 212.747 160.263 212.747 159.242C212.747 158.328 213.003 157.589 213.514 157.024C214.051 156.46 214.764 156.177 215.651 156.177C216.403 156.177 216.981 156.392 217.384 156.823C217.815 157.226 218.043 157.804 218.07 158.556C218.07 159.04 218.003 159.538 217.868 160.048C217.734 160.532 217.667 160.935 217.667 161.258C217.694 161.849 217.989 162.293 218.554 162.589C219.118 162.884 219.925 163.032 220.973 163.032C222.371 163.032 223.46 162.763 224.239 162.226C225.019 161.661 225.409 160.895 225.409 159.927C225.409 159.175 225.194 158.516 224.764 157.952C224.333 157.36 223.782 156.823 223.11 156.339C222.465 155.828 221.766 155.317 221.014 154.806C220.261 154.296 219.548 153.758 218.876 153.194C218.204 152.602 217.653 151.944 217.223 151.218C216.82 150.492 216.618 149.659 216.618 148.718C216.618 146.863 217.411 145.384 218.997 144.282C220.61 143.153 222.667 142.589 225.167 142.589C226.726 142.589 228.097 142.804 229.28 143.234C230.489 143.664 231.43 144.255 232.102 145.008C232.801 145.734 233.151 146.567 233.151 147.508C233.151 148.315 232.909 148.973 232.425 149.484C231.941 149.995 231.309 150.25 230.53 150.25C229.858 150.25 229.307 150.062 228.876 149.685C228.473 149.309 228.272 148.812 228.272 148.194C228.272 147.79 228.325 147.36 228.433 146.903C228.567 146.419 228.621 146.03 228.594 145.734C228.594 145.196 228.339 144.793 227.828 144.524C227.317 144.255 226.591 144.121 225.651 144.121C224.468 144.121 223.54 144.376 222.868 144.887C222.196 145.371 221.86 146.043 221.86 146.903C221.86 147.602 222.075 148.247 222.505 148.839C222.936 149.403 223.473 149.941 224.118 150.452C224.79 150.935 225.503 151.446 226.255 151.984C227.008 152.495 227.707 153.046 228.352 153.637C229.024 154.202 229.575 154.86 230.005 155.613C230.436 156.339 230.651 157.185 230.651 158.153C230.651 159.444 230.247 160.573 229.441 161.54C228.634 162.481 227.532 163.22 226.134 163.758C224.737 164.296 223.124 164.565 221.296 164.565ZM244.187 164.565C241.714 164.565 239.792 163.852 238.421 162.427C237.077 160.976 236.405 158.946 236.405 156.339C236.405 154.484 236.728 152.737 237.373 151.097C238.045 149.43 238.972 147.965 240.155 146.702C241.338 145.411 242.695 144.403 244.228 143.677C245.76 142.952 247.4 142.589 249.147 142.589C251.62 142.589 253.542 143.315 254.913 144.766C256.284 146.218 256.97 148.247 256.97 150.855C256.97 152.71 256.634 154.47 255.962 156.137C255.289 157.777 254.362 159.228 253.179 160.492C251.996 161.755 250.639 162.75 249.107 163.476C247.574 164.202 245.935 164.565 244.187 164.565ZM244.51 162.992C245.182 162.992 245.841 162.737 246.486 162.226C247.158 161.688 247.776 160.962 248.341 160.048C248.932 159.134 249.456 158.099 249.913 156.944C250.37 155.761 250.72 154.511 250.962 153.194C251.203 151.849 251.324 150.505 251.324 149.161C251.324 147.522 251.109 146.285 250.679 145.452C250.276 144.591 249.658 144.161 248.824 144.161C248.152 144.161 247.48 144.43 246.808 144.968C246.163 145.478 245.545 146.191 244.953 147.105C244.389 148.019 243.878 149.067 243.421 150.25C242.991 151.433 242.642 152.696 242.373 154.04C242.131 155.358 242.01 156.675 242.01 157.992C242.01 159.659 242.225 160.909 242.655 161.742C243.085 162.575 243.703 162.992 244.51 162.992ZM279.894 164.565C278.577 164.565 277.515 164.269 276.708 163.677C275.929 163.086 275.432 162.253 275.217 161.177C275.028 160.075 275.136 158.785 275.539 157.306L277.676 149.685C278.079 148.18 278.12 147.051 277.797 146.298C277.501 145.519 276.843 145.129 275.821 145.129C274.988 145.129 274.208 145.384 273.483 145.895C272.784 146.406 272.139 147.159 271.547 148.153L271.184 147.306C272.071 145.72 273.12 144.538 274.329 143.758C275.539 142.978 276.883 142.589 278.362 142.589C280.485 142.589 281.964 143.328 282.797 144.806C283.657 146.258 283.751 148.22 283.079 150.694L280.862 158.597C280.566 159.699 280.526 160.559 280.741 161.177C280.956 161.769 281.413 162.065 282.112 162.065C282.73 162.065 283.294 161.849 283.805 161.419C284.343 160.962 284.84 160.304 285.297 159.444L286.023 158.032H287.596L286.708 159.726C286.171 160.747 285.566 161.621 284.894 162.347C284.222 163.073 283.469 163.624 282.636 164C281.829 164.376 280.915 164.565 279.894 164.565ZM261.87 164L266.184 148.597C266.507 147.495 266.561 146.634 266.346 146.016C266.13 145.398 265.647 145.089 264.894 145.089C264.329 145.089 263.778 145.317 263.241 145.774C262.73 146.204 262.246 146.863 261.789 147.75L261.023 149.161H259.45L260.378 147.427C260.915 146.406 261.507 145.532 262.152 144.806C262.824 144.081 263.577 143.53 264.41 143.153C265.243 142.777 266.157 142.589 267.152 142.589C268.496 142.589 269.558 142.898 270.337 143.516C271.117 144.108 271.601 144.954 271.789 146.056C272.004 147.132 271.91 148.409 271.507 149.887L267.555 164H261.87ZM297.321 164.565C295.654 164.565 294.176 164.336 292.886 163.879C291.595 163.422 290.587 162.79 289.861 161.984C289.136 161.177 288.773 160.263 288.773 159.242C288.773 158.328 289.028 157.589 289.539 157.024C290.077 156.46 290.789 156.177 291.676 156.177C292.429 156.177 293.007 156.392 293.41 156.823C293.84 157.226 294.068 157.804 294.095 158.556C294.095 159.04 294.028 159.538 293.894 160.048C293.759 160.532 293.692 160.935 293.692 161.258C293.719 161.849 294.015 162.293 294.579 162.589C295.144 162.884 295.95 163.032 296.999 163.032C298.396 163.032 299.485 162.763 300.265 162.226C301.044 161.661 301.434 160.895 301.434 159.927C301.434 159.175 301.219 158.516 300.789 157.952C300.359 157.36 299.808 156.823 299.136 156.339C298.491 155.828 297.792 155.317 297.039 154.806C296.286 154.296 295.574 153.758 294.902 153.194C294.23 152.602 293.679 151.944 293.249 151.218C292.845 150.492 292.644 149.659 292.644 148.718C292.644 146.863 293.437 145.384 295.023 144.282C296.636 143.153 298.692 142.589 301.192 142.589C302.751 142.589 304.122 142.804 305.305 143.234C306.515 143.664 307.456 144.255 308.128 145.008C308.827 145.734 309.176 146.567 309.176 147.508C309.176 148.315 308.934 148.973 308.45 149.484C307.966 149.995 307.335 150.25 306.555 150.25C305.883 150.25 305.332 150.062 304.902 149.685C304.499 149.309 304.297 148.812 304.297 148.194C304.297 147.79 304.351 147.36 304.458 146.903C304.593 146.419 304.646 146.03 304.62 145.734C304.62 145.196 304.364 144.793 303.853 144.524C303.343 144.255 302.617 144.121 301.676 144.121C300.493 144.121 299.566 144.376 298.894 144.887C298.222 145.371 297.886 146.043 297.886 146.903C297.886 147.602 298.101 148.247 298.531 148.839C298.961 149.403 299.499 149.941 300.144 150.452C300.816 150.935 301.528 151.446 302.281 151.984C303.034 152.495 303.732 153.046 304.378 153.637C305.05 154.202 305.601 154.86 306.031 155.613C306.461 156.339 306.676 157.185 306.676 158.153C306.676 159.444 306.273 160.573 305.466 161.54C304.66 162.481 303.558 163.22 302.16 163.758C300.762 164.296 299.149 164.565 297.321 164.565ZM330.191 164.565C328.847 164.565 327.758 164.255 326.925 163.637C326.118 162.992 325.608 162.118 325.393 161.016C325.204 159.914 325.366 158.664 325.876 157.266L328.941 148.597C329.317 147.548 329.385 146.702 329.143 146.056C328.928 145.411 328.444 145.089 327.691 145.089C327.1 145.089 326.535 145.304 325.997 145.734C325.487 146.164 325.003 146.836 324.546 147.75L323.78 149.161H322.207L323.135 147.427C324.022 145.761 325.003 144.538 326.078 143.758C327.18 142.978 328.457 142.589 329.909 142.589C331.28 142.589 332.368 142.911 333.175 143.556C333.981 144.175 334.492 145.035 334.707 146.137C334.922 147.212 334.761 148.462 334.223 149.887L331.159 158.556C330.782 159.605 330.715 160.452 330.957 161.097C331.199 161.742 331.683 162.065 332.409 162.065C333.592 162.065 334.653 161.191 335.594 159.444L336.32 158.032H337.893L337.006 159.726C336.118 161.419 335.124 162.656 334.022 163.435C332.919 164.188 331.643 164.565 330.191 164.565ZM333.175 139.04C332.234 139.04 331.454 138.772 330.836 138.234C330.245 137.669 329.949 136.944 329.949 136.056C329.949 135.089 330.312 134.282 331.038 133.637C331.764 132.965 332.637 132.629 333.659 132.629C334.6 132.629 335.366 132.911 335.957 133.476C336.575 134.013 336.885 134.726 336.885 135.613C336.885 136.581 336.522 137.401 335.796 138.073C335.097 138.718 334.223 139.04 333.175 139.04ZM359.679 164.565C358.362 164.565 357.3 164.269 356.494 163.677C355.714 163.086 355.217 162.253 355.002 161.177C354.813 160.075 354.921 158.785 355.324 157.306L357.461 149.685C357.865 148.18 357.905 147.051 357.582 146.298C357.287 145.519 356.628 145.129 355.607 145.129C354.773 145.129 353.994 145.384 353.268 145.895C352.569 146.406 351.924 147.159 351.332 148.153L350.969 147.306C351.857 145.72 352.905 144.538 354.115 143.758C355.324 142.978 356.668 142.589 358.147 142.589C360.27 142.589 361.749 143.328 362.582 144.806C363.443 146.258 363.537 148.22 362.865 150.694L360.647 158.597C360.351 159.699 360.311 160.559 360.526 161.177C360.741 161.769 361.198 162.065 361.897 162.065C362.515 162.065 363.08 161.849 363.59 161.419C364.128 160.962 364.625 160.304 365.082 159.444L365.808 158.032H367.381L366.494 159.726C365.956 160.747 365.351 161.621 364.679 162.347C364.007 163.073 363.254 163.624 362.421 164C361.615 164.376 360.701 164.565 359.679 164.565ZM341.655 164L345.969 148.597C346.292 147.495 346.346 146.634 346.131 146.016C345.916 145.398 345.432 145.089 344.679 145.089C344.115 145.089 343.563 145.317 343.026 145.774C342.515 146.204 342.031 146.863 341.574 147.75L340.808 149.161H339.236L340.163 147.427C340.701 146.406 341.292 145.532 341.937 144.806C342.609 144.081 343.362 143.53 344.195 143.153C345.029 142.777 345.943 142.589 346.937 142.589C348.281 142.589 349.343 142.898 350.123 143.516C350.902 144.108 351.386 144.954 351.574 146.056C351.789 147.132 351.695 148.409 351.292 149.887L347.34 164H341.655ZM134.781 224L135.225 222.427C136.569 222.374 137.563 222.253 138.208 222.065C138.88 221.849 139.364 221.513 139.66 221.056C139.983 220.573 140.265 219.874 140.507 218.96L145.668 200.492C145.937 199.524 146.031 198.812 145.95 198.355C145.897 197.871 145.587 197.535 145.023 197.347C144.458 197.159 143.558 197.051 142.321 197.024L142.765 195.452C143.894 195.478 145.372 195.505 147.2 195.532C149.028 195.532 151.206 195.532 153.733 195.532C154.808 195.532 155.843 195.532 156.837 195.532C157.832 195.532 158.827 195.532 159.821 195.532C160.816 195.505 161.824 195.492 162.846 195.492C163.867 195.492 164.942 195.478 166.071 195.452C165.668 196.796 165.319 198.153 165.023 199.524C164.727 200.895 164.485 202.36 164.297 203.919H162.684C162.684 202.226 162.523 200.882 162.2 199.887C161.905 198.892 161.38 198.18 160.628 197.75C159.902 197.32 158.907 197.105 157.644 197.105H152.805L146.596 219.202C146.219 220.519 146.179 221.379 146.475 221.782C146.77 222.159 147.59 222.347 148.934 222.347H149.741C151.622 222.347 153.235 222.078 154.579 221.54C155.923 221.003 157.147 220.116 158.249 218.879C159.378 217.616 160.493 215.922 161.596 213.798H163.208C162.375 215.949 161.69 217.831 161.152 219.444C160.641 221.03 160.211 222.548 159.862 224C158.571 223.973 157.402 223.96 156.354 223.96C155.305 223.933 154.311 223.919 153.37 223.919C152.456 223.892 151.555 223.879 150.668 223.879C149.808 223.879 148.921 223.879 148.007 223.879C145.05 223.879 142.469 223.892 140.265 223.919C138.061 223.919 136.233 223.946 134.781 224ZM147.725 210.411L148.168 208.879H156.233L155.789 210.411H147.725ZM155.144 215.371C155.278 213.57 155.05 212.293 154.458 211.54C153.894 210.788 152.859 210.411 151.354 210.411L151.797 208.879C152.846 208.879 153.733 208.731 154.458 208.435C155.211 208.113 155.87 207.589 156.434 206.863C157.026 206.137 157.59 205.156 158.128 203.919H159.741C159.579 204.403 159.405 204.941 159.216 205.532C159.028 206.124 158.84 206.769 158.652 207.468C158.464 208.167 158.262 208.906 158.047 209.685C157.94 210.089 157.832 210.492 157.725 210.895C157.644 211.272 157.55 211.675 157.442 212.105C157.362 212.508 157.268 212.978 157.16 213.516C157.053 214.027 156.918 214.645 156.757 215.371H155.144ZM184.679 224.565C183.335 224.565 182.273 224.269 181.493 223.677C180.714 223.059 180.216 222.199 180.001 221.097C179.813 219.995 179.921 218.731 180.324 217.306L185.445 198.96C185.74 197.965 185.835 197.199 185.727 196.661C185.619 196.124 185.257 195.747 184.638 195.532C184.047 195.317 183.119 195.196 181.856 195.169L182.34 193.597C184.571 193.57 186.56 193.422 188.308 193.153C190.055 192.884 191.654 192.481 193.106 191.944L185.646 218.597C185.324 219.672 185.27 220.519 185.485 221.137C185.7 221.755 186.171 222.065 186.896 222.065C187.488 222.065 188.039 221.849 188.55 221.419C189.087 220.989 189.585 220.331 190.042 219.444L190.808 218.032H192.38L191.453 219.726C190.915 220.747 190.31 221.621 189.638 222.347C188.993 223.073 188.254 223.624 187.421 224C186.614 224.376 185.7 224.565 184.679 224.565ZM173.953 224.565C171.937 224.565 170.351 223.879 169.195 222.508C168.039 221.11 167.461 219.202 167.461 216.782C167.461 214.901 167.797 213.113 168.469 211.419C169.141 209.726 170.042 208.22 171.171 206.903C172.326 205.559 173.644 204.511 175.122 203.758C176.628 202.978 178.187 202.589 179.8 202.589C181.144 202.589 182.421 202.871 183.63 203.435C184.84 204 185.955 204.82 186.977 205.895L183.106 208.355C183.025 207.038 182.703 206.016 182.138 205.29C181.601 204.538 180.902 204.161 180.042 204.161C179.181 204.161 178.335 204.497 177.501 205.169C176.695 205.841 175.969 206.755 175.324 207.911C174.679 209.04 174.168 210.331 173.792 211.782C173.415 213.207 173.227 214.685 173.227 216.218C173.227 217.992 173.509 219.349 174.074 220.29C174.665 221.231 175.485 221.702 176.533 221.702C177.286 221.702 177.972 221.487 178.59 221.056C179.235 220.599 179.826 219.914 180.364 219L180.727 219.605C179.947 221.272 178.993 222.522 177.864 223.355C176.762 224.161 175.458 224.565 173.953 224.565ZM201.553 224.565C200.209 224.565 199.121 224.255 198.287 223.637C197.481 222.992 196.97 222.118 196.755 221.016C196.567 219.914 196.728 218.664 197.239 217.266L200.303 208.597C200.68 207.548 200.747 206.702 200.505 206.056C200.29 205.411 199.806 205.089 199.053 205.089C198.462 205.089 197.897 205.304 197.36 205.734C196.849 206.164 196.365 206.836 195.908 207.75L195.142 209.161H193.569L194.497 207.427C195.384 205.761 196.365 204.538 197.44 203.758C198.543 202.978 199.819 202.589 201.271 202.589C202.642 202.589 203.731 202.911 204.537 203.556C205.344 204.175 205.854 205.035 206.069 206.137C206.284 207.212 206.123 208.462 205.586 209.887L202.521 218.556C202.145 219.605 202.077 220.452 202.319 221.097C202.561 221.742 203.045 222.065 203.771 222.065C204.954 222.065 206.016 221.191 206.957 219.444L207.682 218.032H209.255L208.368 219.726C207.481 221.419 206.486 222.656 205.384 223.435C204.282 224.188 203.005 224.565 201.553 224.565ZM204.537 199.04C203.596 199.04 202.817 198.772 202.198 198.234C201.607 197.669 201.311 196.944 201.311 196.056C201.311 195.089 201.674 194.282 202.4 193.637C203.126 192.965 204 192.629 205.021 192.629C205.962 192.629 206.728 192.911 207.319 193.476C207.938 194.013 208.247 194.726 208.247 195.613C208.247 196.581 207.884 197.401 207.158 198.073C206.459 198.718 205.586 199.04 204.537 199.04ZM231.041 224.565C229.724 224.565 228.662 224.269 227.856 223.677C227.076 223.086 226.579 222.253 226.364 221.177C226.176 220.075 226.283 218.785 226.687 217.306L228.824 209.685C229.227 208.18 229.267 207.051 228.945 206.298C228.649 205.519 227.99 205.129 226.969 205.129C226.135 205.129 225.356 205.384 224.63 205.895C223.931 206.406 223.286 207.159 222.695 208.153L222.332 207.306C223.219 205.72 224.267 204.538 225.477 203.758C226.687 202.978 228.031 202.589 229.509 202.589C231.633 202.589 233.111 203.328 233.945 204.806C234.805 206.258 234.899 208.22 234.227 210.694L232.009 218.597C231.713 219.699 231.673 220.559 231.888 221.177C232.103 221.769 232.56 222.065 233.259 222.065C233.877 222.065 234.442 221.849 234.953 221.419C235.49 220.962 235.988 220.304 236.445 219.444L237.17 218.032H238.743L237.856 219.726C237.318 220.747 236.713 221.621 236.041 222.347C235.369 223.073 234.617 223.624 233.783 224C232.977 224.376 232.063 224.565 231.041 224.565ZM213.017 224L217.332 208.597C217.654 207.495 217.708 206.634 217.493 206.016C217.278 205.398 216.794 205.089 216.041 205.089C215.477 205.089 214.926 205.317 214.388 205.774C213.877 206.204 213.394 206.863 212.937 207.75L212.17 209.161H210.598L211.525 207.427C212.063 206.406 212.654 205.532 213.299 204.806C213.972 204.081 214.724 203.53 215.558 203.153C216.391 202.777 217.305 202.589 218.299 202.589C219.644 202.589 220.705 202.898 221.485 203.516C222.265 204.108 222.748 204.954 222.937 206.056C223.152 207.132 223.058 208.409 222.654 209.887L218.703 224H213.017ZM249.228 224.565C247.346 224.565 245.814 224.161 244.631 223.355C243.475 222.522 242.736 221.352 242.414 219.847C242.091 218.341 242.225 216.554 242.817 214.484L247.131 198.96C247.427 197.965 247.508 197.199 247.373 196.661C247.266 196.124 246.889 195.747 246.244 195.532C245.626 195.317 244.658 195.196 243.341 195.169L243.785 193.597C246.07 193.57 248.099 193.422 249.873 193.153C251.674 192.884 253.314 192.481 254.793 191.944L248.018 216.177C247.4 218.435 247.252 220.142 247.575 221.298C247.897 222.427 248.637 222.992 249.793 222.992C250.707 222.992 251.58 222.656 252.414 221.984C253.274 221.312 254.04 220.411 254.712 219.282C255.384 218.126 255.908 216.823 256.285 215.371C256.688 213.892 256.889 212.374 256.889 210.815C256.889 208.96 256.607 207.548 256.043 206.581C255.505 205.586 254.725 205.089 253.704 205.089C252.951 205.089 252.252 205.344 251.607 205.855C250.989 206.366 250.465 207.091 250.035 208.032L250.075 206.742C250.774 205.398 251.647 204.376 252.696 203.677C253.771 202.952 254.967 202.589 256.285 202.589C258.247 202.589 259.793 203.301 260.922 204.726C262.051 206.124 262.615 208.046 262.615 210.492C262.615 212.427 262.266 214.242 261.567 215.935C260.868 217.629 259.9 219.121 258.664 220.411C257.454 221.702 256.043 222.723 254.43 223.476C252.817 224.202 251.083 224.565 249.228 224.565ZM274.332 224.565C272.935 224.565 271.806 224.228 270.945 223.556C270.112 222.884 269.574 221.944 269.332 220.734C269.09 219.524 269.198 218.099 269.655 216.46L271.873 208.597C272.195 207.468 272.249 206.608 272.034 206.016C271.819 205.398 271.335 205.089 270.582 205.089C269.991 205.089 269.44 205.317 268.929 205.774C268.418 206.204 267.921 206.863 267.437 207.75L266.711 209.161H265.139L266.026 207.427C266.59 206.406 267.195 205.546 267.84 204.847C268.513 204.121 269.252 203.57 270.058 203.194C270.892 202.817 271.819 202.629 272.84 202.629C274.185 202.629 275.246 202.925 276.026 203.516C276.806 204.108 277.289 204.954 277.478 206.056C277.693 207.132 277.585 208.409 277.155 209.887L275.058 217.468C274.655 218.973 274.601 220.116 274.897 220.895C275.22 221.675 275.878 222.065 276.873 222.065C277.706 222.065 278.459 221.809 279.131 221.298C279.83 220.788 280.448 220.035 280.986 219.04L281.349 219.887C280.488 221.446 279.467 222.616 278.284 223.395C277.128 224.175 275.811 224.565 274.332 224.565ZM285.381 224.565C284.037 224.565 282.975 224.269 282.195 223.677C281.416 223.059 280.918 222.212 280.703 221.137C280.515 220.035 280.623 218.758 281.026 217.306L284.978 203.153H290.663L286.349 218.597C286.026 219.699 285.972 220.559 286.187 221.177C286.429 221.769 286.913 222.065 287.639 222.065C288.203 222.065 288.741 221.849 289.252 221.419C289.789 220.989 290.287 220.331 290.744 219.444L291.51 218.032H293.082L292.155 219.726C291.617 220.747 291.013 221.621 290.34 222.347C289.695 223.073 288.956 223.624 288.123 224C287.316 224.376 286.402 224.565 285.381 224.565ZM296.367 224L300.681 208.597C301.004 207.468 301.044 206.608 300.802 206.016C300.587 205.398 300.117 205.089 299.391 205.089C298.826 205.089 298.275 205.317 297.738 205.774C297.227 206.204 296.743 206.863 296.286 207.75L295.52 209.161H293.947L294.875 207.427C295.413 206.406 296.004 205.532 296.649 204.806C297.321 204.081 298.074 203.53 298.907 203.153C299.74 202.777 300.654 202.589 301.649 202.589C302.993 202.589 304.055 202.898 304.835 203.516C305.614 204.108 306.098 204.954 306.286 206.056C306.501 207.132 306.407 208.409 306.004 209.887L302.052 224H296.367ZM311.77 211.218C311.206 211.218 310.762 211.056 310.439 210.734C310.117 210.411 309.956 209.995 309.956 209.484C309.956 208.973 310.063 208.503 310.278 208.073C310.52 207.616 310.749 207.185 310.964 206.782C311.206 206.379 311.326 206.003 311.326 205.653C311.326 205.142 310.977 204.887 310.278 204.887C309.579 204.887 308.84 205.169 308.06 205.734C307.281 206.272 306.622 206.997 306.085 207.911L305.762 206.984C306.568 205.586 307.536 204.511 308.665 203.758C309.794 202.978 311.004 202.589 312.294 202.589C313.423 202.589 314.297 202.884 314.915 203.476C315.533 204.067 315.843 204.901 315.843 205.976C315.843 206.89 315.641 207.75 315.238 208.556C314.861 209.336 314.364 209.981 313.746 210.492C313.154 210.976 312.496 211.218 311.77 211.218ZM323.632 233.637C321.804 233.637 320.192 233.435 318.794 233.032C317.396 232.629 316.321 232.065 315.568 231.339C314.788 230.64 314.399 229.82 314.399 228.879C314.399 227.777 314.95 226.715 316.052 225.694C317.154 224.699 318.713 223.852 320.729 223.153L321.576 223.677C320.796 224.188 320.192 224.806 319.761 225.532C319.331 226.258 319.116 227.011 319.116 227.79C319.116 229.054 319.654 230.062 320.729 230.815C321.831 231.567 323.283 231.944 325.084 231.944C326.321 231.944 327.409 231.728 328.35 231.298C329.318 230.895 330.071 230.317 330.608 229.565C331.146 228.839 331.415 228.005 331.415 227.065C331.415 226.151 331.132 225.478 330.568 225.048C330.003 224.618 329.13 224.403 327.947 224.403H324.157C322.678 224.403 321.509 224.108 320.649 223.516C319.815 222.925 319.399 222.105 319.399 221.056C319.399 220.169 319.735 219.296 320.407 218.435C321.079 217.548 322.114 216.608 323.511 215.613L324.197 216.097C323.74 216.554 323.404 216.957 323.189 217.306C322.974 217.629 322.866 217.952 322.866 218.274C322.866 218.731 323.054 219.081 323.431 219.323C323.807 219.538 324.412 219.645 325.245 219.645H329.64C331.63 219.645 333.175 220.116 334.278 221.056C335.38 221.97 335.931 223.274 335.931 224.968C335.931 226.634 335.407 228.126 334.358 229.444C333.31 230.761 331.858 231.782 330.003 232.508C328.149 233.261 326.025 233.637 323.632 233.637ZM326.253 216.702C324.157 216.702 322.503 216.164 321.294 215.089C320.111 213.987 319.52 212.481 319.52 210.573C319.52 209.04 319.896 207.683 320.649 206.5C321.401 205.29 322.436 204.349 323.753 203.677C325.071 202.978 326.563 202.629 328.229 202.629C330.326 202.629 331.979 203.18 333.189 204.282C334.399 205.384 335.003 206.876 335.003 208.758C335.003 210.263 334.614 211.621 333.834 212.831C333.081 214.04 332.046 214.995 330.729 215.694C329.439 216.366 327.947 216.702 326.253 216.702ZM326.374 215.129C326.912 215.129 327.409 214.927 327.866 214.524C328.35 214.121 328.78 213.57 329.157 212.871C329.533 212.172 329.829 211.379 330.044 210.492C330.259 209.605 330.366 208.691 330.366 207.75C330.366 206.594 330.178 205.707 329.802 205.089C329.425 204.47 328.874 204.161 328.149 204.161C327.584 204.161 327.06 204.363 326.576 204.766C326.092 205.142 325.662 205.667 325.286 206.339C324.936 207.011 324.654 207.777 324.439 208.637C324.251 209.497 324.157 210.411 324.157 211.379C324.157 212.616 324.345 213.556 324.721 214.202C325.097 214.82 325.649 215.129 326.374 215.129ZM338.915 208.919C338.431 208.919 338.041 208.785 337.745 208.516C337.45 208.247 337.302 207.884 337.302 207.427C337.302 207.105 337.369 206.796 337.503 206.5C337.665 206.204 337.813 205.922 337.947 205.653C338.081 205.384 338.149 205.129 338.149 204.887C338.149 204.645 338.054 204.47 337.866 204.363C337.705 204.255 337.45 204.202 337.1 204.202C336.536 204.202 335.958 204.336 335.366 204.605C334.775 204.874 334.224 205.25 333.713 205.734L333.189 205.048C333.861 204.242 334.6 203.637 335.407 203.234C336.24 202.804 337.114 202.589 338.028 202.589C339.13 202.589 340.003 202.871 340.649 203.435C341.294 203.973 341.616 204.726 341.616 205.694C341.616 206.581 341.347 207.347 340.81 207.992C340.299 208.61 339.667 208.919 338.915 208.919ZM342.06 224L349.036 198.96C349.331 197.992 349.425 197.239 349.318 196.702C349.21 196.164 348.834 195.788 348.189 195.573C347.571 195.331 346.589 195.196 345.245 195.169L345.689 193.597C347.947 193.57 349.963 193.422 351.737 193.153C353.538 192.884 355.192 192.481 356.697 191.944L347.745 224H342.06ZM360.084 224.565C358.74 224.565 357.678 224.269 356.899 223.677C356.119 223.059 355.622 222.212 355.407 221.137C355.218 220.035 355.326 218.758 355.729 217.306L357.866 209.685C358.27 208.207 358.31 207.078 357.987 206.298C357.692 205.519 357.033 205.129 356.011 205.129C355.259 205.129 354.546 205.358 353.874 205.815C353.202 206.272 352.597 206.97 352.06 207.911L351.939 207.065C352.772 205.586 353.74 204.47 354.842 203.718C355.971 202.965 357.248 202.589 358.673 202.589C360.743 202.589 362.194 203.328 363.028 204.806C363.861 206.285 363.928 208.247 363.229 210.694L361.052 218.597C360.729 219.672 360.675 220.519 360.89 221.137C361.106 221.755 361.576 222.065 362.302 222.065C362.893 222.065 363.444 221.849 363.955 221.419C364.493 220.989 365.003 220.331 365.487 219.444L366.213 218.032H367.786L366.858 219.726C366.321 220.747 365.716 221.621 365.044 222.347C364.399 223.073 363.659 223.624 362.826 224C362.02 224.376 361.106 224.565 360.084 224.565Z" fill="#3E3636"/>
</svg>
