<svg width="490" height="367" viewBox="0 0 490 367" fill="none" xmlns="http://www.w3.org/2000/svg">
<rect width="490" height="367" fill="#B8B8B8"/>
<path d="M131.637 192.565C129.352 192.565 127.363 192.081 125.669 191.113C124.003 190.145 122.712 188.761 121.798 186.96C120.911 185.159 120.468 183.035 120.468 180.589C120.468 178.142 120.898 175.858 121.758 173.734C122.618 171.583 123.801 169.702 125.306 168.089C126.812 166.449 128.559 165.172 130.548 164.258C132.538 163.344 134.661 162.887 136.919 162.887C138.237 162.887 139.352 163.008 140.266 163.25C141.207 163.492 142 163.788 142.645 164.137C143.29 164.46 143.828 164.742 144.258 164.984C144.688 165.226 145.051 165.347 145.347 165.347C145.669 165.347 145.965 165.199 146.234 164.903C146.503 164.608 146.798 164.124 147.121 163.452H148.734C148.277 164.849 147.82 166.382 147.363 168.048C146.906 169.688 146.435 171.489 145.952 173.452H144.339C144.608 171.597 144.54 169.997 144.137 168.653C143.734 167.309 143.035 166.274 142.04 165.548C141.046 164.823 139.809 164.46 138.331 164.46C136.745 164.46 135.253 164.89 133.855 165.75C132.484 166.61 131.274 167.793 130.226 169.298C129.177 170.804 128.344 172.551 127.726 174.54C127.134 176.503 126.839 178.599 126.839 180.831C126.839 182.901 127.121 184.661 127.685 186.113C128.25 187.565 129.056 188.68 130.105 189.46C131.153 190.239 132.417 190.629 133.895 190.629C135.858 190.629 137.591 189.903 139.097 188.452C140.602 187 141.933 184.715 143.089 181.597H144.742C144.231 183.452 143.801 185.024 143.452 186.315C143.129 187.605 142.874 188.694 142.685 189.581C142.497 190.468 142.323 191.274 142.161 192H140.548C140.575 191.382 140.522 190.952 140.387 190.71C140.28 190.468 140.078 190.347 139.782 190.347C139.379 190.347 138.841 190.535 138.169 190.911C137.524 191.288 136.677 191.651 135.629 192C134.581 192.376 133.25 192.565 131.637 192.565ZM157.307 192.565C154.834 192.565 152.912 191.852 151.541 190.427C150.197 188.976 149.525 186.946 149.525 184.339C149.525 182.484 149.848 180.737 150.493 179.097C151.165 177.43 152.092 175.965 153.275 174.702C154.458 173.411 155.816 172.403 157.348 171.677C158.88 170.952 160.52 170.589 162.267 170.589C164.74 170.589 166.662 171.315 168.033 172.766C169.404 174.218 170.09 176.247 170.09 178.855C170.09 180.71 169.754 182.47 169.082 184.137C168.41 185.777 167.482 187.228 166.299 188.492C165.117 189.755 163.759 190.75 162.227 191.476C160.695 192.202 159.055 192.565 157.307 192.565ZM157.63 190.992C158.302 190.992 158.961 190.737 159.606 190.226C160.278 189.688 160.896 188.962 161.461 188.048C162.052 187.134 162.576 186.099 163.033 184.944C163.49 183.761 163.84 182.511 164.082 181.194C164.324 179.849 164.445 178.505 164.445 177.161C164.445 175.522 164.23 174.285 163.799 173.452C163.396 172.591 162.778 172.161 161.945 172.161C161.273 172.161 160.6 172.43 159.928 172.968C159.283 173.478 158.665 174.191 158.074 175.105C157.509 176.019 156.998 177.067 156.541 178.25C156.111 179.433 155.762 180.696 155.493 182.04C155.251 183.358 155.13 184.675 155.13 185.992C155.13 187.659 155.345 188.909 155.775 189.742C156.205 190.575 156.824 190.992 157.63 190.992ZM182.405 192.565C179.932 192.565 178.01 191.852 176.639 190.427C175.295 188.976 174.623 186.946 174.623 184.339C174.623 182.484 174.945 180.737 175.591 179.097C176.263 177.43 177.19 175.965 178.373 174.702C179.556 173.411 180.913 172.403 182.445 171.677C183.978 170.952 185.617 170.589 187.365 170.589C189.838 170.589 191.76 171.315 193.131 172.766C194.502 174.218 195.187 176.247 195.187 178.855C195.187 180.71 194.851 182.47 194.179 184.137C193.507 185.777 192.58 187.228 191.397 188.492C190.214 189.755 188.857 190.75 187.324 191.476C185.792 192.202 184.152 192.565 182.405 192.565ZM182.728 190.992C183.4 190.992 184.058 190.737 184.704 190.226C185.376 189.688 185.994 188.962 186.558 188.048C187.15 187.134 187.674 186.099 188.131 184.944C188.588 183.761 188.937 182.511 189.179 181.194C189.421 179.849 189.542 178.505 189.542 177.161C189.542 175.522 189.327 174.285 188.897 173.452C188.494 172.591 187.876 172.161 187.042 172.161C186.37 172.161 185.698 172.43 185.026 172.968C184.381 173.478 183.763 174.191 183.171 175.105C182.607 176.019 182.096 177.067 181.639 178.25C181.209 179.433 180.859 180.696 180.591 182.04C180.349 183.358 180.228 184.675 180.228 185.992C180.228 187.659 180.443 188.909 180.873 189.742C181.303 190.575 181.921 190.992 182.728 190.992ZM204.187 192.565C202.843 192.565 201.768 192.269 200.962 191.677C200.182 191.059 199.698 190.212 199.51 189.137C199.322 188.035 199.429 186.758 199.833 185.306L204.954 166.96C205.249 165.965 205.33 165.199 205.196 164.661C205.088 164.124 204.712 163.747 204.067 163.532C203.421 163.317 202.454 163.196 201.163 163.169L201.607 161.597C203.865 161.57 205.894 161.422 207.696 161.153C209.497 160.884 211.136 160.481 212.615 159.944L205.115 186.597C204.819 187.672 204.779 188.519 204.994 189.137C205.209 189.755 205.679 190.065 206.405 190.065C206.997 190.065 207.548 189.849 208.058 189.419C208.596 188.989 209.093 188.331 209.55 187.444L210.317 186.032H211.889L210.962 187.726C210.424 188.747 209.819 189.621 209.147 190.347C208.475 191.073 207.736 191.624 206.929 192C206.123 192.376 205.209 192.565 204.187 192.565ZM232.219 192.565C230.552 192.565 229.073 192.336 227.783 191.879C226.493 191.422 225.485 190.79 224.759 189.984C224.033 189.177 223.67 188.263 223.67 187.242C223.67 186.328 223.926 185.589 224.436 185.024C224.974 184.46 225.686 184.177 226.573 184.177C227.326 184.177 227.904 184.392 228.307 184.823C228.737 185.226 228.966 185.804 228.993 186.556C228.993 187.04 228.926 187.538 228.791 188.048C228.657 188.532 228.59 188.935 228.59 189.258C228.616 189.849 228.912 190.293 229.477 190.589C230.041 190.884 230.848 191.032 231.896 191.032C233.294 191.032 234.383 190.763 235.162 190.226C235.942 189.661 236.332 188.895 236.332 187.927C236.332 187.175 236.116 186.516 235.686 185.952C235.256 185.36 234.705 184.823 234.033 184.339C233.388 183.828 232.689 183.317 231.936 182.806C231.184 182.296 230.471 181.758 229.799 181.194C229.127 180.602 228.576 179.944 228.146 179.218C227.743 178.492 227.541 177.659 227.541 176.718C227.541 174.863 228.334 173.384 229.92 172.282C231.533 171.153 233.59 170.589 236.09 170.589C237.649 170.589 239.02 170.804 240.202 171.234C241.412 171.664 242.353 172.255 243.025 173.008C243.724 173.734 244.073 174.567 244.073 175.508C244.073 176.315 243.832 176.973 243.348 177.484C242.864 177.995 242.232 178.25 241.452 178.25C240.78 178.25 240.229 178.062 239.799 177.685C239.396 177.309 239.194 176.812 239.194 176.194C239.194 175.79 239.248 175.36 239.356 174.903C239.49 174.419 239.544 174.03 239.517 173.734C239.517 173.196 239.262 172.793 238.751 172.524C238.24 172.255 237.514 172.121 236.573 172.121C235.391 172.121 234.463 172.376 233.791 172.887C233.119 173.371 232.783 174.043 232.783 174.903C232.783 175.602 232.998 176.247 233.428 176.839C233.858 177.403 234.396 177.941 235.041 178.452C235.713 178.935 236.426 179.446 237.178 179.984C237.931 180.495 238.63 181.046 239.275 181.637C239.947 182.202 240.498 182.86 240.928 183.613C241.358 184.339 241.573 185.185 241.573 186.153C241.573 187.444 241.17 188.573 240.364 189.54C239.557 190.481 238.455 191.22 237.057 191.758C235.659 192.296 234.047 192.565 232.219 192.565ZM246.708 192L253.684 166.96C253.98 165.992 254.074 165.239 253.966 164.702C253.859 164.164 253.482 163.788 252.837 163.573C252.219 163.331 251.238 163.196 249.894 163.169L250.337 161.597C252.595 161.57 254.612 161.422 256.386 161.153C258.187 160.884 259.84 160.481 261.345 159.944L252.394 192H246.708ZM264.732 192.565C263.388 192.565 262.327 192.269 261.547 191.677C260.767 191.059 260.27 190.212 260.055 189.137C259.867 188.035 259.974 186.758 260.378 185.306L262.515 177.685C262.918 176.207 262.958 175.078 262.636 174.298C262.34 173.519 261.681 173.129 260.66 173.129C259.907 173.129 259.195 173.358 258.523 173.815C257.851 174.272 257.246 174.97 256.708 175.911L256.587 175.065C257.421 173.586 258.388 172.47 259.491 171.718C260.62 170.965 261.896 170.589 263.321 170.589C265.391 170.589 266.843 171.328 267.676 172.806C268.509 174.285 268.577 176.247 267.878 178.694L265.7 186.597C265.378 187.672 265.324 188.519 265.539 189.137C265.754 189.755 266.224 190.065 266.95 190.065C267.542 190.065 268.093 189.849 268.603 189.419C269.141 188.989 269.652 188.331 270.136 187.444L270.862 186.032H272.434L271.507 187.726C270.969 188.747 270.364 189.621 269.692 190.347C269.047 191.073 268.308 191.624 267.474 192C266.668 192.376 265.754 192.565 264.732 192.565ZM282.698 192.565C280.225 192.565 278.303 191.852 276.932 190.427C275.588 188.976 274.916 186.946 274.916 184.339C274.916 182.484 275.238 180.737 275.884 179.097C276.556 177.43 277.483 175.965 278.666 174.702C279.849 173.411 281.206 172.403 282.738 171.677C284.271 170.952 285.91 170.589 287.658 170.589C290.131 170.589 292.053 171.315 293.424 172.766C294.795 174.218 295.48 176.247 295.48 178.855C295.48 180.71 295.144 182.47 294.472 184.137C293.8 185.777 292.873 187.228 291.69 188.492C290.507 189.755 289.15 190.75 287.617 191.476C286.085 192.202 284.445 192.565 282.698 192.565ZM283.021 190.992C283.693 190.992 284.351 190.737 284.996 190.226C285.669 189.688 286.287 188.962 286.851 188.048C287.443 187.134 287.967 186.099 288.424 184.944C288.881 183.761 289.23 182.511 289.472 181.194C289.714 179.849 289.835 178.505 289.835 177.161C289.835 175.522 289.62 174.285 289.19 173.452C288.787 172.591 288.169 172.161 287.335 172.161C286.663 172.161 285.991 172.43 285.319 172.968C284.674 173.478 284.056 174.191 283.464 175.105C282.9 176.019 282.389 177.067 281.932 178.25C281.502 179.433 281.152 180.696 280.884 182.04C280.642 183.358 280.521 184.675 280.521 185.992C280.521 187.659 280.736 188.909 281.166 189.742C281.596 190.575 282.214 190.992 283.021 190.992ZM294.092 201.315L294.536 199.742C295.504 199.715 296.31 199.594 296.955 199.379C297.574 199.191 298.071 198.882 298.447 198.452C298.824 198.048 299.106 197.484 299.294 196.758L304.939 176.597C305.262 175.441 305.302 174.567 305.06 173.976C304.818 173.384 304.348 173.089 303.649 173.089C303.084 173.089 302.533 173.304 301.996 173.734C301.485 174.164 301.001 174.836 300.544 175.75L299.778 177.161H298.205L299.133 175.427C299.67 174.406 300.262 173.532 300.907 172.806C301.579 172.081 302.332 171.53 303.165 171.153C303.998 170.777 304.912 170.589 305.907 170.589C307.869 170.589 309.24 171.234 310.02 172.524C310.826 173.815 310.907 175.602 310.262 177.887L305.06 196.435C304.845 197.215 304.858 197.833 305.1 198.29C305.342 198.774 305.84 199.124 306.592 199.339C307.372 199.581 308.447 199.715 309.818 199.742L309.415 201.315C308.85 201.288 308.138 201.261 307.278 201.234C306.418 201.234 305.49 201.22 304.496 201.194C303.528 201.167 302.547 201.153 301.552 201.153C300.1 201.153 298.703 201.167 297.358 201.194C295.988 201.247 294.899 201.288 294.092 201.315ZM311.713 192.565C310.531 192.565 309.482 192.296 308.568 191.758C307.681 191.22 307.049 190.481 306.673 189.54L307.157 188.25C307.506 188.868 307.977 189.352 308.568 189.702C309.186 190.051 309.845 190.226 310.544 190.226C311.431 190.226 312.278 189.93 313.084 189.339C313.918 188.72 314.657 187.887 315.302 186.839C315.947 185.79 316.445 184.594 316.794 183.25C317.17 181.879 317.358 180.454 317.358 178.976C317.358 177.202 317.063 175.844 316.471 174.903C315.907 173.962 315.087 173.492 314.012 173.492C313.286 173.492 312.6 173.72 311.955 174.177C311.31 174.608 310.732 175.266 310.221 176.153L309.858 175.548C310.638 173.935 311.592 172.712 312.721 171.879C313.877 171.019 315.195 170.589 316.673 170.589C318.662 170.589 320.235 171.301 321.391 172.726C322.547 174.124 323.125 176.032 323.125 178.452C323.125 180.28 322.802 182.04 322.157 183.734C321.539 185.401 320.692 186.906 319.617 188.25C318.541 189.594 317.318 190.656 315.947 191.435C314.603 192.188 313.192 192.565 311.713 192.565ZM334.123 192.565C332.456 192.565 330.978 192.336 329.687 191.879C328.397 191.422 327.389 190.79 326.663 189.984C325.937 189.177 325.575 188.263 325.575 187.242C325.575 186.328 325.83 185.589 326.341 185.024C326.878 184.46 327.591 184.177 328.478 184.177C329.23 184.177 329.808 184.392 330.212 184.823C330.642 185.226 330.87 185.804 330.897 186.556C330.897 187.04 330.83 187.538 330.696 188.048C330.561 188.532 330.494 188.935 330.494 189.258C330.521 189.849 330.816 190.293 331.381 190.589C331.946 190.884 332.752 191.032 333.8 191.032C335.198 191.032 336.287 190.763 337.066 190.226C337.846 189.661 338.236 188.895 338.236 187.927C338.236 187.175 338.021 186.516 337.591 185.952C337.161 185.36 336.609 184.823 335.937 184.339C335.292 183.828 334.593 183.317 333.841 182.806C333.088 182.296 332.376 181.758 331.704 181.194C331.032 180.602 330.48 179.944 330.05 179.218C329.647 178.492 329.446 177.659 329.446 176.718C329.446 174.863 330.239 173.384 331.825 172.282C333.437 171.153 335.494 170.589 337.994 170.589C339.553 170.589 340.924 170.804 342.107 171.234C343.316 171.664 344.257 172.255 344.929 173.008C345.628 173.734 345.978 174.567 345.978 175.508C345.978 176.315 345.736 176.973 345.252 177.484C344.768 177.995 344.136 178.25 343.357 178.25C342.685 178.25 342.134 178.062 341.704 177.685C341.3 177.309 341.099 176.812 341.099 176.194C341.099 175.79 341.152 175.36 341.26 174.903C341.394 174.419 341.448 174.03 341.421 173.734C341.421 173.196 341.166 172.793 340.655 172.524C340.144 172.255 339.419 172.121 338.478 172.121C337.295 172.121 336.368 172.376 335.696 172.887C335.023 173.371 334.687 174.043 334.687 174.903C334.687 175.602 334.902 176.247 335.333 176.839C335.763 177.403 336.3 177.941 336.946 178.452C337.618 178.935 338.33 179.446 339.083 179.984C339.835 180.495 340.534 181.046 341.179 181.637C341.851 182.202 342.402 182.86 342.833 183.613C343.263 184.339 343.478 185.185 343.478 186.153C343.478 187.444 343.075 188.573 342.268 189.54C341.462 190.481 340.359 191.22 338.962 191.758C337.564 192.296 335.951 192.565 334.123 192.565Z" fill="#3E3636"/>
</svg>
