<svg width="490" height="367" viewBox="0 0 490 367" fill="none" xmlns="http://www.w3.org/2000/svg">
<rect width="490" height="367" fill="#B8B8B8"/>
<path d="M167.733 191.565C165.394 191.565 163.378 191.081 161.685 190.113C159.991 189.145 158.687 187.774 157.773 186C156.859 184.199 156.402 182.062 156.402 179.589C156.402 177.142 156.832 174.858 157.693 172.734C158.58 170.583 159.789 168.702 161.322 167.089C162.854 165.449 164.642 164.172 166.685 163.258C168.728 162.344 170.932 161.887 173.297 161.887C174.668 161.887 175.838 162.022 176.806 162.29C177.8 162.532 178.633 162.828 179.306 163.177C179.978 163.527 180.542 163.823 180.999 164.065C181.456 164.306 181.859 164.427 182.209 164.427C182.504 164.427 182.787 164.28 183.056 163.984C183.324 163.688 183.62 163.177 183.943 162.452H185.556C185.099 163.876 184.642 165.409 184.185 167.048C183.728 168.688 183.257 170.489 182.773 172.452H181.16C181.456 169.602 181.053 167.398 179.951 165.839C178.849 164.28 177.128 163.5 174.789 163.5C173.123 163.5 171.564 163.93 170.112 164.79C168.66 165.651 167.383 166.833 166.281 168.339C165.179 169.844 164.319 171.605 163.701 173.621C163.082 175.637 162.773 177.788 162.773 180.073C162.773 182.116 163.029 183.876 163.539 185.355C164.05 186.806 164.789 187.922 165.757 188.702C166.752 189.481 167.935 189.871 169.306 189.871C170.596 189.871 171.617 189.589 172.37 189.024C173.15 188.433 173.701 187.546 174.023 186.363L174.991 182.935C175.233 182.102 175.3 181.47 175.193 181.04C175.085 180.583 174.736 180.261 174.144 180.073C173.553 179.858 172.625 179.723 171.362 179.669L171.765 178.097C172.464 178.124 173.378 178.151 174.507 178.177C175.636 178.204 176.953 178.218 178.459 178.218C179.857 178.218 181.107 178.204 182.209 178.177C183.311 178.151 184.319 178.124 185.233 178.097L184.789 179.669C183.956 179.75 183.297 179.884 182.814 180.073C182.357 180.261 181.994 180.583 181.725 181.04C181.483 181.497 181.228 182.196 180.959 183.137L178.781 191H177.168C177.168 190.409 177.101 189.992 176.967 189.75C176.832 189.481 176.604 189.347 176.281 189.347C175.932 189.347 175.515 189.454 175.031 189.669C174.547 189.884 173.983 190.153 173.338 190.476C172.693 190.772 171.913 191.027 170.999 191.242C170.085 191.457 168.996 191.565 167.733 191.565ZM194.525 191.565C192.536 191.565 190.963 190.866 189.807 189.468C188.651 188.07 188.073 186.161 188.073 183.742C188.073 181.887 188.409 180.113 189.081 178.419C189.753 176.726 190.654 175.22 191.783 173.903C192.939 172.559 194.256 171.511 195.734 170.758C197.24 169.978 198.799 169.589 200.412 169.589C201.756 169.589 203.033 169.871 204.243 170.435C205.452 171 206.568 171.82 207.589 172.895L203.718 175.355C203.638 174.038 203.315 173.016 202.751 172.29C202.213 171.538 201.514 171.161 200.654 171.161C199.794 171.161 198.947 171.497 198.114 172.169C197.307 172.841 196.581 173.755 195.936 174.911C195.291 176.04 194.78 177.331 194.404 178.782C194.027 180.207 193.839 181.685 193.839 183.218C193.839 184.992 194.122 186.349 194.686 187.29C195.277 188.231 196.097 188.702 197.146 188.702C197.898 188.702 198.584 188.487 199.202 188.056C199.847 187.599 200.439 186.914 200.976 186L201.339 186.605C200.56 188.218 199.592 189.454 198.436 190.315C197.307 191.148 196.003 191.565 194.525 191.565ZM205.291 191.565C203.329 191.565 201.944 190.919 201.138 189.629C200.358 188.339 200.291 186.565 200.936 184.306L204.041 173.218C205.385 172.761 206.595 172.237 207.67 171.645C208.772 171.054 209.807 170.341 210.775 169.508L211.662 170.677C211.232 171.054 210.869 171.43 210.573 171.806C210.304 172.156 210.062 172.559 209.847 173.016C209.659 173.473 209.471 174.051 209.283 174.75L206.259 185.597C205.936 186.699 205.882 187.559 206.097 188.177C206.339 188.769 206.823 189.065 207.549 189.065C207.979 189.065 208.369 188.957 208.718 188.742C209.095 188.527 209.444 188.218 209.767 187.815C210.089 187.411 210.385 186.954 210.654 186.444L211.42 185.032H212.993L211.984 186.887C211.501 187.855 210.923 188.688 210.251 189.387C209.605 190.086 208.866 190.624 208.033 191C207.226 191.376 206.312 191.565 205.291 191.565ZM216.393 191L220.708 175.597C221.03 174.468 221.071 173.608 220.829 173.016C220.614 172.398 220.143 172.089 219.417 172.089C218.853 172.089 218.302 172.317 217.764 172.774C217.253 173.204 216.77 173.863 216.313 174.75L215.546 176.161H213.974L214.901 174.427C215.439 173.406 216.03 172.532 216.675 171.806C217.347 171.081 218.1 170.53 218.933 170.153C219.767 169.777 220.681 169.589 221.675 169.589C223.02 169.589 224.081 169.898 224.861 170.516C225.64 171.108 226.124 171.954 226.313 173.056C226.528 174.132 226.433 175.409 226.03 176.887L222.079 191H216.393ZM231.796 178.218C231.232 178.218 230.788 178.056 230.466 177.734C230.143 177.411 229.982 176.995 229.982 176.484C229.982 175.973 230.089 175.503 230.304 175.073C230.546 174.616 230.775 174.185 230.99 173.782C231.232 173.379 231.353 173.003 231.353 172.653C231.353 172.142 231.003 171.887 230.304 171.887C229.606 171.887 228.866 172.169 228.087 172.734C227.307 173.272 226.649 173.997 226.111 174.911L225.788 173.984C226.595 172.586 227.563 171.511 228.692 170.758C229.821 169.978 231.03 169.589 232.321 169.589C233.45 169.589 234.323 169.884 234.942 170.476C235.56 171.067 235.869 171.901 235.869 172.976C235.869 173.89 235.667 174.75 235.264 175.556C234.888 176.336 234.39 176.981 233.772 177.492C233.181 177.976 232.522 178.218 231.796 178.218ZM255.096 191.565C253.752 191.565 252.69 191.269 251.91 190.677C251.131 190.059 250.633 189.199 250.418 188.097C250.23 186.995 250.338 185.731 250.741 184.306L255.862 165.96C256.157 164.965 256.252 164.199 256.144 163.661C256.036 163.124 255.674 162.747 255.055 162.532C254.464 162.317 253.536 162.196 252.273 162.169L252.757 160.597C254.988 160.57 256.977 160.422 258.725 160.153C260.472 159.884 262.071 159.481 263.523 158.944L256.063 185.597C255.741 186.672 255.687 187.519 255.902 188.137C256.117 188.755 256.588 189.065 257.313 189.065C257.905 189.065 258.456 188.849 258.967 188.419C259.504 187.989 260.002 187.331 260.459 186.444L261.225 185.032H262.797L261.87 186.726C261.332 187.747 260.727 188.621 260.055 189.347C259.41 190.073 258.671 190.624 257.838 191C257.031 191.376 256.117 191.565 255.096 191.565ZM244.37 191.565C242.354 191.565 240.768 190.879 239.612 189.508C238.456 188.11 237.878 186.202 237.878 183.782C237.878 181.901 238.214 180.113 238.886 178.419C239.558 176.726 240.459 175.22 241.588 173.903C242.743 172.559 244.061 171.511 245.539 170.758C247.045 169.978 248.604 169.589 250.217 169.589C251.561 169.589 252.838 169.871 254.047 170.435C255.257 171 256.372 171.82 257.394 172.895L253.523 175.355C253.442 174.038 253.12 173.016 252.555 172.29C252.018 171.538 251.319 171.161 250.459 171.161C249.598 171.161 248.752 171.497 247.918 172.169C247.112 172.841 246.386 173.755 245.741 174.911C245.096 176.04 244.585 177.331 244.209 178.782C243.832 180.207 243.644 181.685 243.644 183.218C243.644 184.992 243.926 186.349 244.491 187.29C245.082 188.231 245.902 188.702 246.95 188.702C247.703 188.702 248.389 188.487 249.007 188.056C249.652 187.599 250.243 186.914 250.781 186L251.144 186.605C250.364 188.272 249.41 189.522 248.281 190.355C247.179 191.161 245.875 191.565 244.37 191.565ZM272.777 191.565C270.384 191.565 268.503 190.866 267.132 189.468C265.787 188.043 265.115 186.067 265.115 183.54C265.115 181.685 265.465 179.925 266.164 178.258C266.863 176.565 267.817 175.073 269.027 173.782C270.263 172.465 271.675 171.444 273.261 170.718C274.847 169.965 276.513 169.589 278.261 169.589C280.008 169.589 281.339 169.952 282.253 170.677C283.193 171.376 283.664 172.398 283.664 173.742C283.664 175.167 283.113 176.524 282.011 177.815C280.935 179.105 279.403 180.261 277.414 181.282C275.451 182.277 273.14 183.056 270.478 183.621V182.331C272.333 181.685 273.906 180.906 275.196 179.992C276.486 179.051 277.468 178.016 278.14 176.887C278.812 175.758 279.148 174.602 279.148 173.419C279.148 172.64 279.013 172.062 278.744 171.685C278.476 171.309 278.086 171.121 277.575 171.121C276.796 171.121 276.003 171.47 275.196 172.169C274.417 172.868 273.704 173.809 273.059 174.992C272.414 176.148 271.89 177.425 271.486 178.823C271.083 180.22 270.882 181.618 270.882 183.016C270.882 184.925 271.231 186.39 271.93 187.411C272.656 188.406 273.691 188.903 275.035 188.903C276.137 188.903 277.118 188.608 277.978 188.016C278.865 187.398 279.658 186.484 280.357 185.274H281.89C280.868 187.344 279.591 188.917 278.059 189.992C276.554 191.04 274.793 191.565 272.777 191.565ZM306.634 191.565C305.317 191.565 304.255 191.269 303.449 190.677C302.669 190.086 302.172 189.253 301.957 188.177C301.769 187.075 301.876 185.785 302.279 184.306L304.416 176.685C304.82 175.18 304.86 174.051 304.537 173.298C304.242 172.519 303.583 172.129 302.562 172.129C301.728 172.129 300.949 172.384 300.223 172.895C299.524 173.406 298.879 174.159 298.287 175.153L297.924 174.306C298.812 172.72 299.86 171.538 301.07 170.758C302.279 169.978 303.623 169.589 305.102 169.589C307.226 169.589 308.704 170.328 309.537 171.806C310.398 173.258 310.492 175.22 309.82 177.694L307.602 185.597C307.306 186.699 307.266 187.559 307.481 188.177C307.696 188.769 308.153 189.065 308.852 189.065C309.47 189.065 310.035 188.849 310.545 188.419C311.083 187.962 311.58 187.304 312.037 186.444L312.763 185.032H314.336L313.449 186.726C312.911 187.747 312.306 188.621 311.634 189.347C310.962 190.073 310.209 190.624 309.376 191C308.57 191.376 307.656 191.565 306.634 191.565ZM288.61 191L292.924 175.597C293.247 174.495 293.301 173.634 293.086 173.016C292.871 172.398 292.387 172.089 291.634 172.089C291.07 172.089 290.519 172.317 289.981 172.774C289.47 173.204 288.986 173.863 288.529 174.75L287.763 176.161H286.191L287.118 174.427C287.656 173.406 288.247 172.532 288.892 171.806C289.564 171.081 290.317 170.53 291.15 170.153C291.984 169.777 292.898 169.589 293.892 169.589C295.236 169.589 296.298 169.898 297.078 170.516C297.857 171.108 298.341 171.954 298.529 173.056C298.744 174.132 298.65 175.409 298.247 176.887L294.295 191H288.61ZM324.061 191.565C322.395 191.565 320.916 191.336 319.626 190.879C318.336 190.422 317.328 189.79 316.602 188.984C315.876 188.177 315.513 187.263 315.513 186.242C315.513 185.328 315.768 184.589 316.279 184.024C316.817 183.46 317.529 183.177 318.416 183.177C319.169 183.177 319.747 183.392 320.15 183.823C320.58 184.226 320.809 184.804 320.836 185.556C320.836 186.04 320.768 186.538 320.634 187.048C320.5 187.532 320.432 187.935 320.432 188.258C320.459 188.849 320.755 189.293 321.319 189.589C321.884 189.884 322.69 190.032 323.739 190.032C325.137 190.032 326.225 189.763 327.005 189.226C327.785 188.661 328.174 187.895 328.174 186.927C328.174 186.175 327.959 185.516 327.529 184.952C327.099 184.36 326.548 183.823 325.876 183.339C325.231 182.828 324.532 182.317 323.779 181.806C323.026 181.296 322.314 180.758 321.642 180.194C320.97 179.602 320.419 178.944 319.989 178.218C319.586 177.492 319.384 176.659 319.384 175.718C319.384 173.863 320.177 172.384 321.763 171.282C323.376 170.153 325.432 169.589 327.932 169.589C329.492 169.589 330.862 169.804 332.045 170.234C333.255 170.664 334.196 171.255 334.868 172.008C335.567 172.734 335.916 173.567 335.916 174.508C335.916 175.315 335.674 175.973 335.19 176.484C334.707 176.995 334.075 177.25 333.295 177.25C332.623 177.25 332.072 177.062 331.642 176.685C331.239 176.309 331.037 175.812 331.037 175.194C331.037 174.79 331.091 174.36 331.198 173.903C331.333 173.419 331.387 173.03 331.36 172.734C331.36 172.196 331.104 171.793 330.594 171.524C330.083 171.255 329.357 171.121 328.416 171.121C327.233 171.121 326.306 171.376 325.634 171.887C324.962 172.371 324.626 173.043 324.626 173.903C324.626 174.602 324.841 175.247 325.271 175.839C325.701 176.403 326.239 176.941 326.884 177.452C327.556 177.935 328.268 178.446 329.021 178.984C329.774 179.495 330.473 180.046 331.118 180.637C331.79 181.202 332.341 181.86 332.771 182.613C333.201 183.339 333.416 184.185 333.416 185.153C333.416 186.444 333.013 187.573 332.207 188.54C331.4 189.481 330.298 190.22 328.9 190.758C327.502 191.296 325.889 191.565 324.061 191.565Z" fill="#3E3636"/>
</svg>
