<svg width="1777" height="569" viewBox="0 0 1777 569" fill="none" xmlns="http://www.w3.org/2000/svg">
<rect width="1777" height="569" fill="#B8B8B8"/>
<path d="M566.879 321L585.121 255.685C585.82 253.239 585.995 251.317 585.645 249.919C585.366 248.522 584.387 247.543 582.71 246.984C581.102 246.355 578.586 246.04 575.161 246.04L576.315 241.952C581.556 241.882 586.204 241.497 590.258 240.798C594.382 240.03 598.121 238.981 601.476 237.653L578.202 321H566.879ZM611.331 322.468C608.185 322.468 605.704 321.734 603.887 320.266C602.14 318.728 601.056 316.632 600.637 313.976C600.288 311.25 600.602 308.175 601.581 304.75L606.927 285.565C608.185 281.091 608.325 277.667 607.347 275.29C606.438 272.914 604.411 271.726 601.266 271.726C598.89 271.726 596.688 272.46 594.661 273.927C592.634 275.395 590.782 277.562 589.105 280.427L588.895 277.806C591.202 273.683 593.823 270.608 596.758 268.581C599.763 266.554 603.083 265.54 606.718 265.54C611.89 265.54 615.524 267.427 617.621 271.202C619.718 274.976 619.892 279.973 618.145 286.194L612.379 306.847C611.54 309.782 611.366 312.089 611.855 313.766C612.414 315.444 613.637 316.282 615.524 316.282C617.132 316.282 618.599 315.688 619.927 314.5C621.325 313.312 622.653 311.565 623.911 309.258L625.903 305.484H629.992L627.581 309.992C626.253 312.508 624.785 314.71 623.177 316.597C621.57 318.484 619.788 319.952 617.831 321C615.944 321.978 613.777 322.468 611.331 322.468ZM655.629 322.468C649.968 322.468 645.565 320.72 642.419 317.226C639.274 313.661 637.702 308.699 637.702 302.339C637.702 297.446 638.575 292.798 640.323 288.395C642.07 283.992 644.411 280.078 647.347 276.653C650.352 273.159 653.777 270.433 657.621 268.476C661.535 266.519 665.624 265.54 669.887 265.54C673.871 265.54 676.911 266.414 679.008 268.161C681.175 269.909 682.258 272.425 682.258 275.71C682.258 279.484 680.825 283.083 677.96 286.508C675.164 289.863 671.18 292.868 666.008 295.524C660.906 298.11 654.86 300.172 647.871 301.71L647.976 298.355C653.148 296.817 657.551 294.895 661.186 292.589C664.82 290.282 667.581 287.696 669.468 284.831C671.355 281.965 672.298 278.925 672.298 275.71C672.298 273.613 671.914 272.04 671.145 270.992C670.376 269.944 669.258 269.419 667.79 269.419C665.624 269.419 663.422 270.398 661.186 272.355C659.019 274.242 657.027 276.758 655.21 279.903C653.462 282.978 652.03 286.403 650.911 290.177C649.863 293.882 649.339 297.586 649.339 301.29C649.339 306.183 650.247 309.957 652.065 312.613C653.952 315.199 656.608 316.492 660.032 316.492C662.898 316.492 665.484 315.653 667.79 313.976C670.097 312.298 672.194 309.747 674.081 306.323H677.96C675.444 311.634 672.298 315.653 668.524 318.379C664.75 321.105 660.452 322.468 655.629 322.468ZM696.331 321L707.549 281.056C708.388 278.121 708.527 275.849 707.968 274.242C707.409 272.565 706.186 271.726 704.299 271.726C702.761 271.726 701.293 272.32 699.896 273.508C698.568 274.696 697.275 276.444 696.017 278.75L694.025 282.524H689.936L692.347 278.016C693.675 275.5 695.108 273.298 696.646 271.411C698.253 269.524 700.035 268.091 701.992 267.113C704.019 266.065 706.221 265.54 708.597 265.54C711.742 265.54 714.189 266.309 715.936 267.847C717.683 269.315 718.767 271.376 719.186 274.032C719.605 276.688 719.326 279.763 718.347 283.258L707.759 321H696.331ZM733.968 286.298C732.64 286.298 731.592 285.914 730.823 285.145C730.124 284.376 729.775 283.398 729.775 282.21C729.775 281.022 730.054 279.903 730.613 278.855C731.172 277.806 731.697 276.793 732.186 275.815C732.745 274.836 733.025 273.962 733.025 273.194C733.025 271.935 732.116 271.306 730.299 271.306C728.272 271.306 726.14 272.11 723.904 273.718C721.667 275.325 719.78 277.492 718.242 280.218L718.033 277.282C720.06 273.508 722.506 270.608 725.371 268.581C728.237 266.554 731.312 265.54 734.597 265.54C737.323 265.54 739.42 266.239 740.888 267.637C742.425 269.035 743.194 271.062 743.194 273.718C743.194 275.815 742.74 277.841 741.831 279.798C740.992 281.755 739.874 283.328 738.476 284.516C737.078 285.704 735.576 286.298 733.968 286.298ZM768.021 322.468C762.29 322.468 757.817 320.651 754.602 317.016C751.457 313.382 749.884 308.28 749.884 301.71C749.884 296.887 750.688 292.309 752.295 287.976C753.973 283.573 756.244 279.694 759.11 276.339C762.045 272.984 765.365 270.363 769.069 268.476C772.774 266.519 776.723 265.54 780.916 265.54C786.647 265.54 791.121 267.392 794.336 271.097C797.551 274.731 799.158 279.798 799.158 286.298C799.158 291.121 798.319 295.734 796.642 300.137C795.035 304.47 792.763 308.315 789.828 311.669C786.962 315.024 783.642 317.68 779.868 319.637C776.164 321.524 772.215 322.468 768.021 322.468ZM768.755 318.379C770.642 318.379 772.494 317.75 774.311 316.492C776.199 315.164 777.946 313.382 779.553 311.145C781.161 308.839 782.594 306.218 783.852 303.282C785.11 300.277 786.088 297.097 786.787 293.742C787.486 290.317 787.836 286.892 787.836 283.468C787.836 278.855 787.172 275.395 785.844 273.089C784.586 270.712 782.733 269.524 780.287 269.524C778.4 269.524 776.513 270.188 774.626 271.516C772.809 272.844 771.096 274.661 769.489 276.968C767.881 279.204 766.449 281.825 765.19 284.831C763.932 287.766 762.954 290.946 762.255 294.371C761.556 297.726 761.207 301.116 761.207 304.54C761.207 309.153 761.836 312.613 763.094 314.919C764.422 317.226 766.309 318.379 768.755 318.379ZM855.194 322.468C852.049 322.468 849.533 321.699 847.646 320.161C845.759 318.554 844.606 316.422 844.186 313.766C843.767 311.04 844.186 308 845.444 304.645L853.832 281.161C854.88 278.366 855.09 276.094 854.461 274.347C853.901 272.599 852.643 271.726 850.686 271.726C849.149 271.726 847.681 272.32 846.283 273.508C844.885 274.626 843.557 276.374 842.299 278.75L840.307 282.524H836.324L838.63 278.016C840.936 273.613 843.383 270.433 845.969 268.476C848.625 266.519 851.595 265.54 854.88 265.54C858.025 265.54 860.541 266.309 862.428 267.847C864.315 269.384 865.469 271.516 865.888 274.242C866.307 276.898 865.853 279.938 864.525 283.363L856.138 306.847C855.16 309.642 854.95 311.914 855.509 313.661C856.068 315.409 857.361 316.282 859.388 316.282C862.463 316.282 865.224 313.941 867.67 309.258L869.662 305.484H873.751L871.34 309.992C869.033 314.395 866.587 317.575 864.001 319.532C861.485 321.489 858.549 322.468 855.194 322.468ZM863.582 255.161C861.485 255.161 859.738 254.497 858.34 253.169C856.942 251.772 856.243 250.059 856.243 248.032C856.243 245.866 857.047 244.013 858.654 242.476C860.332 240.868 862.324 240.065 864.63 240.065C866.727 240.065 868.439 240.763 869.767 242.161C871.165 243.489 871.864 245.167 871.864 247.194C871.864 249.36 871.025 251.247 869.348 252.855C867.74 254.392 865.818 255.161 863.582 255.161ZM957.659 322.468C954.514 322.468 952.032 321.734 950.215 320.266C948.468 318.728 947.42 316.632 947.07 313.976C946.721 311.25 947 308.175 947.909 304.75L953.36 285.355C954.618 280.882 954.793 277.492 953.885 275.185C952.976 272.879 950.984 271.726 947.909 271.726C945.532 271.726 943.261 272.495 941.094 274.032C938.997 275.5 937.075 277.667 935.328 280.532L935.014 278.016C937.32 273.892 939.976 270.782 942.981 268.685C945.987 266.589 949.342 265.54 953.046 265.54C956.471 265.54 959.231 266.414 961.328 268.161C963.425 269.839 964.753 272.25 965.312 275.395C965.941 278.47 965.661 282.07 964.473 286.194L958.707 306.847C957.868 309.852 957.694 312.194 958.183 313.871C958.742 315.478 959.965 316.282 961.852 316.282C963.46 316.282 964.928 315.723 966.256 314.605C967.653 313.417 968.981 311.634 970.239 309.258L972.231 305.484H976.32L973.909 309.992C972.581 312.508 971.113 314.71 969.506 316.597C967.898 318.484 966.116 319.952 964.159 321C962.272 321.978 960.105 322.468 957.659 322.468ZM885.11 321L896.328 281.056C897.167 278.191 897.307 275.919 896.747 274.242C896.258 272.565 895.035 271.726 893.078 271.726C891.61 271.726 890.178 272.32 888.78 273.508C887.382 274.626 886.054 276.374 884.796 278.75L882.804 282.524H878.715L881.127 278.016C882.454 275.5 883.887 273.298 885.425 271.411C887.032 269.524 888.815 268.091 890.772 267.113C892.729 266.065 894.93 265.54 897.377 265.54C900.522 265.54 902.968 266.309 904.715 267.847C906.463 269.315 907.546 271.376 907.965 274.032C908.385 276.688 908.105 279.763 907.127 283.258L896.538 321H885.11ZM914.885 321L924.844 285.355C926.102 280.882 926.242 277.492 925.264 275.185C924.355 272.879 922.398 271.726 919.393 271.726C917.016 271.726 914.745 272.46 912.578 273.927C910.481 275.395 908.559 277.597 906.812 280.532L906.497 278.016C908.804 273.892 911.46 270.782 914.465 268.685C917.54 266.589 920.895 265.54 924.53 265.54C927.954 265.54 930.715 266.414 932.812 268.161C934.979 269.839 936.342 272.215 936.901 275.29C937.46 278.366 937.145 282 935.957 286.194L926.207 321H914.885ZM999.778 322.468C995.025 322.468 991.216 320.685 988.35 317.121C985.555 313.487 984.157 308.594 984.157 302.444C984.157 297.621 984.961 293.008 986.568 288.605C988.245 284.202 990.482 280.288 993.278 276.863C996.143 273.368 999.358 270.608 1002.92 268.581C1006.56 266.554 1010.33 265.54 1014.25 265.54C1017.53 265.54 1020.64 266.309 1023.58 267.847C1026.51 269.315 1029.17 271.481 1031.54 274.347L1023.68 279.903C1023.19 276.618 1022.14 274.102 1020.54 272.355C1019 270.538 1017.08 269.629 1014.77 269.629C1012.32 269.629 1009.95 270.503 1007.64 272.25C1005.4 273.997 1003.38 276.374 1001.56 279.379C999.743 282.384 998.31 285.774 997.262 289.548C996.283 293.323 995.794 297.272 995.794 301.395C995.794 306.078 996.563 309.677 998.1 312.194C999.708 314.64 1001.98 315.863 1004.91 315.863C1007.08 315.863 1009.07 315.199 1010.89 313.871C1012.78 312.473 1014.46 310.411 1015.92 307.685L1016.24 310.306C1014.35 314.22 1012.01 317.226 1009.21 319.323C1006.49 321.419 1003.34 322.468 999.778 322.468ZM1025.46 322.468C1020.99 322.468 1017.84 320.895 1016.03 317.75C1014.28 314.535 1014.18 310.202 1015.71 304.75L1024.41 273.613C1027 272.634 1029.45 271.446 1031.75 270.048C1034.13 268.651 1036.3 267.043 1038.25 265.226L1040.56 268.371C1039.37 269.349 1038.39 270.328 1037.62 271.306C1036.93 272.285 1036.3 273.368 1035.74 274.556C1035.25 275.745 1034.76 277.212 1034.27 278.96L1026.51 306.847C1025.67 309.852 1025.53 312.194 1026.09 313.871C1026.72 315.478 1027.98 316.282 1029.87 316.282C1030.98 316.282 1032.03 315.968 1033.01 315.339C1033.99 314.71 1034.9 313.871 1035.74 312.823C1036.58 311.774 1037.34 310.586 1038.04 309.258L1040.04 305.484H1044.12L1041.4 310.621C1040.21 312.927 1038.85 314.989 1037.31 316.806C1035.77 318.554 1034.03 319.952 1032.07 321C1030.18 321.978 1027.98 322.468 1025.46 322.468ZM1067.98 346.056C1063.37 346.056 1059.31 345.532 1055.82 344.484C1052.32 343.435 1049.6 341.933 1047.64 339.976C1045.75 338.089 1044.81 335.887 1044.81 333.371C1044.81 330.296 1046.21 327.36 1049 324.565C1051.87 321.839 1055.99 319.462 1061.37 317.435L1063.47 318.903C1060.82 320.371 1058.75 322.153 1057.29 324.25C1055.89 326.417 1055.19 328.618 1055.19 330.855C1055.19 334.14 1056.62 336.761 1059.49 338.718C1062.35 340.675 1066.2 341.653 1071.02 341.653C1074.44 341.653 1077.48 341.059 1080.14 339.871C1082.8 338.753 1084.86 337.145 1086.33 335.048C1087.86 332.952 1088.63 330.575 1088.63 327.919C1088.63 325.473 1087.86 323.656 1086.33 322.468C1084.86 321.28 1082.59 320.685 1079.51 320.685H1069.45C1065.95 320.685 1063.16 319.987 1061.06 318.589C1058.96 317.121 1057.91 315.094 1057.91 312.508C1057.91 310.411 1058.72 308.28 1060.33 306.113C1061.93 303.946 1064.38 301.64 1067.66 299.194L1069.45 300.347C1067.91 301.745 1066.83 302.933 1066.2 303.911C1065.57 304.89 1065.25 305.868 1065.25 306.847C1065.25 308.105 1065.74 309.048 1066.72 309.677C1067.77 310.237 1069.41 310.516 1071.65 310.516H1082.55C1087.58 310.516 1091.46 311.704 1094.19 314.081C1096.91 316.387 1098.28 319.672 1098.28 323.935C1098.28 328.199 1096.98 332.008 1094.4 335.363C1091.81 338.718 1088.21 341.339 1083.6 343.226C1079.06 345.113 1073.85 346.056 1067.98 346.056ZM1074.48 302.024C1069.38 302.024 1065.32 300.626 1062.32 297.831C1059.31 295.035 1057.81 291.191 1057.81 286.298C1057.81 282.315 1058.75 278.785 1060.64 275.71C1062.53 272.565 1065.11 270.083 1068.4 268.266C1071.75 266.449 1075.49 265.54 1079.62 265.54C1084.79 265.54 1088.84 266.973 1091.78 269.839C1094.78 272.634 1096.29 276.513 1096.29 281.476C1096.29 285.39 1095.34 288.919 1093.46 292.065C1091.57 295.14 1088.98 297.586 1085.7 299.403C1082.48 301.151 1078.74 302.024 1074.48 302.024ZM1074.79 297.935C1076.33 297.935 1077.8 297.446 1079.2 296.468C1080.59 295.489 1081.82 294.126 1082.87 292.379C1083.91 290.632 1084.72 288.64 1085.28 286.403C1085.91 284.097 1086.22 281.72 1086.22 279.274C1086.22 276.059 1085.63 273.648 1084.44 272.04C1083.32 270.433 1081.64 269.629 1079.41 269.629C1077.8 269.629 1076.3 270.083 1074.9 270.992C1073.5 271.901 1072.28 273.194 1071.23 274.871C1070.18 276.548 1069.34 278.505 1068.71 280.742C1068.15 282.909 1067.87 285.25 1067.87 287.766C1067.87 291.121 1068.47 293.672 1069.66 295.419C1070.84 297.097 1072.56 297.935 1074.79 297.935ZM1107.08 280.532C1105.83 280.532 1104.81 280.218 1104.04 279.589C1103.34 278.89 1103 277.981 1103 276.863C1103 276.094 1103.14 275.395 1103.41 274.766C1103.76 274.137 1104.08 273.543 1104.36 272.984C1104.64 272.425 1104.78 271.901 1104.78 271.411C1104.78 270.782 1104.53 270.328 1104.04 270.048C1103.62 269.769 1102.93 269.629 1101.95 269.629C1100.48 269.629 1098.98 270.013 1097.44 270.782C1095.9 271.481 1094.43 272.53 1093.04 273.927L1091.88 272.145C1093.56 269.978 1095.45 268.336 1097.54 267.218C1099.64 266.099 1101.88 265.54 1104.25 265.54C1107.05 265.54 1109.25 266.239 1110.86 267.637C1112.47 269.035 1113.27 270.922 1113.27 273.298C1113.27 275.395 1112.68 277.142 1111.49 278.54C1110.3 279.868 1108.83 280.532 1107.08 280.532ZM1135.64 322.468C1129.98 322.468 1125.57 320.72 1122.43 317.226C1119.28 313.661 1117.71 308.699 1117.71 302.339C1117.71 297.446 1118.59 292.798 1120.33 288.395C1122.08 283.992 1124.42 280.078 1127.36 276.653C1130.36 273.159 1133.79 270.433 1137.63 268.476C1141.54 266.519 1145.63 265.54 1149.9 265.54C1153.88 265.54 1156.92 266.414 1159.02 268.161C1161.18 269.909 1162.27 272.425 1162.27 275.71C1162.27 279.484 1160.84 283.083 1157.97 286.508C1155.17 289.863 1151.19 292.868 1146.02 295.524C1140.92 298.11 1134.87 300.172 1127.88 301.71L1127.99 298.355C1133.16 296.817 1137.56 294.895 1141.2 292.589C1144.83 290.282 1147.59 287.696 1149.48 284.831C1151.36 281.965 1152.31 278.925 1152.31 275.71C1152.31 273.613 1151.92 272.04 1151.15 270.992C1150.39 269.944 1149.27 269.419 1147.8 269.419C1145.63 269.419 1143.43 270.398 1141.2 272.355C1139.03 274.242 1137.04 276.758 1135.22 279.903C1133.47 282.978 1132.04 286.403 1130.92 290.177C1129.87 293.882 1129.35 297.586 1129.35 301.29C1129.35 306.183 1130.26 309.957 1132.07 312.613C1133.96 315.199 1136.62 316.492 1140.04 316.492C1142.91 316.492 1145.49 315.653 1147.8 313.976C1150.11 312.298 1152.2 309.747 1154.09 306.323H1157.97C1155.45 311.634 1152.31 315.653 1148.53 318.379C1144.76 321.105 1140.46 322.468 1135.64 322.468Z" fill="#696969"/>
</svg>
