<svg width="307" height="403" viewBox="0 0 307 403" fill="none" xmlns="http://www.w3.org/2000/svg">
<rect x="0.452148" width="305.855" height="403" fill="#B8B8B8"/>
<path d="M113.814 179.902L114.346 178.015C115.927 177.918 117.088 177.757 117.83 177.531C118.604 177.273 119.153 176.87 119.475 176.322C119.83 175.741 120.153 174.918 120.443 173.854L126.636 151.693C126.959 150.531 127.072 149.677 126.975 149.128C126.911 148.548 126.556 148.144 125.911 147.918C125.265 147.693 124.249 147.564 122.862 147.531L123.394 145.644C124.169 145.677 125.217 145.709 126.54 145.741C127.862 145.773 129.346 145.789 130.991 145.789C132.765 145.789 134.394 145.773 135.878 145.741C137.362 145.709 138.572 145.677 139.507 145.644L138.975 147.531C137.33 147.596 136.072 147.741 135.201 147.967C134.362 148.193 133.733 148.596 133.314 149.177C132.927 149.725 132.572 150.564 132.249 151.693L126.056 173.854C125.765 174.983 125.669 175.838 125.765 176.418C125.862 176.999 126.282 177.402 127.024 177.628C127.765 177.822 128.927 177.951 130.507 178.015L129.975 179.902C129.072 179.838 127.894 179.806 126.443 179.806C125.024 179.773 123.427 179.757 121.653 179.757C119.975 179.757 118.459 179.773 117.104 179.806C115.749 179.806 114.653 179.838 113.814 179.902ZM91.6526 179.902L92.1848 178.015C93.8945 177.918 95.1687 177.773 96.0074 177.58C96.8461 177.354 97.459 176.967 97.8461 176.418C98.2655 175.838 98.6364 174.983 98.959 173.854L105.104 151.693C105.427 150.531 105.54 149.677 105.443 149.128C105.346 148.58 104.927 148.193 104.185 147.967C103.475 147.709 102.314 147.564 100.701 147.531L101.233 145.644C102.104 145.677 103.249 145.709 104.669 145.741C106.088 145.773 107.701 145.789 109.507 145.789C111.153 145.789 112.653 145.773 114.007 145.741C115.362 145.709 116.491 145.677 117.394 145.644L116.862 147.531C115.282 147.596 114.104 147.757 113.33 148.015C112.588 148.273 112.04 148.677 111.685 149.225C111.362 149.773 111.056 150.596 110.765 151.693L104.572 173.854C104.249 174.983 104.12 175.838 104.185 176.418C104.282 176.999 104.653 177.402 105.298 177.628C105.943 177.822 106.959 177.951 108.346 178.015L107.814 179.902C107.007 179.838 105.927 179.806 104.572 179.806C103.249 179.773 101.782 179.757 100.169 179.757C98.33 179.757 96.6848 179.773 95.2332 179.806C93.7816 179.806 92.588 179.838 91.6526 179.902ZM105.927 163.596L106.459 161.757H125.088L124.507 163.596H105.927ZM145.96 180.58C143.347 180.58 141.315 179.773 139.863 178.16C138.412 176.515 137.686 174.225 137.686 171.289C137.686 169.031 138.089 166.886 138.895 164.854C139.702 162.822 140.782 161.015 142.137 159.435C143.524 157.822 145.105 156.564 146.879 155.66C148.686 154.757 150.573 154.306 152.541 154.306C154.379 154.306 155.782 154.709 156.75 155.515C157.75 156.322 158.25 157.483 158.25 158.999C158.25 160.741 157.589 162.402 156.266 163.983C154.976 165.531 153.137 166.918 150.75 168.144C148.395 169.338 145.605 170.289 142.379 170.999L142.428 169.451C144.815 168.741 146.847 167.854 148.524 166.789C150.202 165.725 151.476 164.531 152.347 163.209C153.218 161.886 153.653 160.483 153.653 158.999C153.653 158.031 153.476 157.306 153.121 156.822C152.766 156.338 152.25 156.096 151.573 156.096C150.573 156.096 149.557 156.548 148.524 157.451C147.524 158.322 146.605 159.483 145.766 160.935C144.96 162.354 144.299 163.935 143.782 165.677C143.299 167.386 143.057 169.096 143.057 170.806C143.057 173.064 143.476 174.806 144.315 176.031C145.186 177.225 146.412 177.822 147.992 177.822C149.315 177.822 150.508 177.435 151.573 176.66C152.637 175.886 153.605 174.709 154.476 173.128H156.266C155.105 175.58 153.653 177.435 151.912 178.693C150.17 179.951 148.186 180.58 145.96 180.58ZM164.745 179.902L169.923 161.467C170.31 160.112 170.374 159.064 170.116 158.322C169.858 157.548 169.294 157.16 168.423 157.16C167.713 157.16 167.036 157.435 166.391 157.983C165.778 158.531 165.181 159.338 164.6 160.402L163.681 162.144H161.794L162.907 160.064C163.52 158.902 164.181 157.886 164.891 157.015C165.633 156.144 166.455 155.483 167.358 155.031C168.294 154.548 169.31 154.306 170.407 154.306C171.858 154.306 172.987 154.66 173.794 155.37C174.6 156.048 175.1 156.999 175.294 158.225C175.487 159.451 175.358 160.87 174.907 162.483L170.02 179.902H164.745ZM182.116 163.886C181.503 163.886 181.02 163.709 180.665 163.354C180.342 162.999 180.181 162.548 180.181 161.999C180.181 161.451 180.31 160.935 180.568 160.451C180.826 159.967 181.068 159.499 181.294 159.048C181.552 158.596 181.681 158.193 181.681 157.838C181.681 157.257 181.262 156.967 180.423 156.967C179.487 156.967 178.503 157.338 177.471 158.08C176.439 158.822 175.568 159.822 174.858 161.08L174.762 159.725C175.697 157.983 176.826 156.644 178.149 155.709C179.471 154.773 180.891 154.306 182.407 154.306C183.665 154.306 184.633 154.628 185.31 155.273C186.02 155.918 186.374 156.854 186.374 158.08C186.374 159.048 186.165 159.983 185.745 160.886C185.358 161.789 184.842 162.515 184.197 163.064C183.552 163.612 182.858 163.886 182.116 163.886ZM197.833 180.58C195.188 180.58 193.123 179.741 191.64 178.064C190.188 176.386 189.462 174.031 189.462 170.999C189.462 168.773 189.833 166.66 190.575 164.66C191.349 162.628 192.398 160.838 193.72 159.289C195.075 157.741 196.607 156.531 198.317 155.66C200.027 154.757 201.849 154.306 203.785 154.306C206.43 154.306 208.494 155.16 209.978 156.87C211.462 158.548 212.204 160.886 212.204 163.886C212.204 166.112 211.817 168.241 211.043 170.273C210.301 172.273 209.252 174.048 207.898 175.596C206.575 177.144 205.043 178.37 203.301 179.273C201.591 180.144 199.769 180.58 197.833 180.58ZM198.172 178.693C199.043 178.693 199.898 178.402 200.736 177.822C201.607 177.209 202.414 176.386 203.156 175.354C203.898 174.289 204.559 173.08 205.14 171.725C205.72 170.338 206.172 168.87 206.494 167.322C206.817 165.741 206.978 164.16 206.978 162.58C206.978 160.451 206.672 158.854 206.059 157.789C205.478 156.693 204.623 156.144 203.494 156.144C202.623 156.144 201.752 156.451 200.882 157.064C200.043 157.677 199.252 158.515 198.511 159.58C197.769 160.612 197.107 161.822 196.527 163.209C195.946 164.564 195.494 166.031 195.172 167.612C194.849 169.16 194.688 170.725 194.688 172.306C194.688 174.435 194.978 176.031 195.559 177.096C196.172 178.16 197.043 178.693 198.172 178.693ZM74.7483 251.902L75.2805 250.015C76.9579 249.918 78.216 249.773 79.0547 249.58C79.9257 249.354 80.5547 248.967 80.9418 248.418C81.3612 247.838 81.7321 246.983 82.0547 245.854L88.1999 223.693C88.5225 222.531 88.6354 221.677 88.5386 221.128C88.4418 220.58 88.0225 220.193 87.2805 219.967C86.5708 219.709 85.4096 219.564 83.7967 219.531L84.3289 217.644C85.2967 217.677 86.4902 217.709 87.9096 217.741C89.3289 217.773 90.8934 217.789 92.6031 217.789C94.3128 217.789 95.8934 217.773 97.345 217.741C98.8289 217.709 100.087 217.677 101.119 217.644L100.587 219.531C98.9418 219.596 97.6838 219.741 96.8128 219.967C95.9741 220.193 95.345 220.58 94.9257 221.128C94.5386 221.677 94.1838 222.531 93.8612 223.693L87.6676 245.854C87.345 246.983 87.2321 247.838 87.3289 248.418C87.4579 248.999 87.8773 249.402 88.587 249.628C89.3289 249.822 90.4902 249.951 92.0708 250.015L91.5386 251.902C90.6031 251.838 89.4096 251.806 87.9579 251.806C86.5063 251.773 84.9418 251.757 83.2644 251.757C81.5225 251.757 79.9096 251.773 78.4257 251.806C76.9741 251.806 75.7483 251.838 74.7483 251.902ZM134.626 252.58C133.174 252.58 132.029 252.241 131.19 251.564C130.384 250.854 129.9 249.886 129.739 248.66C129.577 247.402 129.706 245.983 130.126 244.402L132.642 235.451C133.223 233.386 133.303 231.822 132.884 230.757C132.464 229.693 131.545 229.16 130.126 229.16C129.029 229.16 127.981 229.515 126.981 230.225C126.013 230.902 125.126 231.902 124.319 233.225L124.174 232.064C125.239 230.16 126.464 228.725 127.852 227.757C129.239 226.789 130.787 226.306 132.497 226.306C134.077 226.306 135.352 226.709 136.319 227.515C137.287 228.289 137.9 229.402 138.158 230.854C138.448 232.273 138.319 233.935 137.771 235.838L135.11 245.37C134.723 246.757 134.642 247.838 134.868 248.612C135.126 249.354 135.69 249.725 136.561 249.725C137.303 249.725 137.981 249.467 138.594 248.951C139.239 248.402 139.852 247.58 140.432 246.483L141.352 244.741H143.239L142.126 246.822C141.513 247.983 140.835 248.999 140.094 249.87C139.352 250.741 138.529 251.418 137.626 251.902C136.755 252.354 135.755 252.58 134.626 252.58ZM101.142 251.902L106.319 233.467C106.706 232.144 106.771 231.096 106.513 230.322C106.287 229.548 105.723 229.16 104.819 229.16C104.142 229.16 103.481 229.435 102.835 229.983C102.19 230.499 101.577 231.306 100.997 232.402L100.077 234.144H98.1903L99.3032 232.064C99.9161 230.902 100.577 229.886 101.287 229.015C102.029 228.144 102.852 227.483 103.755 227.031C104.658 226.548 105.674 226.306 106.803 226.306C108.255 226.306 109.384 226.66 110.19 227.37C110.997 228.048 111.497 228.999 111.69 230.225C111.884 231.451 111.755 232.87 111.303 234.483L106.416 251.902H101.142ZM114.884 251.902L119.481 235.451C120.061 233.386 120.126 231.822 119.674 230.757C119.255 229.693 118.352 229.16 116.964 229.16C115.868 229.16 114.819 229.499 113.819 230.177C112.852 230.854 111.964 231.87 111.158 233.225L111.013 232.064C112.077 230.16 113.303 228.725 114.69 227.757C116.11 226.789 117.658 226.306 119.335 226.306C120.916 226.306 122.19 226.709 123.158 227.515C124.158 228.289 124.787 229.386 125.045 230.806C125.303 232.225 125.158 233.902 124.61 235.838L120.11 251.902H114.884ZM154.065 252.58C151.872 252.58 150.114 251.757 148.791 250.112C147.501 248.435 146.856 246.177 146.856 243.338C146.856 241.112 147.227 238.983 147.969 236.951C148.743 234.918 149.775 233.112 151.065 231.531C152.388 229.918 153.872 228.644 155.517 227.709C157.194 226.773 158.936 226.306 160.743 226.306C162.259 226.306 163.694 226.66 165.049 227.37C166.404 228.048 167.63 229.048 168.727 230.37L165.098 232.935C164.872 231.418 164.388 230.257 163.646 229.451C162.936 228.612 162.049 228.193 160.985 228.193C159.856 228.193 158.759 228.596 157.694 229.402C156.662 230.209 155.727 231.306 154.888 232.693C154.049 234.08 153.388 235.644 152.904 237.386C152.452 239.128 152.227 240.951 152.227 242.854C152.227 245.015 152.581 246.677 153.291 247.838C154.033 248.967 155.081 249.531 156.436 249.531C157.436 249.531 158.356 249.225 159.194 248.612C160.065 247.967 160.839 247.015 161.517 245.757L161.662 246.967C160.791 248.773 159.71 250.16 158.42 251.128C157.162 252.096 155.71 252.58 154.065 252.58ZM165.92 252.58C163.856 252.58 162.404 251.854 161.565 250.402C160.759 248.918 160.71 246.918 161.42 244.402L165.436 230.031C166.63 229.58 167.759 229.031 168.823 228.386C169.92 227.741 170.92 226.999 171.823 226.16L172.888 227.612C172.339 228.064 171.888 228.515 171.533 228.967C171.21 229.418 170.92 229.918 170.662 230.467C170.436 231.015 170.21 231.693 169.985 232.499L166.404 245.37C166.017 246.757 165.952 247.838 166.21 248.612C166.501 249.354 167.081 249.725 167.952 249.725C168.469 249.725 168.952 249.58 169.404 249.289C169.856 248.999 170.275 248.612 170.662 248.128C171.049 247.644 171.404 247.096 171.727 246.483L172.646 244.741H174.533L173.275 247.112C172.727 248.177 172.098 249.128 171.388 249.967C170.678 250.773 169.872 251.418 168.969 251.902C168.098 252.354 167.081 252.58 165.92 252.58ZM185.543 263.467C183.414 263.467 181.543 263.225 179.93 262.741C178.317 262.257 177.059 261.564 176.156 260.66C175.285 259.789 174.849 258.773 174.849 257.612C174.849 256.193 175.495 254.838 176.785 253.548C178.108 252.289 180.011 251.193 182.495 250.257L183.462 250.935C182.237 251.612 181.285 252.435 180.608 253.402C179.962 254.402 179.64 255.418 179.64 256.451C179.64 257.967 180.301 259.177 181.624 260.08C182.946 260.983 184.72 261.435 186.946 261.435C188.527 261.435 189.93 261.16 191.156 260.612C192.382 260.096 193.333 259.354 194.011 258.386C194.72 257.418 195.075 256.322 195.075 255.096C195.075 253.967 194.72 253.128 194.011 252.58C193.333 252.031 192.285 251.757 190.866 251.757H186.22C184.608 251.757 183.317 251.435 182.349 250.789C181.382 250.112 180.898 249.177 180.898 247.983C180.898 247.015 181.269 246.031 182.011 245.031C182.753 244.031 183.882 242.967 185.398 241.838L186.22 242.37C185.511 243.015 185.011 243.564 184.72 244.015C184.43 244.467 184.285 244.918 184.285 245.37C184.285 245.951 184.511 246.386 184.962 246.677C185.446 246.935 186.204 247.064 187.237 247.064H192.269C194.591 247.064 196.382 247.612 197.64 248.709C198.898 249.773 199.527 251.289 199.527 253.257C199.527 255.225 198.93 256.983 197.737 258.531C196.543 260.08 194.882 261.289 192.753 262.16C190.656 263.031 188.253 263.467 185.543 263.467ZM188.543 243.144C186.188 243.144 184.317 242.499 182.93 241.209C181.543 239.918 180.849 238.144 180.849 235.886C180.849 234.048 181.285 232.418 182.156 230.999C183.027 229.548 184.22 228.402 185.737 227.564C187.285 226.725 189.011 226.306 190.914 226.306C193.301 226.306 195.172 226.967 196.527 228.289C197.914 229.58 198.608 231.37 198.608 233.66C198.608 235.467 198.172 237.096 197.301 238.548C196.43 239.967 195.237 241.096 193.72 241.935C192.237 242.741 190.511 243.144 188.543 243.144ZM188.688 241.257C189.398 241.257 190.075 241.031 190.72 240.58C191.366 240.128 191.93 239.499 192.414 238.693C192.898 237.886 193.269 236.967 193.527 235.935C193.817 234.87 193.962 233.773 193.962 232.644C193.962 231.16 193.688 230.048 193.14 229.306C192.624 228.564 191.849 228.193 190.817 228.193C190.075 228.193 189.382 228.402 188.737 228.822C188.091 229.241 187.527 229.838 187.043 230.612C186.559 231.386 186.172 232.289 185.882 233.322C185.624 234.322 185.495 235.402 185.495 236.564C185.495 238.112 185.769 239.289 186.317 240.096C186.866 240.87 187.656 241.257 188.688 241.257ZM203.591 233.225C203.011 233.225 202.543 233.08 202.188 232.789C201.866 232.467 201.704 232.048 201.704 231.531C201.704 231.177 201.769 230.854 201.898 230.564C202.059 230.273 202.204 229.999 202.333 229.741C202.462 229.483 202.527 229.241 202.527 229.015C202.527 228.725 202.414 228.515 202.188 228.386C201.995 228.257 201.672 228.193 201.22 228.193C200.543 228.193 199.849 228.37 199.14 228.725C198.43 229.048 197.753 229.531 197.108 230.177L196.575 229.354C197.349 228.354 198.22 227.596 199.188 227.08C200.156 226.564 201.188 226.306 202.285 226.306C203.575 226.306 204.591 226.628 205.333 227.273C206.075 227.918 206.446 228.789 206.446 229.886C206.446 230.854 206.172 231.66 205.624 232.306C205.075 232.918 204.398 233.225 203.591 233.225ZM216.77 252.58C214.158 252.58 212.125 251.773 210.674 250.16C209.222 248.515 208.496 246.225 208.496 243.289C208.496 241.031 208.899 238.886 209.706 236.854C210.512 234.822 211.593 233.015 212.948 231.435C214.335 229.822 215.916 228.564 217.69 227.66C219.496 226.757 221.383 226.306 223.351 226.306C225.19 226.306 226.593 226.709 227.561 227.515C228.561 228.322 229.061 229.483 229.061 230.999C229.061 232.741 228.399 234.402 227.077 235.983C225.787 237.531 223.948 238.918 221.561 240.144C219.206 241.338 216.416 242.289 213.19 242.999L213.238 241.451C215.625 240.741 217.658 239.854 219.335 238.789C221.012 237.725 222.287 236.531 223.158 235.209C224.029 233.886 224.464 232.483 224.464 230.999C224.464 230.031 224.287 229.306 223.932 228.822C223.577 228.338 223.061 228.096 222.383 228.096C221.383 228.096 220.367 228.548 219.335 229.451C218.335 230.322 217.416 231.483 216.577 232.935C215.77 234.354 215.109 235.935 214.593 237.677C214.109 239.386 213.867 241.096 213.867 242.806C213.867 245.064 214.287 246.806 215.125 248.031C215.996 249.225 217.222 249.822 218.803 249.822C220.125 249.822 221.319 249.435 222.383 248.66C223.448 247.886 224.416 246.709 225.287 245.128H227.077C225.916 247.58 224.464 249.435 222.722 250.693C220.98 251.951 218.996 252.58 216.77 252.58ZM148.327 331.064C145.521 331.064 143.263 330.499 141.553 329.37C139.876 328.241 139.037 326.741 139.037 324.87C139.037 323.451 139.505 322.241 140.44 321.241C141.376 320.209 142.489 319.693 143.779 319.693C144.553 319.693 145.182 319.902 145.666 320.322C146.15 320.709 146.392 321.225 146.392 321.87C146.392 322.451 146.215 322.967 145.86 323.418C145.537 323.87 145.15 324.289 144.698 324.677C144.247 325.064 143.86 325.451 143.537 325.838C143.215 326.225 143.053 326.644 143.053 327.096C143.053 327.709 143.424 328.193 144.166 328.548C144.94 328.935 145.973 329.128 147.263 329.128C148.876 329.128 150.295 328.822 151.521 328.209C152.779 327.628 153.763 326.806 154.473 325.741C155.182 324.677 155.537 323.451 155.537 322.064C155.537 320.967 155.295 319.983 154.811 319.112C154.36 318.241 153.715 317.531 152.876 316.983L151.037 317.999L150.408 316.838C153.311 315.418 155.456 313.789 156.844 311.951C158.231 310.112 158.924 308.08 158.924 305.854C158.924 304.144 158.505 302.838 157.666 301.935C156.86 300.999 155.698 300.531 154.182 300.531C153.021 300.531 151.956 300.822 150.989 301.402C150.053 301.951 149.311 302.693 148.763 303.628C148.215 304.531 147.94 305.564 147.94 306.725C147.94 307.822 148.231 308.66 148.811 309.241C149.392 309.822 150.231 310.112 151.327 310.112C151.747 310.112 152.134 310.031 152.489 309.87C152.844 309.709 153.215 309.451 153.602 309.096L153.989 310.789C153.311 311.467 152.569 311.983 151.763 312.338C150.989 312.693 150.15 312.87 149.247 312.87C147.537 312.87 146.166 312.418 145.134 311.515C144.134 310.612 143.634 309.386 143.634 307.838C143.634 306.548 143.956 305.338 144.602 304.209C145.247 303.048 146.118 302.031 147.215 301.16C148.344 300.257 149.618 299.564 151.037 299.08C152.489 298.564 154.021 298.306 155.634 298.306C158.118 298.306 160.118 298.918 161.634 300.144C163.182 301.338 163.956 302.983 163.956 305.08C163.956 306.531 163.537 307.967 162.698 309.386C161.892 310.773 160.763 312.048 159.311 313.209C157.892 314.37 156.263 315.338 154.424 316.112C156.36 316.628 157.908 317.483 159.069 318.677C160.263 319.87 160.86 321.241 160.86 322.789C160.86 324.306 160.295 325.693 159.166 326.951C158.069 328.209 156.569 329.209 154.666 329.951C152.795 330.693 150.682 331.064 148.327 331.064Z" fill="#696969"/>
</svg>
