<svg width="1018" height="470" viewBox="0 0 1018 470" fill="none" xmlns="http://www.w3.org/2000/svg">
<rect width="1018" height="470" fill="#B8B8B8"/>
<path d="M351.203 243L351.824 240.798C353.668 240.685 355.022 240.497 355.888 240.234C356.791 239.933 357.431 239.462 357.807 238.823C358.221 238.145 358.598 237.185 358.936 235.944L366.162 210.089C366.539 208.734 366.67 207.737 366.557 207.097C366.482 206.419 366.068 205.949 365.315 205.685C364.563 205.422 363.377 205.272 361.759 205.234L362.38 203.032C363.283 203.07 364.506 203.108 366.049 203.145C367.592 203.183 369.324 203.202 371.243 203.202C373.313 203.202 375.213 203.183 376.945 203.145C378.676 203.108 380.087 203.07 381.178 203.032L380.557 205.234C378.638 205.309 377.17 205.478 376.154 205.742C375.176 206.005 374.442 206.476 373.953 207.153C373.501 207.793 373.087 208.772 372.711 210.089L365.485 235.944C365.146 237.261 365.033 238.258 365.146 238.935C365.259 239.613 365.748 240.083 366.614 240.347C367.479 240.573 368.834 240.723 370.678 240.798L370.057 243C369.004 242.925 367.63 242.887 365.936 242.887C364.281 242.849 362.418 242.831 360.348 242.831C358.391 242.831 356.622 242.849 355.041 242.887C353.461 242.887 352.181 242.925 351.203 243ZM325.348 243L325.969 240.798C327.963 240.685 329.45 240.516 330.428 240.29C331.407 240.027 332.122 239.575 332.574 238.935C333.063 238.258 333.496 237.261 333.872 235.944L341.041 210.089C341.418 208.734 341.549 207.737 341.436 207.097C341.324 206.457 340.834 206.005 339.969 205.742C339.141 205.441 337.786 205.272 335.904 205.234L336.525 203.032C337.541 203.07 338.877 203.108 340.533 203.145C342.189 203.183 344.071 203.202 346.178 203.202C348.098 203.202 349.848 203.183 351.428 203.145C353.009 203.108 354.326 203.07 355.38 203.032L354.759 205.234C352.915 205.309 351.541 205.497 350.638 205.798C349.772 206.099 349.133 206.57 348.719 207.21C348.342 207.849 347.985 208.809 347.646 210.089L340.42 235.944C340.044 237.261 339.893 238.258 339.969 238.935C340.082 239.613 340.514 240.083 341.267 240.347C342.02 240.573 343.205 240.723 344.824 240.798L344.203 243C343.262 242.925 342.001 242.887 340.42 242.887C338.877 242.849 337.165 242.831 335.283 242.831C333.138 242.831 331.219 242.849 329.525 242.887C327.832 242.887 326.439 242.925 325.348 243ZM342.001 223.976L342.622 221.831H364.356L363.678 223.976H342.001ZM388.706 243.79C385.658 243.79 383.287 242.849 381.593 240.968C379.9 239.048 379.053 236.376 379.053 232.952C379.053 230.317 379.524 227.815 380.464 225.444C381.405 223.073 382.666 220.965 384.247 219.121C385.865 217.239 387.709 215.772 389.779 214.718C391.886 213.664 394.088 213.137 396.384 213.137C398.529 213.137 400.166 213.608 401.295 214.548C402.462 215.489 403.045 216.844 403.045 218.613C403.045 220.645 402.274 222.583 400.73 224.427C399.225 226.234 397.08 227.852 394.295 229.282C391.548 230.675 388.292 231.785 384.529 232.613L384.585 230.806C387.37 229.978 389.741 228.944 391.698 227.702C393.655 226.46 395.142 225.067 396.158 223.524C397.174 221.981 397.682 220.344 397.682 218.613C397.682 217.484 397.475 216.637 397.061 216.073C396.647 215.508 396.045 215.226 395.255 215.226C394.088 215.226 392.903 215.753 391.698 216.806C390.532 217.823 389.459 219.177 388.48 220.871C387.54 222.527 386.768 224.371 386.166 226.403C385.601 228.398 385.319 230.392 385.319 232.387C385.319 235.022 385.808 237.054 386.787 238.484C387.803 239.876 389.233 240.573 391.077 240.573C392.62 240.573 394.013 240.121 395.255 239.218C396.497 238.315 397.626 236.941 398.642 235.097H400.73C399.376 237.957 397.682 240.121 395.65 241.589C393.618 243.056 391.303 243.79 388.706 243.79ZM410.623 243L416.663 221.492C417.115 219.911 417.19 218.688 416.889 217.823C416.588 216.919 415.929 216.468 414.913 216.468C414.085 216.468 413.295 216.788 412.542 217.427C411.827 218.067 411.131 219.008 410.453 220.25L409.381 222.282H407.179L408.478 219.855C409.193 218.5 409.964 217.315 410.792 216.298C411.658 215.282 412.617 214.511 413.671 213.984C414.763 213.419 415.948 213.137 417.228 213.137C418.921 213.137 420.238 213.551 421.179 214.379C422.12 215.169 422.703 216.28 422.929 217.71C423.155 219.14 423.004 220.796 422.478 222.677L416.776 243H410.623ZM430.889 224.315C430.174 224.315 429.609 224.108 429.195 223.694C428.819 223.28 428.631 222.753 428.631 222.113C428.631 221.473 428.781 220.871 429.082 220.306C429.384 219.742 429.666 219.196 429.929 218.669C430.23 218.142 430.381 217.672 430.381 217.258C430.381 216.581 429.892 216.242 428.913 216.242C427.822 216.242 426.674 216.675 425.47 217.54C424.265 218.406 423.249 219.573 422.421 221.04L422.308 219.46C423.4 217.427 424.717 215.866 426.26 214.774C427.803 213.683 429.459 213.137 431.228 213.137C432.695 213.137 433.824 213.513 434.615 214.266C435.443 215.019 435.857 216.11 435.857 217.54C435.857 218.669 435.612 219.761 435.123 220.815C434.671 221.868 434.069 222.715 433.316 223.355C432.564 223.995 431.754 224.315 430.889 224.315ZM449.225 243.79C446.139 243.79 443.73 242.812 441.999 240.855C440.306 238.898 439.459 236.151 439.459 232.613C439.459 230.016 439.892 227.551 440.757 225.218C441.661 222.847 442.884 220.758 444.427 218.952C446.007 217.145 447.795 215.734 449.79 214.718C451.784 213.664 453.911 213.137 456.169 213.137C459.255 213.137 461.663 214.134 463.394 216.129C465.126 218.086 465.991 220.815 465.991 224.315C465.991 226.911 465.54 229.395 464.636 231.766C463.771 234.099 462.548 236.169 460.967 237.976C459.424 239.782 457.636 241.212 455.604 242.266C453.609 243.282 451.483 243.79 449.225 243.79ZM449.62 241.589C450.636 241.589 451.634 241.25 452.612 240.573C453.628 239.858 454.569 238.898 455.435 237.694C456.3 236.452 457.072 235.04 457.749 233.46C458.427 231.841 458.954 230.129 459.33 228.323C459.706 226.478 459.894 224.634 459.894 222.79C459.894 220.306 459.537 218.444 458.822 217.202C458.144 215.922 457.147 215.282 455.83 215.282C454.814 215.282 453.798 215.64 452.782 216.355C451.803 217.07 450.881 218.048 450.015 219.29C449.15 220.495 448.378 221.906 447.701 223.524C447.023 225.105 446.497 226.817 446.12 228.661C445.744 230.468 445.556 232.293 445.556 234.137C445.556 236.621 445.894 238.484 446.572 239.726C447.287 240.968 448.303 241.589 449.62 241.589ZM483.463 243L484.084 240.798C486.041 240.685 487.509 240.516 488.487 240.29C489.503 240.027 490.237 239.575 490.689 238.935C491.178 238.258 491.611 237.261 491.987 235.944L499.157 210.089C499.533 208.734 499.665 207.737 499.552 207.097C499.439 206.457 498.95 206.005 498.084 205.742C497.256 205.441 495.901 205.272 494.019 205.234L494.64 203.032C495.769 203.07 497.162 203.108 498.818 203.145C500.474 203.183 502.299 203.202 504.294 203.202C506.288 203.202 508.132 203.183 509.826 203.145C511.557 203.108 513.025 203.07 514.229 203.032L513.608 205.234C511.689 205.309 510.221 205.478 509.205 205.742C508.226 206.005 507.493 206.457 507.003 207.097C506.552 207.737 506.138 208.734 505.761 210.089L498.536 235.944C498.159 237.261 498.028 238.258 498.14 238.935C498.291 239.613 498.78 240.083 499.608 240.347C500.474 240.573 501.829 240.723 503.673 240.798L503.052 243C501.96 242.925 500.568 242.887 498.874 242.887C497.181 242.849 495.355 242.831 493.398 242.831C491.366 242.831 489.484 242.849 487.753 242.887C486.06 242.887 484.63 242.925 483.463 243ZM553.32 243.79C551.627 243.79 550.291 243.395 549.312 242.605C548.371 241.777 547.807 240.648 547.618 239.218C547.43 237.75 547.581 236.094 548.07 234.25L551.006 223.806C551.683 221.398 551.777 219.573 551.288 218.331C550.799 217.089 549.726 216.468 548.07 216.468C546.791 216.468 545.567 216.882 544.401 217.71C543.272 218.5 542.237 219.667 541.296 221.21L541.127 219.855C542.368 217.634 543.799 215.96 545.417 214.831C547.035 213.702 548.842 213.137 550.836 213.137C552.68 213.137 554.167 213.608 555.296 214.548C556.425 215.452 557.14 216.75 557.441 218.444C557.78 220.099 557.629 222.038 556.989 224.258L553.885 235.379C553.433 236.997 553.339 238.258 553.602 239.161C553.903 240.027 554.562 240.46 555.578 240.46C556.444 240.46 557.234 240.159 557.949 239.556C558.702 238.917 559.417 237.957 560.094 236.677L561.167 234.645H563.368L562.07 237.073C561.355 238.427 560.565 239.613 559.699 240.629C558.834 241.645 557.874 242.435 556.82 243C555.804 243.527 554.637 243.79 553.32 243.79ZM514.256 243L520.296 221.492C520.748 219.949 520.823 218.726 520.522 217.823C520.258 216.919 519.6 216.468 518.546 216.468C517.756 216.468 516.984 216.788 516.231 217.427C515.479 218.03 514.764 218.97 514.086 220.25L513.014 222.282H510.812L512.11 219.855C512.825 218.5 513.597 217.315 514.425 216.298C515.291 215.282 516.25 214.511 517.304 213.984C518.358 213.419 519.543 213.137 520.86 213.137C522.554 213.137 523.871 213.551 524.812 214.379C525.753 215.169 526.336 216.28 526.562 217.71C526.788 219.14 526.637 220.796 526.11 222.677L520.409 243H514.256ZM530.288 243L535.651 223.806C536.328 221.398 536.403 219.573 535.877 218.331C535.387 217.089 534.334 216.468 532.715 216.468C531.436 216.468 530.213 216.863 529.046 217.653C527.917 218.444 526.882 219.629 525.941 221.21L525.772 219.855C527.014 217.634 528.444 215.96 530.062 214.831C531.718 213.702 533.524 213.137 535.481 213.137C537.325 213.137 538.812 213.608 539.941 214.548C541.108 215.452 541.842 216.731 542.143 218.387C542.444 220.043 542.274 222 541.635 224.258L536.385 243H530.288ZM576 243.79C573.44 243.79 571.389 242.831 569.846 240.911C568.341 238.954 567.588 236.32 567.588 233.008C567.588 230.411 568.021 227.927 568.887 225.556C569.79 223.185 570.994 221.078 572.5 219.234C574.043 217.352 575.774 215.866 577.693 214.774C579.65 213.683 581.682 213.137 583.79 213.137C585.559 213.137 587.233 213.551 588.814 214.379C590.395 215.169 591.825 216.336 593.104 217.879L588.87 220.871C588.607 219.102 588.043 217.747 587.177 216.806C586.349 215.828 585.314 215.339 584.072 215.339C582.755 215.339 581.475 215.809 580.233 216.75C579.029 217.691 577.938 218.97 576.959 220.589C575.981 222.207 575.209 224.032 574.645 226.065C574.118 228.097 573.854 230.223 573.854 232.444C573.854 234.965 574.268 236.903 575.096 238.258C575.962 239.575 577.185 240.234 578.766 240.234C579.932 240.234 581.005 239.876 581.983 239.161C583 238.409 583.903 237.298 584.693 235.831L584.862 237.242C583.846 239.349 582.586 240.968 581.08 242.097C579.612 243.226 577.919 243.79 576 243.79ZM589.83 243.79C587.422 243.79 585.728 242.944 584.75 241.25C583.809 239.519 583.752 237.185 584.58 234.25L589.266 217.484C590.658 216.957 591.975 216.317 593.217 215.565C594.497 214.812 595.664 213.946 596.717 212.968L597.959 214.661C597.319 215.188 596.793 215.715 596.379 216.242C596.002 216.769 595.664 217.352 595.362 217.992C595.099 218.632 594.836 219.422 594.572 220.363L590.395 235.379C589.943 236.997 589.868 238.258 590.169 239.161C590.508 240.027 591.185 240.46 592.201 240.46C592.803 240.46 593.368 240.29 593.895 239.952C594.422 239.613 594.911 239.161 595.362 238.597C595.814 238.032 596.228 237.392 596.604 236.677L597.677 234.645H599.879L598.411 237.411C597.771 238.653 597.037 239.763 596.209 240.742C595.381 241.683 594.44 242.435 593.387 243C592.37 243.527 591.185 243.79 589.83 243.79ZM612.724 256.492C610.24 256.492 608.057 256.21 606.175 255.645C604.293 255.081 602.826 254.272 601.772 253.218C600.756 252.202 600.248 251.016 600.248 249.661C600.248 248.005 601 246.425 602.506 244.919C604.049 243.452 606.269 242.172 609.167 241.081L610.296 241.871C608.866 242.661 607.756 243.621 606.965 244.75C606.213 245.917 605.836 247.102 605.836 248.306C605.836 250.075 606.608 251.487 608.151 252.54C609.694 253.594 611.764 254.121 614.361 254.121C616.205 254.121 617.842 253.801 619.272 253.161C620.702 252.559 621.812 251.694 622.603 250.565C623.43 249.435 623.844 248.156 623.844 246.726C623.844 245.409 623.43 244.43 622.603 243.79C621.812 243.151 620.589 242.831 618.933 242.831H613.514C611.632 242.831 610.127 242.454 608.998 241.702C607.869 240.911 607.304 239.82 607.304 238.427C607.304 237.298 607.737 236.151 608.603 234.984C609.468 233.817 610.785 232.575 612.554 231.258L613.514 231.879C612.686 232.632 612.103 233.272 611.764 233.798C611.425 234.325 611.256 234.852 611.256 235.379C611.256 236.056 611.519 236.565 612.046 236.903C612.611 237.204 613.495 237.355 614.699 237.355H620.57C623.28 237.355 625.369 237.995 626.836 239.274C628.304 240.516 629.038 242.285 629.038 244.581C629.038 246.876 628.342 248.927 626.949 250.734C625.557 252.54 623.619 253.952 621.135 254.968C618.689 255.984 615.885 256.492 612.724 256.492ZM616.224 232.782C613.476 232.782 611.293 232.03 609.675 230.524C608.057 229.019 607.248 226.949 607.248 224.315C607.248 222.169 607.756 220.269 608.772 218.613C609.788 216.919 611.18 215.583 612.949 214.605C614.756 213.626 616.769 213.137 618.99 213.137C621.775 213.137 623.957 213.909 625.538 215.452C627.156 216.957 627.965 219.046 627.965 221.718C627.965 223.825 627.457 225.726 626.441 227.419C625.425 229.075 624.033 230.392 622.264 231.371C620.533 232.312 618.519 232.782 616.224 232.782ZM616.393 230.581C617.221 230.581 618.011 230.317 618.764 229.79C619.517 229.263 620.175 228.53 620.74 227.589C621.304 226.648 621.737 225.575 622.038 224.371C622.377 223.129 622.546 221.849 622.546 220.532C622.546 218.801 622.226 217.503 621.586 216.637C620.984 215.772 620.081 215.339 618.877 215.339C618.011 215.339 617.202 215.583 616.449 216.073C615.697 216.562 615.038 217.258 614.474 218.161C613.909 219.065 613.457 220.118 613.119 221.323C612.818 222.489 612.667 223.75 612.667 225.105C612.667 226.911 612.987 228.285 613.627 229.226C614.267 230.129 615.189 230.581 616.393 230.581ZM633.78 221.21C633.103 221.21 632.557 221.04 632.143 220.702C631.767 220.325 631.578 219.836 631.578 219.234C631.578 218.82 631.654 218.444 631.804 218.105C631.992 217.766 632.162 217.446 632.312 217.145C632.463 216.844 632.538 216.562 632.538 216.298C632.538 215.96 632.406 215.715 632.143 215.565C631.917 215.414 631.541 215.339 631.014 215.339C630.224 215.339 629.414 215.546 628.586 215.96C627.758 216.336 626.968 216.901 626.215 217.653L625.594 216.694C626.498 215.527 627.514 214.642 628.643 214.04C629.772 213.438 630.976 213.137 632.256 213.137C633.761 213.137 634.947 213.513 635.812 214.266C636.678 215.019 637.111 216.035 637.111 217.315C637.111 218.444 636.791 219.384 636.151 220.137C635.511 220.852 634.721 221.21 633.78 221.21ZM649.156 243.79C646.107 243.79 643.736 242.849 642.043 240.968C640.349 239.048 639.502 236.376 639.502 232.952C639.502 230.317 639.973 227.815 640.914 225.444C641.854 223.073 643.115 220.965 644.696 219.121C646.314 217.239 648.158 215.772 650.228 214.718C652.336 213.664 654.537 213.137 656.833 213.137C658.978 213.137 660.615 213.608 661.744 214.548C662.911 215.489 663.494 216.844 663.494 218.613C663.494 220.645 662.723 222.583 661.18 224.427C659.674 226.234 657.529 227.852 654.744 229.282C651.997 230.675 648.742 231.785 644.978 232.613L645.035 230.806C647.82 229.978 650.19 228.944 652.147 227.702C654.104 226.46 655.591 225.067 656.607 223.524C657.623 221.981 658.131 220.344 658.131 218.613C658.131 217.484 657.924 216.637 657.51 216.073C657.096 215.508 656.494 215.226 655.704 215.226C654.537 215.226 653.352 215.753 652.147 216.806C650.981 217.823 649.908 219.177 648.93 220.871C647.989 222.527 647.217 224.371 646.615 226.403C646.051 228.398 645.768 230.392 645.768 232.387C645.768 235.022 646.258 237.054 647.236 238.484C648.252 239.876 649.682 240.573 651.526 240.573C653.07 240.573 654.462 240.121 655.704 239.218C656.946 238.315 658.075 236.941 659.091 235.097H661.18C659.825 237.957 658.131 240.121 656.099 241.589C654.067 243.056 651.752 243.79 649.156 243.79Z" fill="#696969"/>
</svg>
