<svg width="306" height="403" viewBox="0 0 306 403" fill="none" xmlns="http://www.w3.org/2000/svg">
<rect width="305.855" height="403" fill="#B8B8B8"/>
<path d="M113.362 179.902L113.894 178.015C115.475 177.918 116.636 177.757 117.378 177.531C118.152 177.273 118.7 176.87 119.023 176.322C119.378 175.741 119.7 174.918 119.991 173.854L126.184 151.693C126.507 150.531 126.62 149.677 126.523 149.128C126.458 148.548 126.104 148.144 125.458 147.918C124.813 147.693 123.797 147.564 122.41 147.531L122.942 145.644C123.717 145.677 124.765 145.709 126.088 145.741C127.41 145.773 128.894 145.789 130.539 145.789C132.313 145.789 133.942 145.773 135.426 145.741C136.91 145.709 138.12 145.677 139.055 145.644L138.523 147.531C136.878 147.596 135.62 147.741 134.749 147.967C133.91 148.193 133.281 148.596 132.862 149.177C132.475 149.725 132.12 150.564 131.797 151.693L125.604 173.854C125.313 174.983 125.217 175.838 125.313 176.418C125.41 176.999 125.829 177.402 126.571 177.628C127.313 177.822 128.475 177.951 130.055 178.015L129.523 179.902C128.62 179.838 127.442 179.806 125.991 179.806C124.571 179.773 122.975 179.757 121.2 179.757C119.523 179.757 118.007 179.773 116.652 179.806C115.297 179.806 114.2 179.838 113.362 179.902ZM91.2004 179.902L91.7327 178.015C93.4424 177.918 94.7165 177.773 95.5553 177.58C96.394 177.354 97.0069 176.967 97.394 176.418C97.8133 175.838 98.1843 174.983 98.5069 173.854L104.652 151.693C104.975 150.531 105.088 149.677 104.991 149.128C104.894 148.58 104.475 148.193 103.733 147.967C103.023 147.709 101.862 147.564 100.249 147.531L100.781 145.644C101.652 145.677 102.797 145.709 104.217 145.741C105.636 145.773 107.249 145.789 109.055 145.789C110.7 145.789 112.2 145.773 113.555 145.741C114.91 145.709 116.039 145.677 116.942 145.644L116.41 147.531C114.829 147.596 113.652 147.757 112.878 148.015C112.136 148.273 111.588 148.677 111.233 149.225C110.91 149.773 110.604 150.596 110.313 151.693L104.12 173.854C103.797 174.983 103.668 175.838 103.733 176.418C103.829 176.999 104.2 177.402 104.846 177.628C105.491 177.822 106.507 177.951 107.894 178.015L107.362 179.902C106.555 179.838 105.475 179.806 104.12 179.806C102.797 179.773 101.329 179.757 99.7165 179.757C97.8778 179.757 96.2327 179.773 94.7811 179.806C93.3294 179.806 92.1359 179.838 91.2004 179.902ZM105.475 163.596L106.007 161.757H124.636L124.055 163.596H105.475ZM145.508 180.58C142.895 180.58 140.863 179.773 139.411 178.16C137.959 176.515 137.234 174.225 137.234 171.289C137.234 169.031 137.637 166.886 138.443 164.854C139.25 162.822 140.33 161.015 141.685 159.435C143.072 157.822 144.653 156.564 146.427 155.66C148.234 154.757 150.121 154.306 152.088 154.306C153.927 154.306 155.33 154.709 156.298 155.515C157.298 156.322 157.798 157.483 157.798 158.999C157.798 160.741 157.137 162.402 155.814 163.983C154.524 165.531 152.685 166.918 150.298 168.144C147.943 169.338 145.153 170.289 141.927 170.999L141.975 169.451C144.363 168.741 146.395 167.854 148.072 166.789C149.75 165.725 151.024 164.531 151.895 163.209C152.766 161.886 153.201 160.483 153.201 158.999C153.201 158.031 153.024 157.306 152.669 156.822C152.314 156.338 151.798 156.096 151.121 156.096C150.121 156.096 149.105 156.548 148.072 157.451C147.072 158.322 146.153 159.483 145.314 160.935C144.508 162.354 143.846 163.935 143.33 165.677C142.846 167.386 142.605 169.096 142.605 170.806C142.605 173.064 143.024 174.806 143.863 176.031C144.734 177.225 145.959 177.822 147.54 177.822C148.863 177.822 150.056 177.435 151.121 176.66C152.185 175.886 153.153 174.709 154.024 173.128H155.814C154.653 175.58 153.201 177.435 151.459 178.693C149.717 179.951 147.734 180.58 145.508 180.58ZM164.293 179.902L169.471 161.467C169.858 160.112 169.922 159.064 169.664 158.322C169.406 157.548 168.842 157.16 167.971 157.16C167.261 157.16 166.584 157.435 165.938 157.983C165.326 158.531 164.729 159.338 164.148 160.402L163.229 162.144H161.342L162.455 160.064C163.067 158.902 163.729 157.886 164.438 157.015C165.18 156.144 166.003 155.483 166.906 155.031C167.842 154.548 168.858 154.306 169.955 154.306C171.406 154.306 172.535 154.66 173.342 155.37C174.148 156.048 174.648 156.999 174.842 158.225C175.035 159.451 174.906 160.87 174.455 162.483L169.567 179.902H164.293ZM181.664 163.886C181.051 163.886 180.567 163.709 180.213 163.354C179.89 162.999 179.729 162.548 179.729 161.999C179.729 161.451 179.858 160.935 180.116 160.451C180.374 159.967 180.616 159.499 180.842 159.048C181.1 158.596 181.229 158.193 181.229 157.838C181.229 157.257 180.809 156.967 179.971 156.967C179.035 156.967 178.051 157.338 177.019 158.08C175.987 158.822 175.116 159.822 174.406 161.08L174.309 159.725C175.245 157.983 176.374 156.644 177.697 155.709C179.019 154.773 180.438 154.306 181.955 154.306C183.213 154.306 184.18 154.628 184.858 155.273C185.567 155.918 185.922 156.854 185.922 158.08C185.922 159.048 185.713 159.983 185.293 160.886C184.906 161.789 184.39 162.515 183.745 163.064C183.1 163.612 182.406 163.886 181.664 163.886ZM197.381 180.58C194.736 180.58 192.671 179.741 191.187 178.064C189.736 176.386 189.01 174.031 189.01 170.999C189.01 168.773 189.381 166.66 190.123 164.66C190.897 162.628 191.946 160.838 193.268 159.289C194.623 157.741 196.155 156.531 197.865 155.66C199.575 154.757 201.397 154.306 203.333 154.306C205.978 154.306 208.042 155.16 209.526 156.87C211.01 158.548 211.752 160.886 211.752 163.886C211.752 166.112 211.365 168.241 210.591 170.273C209.849 172.273 208.8 174.048 207.446 175.596C206.123 177.144 204.591 178.37 202.849 179.273C201.139 180.144 199.316 180.58 197.381 180.58ZM197.72 178.693C198.591 178.693 199.446 178.402 200.284 177.822C201.155 177.209 201.962 176.386 202.704 175.354C203.446 174.289 204.107 173.08 204.687 171.725C205.268 170.338 205.72 168.87 206.042 167.322C206.365 165.741 206.526 164.16 206.526 162.58C206.526 160.451 206.22 158.854 205.607 157.789C205.026 156.693 204.171 156.144 203.042 156.144C202.171 156.144 201.3 156.451 200.429 157.064C199.591 157.677 198.8 158.515 198.058 159.58C197.316 160.612 196.655 161.822 196.075 163.209C195.494 164.564 195.042 166.031 194.72 167.612C194.397 169.16 194.236 170.725 194.236 172.306C194.236 174.435 194.526 176.031 195.107 177.096C195.72 178.16 196.591 178.693 197.72 178.693ZM74.2961 251.902L74.8284 250.015C76.5058 249.918 77.7639 249.773 78.6026 249.58C79.4735 249.354 80.1026 248.967 80.4897 248.418C80.909 247.838 81.28 246.983 81.6026 245.854L87.7477 223.693C88.0703 222.531 88.1832 221.677 88.0864 221.128C87.9897 220.58 87.5703 220.193 86.8284 219.967C86.1187 219.709 84.9574 219.564 83.3445 219.531L83.8768 217.644C84.8445 217.677 86.0381 217.709 87.4574 217.741C88.8768 217.773 90.4413 217.789 92.151 217.789C93.8606 217.789 95.4413 217.773 96.8929 217.741C98.3768 217.709 99.6348 217.677 100.667 217.644L100.135 219.531C98.4897 219.596 97.2316 219.741 96.3606 219.967C95.5219 220.193 94.8929 220.58 94.4735 221.128C94.0864 221.677 93.7316 222.531 93.409 223.693L87.2155 245.854C86.8929 246.983 86.78 247.838 86.8768 248.418C87.0058 248.999 87.4252 249.402 88.1348 249.628C88.8768 249.822 90.0381 249.951 91.6187 250.015L91.0864 251.902C90.151 251.838 88.9574 251.806 87.5058 251.806C86.0542 251.773 84.4897 251.757 82.8122 251.757C81.0703 251.757 79.4574 251.773 77.9735 251.806C76.5219 251.806 75.2961 251.838 74.2961 251.902ZM134.174 252.58C132.722 252.58 131.577 252.241 130.738 251.564C129.932 250.854 129.448 249.886 129.287 248.66C129.125 247.402 129.254 245.983 129.674 244.402L132.19 235.451C132.77 233.386 132.851 231.822 132.432 230.757C132.012 229.693 131.093 229.16 129.674 229.16C128.577 229.16 127.528 229.515 126.528 230.225C125.561 230.902 124.674 231.902 123.867 233.225L123.722 232.064C124.787 230.16 126.012 228.725 127.399 227.757C128.787 226.789 130.335 226.306 132.045 226.306C133.625 226.306 134.899 226.709 135.867 227.515C136.835 228.289 137.448 229.402 137.706 230.854C137.996 232.273 137.867 233.935 137.319 235.838L134.658 245.37C134.27 246.757 134.19 247.838 134.416 248.612C134.674 249.354 135.238 249.725 136.109 249.725C136.851 249.725 137.528 249.467 138.141 248.951C138.787 248.402 139.399 247.58 139.98 246.483L140.899 244.741H142.787L141.674 246.822C141.061 247.983 140.383 248.999 139.641 249.87C138.899 250.741 138.077 251.418 137.174 251.902C136.303 252.354 135.303 252.58 134.174 252.58ZM100.69 251.902L105.867 233.467C106.254 232.144 106.319 231.096 106.061 230.322C105.835 229.548 105.27 229.16 104.367 229.16C103.69 229.16 103.028 229.435 102.383 229.983C101.738 230.499 101.125 231.306 100.545 232.402L99.6253 234.144H97.7382L98.8511 232.064C99.464 230.902 100.125 229.886 100.835 229.015C101.577 228.144 102.399 227.483 103.303 227.031C104.206 226.548 105.222 226.306 106.351 226.306C107.803 226.306 108.932 226.66 109.738 227.37C110.545 228.048 111.045 228.999 111.238 230.225C111.432 231.451 111.303 232.87 110.851 234.483L105.964 251.902H100.69ZM114.432 251.902L119.028 235.451C119.609 233.386 119.674 231.822 119.222 230.757C118.803 229.693 117.899 229.16 116.512 229.16C115.416 229.16 114.367 229.499 113.367 230.177C112.399 230.854 111.512 231.87 110.706 233.225L110.561 232.064C111.625 230.16 112.851 228.725 114.238 227.757C115.658 226.789 117.206 226.306 118.883 226.306C120.464 226.306 121.738 226.709 122.706 227.515C123.706 228.289 124.335 229.386 124.593 230.806C124.851 232.225 124.706 233.902 124.158 235.838L119.658 251.902H114.432ZM153.613 252.58C151.42 252.58 149.662 251.757 148.339 250.112C147.049 248.435 146.403 246.177 146.403 243.338C146.403 241.112 146.774 238.983 147.516 236.951C148.291 234.918 149.323 233.112 150.613 231.531C151.936 229.918 153.42 228.644 155.065 227.709C156.742 226.773 158.484 226.306 160.291 226.306C161.807 226.306 163.242 226.66 164.597 227.37C165.952 228.048 167.178 229.048 168.274 230.37L164.645 232.935C164.42 231.418 163.936 230.257 163.194 229.451C162.484 228.612 161.597 228.193 160.533 228.193C159.403 228.193 158.307 228.596 157.242 229.402C156.21 230.209 155.274 231.306 154.436 232.693C153.597 234.08 152.936 235.644 152.452 237.386C152 239.128 151.774 240.951 151.774 242.854C151.774 245.015 152.129 246.677 152.839 247.838C153.581 248.967 154.629 249.531 155.984 249.531C156.984 249.531 157.903 249.225 158.742 248.612C159.613 247.967 160.387 247.015 161.065 245.757L161.21 246.967C160.339 248.773 159.258 250.16 157.968 251.128C156.71 252.096 155.258 252.58 153.613 252.58ZM165.468 252.58C163.403 252.58 161.952 251.854 161.113 250.402C160.307 248.918 160.258 246.918 160.968 244.402L164.984 230.031C166.178 229.58 167.307 229.031 168.371 228.386C169.468 227.741 170.468 226.999 171.371 226.16L172.436 227.612C171.887 228.064 171.436 228.515 171.081 228.967C170.758 229.418 170.468 229.918 170.21 230.467C169.984 231.015 169.758 231.693 169.533 232.499L165.952 245.37C165.565 246.757 165.5 247.838 165.758 248.612C166.049 249.354 166.629 249.725 167.5 249.725C168.016 249.725 168.5 249.58 168.952 249.289C169.403 248.999 169.823 248.612 170.21 248.128C170.597 247.644 170.952 247.096 171.274 246.483L172.194 244.741H174.081L172.823 247.112C172.274 248.177 171.645 249.128 170.936 249.967C170.226 250.773 169.42 251.418 168.516 251.902C167.645 252.354 166.629 252.58 165.468 252.58ZM185.091 263.467C182.962 263.467 181.091 263.225 179.478 262.741C177.865 262.257 176.607 261.564 175.704 260.66C174.833 259.789 174.397 258.773 174.397 257.612C174.397 256.193 175.042 254.838 176.333 253.548C177.655 252.289 179.559 251.193 182.042 250.257L183.01 250.935C181.784 251.612 180.833 252.435 180.155 253.402C179.51 254.402 179.188 255.418 179.188 256.451C179.188 257.967 179.849 259.177 181.171 260.08C182.494 260.983 184.268 261.435 186.494 261.435C188.075 261.435 189.478 261.16 190.704 260.612C191.93 260.096 192.881 259.354 193.559 258.386C194.268 257.418 194.623 256.322 194.623 255.096C194.623 253.967 194.268 253.128 193.559 252.58C192.881 252.031 191.833 251.757 190.413 251.757H185.768C184.155 251.757 182.865 251.435 181.897 250.789C180.93 250.112 180.446 249.177 180.446 247.983C180.446 247.015 180.817 246.031 181.559 245.031C182.301 244.031 183.43 242.967 184.946 241.838L185.768 242.37C185.059 243.015 184.559 243.564 184.268 244.015C183.978 244.467 183.833 244.918 183.833 245.37C183.833 245.951 184.059 246.386 184.51 246.677C184.994 246.935 185.752 247.064 186.784 247.064H191.817C194.139 247.064 195.93 247.612 197.188 248.709C198.446 249.773 199.075 251.289 199.075 253.257C199.075 255.225 198.478 256.983 197.284 258.531C196.091 260.08 194.43 261.289 192.301 262.16C190.204 263.031 187.801 263.467 185.091 263.467ZM188.091 243.144C185.736 243.144 183.865 242.499 182.478 241.209C181.091 239.918 180.397 238.144 180.397 235.886C180.397 234.048 180.833 232.418 181.704 230.999C182.575 229.548 183.768 228.402 185.284 227.564C186.833 226.725 188.559 226.306 190.462 226.306C192.849 226.306 194.72 226.967 196.075 228.289C197.462 229.58 198.155 231.37 198.155 233.66C198.155 235.467 197.72 237.096 196.849 238.548C195.978 239.967 194.784 241.096 193.268 241.935C191.784 242.741 190.059 243.144 188.091 243.144ZM188.236 241.257C188.946 241.257 189.623 241.031 190.268 240.58C190.913 240.128 191.478 239.499 191.962 238.693C192.446 237.886 192.817 236.967 193.075 235.935C193.365 234.87 193.51 233.773 193.51 232.644C193.51 231.16 193.236 230.048 192.688 229.306C192.171 228.564 191.397 228.193 190.365 228.193C189.623 228.193 188.93 228.402 188.284 228.822C187.639 229.241 187.075 229.838 186.591 230.612C186.107 231.386 185.72 232.289 185.43 233.322C185.171 234.322 185.042 235.402 185.042 236.564C185.042 238.112 185.317 239.289 185.865 240.096C186.413 240.87 187.204 241.257 188.236 241.257ZM203.139 233.225C202.559 233.225 202.091 233.08 201.736 232.789C201.413 232.467 201.252 232.048 201.252 231.531C201.252 231.177 201.317 230.854 201.446 230.564C201.607 230.273 201.752 229.999 201.881 229.741C202.01 229.483 202.075 229.241 202.075 229.015C202.075 228.725 201.962 228.515 201.736 228.386C201.542 228.257 201.22 228.193 200.768 228.193C200.091 228.193 199.397 228.37 198.688 228.725C197.978 229.048 197.301 229.531 196.655 230.177L196.123 229.354C196.897 228.354 197.768 227.596 198.736 227.08C199.704 226.564 200.736 226.306 201.833 226.306C203.123 226.306 204.139 226.628 204.881 227.273C205.623 227.918 205.994 228.789 205.994 229.886C205.994 230.854 205.72 231.66 205.171 232.306C204.623 232.918 203.946 233.225 203.139 233.225ZM216.318 252.58C213.705 252.58 211.673 251.773 210.222 250.16C208.77 248.515 208.044 246.225 208.044 243.289C208.044 241.031 208.447 238.886 209.254 236.854C210.06 234.822 211.141 233.015 212.496 231.435C213.883 229.822 215.463 228.564 217.238 227.66C219.044 226.757 220.931 226.306 222.899 226.306C224.738 226.306 226.141 226.709 227.109 227.515C228.109 228.322 228.609 229.483 228.609 230.999C228.609 232.741 227.947 234.402 226.625 235.983C225.334 237.531 223.496 238.918 221.109 240.144C218.754 241.338 215.963 242.289 212.738 242.999L212.786 241.451C215.173 240.741 217.205 239.854 218.883 238.789C220.56 237.725 221.834 236.531 222.705 235.209C223.576 233.886 224.012 232.483 224.012 230.999C224.012 230.031 223.834 229.306 223.48 228.822C223.125 228.338 222.609 228.096 221.931 228.096C220.931 228.096 219.915 228.548 218.883 229.451C217.883 230.322 216.963 231.483 216.125 232.935C215.318 234.354 214.657 235.935 214.141 237.677C213.657 239.386 213.415 241.096 213.415 242.806C213.415 245.064 213.834 246.806 214.673 248.031C215.544 249.225 216.77 249.822 218.351 249.822C219.673 249.822 220.867 249.435 221.931 248.66C222.996 247.886 223.963 246.709 224.834 245.128H226.625C225.463 247.58 224.012 249.435 222.27 250.693C220.528 251.951 218.544 252.58 216.318 252.58ZM148.406 323.902L154.116 303.483C153.181 304.031 152.084 304.596 150.826 305.177C149.568 305.725 148.1 306.241 146.423 306.725L146.906 304.789C149.003 304.112 150.761 303.435 152.181 302.757C153.632 302.048 154.874 301.354 155.906 300.677C156.971 299.967 157.939 299.289 158.81 298.644H160.697L153.632 323.902H148.406Z" fill="#696969"/>
</svg>
