<svg width="181" height="181" viewBox="0 0 181 181" fill="none" xmlns="http://www.w3.org/2000/svg">
<circle cx="90.5" cy="90.5" r="90.5" fill="#D9D9D9"/>
<path d="M57.8306 100.339C56.9597 100.339 56.3145 100.008 55.8952 99.3468C55.4758 98.6855 55.2661 97.7419 55.2661 96.5161C55.2661 95.8387 55.3468 95.1694 55.5081 94.5081C55.6694 93.8306 55.8871 93.2258 56.1613 92.6935C56.4355 92.1452 56.7419 91.7097 57.0806 91.3871C57.4194 91.0484 57.7581 90.879 58.0968 90.879C58.3871 90.879 58.6048 91.0161 58.75 91.2903C58.9113 91.5484 58.9919 91.9355 58.9919 92.4516C58.9919 93.2419 58.7823 94.1048 58.3629 95.0403C57.9435 95.9758 57.3629 96.8629 56.621 97.7016L56.0645 96.5645L56.7419 95.1371C56.7097 96.0887 56.879 96.8145 57.25 97.3145C57.621 97.8145 58.1935 98.0645 58.9677 98.0645C59.5323 98.0645 60.0806 97.9194 60.6129 97.629C61.1613 97.3387 61.6532 96.9435 62.0887 96.4435C62.5242 95.9435 62.871 95.3952 63.129 94.7984C63.4032 94.1855 63.5403 93.5726 63.5403 92.9597C63.5403 92.4758 63.4677 92.0726 63.3226 91.75C63.1774 91.4113 63 91.1129 62.7903 90.8548C62.5968 90.5968 62.3871 90.3548 62.1613 90.129C61.9516 89.9032 61.7742 89.6694 61.629 89.4274C61.4839 89.1855 61.4113 88.9032 61.4113 88.5806C61.4113 88.1452 61.5484 87.7984 61.8226 87.5403C62.1129 87.2823 62.4839 87.1532 62.9355 87.1532C63.5806 87.1532 64.0565 87.4194 64.3629 87.9516C64.6855 88.4839 64.8468 89.2903 64.8468 90.371C64.8468 91.6129 64.6532 92.8306 64.2661 94.0242C63.879 95.2016 63.3468 96.2661 62.6694 97.2177C61.9919 98.1694 61.2339 98.9274 60.3952 99.4919C59.5726 100.056 58.7177 100.339 57.8306 100.339ZM51.9032 100.339C50.8387 100.339 49.9919 100.04 49.3629 99.4435C48.7339 98.8306 48.4194 98 48.4194 96.9516C48.4194 96.3548 48.5242 95.75 48.7339 95.1371C48.9597 94.5081 49.2984 93.8468 49.75 93.1532C50.2016 92.4597 50.7581 91.7097 51.4194 90.9032C52.0968 90.0806 52.8871 89.1694 53.7903 88.1694C53.4677 88.2823 53.121 88.371 52.75 88.4355C52.3952 88.5 52.0565 88.5323 51.7339 88.5323C51.4274 88.5323 51.1452 88.5 50.8871 88.4355C50.6452 88.371 50.4355 88.3065 50.2581 88.2419C50.0806 88.1774 49.9274 88.1452 49.7984 88.1452C49.4919 88.1452 49.3387 88.2903 49.3387 88.5806C49.3387 88.7419 49.379 88.9194 49.4597 89.1129C49.5565 89.2903 49.6452 89.4839 49.7258 89.6935C49.8065 89.8871 49.8468 90.0887 49.8468 90.2984C49.8468 90.6532 49.7177 90.9516 49.4597 91.1935C49.2177 91.4355 48.9113 91.5565 48.5403 91.5565C48.1855 91.5565 47.9032 91.4355 47.6935 91.1935C47.5 90.9516 47.4032 90.6129 47.4032 90.1774C47.4032 89.5968 47.5726 89.0806 47.9113 88.629C48.25 88.1774 48.7177 87.8226 49.3145 87.5645C49.9274 87.2903 50.621 87.1532 51.3952 87.1532C51.8306 87.1532 52.2742 87.1935 52.7258 87.2742C53.1774 87.3387 53.6694 87.4435 54.2016 87.5887L54.6129 86.9355L55.2661 87.2984C54.5403 88.3629 53.9194 89.3871 53.4032 90.371C52.8871 91.3548 52.4919 92.2823 52.2177 93.1532C51.9597 94.0242 51.8306 94.8548 51.8306 95.6452C51.8306 96.4839 51.9919 97.121 52.3145 97.5565C52.6371 97.9758 53.1129 98.1855 53.7419 98.1855C54.0968 98.1855 54.4274 98.1129 54.7339 97.9677C55.0565 97.8226 55.3629 97.6048 55.6532 97.3145L56.0645 97.8468C55.4677 98.7016 54.8226 99.3306 54.129 99.7339C53.4516 100.137 52.7097 100.339 51.9032 100.339ZM71.6597 100.339C70.8533 100.339 70.2 100.153 69.7 99.7823C69.2162 99.3952 68.9097 98.871 68.7807 98.2097C68.6678 97.5484 68.7646 96.7984 69.071 95.9597L70.9097 90.7581C71.1355 90.129 71.1758 89.621 71.0307 89.2339C70.9017 88.8468 70.6113 88.6532 70.1597 88.6532C69.8049 88.6532 69.4662 88.7823 69.1436 89.0403C68.8371 89.2984 68.5468 89.7016 68.2726 90.25L67.8129 91.0968H66.8694L67.4258 90.0565C67.9581 89.0565 68.5468 88.3226 69.192 87.8548C69.8533 87.3871 70.6194 87.1532 71.4904 87.1532C72.3129 87.1532 72.9662 87.3468 73.45 87.7339C73.9339 88.1048 74.2404 88.621 74.3694 89.2823C74.4984 89.9274 74.4017 90.6774 74.0791 91.5323L72.2404 96.7339C72.0146 97.3629 71.9742 97.871 72.1194 98.2581C72.2646 98.6452 72.5549 98.8387 72.9904 98.8387C73.7 98.8387 74.3371 98.3145 74.9017 97.2661L75.3371 96.4194H76.2807L75.7484 97.4355C75.2162 98.4516 74.6194 99.1935 73.9581 99.6613C73.2968 100.113 72.5307 100.339 71.6597 100.339ZM73.45 85.0242C72.8855 85.0242 72.4178 84.8629 72.0468 84.5403C71.692 84.2016 71.5146 83.7661 71.5146 83.2339C71.5146 82.6532 71.7323 82.1694 72.1678 81.7823C72.6033 81.379 73.1275 81.1774 73.7404 81.1774C74.3049 81.1774 74.7646 81.3468 75.1194 81.6855C75.4904 82.0081 75.6758 82.4355 75.6758 82.9677C75.6758 83.5484 75.4581 84.0403 75.0226 84.4435C74.6033 84.8306 74.0791 85.0242 73.45 85.0242ZM89.3526 100.339C88.5622 100.339 87.9252 100.161 87.4413 99.8065C86.9735 99.4516 86.6752 98.9516 86.5461 98.3065C86.4332 97.6452 86.4977 96.871 86.7397 95.9839L88.0219 91.4113C88.2639 90.5081 88.2881 89.8306 88.0945 89.379C87.9171 88.9113 87.5219 88.6774 86.909 88.6774C86.409 88.6774 85.9413 88.8306 85.5058 89.1371C85.0864 89.4435 84.6993 89.8952 84.3445 90.4919L84.1268 89.9839C84.659 89.0323 85.2881 88.3226 86.0139 87.8548C86.7397 87.3871 87.5461 87.1532 88.4332 87.1532C89.7074 87.1532 90.5945 87.5968 91.0945 88.4839C91.6106 89.3548 91.6671 90.5323 91.2639 92.0161L89.9332 96.7581C89.7558 97.4194 89.7316 97.9355 89.8606 98.3065C89.9897 98.6613 90.2639 98.8387 90.6832 98.8387C91.0542 98.8387 91.3929 98.7097 91.6993 98.4516C92.0219 98.1774 92.3203 97.7823 92.5945 97.2661L93.03 96.4194H93.9735L93.4413 97.4355C93.1187 98.0484 92.7558 98.5726 92.3526 99.0081C91.9493 99.4435 91.4977 99.7742 90.9977 100C90.5139 100.226 89.9655 100.339 89.3526 100.339ZM78.5381 100L81.1268 90.7581C81.3203 90.0968 81.3526 89.5806 81.2235 89.2097C81.0945 88.8387 80.8042 88.6532 80.3526 88.6532C80.0139 88.6532 79.6832 88.7903 79.3606 89.0645C79.0542 89.3226 78.7639 89.7177 78.4897 90.25L78.03 91.0968H77.0864L77.6429 90.0565C77.9655 89.4435 78.3203 88.9194 78.7074 88.4839C79.1106 88.0484 79.5622 87.7177 80.0622 87.4919C80.5622 87.2661 81.1106 87.1532 81.7074 87.1532C82.5139 87.1532 83.151 87.3387 83.6187 87.7097C84.0864 88.0645 84.3768 88.5726 84.4897 89.2339C84.6187 89.879 84.5622 90.6452 84.3203 91.5323L81.9493 100H78.5381ZM99.3211 100.339C98.063 100.339 97.1598 99.9435 96.6114 99.1532C96.0791 98.3468 95.9985 97.2823 96.3695 95.9597L99.7082 83.9839C100.386 83.9839 101.007 83.9516 101.571 83.8871C102.152 83.8065 102.708 83.6855 103.24 83.5242L99.563 96.7581C99.3695 97.4516 99.3533 97.9758 99.5146 98.3306C99.6759 98.6694 100.015 98.8387 100.531 98.8387C100.95 98.8387 101.321 98.7097 101.644 98.4516C101.982 98.1935 102.297 97.7903 102.587 97.2419L103.023 96.4194H103.966L103.265 97.7742C102.99 98.3065 102.66 98.7661 102.273 99.1532C101.902 99.5242 101.474 99.8145 100.99 100.024C100.507 100.234 99.9501 100.339 99.3211 100.339ZM95.7162 88.4355L95.9582 87.4919H105.781L105.539 88.4355H95.7162ZM110.815 100.339C109.38 100.339 108.251 99.9194 107.428 99.0806C106.622 98.2258 106.219 97.0403 106.219 95.5242C106.219 94.4113 106.428 93.3548 106.848 92.3548C107.267 91.3387 107.84 90.4435 108.565 89.6694C109.307 88.879 110.154 88.2661 111.106 87.8306C112.057 87.379 113.057 87.1532 114.106 87.1532C115.154 87.1532 115.953 87.371 116.501 87.8065C117.065 88.2258 117.348 88.8387 117.348 89.6452C117.348 90.5 117.017 91.3145 116.356 92.0887C115.711 92.8629 114.791 93.5565 113.598 94.1694C112.42 94.7661 111.033 95.2339 109.436 95.5726V94.7984C110.549 94.4113 111.493 93.9435 112.267 93.3952C113.041 92.8306 113.63 92.2097 114.033 91.5323C114.436 90.8548 114.638 90.1613 114.638 89.4516C114.638 88.9839 114.557 88.6371 114.396 88.4113C114.235 88.1855 114.001 88.0726 113.694 88.0726C113.227 88.0726 112.751 88.2823 112.267 88.7016C111.799 89.121 111.372 89.6855 110.985 90.3952C110.598 91.0887 110.283 91.8548 110.041 92.6935C109.799 93.5323 109.678 94.371 109.678 95.2097C109.678 96.3548 109.888 97.2339 110.307 97.8468C110.743 98.4435 111.364 98.7419 112.17 98.7419C112.832 98.7419 113.42 98.5645 113.936 98.2097C114.469 97.8387 114.944 97.2903 115.364 96.5645H116.283C115.67 97.8065 114.904 98.75 113.985 99.3952C113.082 100.024 112.025 100.339 110.815 100.339ZM120.315 100L122.904 90.7581C123.098 90.0806 123.122 89.5645 122.977 89.2097C122.848 88.8387 122.565 88.6532 122.13 88.6532C121.791 88.6532 121.461 88.7903 121.138 89.0645C120.832 89.3226 120.541 89.7177 120.267 90.25L119.807 91.0968H118.864L119.42 90.0565C119.743 89.4435 120.098 88.9194 120.485 88.4839C120.888 88.0484 121.34 87.7177 121.84 87.4919C122.34 87.2661 122.888 87.1532 123.485 87.1532C124.291 87.1532 124.928 87.3387 125.396 87.7097C125.864 88.0645 126.154 88.5726 126.267 89.2339C126.396 89.879 126.34 90.6452 126.098 91.5323L123.727 100H120.315ZM129.557 92.3306C129.219 92.3306 128.952 92.2339 128.759 92.0403C128.565 91.8468 128.469 91.5968 128.469 91.2903C128.469 90.9839 128.533 90.7016 128.662 90.4435C128.807 90.1694 128.944 89.9113 129.073 89.6694C129.219 89.4274 129.291 89.2016 129.291 88.9919C129.291 88.6855 129.082 88.5323 128.662 88.5323C128.243 88.5323 127.799 88.7016 127.332 89.0403C126.864 89.3629 126.469 89.7984 126.146 90.3468L125.952 89.7903C126.436 88.9516 127.017 88.3065 127.694 87.8548C128.372 87.3871 129.098 87.1532 129.872 87.1532C130.549 87.1532 131.073 87.3306 131.444 87.6855C131.815 88.0403 132.001 88.5403 132.001 89.1855C132.001 89.7339 131.88 90.25 131.638 90.7339C131.412 91.2016 131.114 91.5887 130.743 91.8952C130.388 92.1855 129.993 92.3306 129.557 92.3306Z" fill="#464646"/>
</svg>
