<svg width="181" height="181" viewBox="0 0 181 181" fill="none" xmlns="http://www.w3.org/2000/svg">
<circle cx="90.5" cy="90.5" r="90.5" fill="#D9D9D9"/>
<path d="M51.3226 98.3387C50.3226 98.3387 49.4355 98.2016 48.6613 97.9274C47.8871 97.6532 47.2823 97.2742 46.8468 96.7903C46.4113 96.3065 46.1935 95.7581 46.1935 95.1452C46.1935 94.5968 46.3468 94.1532 46.6532 93.8145C46.9758 93.4758 47.4032 93.3065 47.9355 93.3065C48.3871 93.3065 48.7339 93.4355 48.9758 93.6935C49.2339 93.9355 49.371 94.2823 49.3871 94.7339C49.3871 95.0242 49.3468 95.3226 49.2661 95.629C49.1855 95.9194 49.1452 96.1613 49.1452 96.3548C49.1613 96.7097 49.3387 96.9758 49.6774 97.1532C50.0161 97.3306 50.5 97.4194 51.129 97.4194C51.9677 97.4194 52.621 97.2581 53.0887 96.9355C53.5565 96.5968 53.7903 96.1371 53.7903 95.5565C53.7903 95.1048 53.6613 94.7097 53.4032 94.371C53.1452 94.0161 52.8145 93.6935 52.4113 93.4032C52.0242 93.0968 51.6048 92.7903 51.1532 92.4839C50.7016 92.1774 50.2742 91.8548 49.871 91.5161C49.4677 91.1613 49.1371 90.7661 48.879 90.3306C48.6371 89.8952 48.5161 89.3952 48.5161 88.8306C48.5161 87.7177 48.9919 86.8306 49.9435 86.1694C50.9113 85.4919 52.1452 85.1532 53.6452 85.1532C54.5806 85.1532 55.4032 85.2823 56.1129 85.5403C56.8387 85.7984 57.4032 86.1532 57.8065 86.6048C58.2258 87.0403 58.4355 87.5403 58.4355 88.1048C58.4355 88.5887 58.2903 88.9839 58 89.2903C57.7097 89.5968 57.3306 89.75 56.8629 89.75C56.4597 89.75 56.129 89.6371 55.871 89.4113C55.629 89.1855 55.5081 88.8871 55.5081 88.5161C55.5081 88.2742 55.5403 88.0161 55.6048 87.7419C55.6855 87.4516 55.7177 87.2177 55.7016 87.0403C55.7016 86.7177 55.5484 86.4758 55.2419 86.3145C54.9355 86.1532 54.5 86.0726 53.9355 86.0726C53.2258 86.0726 52.6694 86.2258 52.2661 86.5323C51.8629 86.8226 51.6613 87.2258 51.6613 87.7419C51.6613 88.1613 51.7903 88.5484 52.0484 88.9032C52.3065 89.2419 52.629 89.5645 53.0161 89.871C53.4194 90.1613 53.8468 90.4677 54.2984 90.7903C54.75 91.0968 55.1694 91.4274 55.5565 91.7823C55.9597 92.121 56.2903 92.5161 56.5484 92.9677C56.8065 93.4032 56.9355 93.9113 56.9355 94.4919C56.9355 95.2661 56.6935 95.9435 56.2097 96.5242C55.7258 97.0887 55.0645 97.5323 54.2258 97.8548C53.3871 98.1774 52.4194 98.3387 51.3226 98.3387ZM57.1578 103.589L57.4239 102.645C58.0045 102.629 58.4884 102.556 58.8755 102.427C59.2465 102.315 59.5449 102.129 59.7707 101.871C59.9965 101.629 60.1658 101.29 60.2787 100.855L63.6658 88.7581C63.8594 88.0645 63.8836 87.5403 63.7384 87.1855C63.5932 86.8306 63.311 86.6532 62.8916 86.6532C62.5529 86.6532 62.2223 86.7823 61.8997 87.0403C61.5932 87.2984 61.3029 87.7016 61.0287 88.25L60.5691 89.0968H59.6255L60.182 88.0565C60.5045 87.4435 60.8594 86.9194 61.2465 86.4839C61.6497 86.0484 62.1013 85.7177 62.6013 85.4919C63.1013 85.2661 63.6497 85.1532 64.2465 85.1532C65.4239 85.1532 66.2465 85.5403 66.7142 86.3145C67.1981 87.0887 67.2465 88.1613 66.8594 89.5323L63.7384 100.661C63.6094 101.129 63.6174 101.5 63.7626 101.774C63.9078 102.065 64.2061 102.274 64.6578 102.403C65.1255 102.548 65.7707 102.629 66.5932 102.645L66.3513 103.589C66.0126 103.573 65.5852 103.556 65.0691 103.54C64.5529 103.54 63.9965 103.532 63.3997 103.516C62.8191 103.5 62.2303 103.492 61.6336 103.492C60.7626 103.492 59.9239 103.5 59.1174 103.516C58.2949 103.548 57.6416 103.573 57.1578 103.589ZM67.7303 98.3387C67.0207 98.3387 66.3916 98.1774 65.8432 97.8548C65.311 97.5323 64.932 97.0887 64.7061 96.5242L64.9965 95.75C65.2061 96.121 65.4884 96.4113 65.8432 96.621C66.2142 96.8306 66.6094 96.9355 67.0287 96.9355C67.561 96.9355 68.0691 96.7581 68.5529 96.4032C69.0529 96.0323 69.4965 95.5323 69.8836 94.9032C70.2707 94.2742 70.5691 93.5565 70.7787 92.75C71.0045 91.9274 71.1174 91.0726 71.1174 90.1855C71.1174 89.121 70.94 88.3065 70.5852 87.7419C70.2465 87.1774 69.7545 86.8952 69.1094 86.8952C68.6739 86.8952 68.2626 87.0323 67.8755 87.3065C67.4884 87.5645 67.1416 87.9597 66.8352 88.4919L66.6174 88.129C67.0852 87.1613 67.6578 86.4274 68.3352 85.9274C69.0287 85.4113 69.8191 85.1532 70.7061 85.1532C71.8997 85.1532 72.8432 85.5806 73.5368 86.4355C74.2303 87.2742 74.5771 88.4194 74.5771 89.871C74.5771 90.9677 74.3836 92.0242 73.9965 93.0403C73.6255 94.0403 73.1174 94.9435 72.4723 95.75C71.8271 96.5565 71.0932 97.1935 70.2707 97.6613C69.4642 98.1129 68.6174 98.3387 67.7303 98.3387ZM77.542 98L80.1307 88.7581C80.3242 88.0806 80.3484 87.5645 80.2033 87.2097C80.0742 86.8387 79.792 86.6532 79.3565 86.6532C79.0178 86.6532 78.6871 86.7903 78.3645 87.0645C78.0581 87.3226 77.7678 87.7177 77.4936 88.25L77.0339 89.0968H76.0903L76.6468 88.0565C76.9694 87.4435 77.3242 86.9194 77.7113 86.4839C78.1145 86.0484 78.5662 85.7177 79.0662 85.4919C79.5662 85.2661 80.1145 85.1532 80.7113 85.1532C81.5178 85.1532 82.1549 85.3387 82.6226 85.7097C83.0903 86.0645 83.3807 86.5726 83.4936 87.2339C83.6226 87.879 83.5662 88.6452 83.3242 89.5323L80.9533 98H77.542ZM86.7839 90.3306C86.4452 90.3306 86.1791 90.2339 85.9855 90.0403C85.792 89.8468 85.6952 89.5968 85.6952 89.2903C85.6952 88.9839 85.7597 88.7016 85.8887 88.4435C86.0339 88.1694 86.171 87.9113 86.3 87.6694C86.4452 87.4274 86.5178 87.2016 86.5178 86.9919C86.5178 86.6855 86.3081 86.5323 85.8887 86.5323C85.4694 86.5323 85.0258 86.7016 84.5581 87.0403C84.0903 87.3629 83.6952 87.7984 83.3726 88.3468L83.1791 87.7903C83.6629 86.9516 84.2436 86.3065 84.921 85.8548C85.5984 85.3871 86.3242 85.1532 87.0984 85.1532C87.7758 85.1532 88.3 85.3306 88.671 85.6855C89.042 86.0403 89.2274 86.5403 89.2274 87.1855C89.2274 87.7339 89.1065 88.25 88.8645 88.7339C88.6387 89.2016 88.3403 89.5887 87.9694 89.8952C87.6145 90.1855 87.2194 90.3306 86.7839 90.3306ZM95.1265 98.3387C94.3201 98.3387 93.6668 98.1532 93.1668 97.7823C92.683 97.3952 92.3765 96.871 92.2475 96.2097C92.1346 95.5484 92.2314 94.7984 92.5378 93.9597L94.3765 88.7581C94.6023 88.129 94.6426 87.621 94.4975 87.2339C94.3684 86.8468 94.0781 86.6532 93.6265 86.6532C93.2717 86.6532 92.933 86.7823 92.6104 87.0403C92.3039 87.2984 92.0136 87.7016 91.7394 88.25L91.2797 89.0968H90.3362L90.8926 88.0565C91.4249 87.0565 92.0136 86.3226 92.6588 85.8548C93.3201 85.3871 94.0862 85.1532 94.9572 85.1532C95.7797 85.1532 96.433 85.3468 96.9168 85.7339C97.4007 86.1048 97.7072 86.621 97.8362 87.2823C97.9652 87.9274 97.8684 88.6774 97.5459 89.5323L95.7072 94.7339C95.4814 95.3629 95.441 95.871 95.5862 96.2581C95.7314 96.6452 96.0217 96.8387 96.4572 96.8387C97.1668 96.8387 97.8039 96.3145 98.3684 95.2661L98.8039 94.4194H99.7475L99.2152 95.4355C98.683 96.4516 98.0862 97.1935 97.4249 97.6613C96.7636 98.1129 95.9975 98.3387 95.1265 98.3387ZM96.9168 83.0242C96.3523 83.0242 95.8846 82.8629 95.5136 82.5403C95.1588 82.2016 94.9814 81.7661 94.9814 81.2339C94.9814 80.6532 95.1991 80.1694 95.6346 79.7823C96.0701 79.379 96.5943 79.1774 97.2072 79.1774C97.7717 79.1774 98.2314 79.3468 98.5862 79.6855C98.9572 80.0081 99.1426 80.4355 99.1426 80.9677C99.1426 81.5484 98.9249 82.0403 98.4894 82.4435C98.0701 82.8306 97.5459 83.0242 96.9168 83.0242ZM112.819 98.3387C112.029 98.3387 111.392 98.1613 110.908 97.8065C110.44 97.4516 110.142 96.9516 110.013 96.3065C109.9 95.6452 109.965 94.871 110.206 93.9839L111.489 89.4113C111.731 88.5081 111.755 87.8306 111.561 87.379C111.384 86.9113 110.989 86.6774 110.376 86.6774C109.876 86.6774 109.408 86.8306 108.973 87.1371C108.553 87.4435 108.166 87.8952 107.811 88.4919L107.594 87.9839C108.126 87.0323 108.755 86.3226 109.481 85.8548C110.206 85.3871 111.013 85.1532 111.9 85.1532C113.174 85.1532 114.061 85.5968 114.561 86.4839C115.077 87.3548 115.134 88.5323 114.731 90.0161L113.4 94.7581C113.223 95.4194 113.198 95.9355 113.327 96.3065C113.456 96.6613 113.731 96.8387 114.15 96.8387C114.521 96.8387 114.86 96.7097 115.166 96.4516C115.489 96.1774 115.787 95.7823 116.061 95.2661L116.497 94.4194H117.44L116.908 95.4355C116.585 96.0484 116.223 96.5726 115.819 97.0081C115.416 97.4435 114.965 97.7742 114.465 98C113.981 98.2258 113.432 98.3387 112.819 98.3387ZM102.005 98L104.594 88.7581C104.787 88.0968 104.819 87.5806 104.69 87.2097C104.561 86.8387 104.271 86.6532 103.819 86.6532C103.481 86.6532 103.15 86.7903 102.827 87.0645C102.521 87.3226 102.231 87.7177 101.956 88.25L101.497 89.0968H100.553L101.11 88.0565C101.432 87.4435 101.787 86.9194 102.174 86.4839C102.577 86.0484 103.029 85.7177 103.529 85.4919C104.029 85.2661 104.577 85.1532 105.174 85.1532C105.981 85.1532 106.618 85.3387 107.085 85.7097C107.553 86.0645 107.844 86.5726 107.956 87.2339C108.085 87.879 108.029 88.6452 107.787 89.5323L105.416 98H102.005ZM122.466 103.782C121.369 103.782 120.401 103.661 119.563 103.419C118.724 103.177 118.079 102.839 117.627 102.403C117.159 101.984 116.925 101.492 116.925 100.927C116.925 100.266 117.256 99.629 117.917 99.0161C118.579 98.4194 119.514 97.9113 120.724 97.4919L121.232 97.8065C120.764 98.1129 120.401 98.4839 120.143 98.9194C119.885 99.3548 119.756 99.8065 119.756 100.274C119.756 101.032 120.079 101.637 120.724 102.089C121.385 102.54 122.256 102.766 123.337 102.766C124.079 102.766 124.732 102.637 125.296 102.379C125.877 102.137 126.329 101.79 126.651 101.339C126.974 100.903 127.135 100.403 127.135 99.8387C127.135 99.2903 126.966 98.8871 126.627 98.629C126.288 98.371 125.764 98.2419 125.054 98.2419H122.78C121.893 98.2419 121.192 98.0645 120.675 97.7097C120.175 97.3548 119.925 96.8629 119.925 96.2339C119.925 95.7016 120.127 95.1774 120.53 94.6613C120.934 94.129 121.554 93.5645 122.393 92.9677L122.804 93.2581C122.53 93.5323 122.329 93.7742 122.2 93.9839C122.071 94.1774 122.006 94.371 122.006 94.5645C122.006 94.8387 122.119 95.0484 122.345 95.1935C122.571 95.3226 122.934 95.3871 123.434 95.3871H126.071C127.264 95.3871 128.192 95.6694 128.853 96.2339C129.514 96.7823 129.845 97.5645 129.845 98.5806C129.845 99.5806 129.53 100.476 128.901 101.266C128.272 102.056 127.401 102.669 126.288 103.105C125.175 103.556 123.901 103.782 122.466 103.782ZM124.038 93.621C122.78 93.621 121.788 93.2984 121.063 92.6532C120.353 91.9919 119.998 91.0887 119.998 89.9435C119.998 89.0242 120.224 88.2097 120.675 87.5C121.127 86.7742 121.748 86.2097 122.538 85.8065C123.329 85.3871 124.224 85.1774 125.224 85.1774C126.482 85.1774 127.474 85.5081 128.2 86.1694C128.925 86.8306 129.288 87.7258 129.288 88.8548C129.288 89.7581 129.054 90.5726 128.587 91.2984C128.135 92.0242 127.514 92.5968 126.724 93.0161C125.95 93.4194 125.054 93.621 124.038 93.621ZM124.111 92.6774C124.434 92.6774 124.732 92.5565 125.006 92.3145C125.296 92.0726 125.554 91.7419 125.78 91.3226C126.006 90.9032 126.184 90.4274 126.313 89.8952C126.442 89.3629 126.506 88.8145 126.506 88.25C126.506 87.5565 126.393 87.0242 126.167 86.6532C125.942 86.2823 125.611 86.0968 125.175 86.0968C124.837 86.0968 124.522 86.2177 124.232 86.4597C123.942 86.6855 123.684 87 123.458 87.4032C123.248 87.8065 123.079 88.2661 122.95 88.7823C122.837 89.2984 122.78 89.8468 122.78 90.4274C122.78 91.1694 122.893 91.7339 123.119 92.121C123.345 92.4919 123.675 92.6774 124.111 92.6774ZM131.635 88.9516C131.345 88.9516 131.111 88.871 130.934 88.7097C130.756 88.5484 130.667 88.3306 130.667 88.0565C130.667 87.8629 130.708 87.6774 130.788 87.5C130.885 87.3226 130.974 87.1532 131.054 86.9919C131.135 86.8306 131.175 86.6774 131.175 86.5323C131.175 86.3871 131.119 86.2823 131.006 86.2177C130.909 86.1532 130.756 86.121 130.546 86.121C130.208 86.121 129.861 86.2016 129.506 86.3629C129.151 86.5242 128.821 86.75 128.514 87.0403L128.2 86.629C128.603 86.1452 129.046 85.7823 129.53 85.5403C130.03 85.2823 130.554 85.1532 131.103 85.1532C131.764 85.1532 132.288 85.3226 132.675 85.6613C133.063 85.9839 133.256 86.4355 133.256 87.0161C133.256 87.5484 133.095 88.0081 132.772 88.3952C132.466 88.7661 132.087 88.9516 131.635 88.9516Z" fill="#464646"/>
</svg>
