<svg width="181" height="181" viewBox="0 0 181 181" fill="none" xmlns="http://www.w3.org/2000/svg">
<circle cx="90.5" cy="90.5" r="90.5" fill="#D9D9D9"/>
<path d="M40.0323 98.3387C38.8387 98.3387 37.8952 97.9194 37.2016 97.0806C36.5081 96.2419 36.1613 95.0968 36.1613 93.6452C36.1613 92.5323 36.3629 91.4677 36.7661 90.4516C37.1694 89.4355 37.7097 88.5323 38.3871 87.7419C39.0806 86.9355 39.871 86.3065 40.7581 85.8548C41.6613 85.3871 42.5968 85.1532 43.5645 85.1532C44.371 85.1532 45.1371 85.3226 45.8629 85.6613C46.5887 86 47.2581 86.4919 47.871 87.1371L45.5484 88.6129C45.5 87.8226 45.3065 87.2097 44.9677 86.7742C44.6452 86.3226 44.2258 86.0968 43.7097 86.0968C43.1935 86.0968 42.6855 86.2984 42.1855 86.7016C41.7016 87.1048 41.2661 87.6532 40.879 88.3468C40.4919 89.0242 40.1855 89.7984 39.9597 90.6694C39.7339 91.5242 39.621 92.4113 39.621 93.3306C39.621 94.3952 39.7903 95.2097 40.129 95.7742C40.4839 96.3387 40.9758 96.621 41.6048 96.621C42.0565 96.621 42.4677 96.4919 42.8387 96.2339C43.2258 95.9597 43.5806 95.5484 43.9032 95L44.121 95.3629C43.6532 96.3306 43.0726 97.0726 42.379 97.5887C41.7016 98.0887 40.9194 98.3387 40.0323 98.3387ZM46.4919 98.3387C45.3145 98.3387 44.4839 97.9516 44 97.1774C43.5323 96.4032 43.4919 95.3387 43.879 93.9839L45.7419 87.3306C46.5484 87.0565 47.2742 86.7419 47.9194 86.3871C48.5806 86.0323 49.2016 85.6048 49.7823 85.1048L50.3145 85.8065C50.0565 86.0323 49.8387 86.2581 49.6613 86.4839C49.5 86.6935 49.3548 86.9355 49.2258 87.2097C49.1129 87.4839 49 87.8306 48.8871 88.25L47.0726 94.7581C46.879 95.4194 46.8468 95.9355 46.9758 96.3065C47.121 96.6613 47.4113 96.8387 47.8468 96.8387C48.1048 96.8387 48.3387 96.7742 48.5484 96.6452C48.7742 96.5161 48.9839 96.3306 49.1774 96.0887C49.371 95.8468 49.5484 95.5726 49.7097 95.2661L50.1694 94.4194H51.1129L50.5081 95.5323C50.2177 96.1129 49.871 96.6129 49.4677 97.0323C49.0806 97.4516 48.6371 97.7742 48.1371 98C47.6532 98.2258 47.1048 98.3387 46.4919 98.3387ZM57.1885 98.3387C56.3498 98.3387 55.6724 98.1371 55.1562 97.7339C54.6563 97.3306 54.3337 96.7661 54.1885 96.0403C54.0433 95.3145 54.1079 94.4597 54.3821 93.4758L55.7127 88.7581C55.9063 88.0806 55.9385 87.5645 55.8095 87.2097C55.6804 86.8387 55.3901 86.6532 54.9385 86.6532C54.5837 86.6532 54.253 86.7903 53.9466 87.0645C53.6401 87.3226 53.3417 87.7177 53.0514 88.25L52.6159 89.0968H51.6724L52.2046 88.0565C52.5433 87.4435 52.9062 86.9274 53.2933 86.5081C53.6966 86.0726 54.1401 85.7419 54.624 85.5161C55.124 85.2903 55.6804 85.1774 56.2933 85.1774C57.0998 85.1774 57.7369 85.3548 58.2046 85.7097C58.6724 86.0645 58.9627 86.5726 59.0756 87.2339C59.2046 87.879 59.1401 88.6452 58.8821 89.5323L57.624 94.0806C57.3821 94.9839 57.3498 95.6694 57.5272 96.1371C57.7208 96.6048 58.1159 96.8387 58.7127 96.8387C59.2127 96.8387 59.6643 96.6855 60.0675 96.379C60.4869 96.0726 60.8579 95.621 61.1804 95.0242L61.3982 95.5323C60.8821 96.4677 60.2692 97.1694 59.5595 97.6371C58.8659 98.1048 58.0756 98.3387 57.1885 98.3387ZM63.8175 98.3387C63.0111 98.3387 62.374 98.1613 61.9062 97.8065C61.4385 97.4355 61.1401 96.9274 61.0111 96.2823C60.8982 95.621 60.9627 94.8548 61.2046 93.9839L63.5756 85.4919H66.9869L64.3982 94.7581C64.2046 95.4194 64.1724 95.9355 64.3014 96.3065C64.4466 96.6613 64.7369 96.8387 65.1724 96.8387C65.5111 96.8387 65.8337 96.7097 66.1401 96.4516C66.4627 96.1935 66.7611 95.7984 67.0353 95.2661L67.495 94.4194H68.4385L67.8821 95.4355C67.5595 96.0484 67.1966 96.5726 66.7933 97.0081C66.4062 97.4435 65.9627 97.7742 65.4627 98C64.9788 98.2258 64.4304 98.3387 63.8175 98.3387ZM73.8191 98.3387C72.5611 98.3387 71.6578 97.9435 71.1094 97.1532C70.5772 96.3468 70.4965 95.2823 70.8675 93.9597L74.2062 81.9839C74.8836 81.9839 75.5046 81.9516 76.0691 81.8871C76.6498 81.8065 77.2062 81.6855 77.7385 81.5242L74.0611 94.7581C73.8675 95.4516 73.8514 95.9758 74.0127 96.3306C74.174 96.6694 74.5127 96.8387 75.0288 96.8387C75.4481 96.8387 75.8191 96.7097 76.1417 96.4516C76.4804 96.1935 76.7949 95.7903 77.0852 95.2419L77.5207 94.4194H78.4643L77.7627 95.7742C77.4885 96.3065 77.1578 96.7661 76.7707 97.1532C76.3998 97.5242 75.9723 97.8145 75.4885 98.0242C75.0046 98.2339 74.4481 98.3387 73.8191 98.3387ZM70.2143 86.4355L70.4562 85.4919H80.2788L80.0369 86.4355H70.2143ZM85.5186 98.3387C84.6799 98.3387 84.0025 98.1371 83.4863 97.7339C82.9863 97.3306 82.6637 96.7661 82.5186 96.0403C82.3734 95.3145 82.4379 94.4597 82.7121 93.4758L84.0428 88.7581C84.2363 88.0806 84.2686 87.5645 84.1396 87.2097C84.0105 86.8387 83.7202 86.6532 83.2686 86.6532C82.9137 86.6532 82.5831 86.7903 82.2767 87.0645C81.9702 87.3226 81.6718 87.7177 81.3815 88.25L80.946 89.0968H80.0025L80.5347 88.0565C80.8734 87.4435 81.2363 86.9274 81.6234 86.5081C82.0267 86.0726 82.4702 85.7419 82.9541 85.5161C83.4541 85.2903 84.0105 85.1774 84.6234 85.1774C85.4299 85.1774 86.067 85.3548 86.5347 85.7097C87.0025 86.0645 87.2928 86.5726 87.4057 87.2339C87.5347 87.879 87.4702 88.6452 87.2121 89.5323L85.9541 94.0806C85.7121 94.9839 85.6799 95.6694 85.8573 96.1371C86.0508 96.6048 86.446 96.8387 87.0428 96.8387C87.5428 96.8387 87.9944 96.6855 88.3976 96.379C88.817 96.0726 89.1879 95.621 89.5105 95.0242L89.7283 95.5323C89.2121 96.4677 88.5992 97.1694 87.8896 97.6371C87.196 98.1048 86.4057 98.3387 85.5186 98.3387ZM92.1476 98.3387C91.3412 98.3387 90.7041 98.1613 90.2363 97.8065C89.7686 97.4355 89.4702 96.9274 89.3412 96.2823C89.2283 95.621 89.2928 94.8548 89.5347 93.9839L91.9057 85.4919H95.317L92.7283 94.7581C92.5347 95.4194 92.5025 95.9355 92.6315 96.3065C92.7767 96.6613 93.067 96.8387 93.5025 96.8387C93.8412 96.8387 94.1637 96.7097 94.4702 96.4516C94.7928 96.1935 95.0912 95.7984 95.3654 95.2661L95.825 94.4194H96.7686L96.2121 95.4355C95.8896 96.0484 95.5266 96.5726 95.1234 97.0081C94.7363 97.4435 94.2928 97.7742 93.7928 98C93.3089 98.2258 92.7605 98.3387 92.1476 98.3387ZM116.134 98.3387C115.344 98.3387 114.707 98.1613 114.223 97.8065C113.755 97.4355 113.465 96.9274 113.352 96.2823C113.239 95.621 113.304 94.8548 113.546 93.9839L114.804 89.3871C115.062 88.5 115.102 87.8306 114.925 87.379C114.747 86.9113 114.352 86.6774 113.739 86.6774C113.255 86.6774 112.804 86.8306 112.384 87.1371C111.965 87.4274 111.578 87.871 111.223 88.4677L111.03 87.9597C111.546 87.0242 112.159 86.3226 112.868 85.8548C113.578 85.3871 114.368 85.1532 115.239 85.1532C116.094 85.1532 116.771 85.3548 117.271 85.7581C117.788 86.1613 118.11 86.7258 118.239 87.4516C118.384 88.1774 118.32 89.0323 118.046 90.0161L116.715 94.7581C116.538 95.4194 116.513 95.9355 116.642 96.3065C116.771 96.6613 117.054 96.8387 117.489 96.8387C117.844 96.8387 118.175 96.7097 118.481 96.4516C118.804 96.1935 119.102 95.7984 119.376 95.2661L119.812 94.4194H120.755L120.223 95.4355C119.901 96.0484 119.538 96.5726 119.134 97.0081C118.731 97.4435 118.288 97.7742 117.804 98C117.32 98.2258 116.763 98.3387 116.134 98.3387ZM98.7392 98L101.328 88.7581C101.521 88.0968 101.554 87.5806 101.425 87.2097C101.296 86.8387 101.005 86.6532 100.554 86.6532C100.215 86.6532 99.8844 86.7823 99.5618 87.0403C99.2554 87.2984 98.965 87.7016 98.6908 88.25L98.2312 89.0968H97.2876L97.8441 88.0565C98.1666 87.4435 98.5215 86.9194 98.9086 86.4839C99.3118 86.0484 99.7634 85.7177 100.263 85.4919C100.763 85.2661 101.312 85.1532 101.909 85.1532C102.715 85.1532 103.352 85.3387 103.82 85.7097C104.288 86.0645 104.578 86.5726 104.691 87.2339C104.82 87.879 104.763 88.6452 104.521 89.5323L102.151 98H98.7392ZM105.707 98L108.102 89.3871C108.36 88.5 108.392 87.8306 108.199 87.379C108.021 86.9113 107.642 86.6774 107.062 86.6774C106.562 86.6774 106.102 86.8306 105.683 87.1371C105.263 87.4274 104.876 87.871 104.521 88.4677L104.304 87.9597C104.836 87.0242 105.457 86.3226 106.167 85.8548C106.876 85.3871 107.675 85.1532 108.562 85.1532C109.401 85.1532 110.07 85.3548 110.57 85.7581C111.086 86.1613 111.409 86.7258 111.538 87.4516C111.683 88.1774 111.618 89.0323 111.344 90.0161L109.118 98H105.707ZM133.548 98.3387C132.758 98.3387 132.12 98.1613 131.637 97.8065C131.169 97.4516 130.87 96.9516 130.741 96.3065C130.629 95.6452 130.693 94.871 130.935 93.9839L132.217 89.4113C132.459 88.5081 132.483 87.8306 132.29 87.379C132.112 86.9113 131.717 86.6774 131.104 86.6774C130.604 86.6774 130.137 86.8306 129.701 87.1371C129.282 87.4435 128.895 87.8952 128.54 88.4919L128.322 87.9839C128.854 87.0323 129.483 86.3226 130.209 85.8548C130.935 85.3871 131.741 85.1532 132.629 85.1532C133.903 85.1532 134.79 85.5968 135.29 86.4839C135.806 87.3548 135.862 88.5323 135.459 90.0161L134.129 94.7581C133.951 95.4194 133.927 95.9355 134.056 96.3065C134.185 96.6613 134.459 96.8387 134.879 96.8387C135.249 96.8387 135.588 96.7097 135.895 96.4516C136.217 96.1774 136.516 95.7823 136.79 95.2661L137.225 94.4194H138.169L137.637 95.4355C137.314 96.0484 136.951 96.5726 136.548 97.0081C136.145 97.4435 135.693 97.7742 135.193 98C134.709 98.2258 134.161 98.3387 133.548 98.3387ZM122.733 98L125.322 88.7581C125.516 88.0968 125.548 87.5806 125.419 87.2097C125.29 86.8387 124.999 86.6532 124.548 86.6532C124.209 86.6532 123.879 86.7903 123.556 87.0645C123.249 87.3226 122.959 87.7177 122.685 88.25L122.225 89.0968H121.282L121.838 88.0565C122.161 87.4435 122.516 86.9194 122.903 86.4839C123.306 86.0484 123.758 85.7177 124.258 85.4919C124.758 85.2661 125.306 85.1532 125.903 85.1532C126.709 85.1532 127.346 85.3387 127.814 85.7097C128.282 86.0645 128.572 86.5726 128.685 87.2339C128.814 87.879 128.758 88.6452 128.516 89.5323L126.145 98H122.733Z" fill="#464646"/>
</svg>
