<svg width="181" height="181" viewBox="0 0 181 181" fill="none" xmlns="http://www.w3.org/2000/svg">
<circle cx="90.5" cy="90.5" r="90.5" fill="#D9D9D9"/>
<path d="M41.3226 97.3387C40.3226 97.3387 39.4355 97.2016 38.6613 96.9274C37.8871 96.6532 37.2823 96.2742 36.8468 95.7903C36.4113 95.3065 36.1935 94.7581 36.1935 94.1452C36.1935 93.5968 36.3468 93.1532 36.6532 92.8145C36.9758 92.4758 37.4032 92.3065 37.9355 92.3065C38.3871 92.3065 38.7339 92.4355 38.9758 92.6935C39.2339 92.9355 39.371 93.2823 39.3871 93.7339C39.3871 94.0242 39.3468 94.3226 39.2661 94.629C39.1855 94.9194 39.1452 95.1613 39.1452 95.3548C39.1613 95.7097 39.3387 95.9758 39.6774 96.1532C40.0161 96.3306 40.5 96.4194 41.129 96.4194C41.9677 96.4194 42.621 96.2581 43.0887 95.9355C43.5565 95.5968 43.7903 95.1371 43.7903 94.5565C43.7903 94.1048 43.6613 93.7097 43.4032 93.371C43.1452 93.0161 42.8145 92.6935 42.4113 92.4032C42.0242 92.0968 41.6048 91.7903 41.1532 91.4839C40.7016 91.1774 40.2742 90.8548 39.871 90.5161C39.4677 90.1613 39.1371 89.7661 38.879 89.3306C38.6371 88.8952 38.5161 88.3952 38.5161 87.8306C38.5161 86.7177 38.9919 85.8306 39.9435 85.1694C40.9113 84.4919 42.1452 84.1532 43.6452 84.1532C44.5806 84.1532 45.4032 84.2823 46.1129 84.5403C46.8387 84.7984 47.4032 85.1532 47.8065 85.6048C48.2258 86.0403 48.4355 86.5403 48.4355 87.1048C48.4355 87.5887 48.2903 87.9839 48 88.2903C47.7097 88.5968 47.3306 88.75 46.8629 88.75C46.4597 88.75 46.129 88.6371 45.871 88.4113C45.629 88.1855 45.5081 87.8871 45.5081 87.5161C45.5081 87.2742 45.5403 87.0161 45.6048 86.7419C45.6855 86.4516 45.7177 86.2177 45.7016 86.0403C45.7016 85.7177 45.5484 85.4758 45.2419 85.3145C44.9355 85.1532 44.5 85.0726 43.9355 85.0726C43.2258 85.0726 42.6694 85.2258 42.2661 85.5323C41.8629 85.8226 41.6613 86.2258 41.6613 86.7419C41.6613 87.1613 41.7903 87.5484 42.0484 87.9032C42.3065 88.2419 42.629 88.5645 43.0161 88.871C43.4194 89.1613 43.8468 89.4677 44.2984 89.7903C44.75 90.0968 45.1694 90.4274 45.5565 90.7823C45.9597 91.121 46.2903 91.5161 46.5484 91.9677C46.8065 92.4032 46.9355 92.9113 46.9355 93.4919C46.9355 94.2661 46.6935 94.9435 46.2097 95.5242C45.7258 96.0887 45.0645 96.5323 44.2258 96.8548C43.3871 97.1774 42.4194 97.3387 41.3226 97.3387ZM54.9951 97.3387C54.1564 97.3387 53.479 97.1371 52.9629 96.7339C52.4629 96.3306 52.1403 95.7661 51.9951 95.0403C51.85 94.3145 51.9145 93.4597 52.1887 92.4758L53.5193 87.7581C53.7129 87.0806 53.7451 86.5645 53.6161 86.2097C53.4871 85.8387 53.1968 85.6532 52.7451 85.6532C52.3903 85.6532 52.0597 85.7903 51.7532 86.0645C51.4468 86.3226 51.1484 86.7177 50.8581 87.25L50.4226 88.0968H49.479L50.0113 87.0565C50.35 86.4435 50.7129 85.9274 51.1 85.5081C51.5032 85.0726 51.9468 84.7419 52.4306 84.5161C52.9306 84.2903 53.4871 84.1774 54.1 84.1774C54.9064 84.1774 55.5435 84.3548 56.0113 84.7097C56.479 85.0645 56.7693 85.5726 56.8822 86.2339C57.0113 86.879 56.9468 87.6452 56.6887 88.5323L55.4306 93.0806C55.1887 93.9839 55.1564 94.6694 55.3339 95.1371C55.5274 95.6048 55.9226 95.8387 56.5193 95.8387C57.0193 95.8387 57.471 95.6855 57.8742 95.379C58.2935 95.0726 58.6645 94.621 58.9871 94.0242L59.2048 94.5323C58.6887 95.4677 58.0758 96.1694 57.3661 96.6371C56.6726 97.1048 55.8822 97.3387 54.9951 97.3387ZM61.6242 97.3387C60.8177 97.3387 60.1806 97.1613 59.7129 96.8065C59.2451 96.4355 58.9468 95.9274 58.8177 95.2823C58.7048 94.621 58.7693 93.8548 59.0113 92.9839L61.3822 84.4919H64.7935L62.2048 93.7581C62.0113 94.4194 61.979 94.9355 62.1081 95.3065C62.2532 95.6613 62.5435 95.8387 62.979 95.8387C63.3177 95.8387 63.6403 95.7097 63.9468 95.4516C64.2693 95.1935 64.5677 94.7984 64.8419 94.2661L65.3016 93.4194H66.2451L65.6887 94.4355C65.3661 95.0484 65.0032 95.5726 64.6 96.0081C64.2129 96.4435 63.7693 96.7742 63.2693 97C62.7855 97.2258 62.2371 97.3387 61.6242 97.3387ZM85.6109 97.3387C84.8206 97.3387 84.1835 97.1613 83.6997 96.8065C83.2319 96.4355 82.9416 95.9274 82.8287 95.2823C82.7158 94.621 82.7803 93.8548 83.0222 92.9839L84.2803 88.3871C84.5384 87.5 84.5787 86.8306 84.4013 86.379C84.2239 85.9113 83.8287 85.6774 83.2158 85.6774C82.7319 85.6774 82.2803 85.8306 81.8609 86.1371C81.4416 86.4274 81.0545 86.871 80.6997 87.4677L80.5061 86.9597C81.0222 86.0242 81.6351 85.3226 82.3448 84.8548C83.0545 84.3871 83.8448 84.1532 84.7158 84.1532C85.5706 84.1532 86.248 84.3548 86.748 84.7581C87.2642 85.1613 87.5868 85.7258 87.7158 86.4516C87.8609 87.1774 87.7964 88.0323 87.5222 89.0161L86.1916 93.7581C86.0142 94.4194 85.99 94.9355 86.119 95.3065C86.248 95.6613 86.5303 95.8387 86.9658 95.8387C87.3206 95.8387 87.6513 95.7097 87.9577 95.4516C88.2803 95.1935 88.5787 94.7984 88.8529 94.2661L89.2884 93.4194H90.2319L89.6997 94.4355C89.3771 95.0484 89.0142 95.5726 88.611 96.0081C88.2077 96.4435 87.7642 96.7742 87.2803 97C86.7964 97.2258 86.24 97.3387 85.6109 97.3387ZM68.2158 97L70.8045 87.7581C70.998 87.0968 71.0303 86.5806 70.9013 86.2097C70.7722 85.8387 70.4819 85.6532 70.0303 85.6532C69.6916 85.6532 69.361 85.7823 69.0384 86.0403C68.7319 86.2984 68.4416 86.7016 68.1674 87.25L67.7077 88.0968H66.7642L67.3206 87.0565C67.6432 86.4435 67.998 85.9194 68.3851 85.4839C68.7884 85.0484 69.24 84.7177 69.74 84.4919C70.24 84.2661 70.7884 84.1532 71.3851 84.1532C72.1916 84.1532 72.8287 84.3387 73.2964 84.7097C73.7642 85.0645 74.0545 85.5726 74.1674 86.2339C74.2964 86.879 74.24 87.6452 73.998 88.5323L71.6271 97H68.2158ZM75.1835 97L77.5787 88.3871C77.8368 87.5 77.869 86.8306 77.6755 86.379C77.498 85.9113 77.119 85.6774 76.5384 85.6774C76.0384 85.6774 75.5787 85.8306 75.1593 86.1371C74.74 86.4274 74.3529 86.871 73.998 87.4677L73.7803 86.9597C74.3126 86.0242 74.9335 85.3226 75.6432 84.8548C76.3529 84.3871 77.1513 84.1532 78.0384 84.1532C78.8771 84.1532 79.5464 84.3548 80.0464 84.7581C80.5626 85.1613 80.8851 85.7258 81.0142 86.4516C81.1593 87.1774 81.0948 88.0323 80.8206 89.0161L78.5948 97H75.1835ZM109.605 97.3387C108.815 97.3387 108.178 97.1613 107.694 96.8065C107.226 96.4355 106.936 95.9274 106.823 95.2823C106.71 94.621 106.774 93.8548 107.016 92.9839L108.274 88.3871C108.533 87.5 108.573 86.8306 108.395 86.379C108.218 85.9113 107.823 85.6774 107.21 85.6774C106.726 85.6774 106.274 85.8306 105.855 86.1371C105.436 86.4274 105.049 86.871 104.694 87.4677L104.5 86.9597C105.016 86.0242 105.629 85.3226 106.339 84.8548C107.049 84.3871 107.839 84.1532 108.71 84.1532C109.565 84.1532 110.242 84.3548 110.742 84.7581C111.258 85.1613 111.581 85.7258 111.71 86.4516C111.855 87.1774 111.791 88.0323 111.516 89.0161L110.186 93.7581C110.008 94.4194 109.984 94.9355 110.113 95.3065C110.242 95.6613 110.524 95.8387 110.96 95.8387C111.315 95.8387 111.645 95.7097 111.952 95.4516C112.274 95.1935 112.573 94.7984 112.847 94.2661L113.283 93.4194H114.226L113.694 94.4355C113.371 95.0484 113.008 95.5726 112.605 96.0081C112.202 96.4435 111.758 96.7742 111.274 97C110.791 97.2258 110.234 97.3387 109.605 97.3387ZM92.2099 97L94.7986 87.7581C94.9922 87.0968 95.0244 86.5806 94.8954 86.2097C94.7664 85.8387 94.4761 85.6532 94.0244 85.6532C93.6857 85.6532 93.3551 85.7823 93.0325 86.0403C92.7261 86.2984 92.4357 86.7016 92.1615 87.25L91.7019 88.0968H90.7583L91.3148 87.0565C91.6373 86.4435 91.9922 85.9194 92.3793 85.4839C92.7825 85.0484 93.2341 84.7177 93.7341 84.4919C94.2341 84.2661 94.7825 84.1532 95.3793 84.1532C96.1857 84.1532 96.8228 84.3387 97.2906 84.7097C97.7583 85.0645 98.0486 85.5726 98.1615 86.2339C98.2906 86.879 98.2341 87.6452 97.9922 88.5323L95.6212 97H92.2099ZM99.1777 97L101.573 88.3871C101.831 87.5 101.863 86.8306 101.67 86.379C101.492 85.9113 101.113 85.6774 100.533 85.6774C100.033 85.6774 99.5728 85.8306 99.1535 86.1371C98.7341 86.4274 98.347 86.871 97.9922 87.4677L97.7744 86.9597C98.3067 86.0242 98.9277 85.3226 99.6373 84.8548C100.347 84.3871 101.145 84.1532 102.033 84.1532C102.871 84.1532 103.541 84.3548 104.041 84.7581C104.557 85.1613 104.879 85.7258 105.008 86.4516C105.153 87.1774 105.089 88.0323 104.815 89.0161L102.589 97H99.1777ZM120.269 97.3387C118.833 97.3387 117.704 96.9194 116.881 96.0806C116.075 95.2258 115.672 94.0403 115.672 92.5242C115.672 91.4113 115.881 90.3548 116.301 89.3548C116.72 88.3387 117.293 87.4435 118.019 86.6694C118.761 85.879 119.607 85.2661 120.559 84.8306C121.511 84.379 122.511 84.1532 123.559 84.1532C124.607 84.1532 125.406 84.371 125.954 84.8065C126.519 85.2258 126.801 85.8387 126.801 86.6452C126.801 87.5 126.47 88.3145 125.809 89.0887C125.164 89.8629 124.244 90.5565 123.051 91.1694C121.873 91.7661 120.486 92.2339 118.89 92.5726V91.7984C120.002 91.4113 120.946 90.9435 121.72 90.3952C122.494 89.8306 123.083 89.2097 123.486 88.5323C123.89 87.8548 124.091 87.1613 124.091 86.4516C124.091 85.9839 124.011 85.6371 123.849 85.4113C123.688 85.1855 123.454 85.0726 123.148 85.0726C122.68 85.0726 122.204 85.2823 121.72 85.7016C121.252 86.121 120.825 86.6855 120.438 87.3952C120.051 88.0887 119.736 88.8548 119.494 89.6935C119.252 90.5323 119.131 91.371 119.131 92.2097C119.131 93.3548 119.341 94.2339 119.761 94.8468C120.196 95.4435 120.817 95.7419 121.623 95.7419C122.285 95.7419 122.873 95.5645 123.39 95.2097C123.922 94.8387 124.398 94.2903 124.817 93.5645H125.736C125.123 94.8065 124.357 95.75 123.438 96.3952C122.535 97.0242 121.478 97.3387 120.269 97.3387ZM129.769 97L132.357 87.7581C132.551 87.0806 132.575 86.5645 132.43 86.2097C132.301 85.8387 132.019 85.6532 131.583 85.6532C131.244 85.6532 130.914 85.7903 130.591 86.0645C130.285 86.3226 129.994 86.7177 129.72 87.25L129.26 88.0968H128.317L128.873 87.0565C129.196 86.4435 129.551 85.9194 129.938 85.4839C130.341 85.0484 130.793 84.7177 131.293 84.4919C131.793 84.2661 132.341 84.1532 132.938 84.1532C133.744 84.1532 134.381 84.3387 134.849 84.7097C135.317 85.0645 135.607 85.5726 135.72 86.2339C135.849 86.879 135.793 87.6452 135.551 88.5323L133.18 97H129.769ZM139.01 89.3306C138.672 89.3306 138.406 89.2339 138.212 89.0403C138.019 88.8468 137.922 88.5968 137.922 88.2903C137.922 87.9839 137.986 87.7016 138.115 87.4435C138.26 87.1694 138.398 86.9113 138.527 86.6694C138.672 86.4274 138.744 86.2016 138.744 85.9919C138.744 85.6855 138.535 85.5323 138.115 85.5323C137.696 85.5323 137.252 85.7016 136.785 86.0403C136.317 86.3629 135.922 86.7984 135.599 87.3468L135.406 86.7903C135.889 85.9516 136.47 85.3065 137.148 84.8548C137.825 84.3871 138.551 84.1532 139.325 84.1532C140.002 84.1532 140.527 84.3306 140.898 84.6855C141.269 85.0403 141.454 85.5403 141.454 86.1855C141.454 86.7339 141.333 87.25 141.091 87.7339C140.865 88.2016 140.567 88.5887 140.196 88.8952C139.841 89.1855 139.446 89.3306 139.01 89.3306Z" fill="#464646"/>
</svg>
