<svg width="490" height="367" viewBox="0 0 490 367" fill="none" xmlns="http://www.w3.org/2000/svg">
<rect width="490" height="367" fill="#B8B8B8"/>
<path d="M157.782 191.282L147.379 166.565H146.815L141.613 185.274C141.317 186.296 141.21 187.102 141.29 187.694C141.398 188.285 141.761 188.715 142.379 188.984C142.997 189.226 143.952 189.374 145.242 189.427L144.798 191C144.315 190.946 143.589 190.919 142.621 190.919C141.68 190.892 140.645 190.879 139.516 190.879C138.333 190.879 137.258 190.892 136.29 190.919C135.323 190.919 134.556 190.946 133.992 191L134.435 189.427C135.645 189.374 136.599 189.212 137.298 188.944C137.997 188.675 138.548 188.245 138.952 187.653C139.355 187.062 139.691 186.269 139.96 185.274L144.919 167.492C145.188 166.524 145.282 165.812 145.202 165.355C145.148 164.871 144.839 164.535 144.274 164.347C143.71 164.159 142.796 164.051 141.532 164.024L141.976 162.452C142.54 162.478 143.32 162.505 144.315 162.532C145.336 162.559 146.465 162.573 147.702 162.573C149.503 162.573 151.008 162.532 152.218 162.452L160.161 181.524H160.726L164.274 168.782C164.624 167.573 164.772 166.645 164.718 166C164.691 165.328 164.368 164.844 163.75 164.548C163.159 164.253 162.151 164.078 160.726 164.024L161.169 162.452C161.68 162.478 162.433 162.505 163.427 162.532C164.422 162.559 165.47 162.573 166.573 162.573C167.675 162.573 168.696 162.559 169.637 162.532C170.605 162.505 171.398 162.478 172.016 162.452L171.573 164.024C170.363 164.078 169.395 164.253 168.669 164.548C167.97 164.817 167.419 165.274 167.016 165.919C166.64 166.538 166.29 167.425 165.968 168.581L159.637 191.282H157.782ZM177.059 191.565C174.666 191.565 172.785 190.866 171.414 189.468C170.07 188.043 169.398 186.067 169.398 183.54C169.398 181.685 169.747 179.925 170.446 178.258C171.145 176.565 172.099 175.073 173.309 173.782C174.546 172.465 175.957 171.444 177.543 170.718C179.129 169.965 180.796 169.589 182.543 169.589C184.29 169.589 185.621 169.952 186.535 170.677C187.476 171.376 187.946 172.398 187.946 173.742C187.946 175.167 187.395 176.524 186.293 177.815C185.218 179.105 183.685 180.261 181.696 181.282C179.734 182.277 177.422 183.056 174.761 183.621V182.331C176.615 181.685 178.188 180.906 179.478 179.992C180.769 179.051 181.75 178.016 182.422 176.887C183.094 175.758 183.43 174.602 183.43 173.419C183.43 172.64 183.296 172.062 183.027 171.685C182.758 171.309 182.368 171.121 181.857 171.121C181.078 171.121 180.285 171.47 179.478 172.169C178.699 172.868 177.986 173.809 177.341 174.992C176.696 176.148 176.172 177.425 175.769 178.823C175.365 180.22 175.164 181.618 175.164 183.016C175.164 184.925 175.513 186.39 176.212 187.411C176.938 188.406 177.973 188.903 179.317 188.903C180.419 188.903 181.4 188.608 182.261 188.016C183.148 187.398 183.941 186.484 184.64 185.274H186.172C185.15 187.344 183.873 188.917 182.341 189.992C180.836 191.04 179.075 191.565 177.059 191.565ZM209.308 191.565C207.856 191.565 206.781 191.013 206.082 189.911C205.383 188.809 205.033 187.237 205.033 185.194C205.033 184.065 205.168 182.949 205.437 181.847C205.705 180.718 206.068 179.71 206.525 178.823C206.982 177.909 207.493 177.183 208.058 176.645C208.622 176.081 209.187 175.798 209.751 175.798C210.235 175.798 210.598 176.027 210.84 176.484C211.109 176.914 211.243 177.559 211.243 178.419C211.243 179.737 210.894 181.175 210.195 182.734C209.496 184.293 208.528 185.772 207.291 187.169L206.364 185.274L207.493 182.895C207.439 184.481 207.722 185.691 208.34 186.524C208.958 187.358 209.912 187.774 211.203 187.774C212.144 187.774 213.058 187.532 213.945 187.048C214.859 186.565 215.679 185.906 216.404 185.073C217.13 184.239 217.708 183.325 218.138 182.331C218.595 181.309 218.824 180.288 218.824 179.266C218.824 178.46 218.703 177.788 218.461 177.25C218.219 176.685 217.923 176.188 217.574 175.758C217.251 175.328 216.902 174.925 216.525 174.548C216.176 174.172 215.88 173.782 215.638 173.379C215.396 172.976 215.275 172.505 215.275 171.968C215.275 171.242 215.504 170.664 215.961 170.234C216.445 169.804 217.063 169.589 217.816 169.589C218.891 169.589 219.684 170.032 220.195 170.919C220.732 171.806 221.001 173.151 221.001 174.952C221.001 177.022 220.679 179.051 220.033 181.04C219.388 183.003 218.501 184.777 217.372 186.363C216.243 187.949 214.98 189.212 213.582 190.153C212.211 191.094 210.786 191.565 209.308 191.565ZM199.429 191.565C197.654 191.565 196.243 191.067 195.195 190.073C194.146 189.051 193.622 187.667 193.622 185.919C193.622 184.925 193.797 183.917 194.146 182.895C194.523 181.847 195.087 180.745 195.84 179.589C196.593 178.433 197.52 177.183 198.622 175.839C199.751 174.468 201.068 172.949 202.574 171.282C202.036 171.47 201.458 171.618 200.84 171.726C200.248 171.833 199.684 171.887 199.146 171.887C198.636 171.887 198.165 171.833 197.735 171.726C197.332 171.618 196.982 171.511 196.687 171.403C196.391 171.296 196.136 171.242 195.92 171.242C195.41 171.242 195.154 171.484 195.154 171.968C195.154 172.237 195.222 172.532 195.356 172.855C195.517 173.151 195.665 173.473 195.8 173.823C195.934 174.145 196.001 174.481 196.001 174.831C196.001 175.422 195.786 175.919 195.356 176.323C194.953 176.726 194.442 176.927 193.824 176.927C193.232 176.927 192.762 176.726 192.412 176.323C192.09 175.919 191.929 175.355 191.929 174.629C191.929 173.661 192.211 172.801 192.775 172.048C193.34 171.296 194.119 170.704 195.114 170.274C196.136 169.817 197.291 169.589 198.582 169.589C199.308 169.589 200.047 169.656 200.8 169.79C201.552 169.898 202.372 170.073 203.259 170.315L203.945 169.226L205.033 169.831C203.824 171.605 202.789 173.312 201.929 174.952C201.068 176.591 200.41 178.137 199.953 179.589C199.523 181.04 199.308 182.425 199.308 183.742C199.308 185.14 199.576 186.202 200.114 186.927C200.652 187.626 201.445 187.976 202.493 187.976C203.084 187.976 203.636 187.855 204.146 187.613C204.684 187.371 205.195 187.008 205.679 186.524L206.364 187.411C205.369 188.836 204.294 189.884 203.138 190.556C202.009 191.228 200.773 191.565 199.429 191.565ZM243.351 191.565C241.254 191.565 239.749 190.906 238.835 189.589C237.948 188.245 237.813 186.47 238.432 184.266L243.996 164.306C245.125 164.306 246.16 164.253 247.101 164.145C248.069 164.011 248.996 163.809 249.883 163.54L243.754 185.597C243.432 186.753 243.405 187.626 243.673 188.218C243.942 188.782 244.507 189.065 245.367 189.065C246.066 189.065 246.684 188.849 247.222 188.419C247.786 187.989 248.311 187.317 248.794 186.403L249.52 185.032H251.093L249.923 187.29C249.466 188.177 248.915 188.944 248.27 189.589C247.652 190.207 246.94 190.691 246.133 191.04C245.327 191.39 244.399 191.565 243.351 191.565ZM237.343 171.726L237.746 170.153H254.117L253.714 171.726H237.343ZM262.71 191.565C260.237 191.565 258.315 190.852 256.944 189.427C255.6 187.976 254.928 185.946 254.928 183.339C254.928 181.484 255.25 179.737 255.895 178.097C256.567 176.43 257.495 174.965 258.678 173.702C259.86 172.411 261.218 171.403 262.75 170.677C264.282 169.952 265.922 169.589 267.669 169.589C270.143 169.589 272.065 170.315 273.436 171.766C274.807 173.218 275.492 175.247 275.492 177.855C275.492 179.71 275.156 181.47 274.484 183.137C273.812 184.777 272.885 186.228 271.702 187.492C270.519 188.755 269.161 189.75 267.629 190.476C266.097 191.202 264.457 191.565 262.71 191.565ZM263.032 189.992C263.704 189.992 264.363 189.737 265.008 189.226C265.68 188.688 266.299 187.962 266.863 187.048C267.454 186.134 267.979 185.099 268.436 183.944C268.893 182.761 269.242 181.511 269.484 180.194C269.726 178.849 269.847 177.505 269.847 176.161C269.847 174.522 269.632 173.285 269.202 172.452C268.799 171.591 268.18 171.161 267.347 171.161C266.675 171.161 266.003 171.43 265.331 171.968C264.686 172.478 264.067 173.191 263.476 174.105C262.911 175.019 262.401 176.067 261.944 177.25C261.514 178.433 261.164 179.696 260.895 181.04C260.653 182.358 260.532 183.675 260.532 184.992C260.532 186.659 260.747 187.909 261.178 188.742C261.608 189.575 262.226 189.992 263.032 189.992ZM297.101 191.565C295.649 191.565 294.574 191.013 293.875 189.911C293.176 188.809 292.826 187.237 292.826 185.194C292.826 184.065 292.961 182.949 293.23 181.847C293.498 180.718 293.861 179.71 294.318 178.823C294.775 177.909 295.286 177.183 295.851 176.645C296.415 176.081 296.98 175.798 297.544 175.798C298.028 175.798 298.391 176.027 298.633 176.484C298.902 176.914 299.036 177.559 299.036 178.419C299.036 179.737 298.687 181.175 297.988 182.734C297.289 184.293 296.321 185.772 295.084 187.169L294.157 185.274L295.286 182.895C295.232 184.481 295.515 185.691 296.133 186.524C296.751 187.358 297.705 187.774 298.996 187.774C299.937 187.774 300.851 187.532 301.738 187.048C302.652 186.565 303.472 185.906 304.197 185.073C304.923 184.239 305.501 183.325 305.931 182.331C306.388 181.309 306.617 180.288 306.617 179.266C306.617 178.46 306.496 177.788 306.254 177.25C306.012 176.685 305.716 176.188 305.367 175.758C305.044 175.328 304.695 174.925 304.318 174.548C303.969 174.172 303.673 173.782 303.431 173.379C303.189 172.976 303.068 172.505 303.068 171.968C303.068 171.242 303.297 170.664 303.754 170.234C304.238 169.804 304.856 169.589 305.609 169.589C306.684 169.589 307.477 170.032 307.988 170.919C308.525 171.806 308.794 173.151 308.794 174.952C308.794 177.022 308.472 179.051 307.826 181.04C307.181 183.003 306.294 184.777 305.165 186.363C304.036 187.949 302.773 189.212 301.375 190.153C300.004 191.094 298.579 191.565 297.101 191.565ZM287.222 191.565C285.447 191.565 284.036 191.067 282.988 190.073C281.939 189.051 281.415 187.667 281.415 185.919C281.415 184.925 281.59 183.917 281.939 182.895C282.316 181.847 282.88 180.745 283.633 179.589C284.386 178.433 285.313 177.183 286.415 175.839C287.544 174.468 288.861 172.949 290.367 171.282C289.829 171.47 289.251 171.618 288.633 171.726C288.041 171.833 287.477 171.887 286.939 171.887C286.429 171.887 285.958 171.833 285.528 171.726C285.125 171.618 284.775 171.511 284.48 171.403C284.184 171.296 283.929 171.242 283.713 171.242C283.203 171.242 282.947 171.484 282.947 171.968C282.947 172.237 283.015 172.532 283.149 172.855C283.31 173.151 283.458 173.473 283.592 173.823C283.727 174.145 283.794 174.481 283.794 174.831C283.794 175.422 283.579 175.919 283.149 176.323C282.746 176.726 282.235 176.927 281.617 176.927C281.025 176.927 280.555 176.726 280.205 176.323C279.883 175.919 279.722 175.355 279.722 174.629C279.722 173.661 280.004 172.801 280.568 172.048C281.133 171.296 281.912 170.704 282.907 170.274C283.929 169.817 285.084 169.589 286.375 169.589C287.101 169.589 287.84 169.656 288.592 169.79C289.345 169.898 290.165 170.073 291.052 170.315L291.738 169.226L292.826 169.831C291.617 171.605 290.582 173.312 289.722 174.952C288.861 176.591 288.203 178.137 287.746 179.589C287.316 181.04 287.101 182.425 287.101 183.742C287.101 185.14 287.369 186.202 287.907 186.927C288.445 187.626 289.238 187.976 290.286 187.976C290.877 187.976 291.429 187.855 291.939 187.613C292.477 187.371 292.988 187.008 293.472 186.524L294.157 187.411C293.162 188.836 292.087 189.884 290.931 190.556C289.802 191.228 288.566 191.565 287.222 191.565ZM332.352 191.565C331.035 191.565 329.973 191.269 329.166 190.677C328.387 190.086 327.89 189.253 327.675 188.177C327.486 187.075 327.594 185.785 327.997 184.306L330.134 176.685C330.537 175.18 330.578 174.051 330.255 173.298C329.959 172.519 329.301 172.129 328.279 172.129C327.446 172.129 326.666 172.384 325.941 172.895C325.242 173.406 324.597 174.159 324.005 175.153L323.642 174.306C324.529 172.72 325.578 171.538 326.787 170.758C327.997 169.978 329.341 169.589 330.82 169.589C332.943 169.589 334.422 170.328 335.255 171.806C336.115 173.258 336.209 175.22 335.537 177.694L333.32 185.597C333.024 186.699 332.984 187.559 333.199 188.177C333.414 188.769 333.871 189.065 334.57 189.065C335.188 189.065 335.752 188.849 336.263 188.419C336.801 187.962 337.298 187.304 337.755 186.444L338.481 185.032H340.054L339.166 186.726C338.629 187.747 338.024 188.621 337.352 189.347C336.68 190.073 335.927 190.624 335.094 191C334.287 191.376 333.373 191.565 332.352 191.565ZM314.328 191L318.642 175.597C318.965 174.495 319.019 173.634 318.804 173.016C318.588 172.398 318.105 172.089 317.352 172.089C316.787 172.089 316.236 172.317 315.699 172.774C315.188 173.204 314.704 173.863 314.247 174.75L313.481 176.161H311.908L312.836 174.427C313.373 173.406 313.965 172.532 314.61 171.806C315.282 171.081 316.035 170.53 316.868 170.153C317.701 169.777 318.615 169.589 319.61 169.589C320.954 169.589 322.016 169.898 322.795 170.516C323.575 171.108 324.059 171.954 324.247 173.056C324.462 174.132 324.368 175.409 323.965 176.887L320.013 191H314.328Z" fill="#3E3636"/>
</svg>
