<svg width="490" height="367" viewBox="0 0 490 367" fill="none" xmlns="http://www.w3.org/2000/svg">
<rect width="490" height="367" fill="#B8B8B8"/>
<path d="M163.465 196.565C161.099 196.565 159.029 196.067 157.255 195.073C155.508 194.051 154.15 192.626 153.182 190.798C152.215 188.944 151.731 186.78 151.731 184.306C151.731 181.914 152.161 179.669 153.021 177.573C153.881 175.476 155.077 173.634 156.61 172.048C158.142 170.435 159.916 169.172 161.932 168.258C163.948 167.344 166.099 166.887 168.384 166.887C170.75 166.887 172.806 167.384 174.553 168.379C176.327 169.374 177.698 170.785 178.666 172.613C179.634 174.441 180.118 176.605 180.118 179.105C180.118 181.497 179.674 183.755 178.787 185.879C177.927 187.976 176.731 189.831 175.198 191.444C173.666 193.03 171.892 194.28 169.876 195.194C167.887 196.108 165.75 196.565 163.465 196.565ZM163.545 195.032C164.889 195.032 166.166 194.562 167.376 193.621C168.612 192.68 169.701 191.39 170.642 189.75C171.61 188.083 172.362 186.215 172.9 184.145C173.465 182.048 173.747 179.858 173.747 177.573C173.747 175.637 173.532 173.997 173.102 172.653C172.672 171.282 172.053 170.234 171.247 169.508C170.44 168.782 169.446 168.419 168.263 168.419C166.946 168.419 165.669 168.903 164.432 169.871C163.223 170.812 162.134 172.102 161.166 173.742C160.225 175.382 159.473 177.25 158.908 179.347C158.344 181.444 158.061 183.634 158.061 185.919C158.061 188.796 158.532 191.04 159.473 192.653C160.44 194.239 161.798 195.032 163.545 195.032ZM189.023 196.565C187.679 196.565 186.604 196.269 185.798 195.677C185.018 195.059 184.534 194.212 184.346 193.137C184.158 192.035 184.265 190.758 184.669 189.306L189.79 170.96C190.085 169.965 190.166 169.199 190.032 168.661C189.924 168.124 189.548 167.747 188.902 167.532C188.257 167.317 187.29 167.196 185.999 167.169L186.443 165.597C188.701 165.57 190.73 165.422 192.532 165.153C194.333 164.884 195.972 164.481 197.451 163.944L189.951 190.597C189.655 191.672 189.615 192.519 189.83 193.137C190.045 193.755 190.515 194.065 191.241 194.065C191.833 194.065 192.384 193.849 192.894 193.419C193.432 192.989 193.929 192.331 194.386 191.444L195.152 190.032H196.725L195.798 191.726C195.26 192.747 194.655 193.621 193.983 194.347C193.311 195.073 192.572 195.624 191.765 196C190.959 196.376 190.045 196.565 189.023 196.565ZM216.643 196.565C215.299 196.565 214.238 196.269 213.458 195.677C212.678 195.059 212.181 194.199 211.966 193.097C211.778 191.995 211.885 190.731 212.289 189.306L217.41 170.96C217.705 169.965 217.799 169.199 217.692 168.661C217.584 168.124 217.221 167.747 216.603 167.532C216.012 167.317 215.084 167.196 213.821 167.169L214.305 165.597C216.536 165.57 218.525 165.422 220.272 165.153C222.02 164.884 223.619 164.481 225.071 163.944L217.611 190.597C217.289 191.672 217.235 192.519 217.45 193.137C217.665 193.755 218.135 194.065 218.861 194.065C219.453 194.065 220.004 193.849 220.514 193.419C221.052 192.989 221.549 192.331 222.006 191.444L222.772 190.032H224.345L223.418 191.726C222.88 192.747 222.275 193.621 221.603 194.347C220.958 195.073 220.219 195.624 219.385 196C218.579 196.376 217.665 196.565 216.643 196.565ZM205.918 196.565C203.902 196.565 202.316 195.879 201.16 194.508C200.004 193.11 199.426 191.202 199.426 188.782C199.426 186.901 199.762 185.113 200.434 183.419C201.106 181.726 202.006 180.22 203.135 178.903C204.291 177.559 205.609 176.511 207.087 175.758C208.592 174.978 210.152 174.589 211.764 174.589C213.109 174.589 214.385 174.871 215.595 175.435C216.805 176 217.92 176.82 218.942 177.895L215.071 180.355C214.99 179.038 214.668 178.016 214.103 177.29C213.566 176.538 212.867 176.161 212.006 176.161C211.146 176.161 210.299 176.497 209.466 177.169C208.66 177.841 207.934 178.755 207.289 179.911C206.643 181.04 206.133 182.331 205.756 183.782C205.38 185.207 205.192 186.685 205.192 188.218C205.192 189.992 205.474 191.349 206.039 192.29C206.63 193.231 207.45 193.702 208.498 193.702C209.251 193.702 209.936 193.487 210.555 193.056C211.2 192.599 211.791 191.914 212.329 191L212.692 191.605C211.912 193.272 210.958 194.522 209.829 195.355C208.727 196.161 207.423 196.565 205.918 196.565ZM244.611 196.565C242.514 196.565 241.008 195.906 240.095 194.589C239.207 193.245 239.073 191.47 239.691 189.266L245.256 169.306C246.385 169.306 247.42 169.253 248.361 169.145C249.328 169.011 250.256 168.809 251.143 168.54L245.014 190.597C244.691 191.753 244.664 192.626 244.933 193.218C245.202 193.782 245.767 194.065 246.627 194.065C247.326 194.065 247.944 193.849 248.482 193.419C249.046 192.989 249.57 192.317 250.054 191.403L250.78 190.032H252.353L251.183 192.29C250.726 193.177 250.175 193.944 249.53 194.589C248.912 195.207 248.199 195.691 247.393 196.04C246.586 196.39 245.659 196.565 244.611 196.565ZM238.603 176.726L239.006 175.153H255.377L254.974 176.726H238.603ZM263.97 196.565C261.496 196.565 259.574 195.852 258.203 194.427C256.859 192.976 256.187 190.946 256.187 188.339C256.187 186.484 256.51 184.737 257.155 183.097C257.827 181.43 258.755 179.965 259.937 178.702C261.12 177.411 262.478 176.403 264.01 175.677C265.542 174.952 267.182 174.589 268.929 174.589C271.402 174.589 273.324 175.315 274.695 176.766C276.066 178.218 276.752 180.247 276.752 182.855C276.752 184.71 276.416 186.47 275.744 188.137C275.072 189.777 274.144 191.228 272.962 192.492C271.779 193.755 270.421 194.75 268.889 195.476C267.357 196.202 265.717 196.565 263.97 196.565ZM264.292 194.992C264.964 194.992 265.623 194.737 266.268 194.226C266.94 193.688 267.558 192.962 268.123 192.048C268.714 191.134 269.238 190.099 269.695 188.944C270.152 187.761 270.502 186.511 270.744 185.194C270.986 183.849 271.107 182.505 271.107 181.161C271.107 179.522 270.892 178.285 270.462 177.452C270.058 176.591 269.44 176.161 268.607 176.161C267.935 176.161 267.263 176.43 266.591 176.968C265.945 177.478 265.327 178.191 264.736 179.105C264.171 180.019 263.66 181.067 263.203 182.25C262.773 183.433 262.424 184.696 262.155 186.04C261.913 187.358 261.792 188.675 261.792 189.992C261.792 191.659 262.007 192.909 262.437 193.742C262.867 194.575 263.486 194.992 264.292 194.992ZM298.36 196.565C296.909 196.565 295.833 196.013 295.135 194.911C294.436 193.809 294.086 192.237 294.086 190.194C294.086 189.065 294.221 187.949 294.489 186.847C294.758 185.718 295.121 184.71 295.578 183.823C296.035 182.909 296.546 182.183 297.11 181.645C297.675 181.081 298.239 180.798 298.804 180.798C299.288 180.798 299.651 181.027 299.893 181.484C300.161 181.914 300.296 182.559 300.296 183.419C300.296 184.737 299.946 186.175 299.247 187.734C298.548 189.293 297.581 190.772 296.344 192.169L295.417 190.274L296.546 187.895C296.492 189.481 296.774 190.691 297.393 191.524C298.011 192.358 298.965 192.774 300.255 192.774C301.196 192.774 302.11 192.532 302.997 192.048C303.911 191.565 304.731 190.906 305.457 190.073C306.183 189.239 306.761 188.325 307.191 187.331C307.648 186.309 307.876 185.288 307.876 184.266C307.876 183.46 307.755 182.788 307.514 182.25C307.272 181.685 306.976 181.188 306.626 180.758C306.304 180.328 305.954 179.925 305.578 179.548C305.229 179.172 304.933 178.782 304.691 178.379C304.449 177.976 304.328 177.505 304.328 176.968C304.328 176.242 304.557 175.664 305.014 175.234C305.497 174.804 306.116 174.589 306.868 174.589C307.944 174.589 308.737 175.032 309.247 175.919C309.785 176.806 310.054 178.151 310.054 179.952C310.054 182.022 309.731 184.051 309.086 186.04C308.441 188.003 307.554 189.777 306.425 191.363C305.296 192.949 304.032 194.212 302.635 195.153C301.264 196.094 299.839 196.565 298.36 196.565ZM288.481 196.565C286.707 196.565 285.296 196.067 284.247 195.073C283.199 194.051 282.675 192.667 282.675 190.919C282.675 189.925 282.85 188.917 283.199 187.895C283.575 186.847 284.14 185.745 284.893 184.589C285.645 183.433 286.573 182.183 287.675 180.839C288.804 179.468 290.121 177.949 291.626 176.282C291.089 176.47 290.511 176.618 289.893 176.726C289.301 176.833 288.737 176.887 288.199 176.887C287.688 176.887 287.218 176.833 286.788 176.726C286.385 176.618 286.035 176.511 285.739 176.403C285.444 176.296 285.188 176.242 284.973 176.242C284.462 176.242 284.207 176.484 284.207 176.968C284.207 177.237 284.274 177.532 284.409 177.855C284.57 178.151 284.718 178.473 284.852 178.823C284.987 179.145 285.054 179.481 285.054 179.831C285.054 180.422 284.839 180.919 284.409 181.323C284.005 181.726 283.495 181.927 282.876 181.927C282.285 181.927 281.815 181.726 281.465 181.323C281.143 180.919 280.981 180.355 280.981 179.629C280.981 178.661 281.264 177.801 281.828 177.048C282.393 176.296 283.172 175.704 284.167 175.274C285.188 174.817 286.344 174.589 287.635 174.589C288.36 174.589 289.1 174.656 289.852 174.79C290.605 174.898 291.425 175.073 292.312 175.315L292.997 174.226L294.086 174.831C292.876 176.605 291.842 178.312 290.981 179.952C290.121 181.591 289.462 183.137 289.005 184.589C288.575 186.04 288.36 187.425 288.36 188.742C288.36 190.14 288.629 191.202 289.167 191.927C289.704 192.626 290.497 192.976 291.546 192.976C292.137 192.976 292.688 192.855 293.199 192.613C293.737 192.371 294.247 192.008 294.731 191.524L295.417 192.411C294.422 193.836 293.347 194.884 292.191 195.556C291.062 196.228 289.825 196.565 288.481 196.565ZM333.612 196.565C332.295 196.565 331.233 196.269 330.426 195.677C329.647 195.086 329.149 194.253 328.934 193.177C328.746 192.075 328.854 190.785 329.257 189.306L331.394 181.685C331.797 180.18 331.838 179.051 331.515 178.298C331.219 177.519 330.561 177.129 329.539 177.129C328.706 177.129 327.926 177.384 327.2 177.895C326.501 178.406 325.856 179.159 325.265 180.153L324.902 179.306C325.789 177.72 326.838 176.538 328.047 175.758C329.257 174.978 330.601 174.589 332.079 174.589C334.203 174.589 335.682 175.328 336.515 176.806C337.375 178.258 337.469 180.22 336.797 182.694L334.579 190.597C334.284 191.699 334.243 192.559 334.458 193.177C334.674 193.769 335.131 194.065 335.829 194.065C336.448 194.065 337.012 193.849 337.523 193.419C338.061 192.962 338.558 192.304 339.015 191.444L339.741 190.032H341.313L340.426 191.726C339.889 192.747 339.284 193.621 338.612 194.347C337.94 195.073 337.187 195.624 336.354 196C335.547 196.376 334.633 196.565 333.612 196.565ZM315.588 196L319.902 180.597C320.225 179.495 320.278 178.634 320.063 178.016C319.848 177.398 319.364 177.089 318.612 177.089C318.047 177.089 317.496 177.317 316.958 177.774C316.448 178.204 315.964 178.863 315.507 179.75L314.741 181.161H313.168L314.096 179.427C314.633 178.406 315.225 177.532 315.87 176.806C316.542 176.081 317.295 175.53 318.128 175.153C318.961 174.777 319.875 174.589 320.87 174.589C322.214 174.589 323.276 174.898 324.055 175.516C324.835 176.108 325.319 176.954 325.507 178.056C325.722 179.132 325.628 180.409 325.225 181.887L321.273 196H315.588Z" fill="#3E3636"/>
</svg>
