<svg width="490" height="367" viewBox="0 0 490 367" fill="none" xmlns="http://www.w3.org/2000/svg">
<rect width="490" height="367" fill="#B8B8B8"/>
<path d="M206.632 200.637C205.126 200.637 203.755 200.368 202.519 199.831C201.282 199.32 200.126 198.634 199.051 197.774C198.002 196.941 197.008 196.054 196.067 195.113C195.126 194.199 194.226 193.312 193.365 192.452C192.532 191.618 191.712 190.946 190.906 190.435C190.099 189.898 189.266 189.629 188.406 189.629C187.814 189.629 187.344 189.763 186.994 190.032C186.672 190.274 186.511 190.637 186.511 191.121C186.511 191.874 186.941 192.438 187.801 192.815C188.688 193.218 189.951 193.419 191.591 193.419C193.957 193.419 196.228 193.056 198.406 192.331C200.583 191.632 202.586 190.637 204.414 189.347C206.269 188.056 207.882 186.538 209.252 184.79C210.623 183.043 211.685 181.134 212.438 179.065C213.218 176.968 213.607 174.763 213.607 172.452C213.607 169.575 213.016 167.358 211.833 165.798C210.65 164.212 208.984 163.419 206.833 163.419C205.435 163.419 204.118 163.715 202.882 164.306C201.645 164.898 200.57 165.718 199.656 166.766C198.742 167.815 198.016 169.038 197.478 170.435C196.968 171.833 196.712 173.339 196.712 174.952C196.712 177.075 197.169 178.702 198.083 179.831C198.997 180.933 200.247 181.484 201.833 181.484C202.666 181.484 203.298 181.336 203.728 181.04C204.185 180.718 204.414 180.261 204.414 179.669C204.414 179.212 204.306 178.782 204.091 178.379C203.903 177.949 203.701 177.505 203.486 177.048C203.271 176.591 203.164 176.094 203.164 175.556C203.164 174.831 203.406 174.239 203.89 173.782C204.373 173.325 204.992 173.097 205.744 173.097C206.632 173.097 207.344 173.433 207.882 174.105C208.419 174.75 208.688 175.651 208.688 176.806C208.688 178.043 208.312 179.145 207.559 180.113C206.833 181.081 205.812 181.847 204.494 182.411C203.177 182.949 201.672 183.218 199.978 183.218C198.123 183.218 196.497 182.895 195.099 182.25C193.728 181.578 192.666 180.651 191.914 179.468C191.161 178.258 190.785 176.833 190.785 175.194C190.785 173.392 191.228 171.699 192.115 170.113C193.002 168.5 194.226 167.075 195.785 165.839C197.344 164.602 199.132 163.634 201.148 162.935C203.191 162.237 205.368 161.887 207.68 161.887C210.153 161.887 212.304 162.304 214.132 163.137C215.986 163.97 217.411 165.153 218.406 166.685C219.427 168.218 219.938 170.019 219.938 172.089C219.938 174.266 219.387 176.444 218.285 178.621C217.209 180.798 215.731 182.868 213.849 184.831C211.994 186.766 209.857 188.5 207.438 190.032C205.019 191.538 202.451 192.734 199.736 193.621C197.048 194.508 194.347 194.952 191.632 194.952C189.266 194.952 187.451 194.575 186.188 193.823C184.925 193.097 184.293 192.022 184.293 190.597C184.293 189.226 184.857 188.124 185.986 187.29C187.115 186.43 188.607 186 190.462 186C191.914 186 193.231 186.282 194.414 186.847C195.623 187.384 196.739 188.083 197.761 188.944C198.809 189.804 199.804 190.718 200.744 191.685C201.712 192.653 202.693 193.567 203.688 194.427C204.683 195.288 205.731 195.987 206.833 196.524C207.935 197.089 209.145 197.371 210.462 197.371C211.376 197.371 212.102 197.237 212.64 196.968C213.177 196.726 213.446 196.376 213.446 195.919C213.446 195.651 213.325 195.368 213.083 195.073C212.868 194.777 212.613 194.454 212.317 194.105C212.048 193.782 211.793 193.433 211.551 193.056C211.336 192.68 211.228 192.263 211.228 191.806C211.228 191.108 211.47 190.543 211.954 190.113C212.438 189.656 213.07 189.427 213.849 189.427C214.79 189.427 215.556 189.763 216.148 190.435C216.766 191.081 217.075 191.914 217.075 192.935C217.075 193.93 216.779 194.884 216.188 195.798C215.623 196.712 214.844 197.532 213.849 198.258C212.855 198.984 211.739 199.562 210.502 199.992C209.266 200.422 207.976 200.637 206.632 200.637ZM232.47 191.565C231.072 191.565 229.943 191.228 229.083 190.556C228.25 189.884 227.712 188.944 227.47 187.734C227.228 186.524 227.336 185.099 227.793 183.46L230.01 175.597C230.333 174.468 230.387 173.608 230.172 173.016C229.957 172.398 229.473 172.089 228.72 172.089C228.129 172.089 227.578 172.317 227.067 172.774C226.556 173.204 226.059 173.863 225.575 174.75L224.849 176.161H223.277L224.164 174.427C224.728 173.406 225.333 172.546 225.978 171.847C226.65 171.121 227.389 170.57 228.196 170.194C229.029 169.817 229.957 169.629 230.978 169.629C232.322 169.629 233.384 169.925 234.164 170.516C234.943 171.108 235.427 171.954 235.615 173.056C235.83 174.132 235.723 175.409 235.293 176.887L233.196 184.468C232.793 185.973 232.739 187.116 233.035 187.895C233.357 188.675 234.016 189.065 235.01 189.065C235.844 189.065 236.596 188.809 237.268 188.298C237.967 187.788 238.586 187.035 239.123 186.04L239.486 186.887C238.626 188.446 237.605 189.616 236.422 190.395C235.266 191.175 233.949 191.565 232.47 191.565ZM243.518 191.565C242.174 191.565 241.113 191.269 240.333 190.677C239.553 190.059 239.056 189.212 238.841 188.137C238.653 187.035 238.76 185.758 239.164 184.306L243.115 170.153H248.801L244.486 185.597C244.164 186.699 244.11 187.559 244.325 188.177C244.567 188.769 245.051 189.065 245.777 189.065C246.341 189.065 246.879 188.849 247.389 188.419C247.927 187.989 248.424 187.331 248.881 186.444L249.648 185.032H251.22L250.293 186.726C249.755 187.747 249.15 188.621 248.478 189.347C247.833 190.073 247.094 190.624 246.26 191C245.454 191.376 244.54 191.565 243.518 191.565ZM260.423 191.565C259.079 191.565 257.991 191.255 257.157 190.637C256.351 189.992 255.84 189.118 255.625 188.016C255.437 186.914 255.598 185.664 256.109 184.266L259.173 175.597C259.55 174.548 259.617 173.702 259.375 173.056C259.16 172.411 258.676 172.089 257.923 172.089C257.332 172.089 256.768 172.304 256.23 172.734C255.719 173.164 255.235 173.836 254.778 174.75L254.012 176.161H252.44L253.367 174.427C254.254 172.761 255.235 171.538 256.311 170.758C257.413 169.978 258.69 169.589 260.141 169.589C261.512 169.589 262.601 169.911 263.407 170.556C264.214 171.175 264.724 172.035 264.94 173.137C265.155 174.212 264.993 175.462 264.456 176.887L261.391 185.556C261.015 186.605 260.948 187.452 261.19 188.097C261.431 188.742 261.915 189.065 262.641 189.065C263.824 189.065 264.886 188.191 265.827 186.444L266.552 185.032H268.125L267.238 186.726C266.351 188.419 265.356 189.656 264.254 190.435C263.152 191.188 261.875 191.565 260.423 191.565ZM263.407 166.04C262.466 166.04 261.687 165.772 261.069 165.234C260.477 164.669 260.181 163.944 260.181 163.056C260.181 162.089 260.544 161.282 261.27 160.637C261.996 159.965 262.87 159.629 263.891 159.629C264.832 159.629 265.598 159.911 266.19 160.476C266.808 161.013 267.117 161.726 267.117 162.613C267.117 163.581 266.754 164.401 266.028 165.073C265.329 165.718 264.456 166.04 263.407 166.04ZM270.126 191.565L269.118 190.597L285.166 174.992L285.327 175.637C284.225 175.503 283.136 175.382 282.061 175.274C281.013 175.167 280.045 175.073 279.158 174.992C278.271 174.911 277.505 174.871 276.86 174.871C276.134 174.871 275.529 174.938 275.045 175.073C274.561 175.207 274.131 175.462 273.755 175.839C273.405 176.215 273.029 176.766 272.626 177.492H271.053L272.989 173.702C273.741 172.223 274.494 171.175 275.247 170.556C275.999 169.911 276.86 169.589 277.827 169.589C278.419 169.589 278.97 169.723 279.481 169.992C279.991 170.261 280.475 170.597 280.932 171C281.416 171.376 281.873 171.766 282.303 172.169C282.76 172.573 283.217 172.909 283.674 173.177C284.131 173.419 284.628 173.54 285.166 173.54C285.435 173.54 285.704 173.5 285.972 173.419C286.241 173.339 286.564 173.164 286.94 172.895C287.343 172.626 287.841 172.237 288.432 171.726C289.05 171.188 289.83 170.476 290.771 169.589L291.779 170.556L275.69 186.242L275.529 185.516C276.685 185.651 277.787 185.785 278.835 185.919C279.911 186.027 280.905 186.121 281.819 186.202C282.733 186.255 283.499 186.282 284.118 186.282C284.843 186.282 285.448 186.215 285.932 186.081C286.416 185.946 286.833 185.691 287.182 185.315C287.532 184.938 287.908 184.401 288.311 183.702H289.884L287.948 187.452C287.196 188.93 286.443 189.992 285.69 190.637C284.938 191.255 284.077 191.565 283.11 191.565C282.518 191.565 281.954 191.43 281.416 191.161C280.905 190.892 280.421 190.57 279.964 190.194C279.507 189.79 279.05 189.401 278.593 189.024C278.163 188.621 277.706 188.285 277.222 188.016C276.766 187.747 276.282 187.613 275.771 187.613C275.475 187.613 275.193 187.653 274.924 187.734C274.655 187.815 274.319 187.989 273.916 188.258C273.54 188.527 273.042 188.93 272.424 189.468C271.833 189.978 271.067 190.677 270.126 191.565Z" fill="#3E3636"/>
</svg>
