<svg width="291" height="212" viewBox="0 0 291 212" fill="none" xmlns="http://www.w3.org/2000/svg">
<path d="M212.875 1.90893L204.014 0L197.946 28.1682L206.807 30.0771L212.875 1.90893Z" fill="#F9872B" fill-opacity="0.85"/>
<path d="M167.7 30.4371L158.924 3.00586L150.292 5.76772L159.068 33.199L167.7 30.4371Z" fill="#F9872B" fill-opacity="0.85"/>
<path d="M134.001 50.3955L112.755 31.043L106.651 37.7441L127.897 57.0967L134.001 50.3955Z" fill="#F9872B" fill-opacity="0.85"/>
<path d="M269.147 169.387L247.903 150.025L241.796 156.726L263.04 176.088L269.147 169.387Z" fill="#F9872B" fill-opacity="0.85"/>
<path d="M291.001 119.771L262.967 113.668L261.039 122.525L289.073 128.627L291.001 119.771Z" fill="#F9872B" fill-opacity="0.85"/>
<path d="M288.005 74.4563L285.228 65.8281L257.906 74.6225L260.684 83.2507L288.005 74.4563Z" fill="#F9872B" fill-opacity="0.85"/>
<path d="M260.131 28.0646L253.404 21.9922L234.133 43.34L240.86 49.4124L260.131 28.0646Z" fill="#F9872B" fill-opacity="0.85"/>
<path d="M214.809 162.908L211.035 154.667C230.911 145.557 243.756 125.499 243.756 103.562C243.756 72.614 218.692 47.4334 187.884 47.4334C170.038 47.4334 153.687 55.7019 143.016 70.1155L135.731 64.7229C147.947 48.22 167.441 38.3691 187.884 38.3691C223.691 38.3691 252.82 67.6147 252.82 103.56C252.818 129.027 237.902 152.325 214.809 162.908Z" fill="#F9872B" fill-opacity="0.85"/>
<path d="M214.763 211.889H42.0518C18.8627 211.889 0 192.949 0 169.664C0 149.537 14.0658 132.443 33.3082 128.372C35.1042 93.4244 63.9951 65.543 99.2493 65.543C130.425 65.543 157.352 87.7318 163.795 117.903C166.361 117.464 168.928 117.239 171.47 117.239C197.075 117.239 217.907 138.154 217.907 163.862C217.907 164.213 217.902 164.565 217.893 164.922C228.456 167.354 236.188 176.76 236.192 188.081C236.192 200.433 226.778 210.613 214.776 211.78L214.763 211.889ZM207.456 202.429L211.246 202.759C211.657 202.795 212.064 202.827 212.478 202.827C220.558 202.827 227.13 196.213 227.13 188.084C227.126 180.077 220.89 173.618 212.93 173.379L207.988 173.234L208.565 168.325C208.752 166.722 208.843 165.263 208.843 163.865C208.843 143.156 192.078 126.305 171.472 126.305C168.148 126.305 164.754 126.785 161.38 127.733L156.367 129.138L155.662 123.979C151.82 95.832 127.567 74.6072 99.2516 74.6072C67.8395 74.6072 42.2837 100.274 42.2837 131.823L42.2951 136.281L38.2779 136.74C21.6227 138.645 9.06421 152.8 9.06421 169.664C9.06421 187.947 23.862 202.825 42.0518 202.825H207.351L207.456 202.429Z" fill="#F9872B" fill-opacity="0.85"/>
<path d="M63.4246 134.723L54.3604 134.691C54.4558 108.271 75.9444 86.7734 102.264 86.7734V95.8376C80.9255 95.8399 63.5019 113.284 63.4246 134.723Z" fill="#F9872B" fill-opacity="0.85"/>
</svg>
