<svg width="463" height="258" viewBox="0 0 463 258" fill="none" xmlns="http://www.w3.org/2000/svg">
<rect width="463" height="258" fill="#B8B8B8"/>
<path d="M103.148 113.339L100.535 84.7903C100.406 83.2419 100.019 82.1774 99.3736 81.5968C98.7284 80.9839 97.68 80.6613 96.2284 80.629L96.7606 78.7419C97.5026 78.7742 98.4865 78.8065 99.7123 78.8387C100.938 78.871 102.341 78.8871 103.922 78.8871C105.825 78.8871 107.47 78.871 108.857 78.8387C110.277 78.8065 111.374 78.7742 112.148 78.7419L111.615 80.629C110.035 80.6613 108.825 80.8065 107.986 81.0645C107.18 81.2903 106.648 81.6935 106.39 82.2742C106.164 82.8226 106.083 83.629 106.148 84.6935L108.035 106.661L106.632 107.387L118.486 88.2258C119.615 86.4194 120.309 84.9677 120.567 83.871C120.825 82.7742 120.583 81.9839 119.841 81.5C119.132 80.9839 117.857 80.6936 116.019 80.629L116.551 78.7419C117.874 78.7742 119.196 78.8065 120.519 78.8387C121.874 78.871 123.196 78.8871 124.486 78.8871C125.486 78.8871 126.454 78.871 127.39 78.8387C128.357 78.8065 129.357 78.7742 130.39 78.7419L129.857 80.629C128.728 80.6936 127.696 80.9194 126.761 81.3065C125.857 81.6935 124.986 82.3065 124.148 83.1452C123.309 83.9839 122.438 85.1129 121.535 86.5323L104.938 113.339H103.148ZM85.2929 113.339L82.6316 84.7903C82.5026 83.2419 82.051 82.1774 81.2768 81.5968C80.5348 80.9839 79.309 80.6613 77.5994 80.629L78.1316 78.7419C78.9381 78.7742 79.9865 78.8065 81.2768 78.8387C82.5994 78.871 84.0832 78.8871 85.7284 78.8871C87.5348 78.8871 89.0994 78.871 90.4219 78.8387C91.7768 78.8065 92.8252 78.7742 93.5671 78.7419L93.0348 80.629C91.6155 80.6613 90.5348 80.8065 89.7929 81.0645C89.0832 81.2903 88.6155 81.6935 88.3897 82.2742C88.1961 82.8226 88.1477 83.629 88.2445 84.6935L90.18 106.903L88.6316 107.629L102.761 84.7903L103.148 87.3548L87.0348 113.339H85.2929ZM132.191 113.677C129.578 113.677 127.546 112.871 126.095 111.258C124.643 109.613 123.917 107.323 123.917 104.387C123.917 102.129 124.32 99.9839 125.127 97.9516C125.933 95.9194 127.014 94.1129 128.369 92.5323C129.756 90.9194 131.337 89.6613 133.111 88.7581C134.917 87.8548 136.804 87.4032 138.772 87.4032C140.611 87.4032 142.014 87.8065 142.982 88.6129C143.982 89.4194 144.482 90.5806 144.482 92.0968C144.482 93.8387 143.82 95.5 142.498 97.0806C141.207 98.629 139.369 100.016 136.982 101.242C134.627 102.435 131.837 103.387 128.611 104.097L128.659 102.548C131.046 101.839 133.078 100.952 134.756 99.8871C136.433 98.8226 137.707 97.629 138.578 96.3065C139.449 94.9839 139.885 93.5806 139.885 92.0968C139.885 91.129 139.707 90.4032 139.353 89.9194C138.998 89.4355 138.482 89.1935 137.804 89.1935C136.804 89.1935 135.788 89.6452 134.756 90.5484C133.756 91.4194 132.837 92.5806 131.998 94.0323C131.191 95.4516 130.53 97.0323 130.014 98.7742C129.53 100.484 129.288 102.194 129.288 103.903C129.288 106.161 129.707 107.903 130.546 109.129C131.417 110.323 132.643 110.919 134.224 110.919C135.546 110.919 136.74 110.532 137.804 109.758C138.869 108.984 139.837 107.806 140.707 106.226H142.498C141.337 108.677 139.885 110.532 138.143 111.79C136.401 113.048 134.417 113.677 132.191 113.677ZM156.498 113.677C154.304 113.677 152.546 112.855 151.224 111.21C149.933 109.532 149.288 107.274 149.288 104.435C149.288 102.21 149.659 100.081 150.401 98.0484C151.175 96.0161 152.208 94.2097 153.498 92.629C154.821 91.0161 156.304 89.7419 157.95 88.8065C159.627 87.871 161.369 87.4032 163.175 87.4032C164.691 87.4032 166.127 87.7581 167.482 88.4677C168.837 89.1452 170.062 90.1452 171.159 91.4677L167.53 94.0323C167.304 92.5161 166.821 91.3548 166.079 90.5484C165.369 89.7097 164.482 89.2903 163.417 89.2903C162.288 89.2903 161.191 89.6935 160.127 90.5C159.095 91.3065 158.159 92.4032 157.321 93.7903C156.482 95.1774 155.821 96.7419 155.337 98.4839C154.885 100.226 154.659 102.048 154.659 103.952C154.659 106.113 155.014 107.774 155.724 108.935C156.466 110.065 157.514 110.629 158.869 110.629C159.869 110.629 160.788 110.323 161.627 109.71C162.498 109.065 163.272 108.113 163.95 106.855L164.095 108.065C163.224 109.871 162.143 111.258 160.853 112.226C159.595 113.194 158.143 113.677 156.498 113.677ZM168.353 113.677C166.288 113.677 164.837 112.952 163.998 111.5C163.191 110.016 163.143 108.016 163.853 105.5L167.869 91.129C169.062 90.6774 170.191 90.129 171.256 89.4839C172.353 88.8387 173.353 88.0968 174.256 87.2581L175.321 88.7097C174.772 89.1613 174.321 89.6129 173.966 90.0645C173.643 90.5161 173.353 91.0161 173.095 91.5645C172.869 92.1129 172.643 92.7903 172.417 93.5968L168.837 106.468C168.45 107.855 168.385 108.935 168.643 109.71C168.933 110.452 169.514 110.823 170.385 110.823C170.901 110.823 171.385 110.677 171.837 110.387C172.288 110.097 172.708 109.71 173.095 109.226C173.482 108.742 173.837 108.194 174.159 107.581L175.079 105.839H176.966L175.708 108.21C175.159 109.274 174.53 110.226 173.821 111.065C173.111 111.871 172.304 112.516 171.401 113C170.53 113.452 169.514 113.677 168.353 113.677ZM187.57 113.677C185.345 113.677 183.748 112.935 182.78 111.452C181.812 109.935 181.683 107.952 182.393 105.5L189.264 80.8226C190.264 80.7903 191.216 80.7097 192.119 80.5806C193.022 80.4516 193.893 80.2742 194.732 80.0484L187.328 106.516C186.941 107.935 186.909 109.016 187.232 109.758C187.587 110.468 188.28 110.823 189.312 110.823C190.151 110.823 190.909 110.548 191.587 110C192.296 109.452 192.941 108.629 193.522 107.532L194.441 105.839H196.28L194.828 108.645C194.312 109.581 193.716 110.435 193.038 111.21C192.361 111.952 191.57 112.548 190.667 113C189.796 113.452 188.764 113.677 187.57 113.677ZM181.28 89.9194L181.764 88.0806H200.006L199.474 89.9194H181.28ZM200.449 113L208.868 82.8548C209.19 81.7258 209.271 80.8387 209.11 80.1935C208.981 79.5484 208.529 79.0968 207.755 78.8387C207.013 78.5484 205.852 78.4032 204.271 78.4032L204.803 76.5161C207.223 76.4839 209.368 76.3065 211.239 75.9839C213.142 75.629 214.868 75.1452 216.416 74.5323L205.674 113H200.449ZM220.965 113.677C219.513 113.677 218.368 113.339 217.529 112.661C216.723 111.952 216.223 110.984 216.029 109.758C215.868 108.5 216.013 107.081 216.465 105.5L218.932 96.6452C219.513 94.5806 219.578 93 219.126 91.9032C218.707 90.8065 217.771 90.2581 216.319 90.2581C215.223 90.2581 214.207 90.5968 213.271 91.2742C212.336 91.9516 211.481 92.9516 210.707 94.2742L210.61 93.0645C211.674 91.1613 212.884 89.7419 214.239 88.8065C215.626 87.871 217.158 87.4032 218.836 87.4032C221.223 87.4032 222.9 88.2742 223.868 90.0161C224.836 91.7581 224.916 94.0645 224.11 96.9355L221.449 106.468C221.061 107.823 220.981 108.887 221.207 109.661C221.465 110.435 222.029 110.823 222.9 110.823C223.642 110.823 224.319 110.548 224.932 110C225.578 109.452 226.19 108.645 226.771 107.581L227.69 105.839H229.578L228.465 107.919C227.852 109.081 227.174 110.097 226.432 110.968C225.69 111.839 224.868 112.516 223.965 113C223.094 113.452 222.094 113.677 220.965 113.677ZM241.41 113.677C238.797 113.677 236.765 112.871 235.313 111.258C233.862 109.613 233.136 107.323 233.136 104.387C233.136 102.129 233.539 99.9839 234.346 97.9516C235.152 95.9194 236.233 94.1129 237.588 92.5323C238.975 90.9194 240.555 89.6613 242.329 88.7581C244.136 87.8548 246.023 87.4032 247.991 87.4032C249.829 87.4032 251.233 87.8065 252.2 88.6129C253.2 89.4194 253.7 90.5806 253.7 92.0968C253.7 93.8387 253.039 95.5 251.717 97.0806C250.426 98.629 248.588 100.016 246.2 101.242C243.846 102.435 241.055 103.387 237.829 104.097L237.878 102.548C240.265 101.839 242.297 100.952 243.975 99.8871C245.652 98.8226 246.926 97.629 247.797 96.3065C248.668 94.9839 249.104 93.5806 249.104 92.0968C249.104 91.129 248.926 90.4032 248.571 89.9194C248.217 89.4355 247.7 89.1935 247.023 89.1935C246.023 89.1935 245.007 89.6452 243.975 90.5484C242.975 91.4194 242.055 92.5806 241.217 94.0323C240.41 95.4516 239.749 97.0323 239.233 98.7742C238.749 100.484 238.507 102.194 238.507 103.903C238.507 106.161 238.926 107.903 239.765 109.129C240.636 110.323 241.862 110.919 243.442 110.919C244.765 110.919 245.958 110.532 247.023 109.758C248.088 108.984 249.055 107.806 249.926 106.226H251.717C250.555 108.677 249.104 110.532 247.362 111.79C245.62 113.048 243.636 113.677 241.41 113.677ZM260.196 113L265.373 94.5645C265.76 93.2097 265.825 92.1613 265.567 91.4194C265.309 90.6452 264.744 90.2581 263.873 90.2581C263.163 90.2581 262.486 90.5323 261.841 91.0806C261.228 91.629 260.631 92.4355 260.05 93.5L259.131 95.2419H257.244L258.357 93.1613C258.97 92 259.631 90.9839 260.341 90.1129C261.083 89.2419 261.905 88.5806 262.809 88.129C263.744 87.6452 264.76 87.4032 265.857 87.4032C267.309 87.4032 268.438 87.7581 269.244 88.4677C270.05 89.1452 270.55 90.0968 270.744 91.3226C270.938 92.5484 270.809 93.9677 270.357 95.5806L265.47 113H260.196ZM277.567 96.9839C276.954 96.9839 276.47 96.8065 276.115 96.4516C275.792 96.0968 275.631 95.6452 275.631 95.0968C275.631 94.5484 275.76 94.0323 276.018 93.5484C276.276 93.0645 276.518 92.5968 276.744 92.1452C277.002 91.6935 277.131 91.2903 277.131 90.9355C277.131 90.3548 276.712 90.0645 275.873 90.0645C274.938 90.0645 273.954 90.4355 272.921 91.1774C271.889 91.9194 271.018 92.9194 270.309 94.1774L270.212 92.8226C271.147 91.0806 272.276 89.7419 273.599 88.8065C274.921 87.871 276.341 87.4032 277.857 87.4032C279.115 87.4032 280.083 87.7258 280.76 88.371C281.47 89.0161 281.825 89.9516 281.825 91.1774C281.825 92.1452 281.615 93.0806 281.196 93.9839C280.809 94.8871 280.292 95.6129 279.647 96.1613C279.002 96.7097 278.309 96.9839 277.567 96.9839ZM292.501 113L293.033 111.113C294.13 111.048 295.13 110.823 296.033 110.435C296.937 110.016 297.808 109.387 298.646 108.548C299.485 107.71 300.388 106.597 301.356 105.21L319.84 78.4032H321.63L325.792 107C325.953 108 326.211 108.806 326.566 109.419C326.921 110 327.437 110.419 328.114 110.677C328.824 110.935 329.743 111.081 330.872 111.113L330.388 113C329.582 112.935 328.517 112.903 327.195 112.903C325.872 112.871 324.372 112.855 322.695 112.855C320.695 112.855 318.953 112.871 317.469 112.903C316.017 112.903 314.872 112.935 314.033 113L314.566 111.113C316.243 111.081 317.501 110.952 318.34 110.726C319.211 110.468 319.775 110.065 320.033 109.516C320.324 108.935 320.388 108.113 320.227 107.048L316.985 84.7419L318.34 83.5806L304.598 103.516C303.372 105.29 302.614 106.726 302.324 107.823C302.066 108.919 302.292 109.726 303.001 110.242C303.743 110.758 305.033 111.048 306.872 111.113L306.34 113C305.017 112.935 303.679 112.903 302.324 112.903C301.001 112.871 299.695 112.855 298.404 112.855C297.437 112.855 296.469 112.871 295.501 112.903C294.533 112.903 293.533 112.935 292.501 113ZM305.711 100.952L306.921 99.0645H321.388L321.679 100.952H305.711ZM333.236 113L333.768 111.113C335.445 111.016 336.703 110.871 337.542 110.677C338.413 110.452 339.042 110.065 339.429 109.516C339.848 108.935 340.203 108.081 340.494 106.952L346.687 84.7903C347.01 83.629 347.123 82.7742 347.026 82.2258C346.929 81.6452 346.51 81.2419 345.768 81.0161C345.026 80.7903 343.865 80.6613 342.284 80.629L342.816 78.7419C343.397 78.7742 344.058 78.7903 344.8 78.7903C345.542 78.7903 346.397 78.8065 347.365 78.8387C348.332 78.8387 349.429 78.8387 350.655 78.8387C351.848 78.8387 352.897 78.8387 353.8 78.8387C354.736 78.8065 355.526 78.7903 356.171 78.7903C356.816 78.7581 357.332 78.7419 357.719 78.7419C361.268 78.7419 364.058 79.5645 366.09 81.2097C368.123 82.8548 369.139 85.1129 369.139 87.9839C369.139 90.3065 368.445 92.4194 367.058 94.3226C365.703 96.1935 363.832 97.6774 361.445 98.7742C359.09 99.871 356.413 100.419 353.413 100.419C352.284 100.419 351.171 100.339 350.074 100.177C349.01 99.9839 348.074 99.7258 347.268 99.4032L347.752 97.5161C348.268 97.7742 348.961 97.9839 349.832 98.1452C350.736 98.3065 351.671 98.3871 352.639 98.3871C354.768 98.3871 356.623 97.9516 358.203 97.0806C359.784 96.2097 361.01 94.9839 361.881 93.4032C362.752 91.8226 363.187 89.9839 363.187 87.8871C363.187 85.5645 362.623 83.7742 361.494 82.5161C360.365 81.2581 358.752 80.629 356.655 80.629H353.51L346.155 106.952C345.832 108.081 345.752 108.919 345.913 109.468C346.074 110.016 346.639 110.403 347.607 110.629C348.574 110.855 350.139 111.016 352.3 111.113L351.768 113C350.671 112.935 349.268 112.903 347.558 112.903C345.848 112.871 343.913 112.855 341.752 112.855C339.978 112.855 338.365 112.871 336.913 112.903C335.494 112.903 334.268 112.935 333.236 113ZM367.161 113L367.694 111.113C369.371 111.016 370.629 110.871 371.468 110.677C372.339 110.452 372.968 110.065 373.355 109.516C373.774 108.935 374.145 108.081 374.468 106.952L380.613 84.7903C380.936 83.629 381.048 82.7742 380.952 82.2258C380.855 81.6774 380.436 81.2903 379.694 81.0645C378.984 80.8065 377.823 80.6613 376.21 80.629L376.742 78.7419C377.71 78.7742 378.903 78.8065 380.323 78.8387C381.742 78.871 383.307 78.8871 385.016 78.8871C386.726 78.8871 388.307 78.871 389.758 78.8387C391.242 78.8065 392.5 78.7742 393.532 78.7419L393 80.629C391.355 80.6936 390.097 80.8387 389.226 81.0645C388.387 81.2903 387.758 81.6774 387.339 82.2258C386.952 82.7742 386.597 83.629 386.274 84.7903L380.081 106.952C379.758 108.081 379.645 108.935 379.742 109.516C379.871 110.097 380.29 110.5 381 110.726C381.742 110.919 382.903 111.048 384.484 111.113L383.952 113C383.016 112.935 381.823 112.903 380.371 112.903C378.919 112.871 377.355 112.855 375.677 112.855C373.936 112.855 372.323 112.871 370.839 112.903C369.387 112.903 368.161 112.935 367.161 113ZM144.154 185L144.686 183.113C146.395 183.016 147.67 182.855 148.508 182.629C149.379 182.403 150.008 182.016 150.395 181.468C150.783 180.887 151.137 180.048 151.46 178.952L157.605 156.79C157.928 155.629 158.041 154.774 157.944 154.226C157.847 153.677 157.428 153.29 156.686 153.065C155.976 152.806 154.815 152.661 153.202 152.629L153.734 150.742C154.089 150.774 154.525 150.806 155.041 150.839C155.557 150.839 156.121 150.839 156.734 150.839C157.379 150.839 158.089 150.839 158.863 150.839C159.637 150.839 160.476 150.839 161.379 150.839C162.315 150.839 163.105 150.839 163.75 150.839C164.428 150.839 165.025 150.839 165.541 150.839C166.057 150.806 166.525 150.79 166.944 150.79C167.363 150.758 167.766 150.742 168.154 150.742C171.67 150.742 174.347 151.371 176.186 152.629C178.025 153.855 178.944 155.645 178.944 158C178.944 160.452 177.912 162.484 175.847 164.097C173.815 165.677 170.912 166.694 167.137 167.145V167.242C170.234 167.468 172.621 168.274 174.299 169.661C176.008 171.048 176.863 172.871 176.863 175.129C176.863 177.161 176.218 178.919 174.928 180.403C173.67 181.887 171.863 183.032 169.508 183.839C167.186 184.613 164.395 185 161.137 185C160.654 185 160.121 185 159.541 185C158.992 184.968 158.379 184.952 157.702 184.952C157.025 184.919 156.25 184.903 155.379 184.903C154.541 184.871 153.557 184.855 152.428 184.855C150.589 184.855 148.976 184.871 147.589 184.903C146.202 184.903 145.057 184.935 144.154 185ZM160.266 183.065C162.492 183.065 164.395 182.726 165.976 182.048C167.589 181.339 168.815 180.355 169.654 179.097C170.525 177.839 170.96 176.355 170.96 174.645C170.96 172.484 170.266 170.855 168.879 169.758C167.492 168.661 165.46 168.113 162.783 168.113H159.492L159.976 166.323H163.605C165.476 166.323 167.121 165.968 168.541 165.258C169.992 164.548 171.121 163.581 171.928 162.355C172.766 161.097 173.186 159.661 173.186 158.048C173.186 156.306 172.686 154.968 171.686 154.032C170.686 153.097 169.234 152.629 167.331 152.629H164.379L157.073 178.952C156.783 180.081 156.654 180.952 156.686 181.565C156.75 182.145 157.073 182.548 157.654 182.774C158.234 182.968 159.105 183.065 160.266 183.065ZM193.162 185.677C191.581 185.677 190.291 185.29 189.291 184.516C188.323 183.71 187.71 182.597 187.452 181.177C187.194 179.726 187.339 178.048 187.888 176.145L190.549 166.613C190.936 165.226 191 164.161 190.742 163.419C190.484 162.645 189.92 162.258 189.049 162.258C188.339 162.258 187.662 162.532 187.017 163.081C186.371 163.629 185.775 164.435 185.226 165.5L184.307 167.29H182.42L183.484 165.21C184.129 164.016 184.807 163 185.517 162.161C186.259 161.29 187.081 160.613 187.984 160.129C188.888 159.645 189.904 159.403 191.033 159.403C192.484 159.403 193.613 159.758 194.42 160.468C195.226 161.145 195.726 162.097 195.92 163.323C196.113 164.548 195.968 165.968 195.484 167.581L193.017 176.435C192.436 178.5 192.371 180.081 192.823 181.177C193.275 182.274 194.21 182.823 195.629 182.823C196.759 182.823 197.791 182.484 198.726 181.806C199.662 181.097 200.517 180.065 201.291 178.71L201.484 179.871C200.42 181.806 199.194 183.258 197.807 184.226C196.42 185.194 194.871 185.677 193.162 185.677ZM205.646 185.677C204.194 185.677 203.065 185.339 202.259 184.661C201.452 183.952 200.952 182.984 200.759 181.758C200.597 180.5 200.742 179.081 201.194 177.5L206.081 160.081H211.307L206.129 178.468C205.742 179.855 205.678 180.935 205.936 181.71C206.194 182.452 206.759 182.823 207.629 182.823C208.339 182.823 209.017 182.565 209.662 182.048C210.307 181.5 210.904 180.677 211.452 179.581L212.371 177.839H214.259L213.194 179.919C212.581 181.081 211.904 182.097 211.162 182.968C210.42 183.839 209.597 184.516 208.694 185C207.823 185.452 206.807 185.677 205.646 185.677ZM224.777 185.677C222.552 185.677 220.955 184.935 219.987 183.452C219.019 181.935 218.89 179.952 219.6 177.5L226.471 152.823C227.471 152.79 228.423 152.71 229.326 152.581C230.229 152.452 231.1 152.274 231.939 152.048L224.535 178.516C224.148 179.935 224.116 181.016 224.439 181.758C224.794 182.468 225.487 182.823 226.519 182.823C227.358 182.823 228.116 182.548 228.794 182C229.503 181.452 230.148 180.629 230.729 179.532L231.648 177.839H233.487L232.035 180.645C231.519 181.581 230.923 182.435 230.245 183.21C229.568 183.952 228.777 184.548 227.874 185C227.003 185.452 225.971 185.677 224.777 185.677ZM218.487 161.919L218.971 160.081H237.213L236.681 161.919H218.487ZM244.758 185.677C242.532 185.677 240.935 184.935 239.968 183.452C239 181.935 238.871 179.952 239.58 177.5L246.451 152.823C247.451 152.79 248.403 152.71 249.306 152.581C250.209 152.452 251.08 152.274 251.919 152.048L244.516 178.516C244.129 179.935 244.097 181.016 244.419 181.758C244.774 182.468 245.468 182.823 246.5 182.823C247.339 182.823 248.097 182.548 248.774 182C249.484 181.452 250.129 180.629 250.709 179.532L251.629 177.839H253.468L252.016 180.645C251.5 181.581 250.903 182.435 250.226 183.21C249.548 183.952 248.758 184.548 247.855 185C246.984 185.452 245.951 185.677 244.758 185.677ZM238.468 161.919L238.951 160.081H257.193L256.661 161.919H238.468ZM267.092 185.677C264.447 185.677 262.382 184.839 260.898 183.161C259.447 181.484 258.721 179.129 258.721 176.097C258.721 173.871 259.092 171.758 259.834 169.758C260.608 167.726 261.656 165.935 262.979 164.387C264.334 162.839 265.866 161.629 267.576 160.758C269.285 159.855 271.108 159.403 273.044 159.403C275.689 159.403 277.753 160.258 279.237 161.968C280.721 163.645 281.463 165.984 281.463 168.984C281.463 171.21 281.076 173.339 280.302 175.371C279.56 177.371 278.511 179.145 277.156 180.694C275.834 182.242 274.302 183.468 272.56 184.371C270.85 185.242 269.027 185.677 267.092 185.677ZM267.431 183.79C268.302 183.79 269.156 183.5 269.995 182.919C270.866 182.306 271.673 181.484 272.415 180.452C273.156 179.387 273.818 178.177 274.398 176.823C274.979 175.435 275.431 173.968 275.753 172.419C276.076 170.839 276.237 169.258 276.237 167.677C276.237 165.548 275.931 163.952 275.318 162.887C274.737 161.79 273.882 161.242 272.753 161.242C271.882 161.242 271.011 161.548 270.14 162.161C269.302 162.774 268.511 163.613 267.769 164.677C267.027 165.71 266.366 166.919 265.785 168.306C265.205 169.661 264.753 171.129 264.431 172.71C264.108 174.258 263.947 175.823 263.947 177.403C263.947 179.532 264.237 181.129 264.818 182.194C265.431 183.258 266.302 183.79 267.431 183.79ZM308.592 185.677C307.141 185.677 305.995 185.339 305.157 184.661C304.35 183.952 303.85 182.984 303.657 181.758C303.495 180.5 303.641 179.081 304.092 177.5L306.56 168.645C307.141 166.581 307.205 165 306.753 163.903C306.302 162.806 305.366 162.258 303.947 162.258C302.818 162.258 301.753 162.613 300.753 163.323C299.786 164 298.899 165.016 298.092 166.371L297.899 165.21C298.995 163.242 300.253 161.79 301.673 160.855C303.092 159.887 304.657 159.403 306.366 159.403C308.786 159.403 310.479 160.274 311.447 162.016C312.447 163.726 312.544 166.032 311.737 168.935L309.028 178.468C308.673 179.823 308.608 180.887 308.834 181.661C309.092 182.435 309.657 182.823 310.528 182.823C311.27 182.823 311.947 182.548 312.56 182C313.205 181.452 313.818 180.645 314.399 179.581L315.318 177.839H317.157L316.092 179.919C315.479 181.081 314.802 182.097 314.06 182.968C313.318 183.839 312.495 184.516 311.592 185C310.721 185.452 309.721 185.677 308.592 185.677ZM288.028 185L293.205 166.565C293.592 165.242 293.657 164.194 293.399 163.419C293.173 162.645 292.608 162.258 291.705 162.258C290.995 162.258 290.318 162.532 289.673 163.081C289.06 163.629 288.463 164.435 287.882 165.5L286.963 167.242H285.076L286.189 165.161C286.802 164 287.463 162.984 288.173 162.113C288.915 161.242 289.737 160.581 290.641 160.129C291.576 159.645 292.592 159.403 293.689 159.403C295.141 159.403 296.27 159.758 297.076 160.468C297.882 161.145 298.382 162.097 298.576 163.323C298.77 164.548 298.641 165.968 298.189 167.581L293.302 185H288.028Z" fill="#696969"/>
</svg>
